<?xml version="1.0" encoding="utf-8"?>
<!-- Generator: Adobe Illustrator 19.0.0, SVG Export Plug-In . SVG Version: 6.00 Build 0)  -->
<svg version="1.1" id="Layer_1" xmlns="http://www.w3.org/2000/svg" xmlns:xlink="http://www.w3.org/1999/xlink" x="0px" y="0px"
	 width="712.8px" height="279.6px" viewBox="-170.3 562.5 712.8 279.6" style="enable-background:new -170.3 562.5 712.8 279.6;"
	 xml:space="preserve">
<style type="text/css">
	.st0{fill:#1D1C1A;}
	.st1{fill:#FFFFFF;}
	.st2{fill:#4E4E4E;stroke:#444444;stroke-width:0.1;stroke-miterlimit:10;}
	.st3{fill:none;stroke:#4E4E4E;stroke-width:0.25;stroke-linecap:round;stroke-linejoin:round;stroke-miterlimit:10;}
	.st4{fill:none;stroke:#444444;stroke-width:0.1;stroke-linecap:round;stroke-linejoin:round;stroke-miterlimit:10;}
	.st5{fill:none;stroke:#444444;stroke-width:0.1;stroke-miterlimit:10;}
	.st6{fill:none;}
	.st7{fill:#DEDDDD;}
	.st8{fill:none;stroke:#FFFFFF;stroke-miterlimit:10;}
	.st9{enable-background:new    ;}
	.st10{fill:#C03053;}
	.st11{fill:#C3476A;}
	.st12{fill:#1C1B19;}
	.st13{fill:#211915;stroke:#211915;stroke-width:0.25;stroke-miterlimit:10;}
	.st14{fill:#2F2F2F;}
</style>
<g>
	<g>
		<g id="XMLID_3_">
			<g id="XMLID_253_">
				<polygon id="XMLID_255_" class="st0" points="348.9,692.6 338.9,737 293.4,741.1 251.5,734 221,740.6 194.8,716.3 197.4,675.6 
					242.5,662.8 301.8,673 334.7,666.2 				"/>
			</g>
			<g id="XMLID_245_">
				<polygon id="XMLID_247_" class="st0" points="-15,692.6 -25.1,737 -70.5,741.1 -112.5,734 -143,740.6 -169.3,716.3 
					-166.6,675.6 -121.4,662.8 -62.1,673 -29.5,666.2 				"/>
			</g>
			<g id="XMLID_241_">
				<path id="XMLID_243_" class="st1" d="M-70.5,643.1l-41.9-7.2l-30.9,6.6l-27-25l2.7-41.9l46-13.1l59.3,10.2l33.4-7l14.8,27.7v0.3
					l-10.2,45.1L-70.5,643.1z M-112.5,633.9l42.1,7.2l44.6-3.9l9.6-43.4l-13.7-25.6l-32.3,6.8h-0.2l-58.9-10.1l-44.3,12.5l-2.5,39.5
					l25.3,23.6L-112.5,633.9z"/>
			</g>
			<g id="XMLID_207_">
				<path id="XMLID_225_" class="st1" d="M221.5,604.8l-0.7,1.8c-0.2,0.2-0.3,0.6-0.7,0.6c-0.3,0-0.7-0.3-0.7-0.7v-0.2l2.9-6.8
					c0-0.2,0.2-0.3,0.7-0.3c0.6,0,0.6,0.2,0.7,0.3l2.9,6.8v0.2c0,0.3-0.3,0.7-0.7,0.7c-0.3,0-0.6-0.2-0.7-0.6l-0.7-1.8H221.5z
					 M222.9,601l-0.9,2.5h2L222.9,601z"/>
				<path id="XMLID_223_" class="st1" d="M233.1,598.8c2.3,0,3.9,1.1,3.9,3.9c0,2.9-1.4,3.9-3.9,3.9h-1.6c-0.3,0-0.7-0.3-0.7-0.7
					v-6.6c0-0.3,0.3-0.7,0.7-0.7L233.1,598.8L233.1,598.8z M232.1,605.7h0.9c1.4,0,2.5-0.7,2.5-2.7s-0.9-2.7-2.5-2.7h-0.9V605.7z"/>
				<path id="XMLID_221_" class="st1" d="M244,598.8c2.3,0,3.9,1.1,3.9,3.9c0,2.9-1.4,3.9-3.9,3.9h-1.6c-0.3,0-0.7-0.3-0.7-0.7v-6.6
					c0-0.3,0.3-0.7,0.7-0.7L244,598.8L244,598.8z M243.1,605.7h0.9c1.4,0,2.5-0.7,2.5-2.7s-0.9-2.7-2.5-2.7h-0.9V605.7z"/>
				<path id="XMLID_219_" class="st1" d="M262,600.2v6.2c0,0.3-0.3,0.7-0.7,0.7c-0.4,0-0.7-0.3-0.7-0.7v-6.2h-1.8
					c-0.3,0-0.6-0.3-0.6-0.6c0-0.2,0.3-0.6,0.6-0.6h5c0.3,0,0.6,0.3,0.6,0.6c0,0.2-0.3,0.6-0.6,0.6H262z"/>
				<path id="XMLID_217_" class="st1" d="M268.2,602.9c0-2.9,1.4-4.1,3.8-4.1s3.8,1.4,3.8,4.1s-1.4,4.1-3.8,4.1
					S268.2,605.7,268.2,602.9z M269.6,602.9c0,2,0.7,2.9,2.3,2.9c1.6,0,2.3-0.9,2.3-2.9s-0.7-2.9-2.3-2.9
					C270.4,600.2,269.6,601,269.6,602.9z"/>
				<path id="XMLID_215_" class="st1" d="M286.2,602.9c0-2.9,1.4-4.1,3.8-4.1c1.4,0,2.3,0.6,2.9,1.2c0.2,0.2,0.2,0.2,0.2,0.3
					c0,0.3-0.3,0.7-0.7,0.7c-0.2,0-0.3,0-0.6-0.2c-0.6-0.6-1.1-0.9-1.8-0.9c-1.6,0-2.3,0.9-2.3,2.9c0,2.1,0.7,2.9,2.3,2.9
					c0.9,0,1.4-0.2,2-0.7c0.2-0.2,0.3-0.2,0.6-0.2c0.3,0,0.7,0.3,0.7,0.7c0,0.2,0,0.2-0.2,0.3c-0.6,0.7-1.6,1.2-2.9,1.2
					C287.7,607.1,286.2,605.8,286.2,602.9z"/>
				<path id="XMLID_213_" class="st1" d="M299.1,604.8l-0.7,1.8c-0.2,0.2-0.3,0.6-0.7,0.6c-0.3,0-0.7-0.3-0.7-0.7v-0.2l2.9-6.8
					c0-0.2,0.2-0.3,0.7-0.3c0.6,0,0.6,0.2,0.7,0.3l2.9,6.8v0.2c0,0.3-0.3,0.7-0.7,0.7s-0.6-0.2-0.7-0.6l-0.7-1.8H299.1z M300.5,601
					l-0.9,2.5h2L300.5,601z"/>
				<path id="XMLID_211_" class="st1" d="M310,603.9v2.5c0,0.3-0.3,0.7-0.7,0.7c-0.3,0-0.7-0.3-0.7-0.7v-6.6c0-0.3,0.3-0.7,0.7-0.7
					h2.3c1.6,0,2.5,1.1,2.5,2.5c0,1.1-0.7,2.1-1.8,2.3l1.7,2c0.2,0.2,0.2,0.3,0.2,0.3c0,0.3-0.3,0.7-0.7,0.7c-0.2,0-0.3-0.2-0.6-0.2
					l-2.1-2.9L310,603.9L310,603.9z M310,600.2v2.5h1.6c0.7,0,1.1-0.6,1.1-1.2c0-0.6-0.3-1.2-1.1-1.2L310,600.2L310,600.2z"/>
				<path id="XMLID_209_" class="st1" d="M321.7,600.2v6.2c0,0.3-0.3,0.7-0.7,0.7s-0.7-0.3-0.7-0.7v-6.2h-1.8
					c-0.3,0-0.6-0.3-0.6-0.6c0-0.2,0.3-0.6,0.6-0.6h5c0.3,0,0.6,0.3,0.6,0.6c0,0.2-0.3,0.6-0.6,0.6H321.7z"/>
			</g>
			<g id="XMLID_183_">
				<g id="XMLID_204_">
					<path id="XMLID_205_" class="st1" d="M-138.6,599.4c-1.2,0-1.6,0.6-1.6,1.1c0,2,5.3,1.1,5.3,4.6c0,1.8-1.2,2.9-3.5,2.9
						c-1.8,0-3-0.9-3.8-1.8c0-0.2-0.2-0.2-0.2-0.3c0-0.3,0.3-0.7,0.7-0.7c0.3,0,0.6,0.2,0.7,0.3c0.6,0.6,1.4,1.1,2.3,1.1
						c1.2,0,2-0.3,2-1.2c0-2.1-5.3-1.1-5.3-4.6c0-1.4,1.1-2.7,3.4-2.7c1.4,0,2.7,0.6,3.2,1.4c0,0.2,0.2,0.3,0.2,0.6
						s-0.3,0.7-0.7,0.7c-0.2,0-0.3-0.2-0.7-0.3C-137,599.6-137.7,599.4-138.6,599.4z"/>
				</g>
				<g id="XMLID_202_">
					<path id="XMLID_203_" class="st1" d="M-121.6,607.1c0,0.6-0.3,0.9-0.9,0.9s-0.9-0.3-0.9-0.9v-3.5h-4.1v3.5
						c0,0.6-0.3,0.9-0.9,0.9c-0.6,0-0.9-0.3-0.9-0.9v-8.4c0-0.6,0.3-0.9,0.9-0.9c0.6,0,0.9,0.3,0.9,0.9v3.2h4.1v-3.2
						c0-0.6,0.3-0.9,0.9-0.9s0.9,0.3,0.9,0.9V607.1z"/>
				</g>
				<g id="XMLID_199_">
					<path id="XMLID_201_" class="st1" d="M-115.9,602.9c0-3.4,1.6-5.2,4.6-5.2s4.6,1.6,4.6,5.2c0,3.4-1.6,5.2-4.6,5.2
						S-115.9,606.4-115.9,602.9z M-114.1,602.9c0,2.3,0.9,3.5,2.9,3.5s2.9-1.2,2.9-3.5c0-2.5-0.9-3.5-2.9-3.5
						S-114.1,600.5-114.1,602.9z"/>
				</g>
				<g id="XMLID_197_">
					<path id="XMLID_198_" class="st1" d="M-99.3,604v3c0,0.6-0.3,0.9-0.9,0.9c-0.6,0-0.9-0.3-0.9-0.9v-8.2c0-0.6,0.3-0.9,0.9-0.9
						h2.9c1.8,0,3,0.9,3,3c0,2-1.2,3-3,3L-99.3,604L-99.3,604z M-99.3,599.6v3h1.8c0.9,0,1.4-0.6,1.4-1.4c0-0.9-0.6-1.4-1.4-1.4
						L-99.3,599.6L-99.3,599.6z"/>
				</g>
				<g id="XMLID_193_">
					<path id="XMLID_195_" class="st1" d="M-73.4,598.7v8.4c0,0.6-0.3,0.9-0.9,0.9c-0.3,0-0.6-0.2-0.7-0.3l-4.3-6.2v5.7
						c0,0.6-0.3,0.9-0.9,0.9c-0.6,0-0.9-0.3-0.9-0.9v-8.4c0-0.6,0.3-0.9,0.9-0.9c0.3,0,0.6,0.2,0.7,0.3l4.3,6.2v-5.7
						c0-0.6,0.3-0.9,0.9-0.9C-74,598-73.4,598.3-73.4,598.7z"/>
				</g>
				<g id="XMLID_190_">
					<path id="XMLID_191_" class="st1" d="M-67.9,602.9c0-3.4,1.6-5.2,4.6-5.2c3,0,4.6,1.6,4.6,5.2c0,3.4-1.6,5.2-4.6,5.2
						C-66.3,608.1-67.9,606.4-67.9,602.9z M-66.1,602.9c0,2.3,0.9,3.5,2.9,3.5c2,0,2.9-1.2,2.9-3.5c0-2.5-0.9-3.5-2.9-3.5
						C-65.2,599.4-66.1,600.5-66.1,602.9z"/>
				</g>
				<g id="XMLID_186_">
					<path id="XMLID_187_" class="st1" d="M-47.7,601.4l-1.6,5.9c-0.2,0.3-0.3,0.7-0.9,0.7c-0.3,0-0.7-0.2-0.7-0.6l-2.7-8.4v-0.1
						c0-0.6,0.3-0.9,0.9-0.9c0.6,0,0.7,0.3,0.7,0.6l1.8,6.1l1.6-6.1c0.2-0.3,0.6-0.6,0.9-0.6s0.7,0.2,0.9,0.6l1.6,6.1l1.8-6.1
						c0-0.2,0.3-0.6,0.7-0.6c0.6,0,0.9,0.3,0.9,0.9c0,0.2,0,0.2,0,0.2l-2.5,8.4c-0.2,0.3-0.3,0.6-0.7,0.6c-0.3,0-0.7-0.2-0.9-0.7
						L-47.7,601.4z"/>
				</g>
			</g>
			<g id="XMLID_180_">
				<path id="XMLID_181_" class="st2" d="M-143,740.8C-143.2,740.8-143.2,740.8-143,740.8l-23.6-65.2v-0.2h0.2l23.6,64.9
					C-143,740.6-143,740.8-143,740.8L-143,740.8z"/>
			</g>
			<g id="XMLID_174_">
				<path id="XMLID_177_" class="st2" d="M-143,740.8L-143,740.8C-143.2,740.8-143.2,740.6-143,740.8l21.6-78l0.2-0.2l0.2,0.2
					L-143,740.8L-143,740.8z"/>
			</g>
			<g id="XMLID_171_">
				<path id="XMLID_173_" class="st2" d="M-128.2,687C-128.2,687-128.4,687-128.2,687c-0.2-0.2-0.2-0.2,0-0.2l65.8-14.1
					c0,0,0.2,0,0.2,0.2c0,0,0,0.2-0.2,0.2L-128.2,687L-128.2,687z"/>
			</g>
			<g id="XMLID_169_">
				<path id="XMLID_170_" class="st2" d="M-70.5,741.3L-70.5,741.3l-57.9-54.3v-0.1h0.2l57.6,54.1
					C-70.4,741.1-70.4,741.1-70.5,741.3C-70.4,741.3-70.5,741.3-70.5,741.3z"/>
			</g>
			<g id="XMLID_167_">
				<path id="XMLID_168_" class="st3" d="M-62.1,673"/>
			</g>
			<g id="XMLID_165_">
				<path id="XMLID_166_" class="st4" d="M-70.5,741.1"/>
			</g>
			<g id="XMLID_163_">
				<path id="XMLID_164_" class="st2" d="M-112.5,734.1C-112.7,734.1-112.7,734.1-112.5,734.1c-0.2-0.2-0.2-0.2,0-0.2l27.9-6.2
					c0,0,0.2,0,0.2,0.2c0,0,0,0.2-0.2,0.2L-112.5,734.1L-112.5,734.1z"/>
			</g>
			<g id="XMLID_161_">
				<path id="XMLID_162_" class="st2" d="M-25.1,737.2L-25.1,737.2l-37.3-64.3v-0.2h0.2l37.1,64.2C-24.9,737-24.9,737.2-25.1,737.2
					L-25.1,737.2z"/>
			</g>
			<g id="XMLID_159_">
				<path id="XMLID_160_" class="st2" d="M-70.5,741.3L-70.5,741.3C-70.5,741.3-70.8,741.1-70.5,741.3l8.2-68.4c0,0,0-0.2,0.2-0.2
					c0,0,0.2,0,0.2,0.2L-70.5,741.3C-70.4,741.3-70.4,741.3-70.5,741.3z"/>
			</g>
			<g id="XMLID_157_">
				<path id="XMLID_158_" class="st5" d="M-70.5,741.1"/>
			</g>
			<g id="XMLID_155_">
				<path id="XMLID_156_" class="st6" d="M-62.1,673"/>
			</g>
			<g id="XMLID_153_">
				<path id="XMLID_154_" class="st2" d="M-25.1,737.2C-25.1,737.2-25.2,737.2-25.1,737.2l-4.4-71c0,0,0-0.2,0.2-0.2
					c0,0,0.2,0,0.2,0.2L-25.1,737.2C-24.9,737.2-24.9,737.2-25.1,737.2L-25.1,737.2z"/>
			</g>
			<g id="XMLID_122_">
				<path id="XMLID_124_" class="st1" d="M293.4,643.1l-41.9-7.2l-30.9,6.6l-27-25l2.7-41.9l46-13.1l59.3,10.2l33.4-7l14.8,27.7v0.3
					l-10.2,45.1L293.4,643.1z M251.5,633.9l42.1,7.2l44.6-3.9l9.6-43.4l-13.7-25.6l-32.3,6.7h-0.2l-58.9-10.1l-44.3,12.5l-2.5,39.5
					l25.3,23.6L251.5,633.9z"/>
			</g>
			<g id="XMLID_64_">
				<path id="XMLID_65_" d="M-70.5,842.1l-41.9-7.2l-30.9,6.6l-27-25l2.7-41.9l46-13.1l59.3,10.2l33.4-7l14.8,27.7v0.3l-10.2,45.1
					L-70.5,842.1z M-112.5,832.9l42.1,7.2l44.6-3.9l9.6-43.4l-13.7-25.6l-32.3,6.8h-0.2l-58.9-10.1l-44.3,12.5l-2.5,39.5l25.3,23.6
					L-112.5,832.9z"/>
			</g>
			<g id="XMLID_43_">
				<path id="XMLID_54_" d="M221.5,803.8l-0.7,1.8c-0.2,0.2-0.3,0.6-0.7,0.6c-0.3,0-0.7-0.3-0.7-0.7v-0.2l2.9-6.8
					c0-0.2,0.2-0.3,0.7-0.3c0.6,0,0.6,0.2,0.7,0.3l2.9,6.8v0.2c0,0.3-0.3,0.7-0.7,0.7c-0.3,0-0.6-0.2-0.7-0.6l-0.7-1.8H221.5z
					 M222.9,800l-0.9,2.5h2L222.9,800z"/>
				<path id="XMLID_53_" d="M233.1,797.8c2.3,0,3.9,1.1,3.9,3.9c0,2.9-1.4,3.9-3.9,3.9h-1.6c-0.3,0-0.7-0.3-0.7-0.7v-6.6
					c0-0.3,0.3-0.7,0.7-0.7L233.1,797.8L233.1,797.8z M232.1,804.7h0.9c1.4,0,2.5-0.7,2.5-2.7s-0.9-2.7-2.5-2.7h-0.9V804.7z"/>
				<path id="XMLID_52_" d="M244,797.8c2.3,0,3.9,1.1,3.9,3.9c0,2.9-1.4,3.9-3.9,3.9h-1.6c-0.3,0-0.7-0.3-0.7-0.7v-6.6
					c0-0.3,0.3-0.7,0.7-0.7L244,797.8L244,797.8z M243.1,804.7h0.9c1.4,0,2.5-0.7,2.5-2.7s-0.9-2.7-2.5-2.7h-0.9V804.7z"/>
				<path id="XMLID_51_" d="M262,799.2v6.2c0,0.3-0.3,0.7-0.7,0.7c-0.4,0-0.7-0.3-0.7-0.7v-6.2h-1.8c-0.3,0-0.6-0.3-0.6-0.6
					c0-0.2,0.3-0.6,0.6-0.6h5c0.3,0,0.6,0.3,0.6,0.6c0,0.2-0.3,0.6-0.6,0.6H262z"/>
				<path id="XMLID_50_" d="M268.2,801.9c0-2.9,1.4-4.1,3.8-4.1s3.8,1.4,3.8,4.1s-1.4,4.1-3.8,4.1S268.2,804.7,268.2,801.9z
					 M269.6,801.9c0,2,0.7,2.9,2.3,2.9c1.6,0,2.3-0.9,2.3-2.9s-0.7-2.9-2.3-2.9C270.4,799.2,269.6,800,269.6,801.9z"/>
				<path id="XMLID_49_" d="M286.2,801.9c0-2.9,1.4-4.1,3.8-4.1c1.4,0,2.3,0.6,2.9,1.2c0.2,0.2,0.2,0.2,0.2,0.3
					c0,0.3-0.3,0.7-0.7,0.7c-0.2,0-0.3,0-0.6-0.2c-0.6-0.6-1.1-0.9-1.8-0.9c-1.6,0-2.3,0.9-2.3,2.9c0,2.1,0.7,2.9,2.3,2.9
					c0.9,0,1.4-0.2,2-0.7c0.2-0.2,0.3-0.2,0.6-0.2c0.3,0,0.7,0.3,0.7,0.7c0,0.2,0,0.2-0.2,0.3c-0.6,0.7-1.6,1.2-2.9,1.2
					C287.7,806.1,286.2,804.8,286.2,801.9z"/>
				<path id="XMLID_48_" d="M299.1,803.8l-0.7,1.8c-0.2,0.2-0.3,0.6-0.7,0.6c-0.3,0-0.7-0.3-0.7-0.7v-0.2l2.9-6.8
					c0-0.2,0.2-0.3,0.7-0.3c0.6,0,0.6,0.2,0.7,0.3l2.9,6.8v0.2c0,0.3-0.3,0.7-0.7,0.7s-0.6-0.2-0.7-0.6l-0.7-1.8H299.1z M300.5,800
					l-0.9,2.5h2L300.5,800z"/>
				<path id="XMLID_45_" d="M310,802.9v2.5c0,0.3-0.3,0.7-0.7,0.7c-0.3,0-0.7-0.3-0.7-0.7v-6.6c0-0.3,0.3-0.7,0.7-0.7h2.3
					c1.6,0,2.5,1.1,2.5,2.5c0,1.1-0.7,2.1-1.8,2.3l1.7,2c0.2,0.2,0.2,0.3,0.2,0.3c0,0.3-0.3,0.7-0.7,0.7c-0.2,0-0.3-0.2-0.6-0.2
					l-2.1-2.9L310,802.9L310,802.9z M310,799.2v2.5h1.6c0.7,0,1.1-0.6,1.1-1.2c0-0.6-0.3-1.2-1.1-1.2L310,799.2L310,799.2z"/>
				<path id="XMLID_44_" d="M321.7,799.2v6.2c0,0.3-0.3,0.7-0.7,0.7s-0.7-0.3-0.7-0.7v-6.2h-1.8c-0.3,0-0.6-0.3-0.6-0.6
					c0-0.2,0.3-0.6,0.6-0.6h5c0.3,0,0.6,0.3,0.6,0.6c0,0.2-0.3,0.6-0.6,0.6H321.7z"/>
			</g>
			<g id="XMLID_25_">
				<g id="XMLID_41_">
					<path id="XMLID_42_" d="M-138.6,798.4c-1.2,0-1.6,0.6-1.6,1.1c0,2,5.3,1.1,5.3,4.6c0,1.8-1.2,2.9-3.5,2.9c-1.8,0-3-0.9-3.8-1.8
						c0-0.2-0.2-0.2-0.2-0.3c0-0.3,0.3-0.7,0.7-0.7c0.3,0,0.6,0.2,0.7,0.3c0.6,0.6,1.4,1.1,2.3,1.1c1.2,0,2-0.3,2-1.2
						c0-2.1-5.3-1.1-5.3-4.6c0-1.4,1.1-2.7,3.4-2.7c1.4,0,2.7,0.6,3.2,1.4c0,0.2,0.2,0.3,0.2,0.6s-0.3,0.7-0.7,0.7
						c-0.2,0-0.3-0.2-0.7-0.3C-137,798.6-137.7,798.4-138.6,798.4z"/>
				</g>
				<g id="XMLID_39_">
					<path id="XMLID_40_" d="M-121.6,806.1c0,0.6-0.3,0.9-0.9,0.9s-0.9-0.3-0.9-0.9v-3.5h-4.1v3.5c0,0.6-0.3,0.9-0.9,0.9
						c-0.6,0-0.9-0.3-0.9-0.9v-8.4c0-0.6,0.3-0.9,0.9-0.9c0.6,0,0.9,0.3,0.9,0.9v3.2h4.1v-3.2c0-0.6,0.3-0.9,0.9-0.9
						s0.9,0.3,0.9,0.9V806.1z"/>
				</g>
				<g id="XMLID_37_">
					<path id="XMLID_38_" d="M-115.9,801.9c0-3.4,1.6-5.2,4.6-5.2s4.6,1.6,4.6,5.2c0,3.4-1.6,5.2-4.6,5.2S-115.9,805.4-115.9,801.9z
						 M-114.1,801.9c0,2.3,0.9,3.5,2.9,3.5s2.9-1.2,2.9-3.5c0-2.5-0.9-3.5-2.9-3.5S-114.1,799.5-114.1,801.9z"/>
				</g>
				<g id="XMLID_35_">
					<path id="XMLID_36_" d="M-99.3,803v3c0,0.6-0.3,0.9-0.9,0.9c-0.6,0-0.9-0.3-0.9-0.9v-8.2c0-0.6,0.3-0.9,0.9-0.9h2.9
						c1.8,0,3,0.9,3,3c0,2-1.2,3-3,3L-99.3,803L-99.3,803z M-99.3,798.6v3h1.8c0.9,0,1.4-0.6,1.4-1.4c0-0.9-0.6-1.4-1.4-1.4
						L-99.3,798.6L-99.3,798.6z"/>
				</g>
				<g id="XMLID_33_">
					<path id="XMLID_34_" d="M-73.4,797.7v8.4c0,0.6-0.3,0.9-0.9,0.9c-0.3,0-0.6-0.2-0.7-0.3l-4.3-6.2v5.7c0,0.6-0.3,0.9-0.9,0.9
						c-0.6,0-0.9-0.3-0.9-0.9v-8.4c0-0.6,0.3-0.9,0.9-0.9c0.3,0,0.6,0.2,0.7,0.3l4.3,6.2v-5.7c0-0.6,0.3-0.9,0.9-0.9
						C-74,797-73.4,797.3-73.4,797.7z"/>
				</g>
				<g id="XMLID_28_">
					<path id="XMLID_29_" d="M-67.9,801.9c0-3.4,1.6-5.2,4.6-5.2c3,0,4.6,1.6,4.6,5.2c0,3.4-1.6,5.2-4.6,5.2
						C-66.3,807.1-67.9,805.4-67.9,801.9z M-66.1,801.9c0,2.3,0.9,3.5,2.9,3.5c2,0,2.9-1.2,2.9-3.5c0-2.5-0.9-3.5-2.9-3.5
						C-65.2,798.4-66.1,799.5-66.1,801.9z"/>
				</g>
				<g id="XMLID_26_">
					<path id="XMLID_27_" d="M-47.7,800.4l-1.6,5.9c-0.2,0.3-0.3,0.7-0.9,0.7c-0.3,0-0.7-0.2-0.7-0.6l-2.7-8.4v-0.1
						c0-0.6,0.3-0.9,0.9-0.9c0.6,0,0.7,0.3,0.7,0.6l1.8,6.1l1.6-6.1c0.2-0.3,0.6-0.6,0.9-0.6s0.7,0.2,0.9,0.6l1.6,6.1l1.8-6.1
						c0-0.2,0.3-0.6,0.7-0.6c0.6,0,0.9,0.3,0.9,0.9c0,0.2,0,0.2,0,0.2l-2.5,8.4c-0.2,0.3-0.3,0.6-0.7,0.6c-0.3,0-0.7-0.2-0.9-0.7
						L-47.7,800.4z"/>
				</g>
			</g>
			<g id="XMLID_7_">
				<path id="XMLID_10_" d="M293.4,842.1l-41.9-7.2l-30.9,6.6l-27-25l2.7-41.9l46-13.1l59.3,10.2l33.4-7l14.8,27.7v0.3l-10.2,45.1
					L293.4,842.1z M251.5,832.9l42.1,7.2l44.6-3.9l9.6-43.4l-13.7-25.6l-32.3,6.7h-0.2l-58.9-10.1l-44.3,12.5l-2.5,39.5l25.3,23.6
					L251.5,832.9z"/>
			</g>
			<g id="XMLID_120_">
				<path id="XMLID_121_" class="st2" d="M221,740.8C221,740.8,220.7,740.8,221,740.8l-23.6-65.2v-0.2h0.2l23.6,64.9
					C221.1,740.6,221.1,740.8,221,740.8L221,740.8z"/>
			</g>
			<g id="XMLID_117_">
				<path id="XMLID_118_" class="st2" d="M221,740.8L221,740.8C220.7,740.8,220.7,740.6,221,740.8l21.6-78l0.2-0.2l0.2,0.2
					L221,740.8L221,740.8z"/>
			</g>
			<g id="XMLID_113_">
				<path id="XMLID_115_" class="st2" d="M235.8,687L235.8,687c-0.2-0.2-0.2-0.2,0-0.2l65.8-14.1c0,0,0.2,0,0.2,0.2
					c0,0,0,0.2-0.2,0.2L235.8,687L235.8,687z"/>
			</g>
			<g id="XMLID_108_">
				<path id="XMLID_112_" class="st2" d="M293.4,741.3L293.4,741.3L235.5,687v-0.1h0.2l57.6,54.1
					C293.6,741.1,293.6,741.1,293.4,741.3C293.6,741.3,293.6,741.3,293.4,741.3z"/>
			</g>
			<g id="XMLID_104_">
				<path id="XMLID_107_" class="st3" d="M301.8,673"/>
			</g>
			<g id="XMLID_102_">
				<path id="XMLID_103_" class="st4" d="M293.4,741.1"/>
			</g>
			<g id="XMLID_97_">
				<path id="XMLID_98_" class="st2" d="M251.5,734.1C251.5,734.1,251.3,734.1,251.5,734.1c-0.2-0.2-0.2-0.2,0-0.2l27.9-6.2
					c0,0,0.2,0,0.2,0.2c0,0,0,0.2-0.2,0.2L251.5,734.1L251.5,734.1z"/>
			</g>
			<g id="XMLID_95_">
				<path id="XMLID_96_" class="st2" d="M338.9,737.2L338.9,737.2l-37.3-64.3v-0.2h0.2l37.1,64.2C339.1,737,339.1,737.2,338.9,737.2
					C339.1,737.2,338.9,737.2,338.9,737.2z"/>
			</g>
			<g id="XMLID_93_">
				<path id="XMLID_94_" class="st2" d="M293.4,741.3L293.4,741.3C293.4,741.3,293.4,741.1,293.4,741.3l8.2-68.4c0,0,0-0.2,0.2-0.2
					c0,0,0.2,0,0.2,0.2L293.4,741.3C293.6,741.3,293.6,741.3,293.4,741.3z"/>
			</g>
			<g id="XMLID_90_">
				<path id="XMLID_91_" class="st5" d="M293.4,741.1"/>
			</g>
			<g id="XMLID_87_">
				<path id="XMLID_88_" class="st6" d="M301.8,673"/>
			</g>
			<g id="XMLID_16_">
				<g id="XMLID_61_">
					<path id="XMLID_75_" class="st7" d="M-138.6,698.3c-1.2,0-1.6,0.6-1.6,1.1c0,2,5.3,1.1,5.3,4.6c0,1.8-1.2,2.9-3.5,2.9
						c-1.8,0-3-0.9-3.8-1.8c0-0.2-0.2-0.2-0.2-0.3c0-0.3,0.3-0.7,0.7-0.7c0.3,0,0.6,0.2,0.7,0.3c0.6,0.6,1.4,1.1,2.3,1.1
						c1.2,0,2-0.3,2-1.2c0-2.1-5.3-1.1-5.3-4.6c0-1.4,1.1-2.7,3.4-2.7c1.4,0,2.7,0.6,3.2,1.4c0,0.2,0.2,0.3,0.2,0.6
						s-0.3,0.7-0.7,0.7c-0.2,0-0.3-0.2-0.7-0.3C-137,698.6-137.7,698.3-138.6,698.3z"/>
				</g>
				<g id="XMLID_47_">
					<path id="XMLID_60_" class="st7" d="M-121.6,706.1c0,0.6-0.3,0.9-0.9,0.9s-0.9-0.3-0.9-0.9v-3.5h-4.1v3.5
						c0,0.6-0.3,0.9-0.9,0.9c-0.6,0-0.9-0.3-0.9-0.9v-8.4c0-0.6,0.3-0.9,0.9-0.9c0.6,0,0.9,0.3,0.9,0.9v3.2h4.1v-3.2
						c0-0.6,0.3-0.9,0.9-0.9s0.9,0.3,0.9,0.9V706.1z"/>
				</g>
				<g id="XMLID_32_">
					<path id="XMLID_46_" class="st7" d="M-115.9,702c0-3.4,1.6-5.2,4.6-5.2s4.6,1.6,4.6,5.2c0,3.4-1.6,5.2-4.6,5.2
						S-115.9,705.5-115.9,702z M-114.1,702c0,2.3,0.9,3.5,2.9,3.5s2.9-1.2,2.9-3.5c0-2.5-0.9-3.5-2.9-3.5S-114.1,699.5-114.1,702z"
						/>
				</g>
				<g id="XMLID_30_">
					<path id="XMLID_31_" class="st7" d="M-99.3,703.1v3c0,0.6-0.3,0.9-0.9,0.9c-0.6,0-0.9-0.3-0.9-0.9v-8.2c0-0.6,0.3-0.9,0.9-0.9
						h2.9c1.8,0,3,0.9,3,3c0,2-1.2,3-3,3L-99.3,703.1L-99.3,703.1z M-99.3,698.6v3h1.8c0.9,0,1.4-0.6,1.4-1.4c0-0.8-0.6-1.4-1.4-1.4
						h-1.8V698.6z"/>
				</g>
				<g id="XMLID_23_">
					<path id="XMLID_24_" class="st7" d="M-73.4,697.7v8.4c0,0.6-0.3,0.9-0.9,0.9c-0.3,0-0.6-0.2-0.7-0.3l-4.3-6.2v5.7
						c0,0.6-0.3,0.9-0.9,0.9c-0.6,0-0.9-0.3-0.9-0.9v-8.4c0-0.6,0.3-0.9,0.9-0.9c0.3,0,0.6,0.2,0.7,0.3l4.3,6.2v-5.7
						c0-0.6,0.3-0.9,0.9-0.9C-74,696.8-73.4,697.4-73.4,697.7z"/>
				</g>
				<g id="XMLID_21_">
					<path id="XMLID_22_" class="st7" d="M-67.9,702c0-3.4,1.6-5.2,4.6-5.2c3,0,4.6,1.6,4.6,5.2c0,3.4-1.6,5.2-4.6,5.2
						C-66.3,707.2-67.9,705.5-67.9,702z M-66.1,702c0,2.3,0.9,3.5,2.9,3.5c2,0,2.9-1.2,2.9-3.5c0-2.5-0.9-3.5-2.9-3.5
						C-65.2,698.5-66.1,699.5-66.1,702z"/>
				</g>
				<g id="XMLID_18_">
					<path id="XMLID_19_" class="st7" d="M-47.7,700.4l-1.6,5.9c-0.2,0.3-0.3,0.7-0.9,0.7c-0.3,0-0.7-0.2-0.7-0.6l-2.5-8.4v-0.2
						c0-0.6,0.3-0.9,0.9-0.9s0.7,0.3,0.7,0.6l1.8,6.1l1.6-6.1c0.2-0.3,0.6-0.6,0.9-0.6s0.7,0.2,0.9,0.6l1.6,6.1l1.8-6.1
						c0-0.2,0.3-0.6,0.7-0.6c0.6,0,0.9,0.3,0.9,0.9c0,0.2,0,0.2,0,0.2l-2.5,8.4c-0.2,0.3-0.3,0.6-0.7,0.6c-0.4,0-0.7-0.2-0.9-0.7
						L-47.7,700.4z"/>
				</g>
			</g>
			<g id="XMLID_4_">
				<path id="XMLID_15_" class="st7" d="M221.5,703.8l-0.7,1.8c-0.2,0.2-0.3,0.6-0.7,0.6c-0.3,0-0.7-0.3-0.7-0.7v-0.2l2.9-6.8
					c0-0.2,0.2-0.3,0.7-0.3c0.6,0,0.6,0.2,0.7,0.3l2.9,6.8v0.2c0,0.3-0.3,0.7-0.7,0.7c-0.3,0-0.6-0.2-0.7-0.6l-0.7-1.8H221.5z
					 M222.9,700.1l-0.9,2.5h2L222.9,700.1z"/>
				<path id="XMLID_14_" class="st7" d="M233.1,698c2.3,0,3.9,1.1,3.9,3.9c0,2.9-1.4,3.9-3.9,3.9h-1.6c-0.3,0-0.7-0.3-0.7-0.7v-6.6
					c0-0.3,0.3-0.7,0.7-0.7L233.1,698L233.1,698z M232.1,704.7h0.9c1.4,0,2.5-0.7,2.5-2.7s-0.9-2.7-2.5-2.7h-0.9V704.7z"/>
				<path id="XMLID_13_" class="st7" d="M244,698c2.3,0,3.9,1.1,3.9,3.9c0,2.9-1.4,3.9-3.9,3.9h-1.6c-0.3,0-0.7-0.3-0.7-0.7v-6.6
					c0-0.3,0.3-0.7,0.7-0.7L244,698L244,698z M243.1,704.7h0.9c1.4,0,2.5-0.7,2.5-2.7s-0.9-2.7-2.5-2.7h-0.9V704.7z"/>
				<path id="XMLID_12_" class="st7" d="M262,699.2v6.2c0,0.3-0.3,0.7-0.7,0.7c-0.4,0-0.7-0.3-0.7-0.7v-6.2h-1.8
					c-0.3,0-0.6-0.3-0.6-0.6c0-0.2,0.3-0.6,0.6-0.6h5c0.3,0,0.6,0.3,0.6,0.6c0,0.2-0.3,0.6-0.6,0.6H262z"/>
				<path id="XMLID_11_" class="st7" d="M268.2,702c0-2.9,1.4-4.1,3.8-4.1s3.8,1.4,3.8,4.1c0,2.7-1.4,4.1-3.8,4.1
					S268.2,704.7,268.2,702z M269.6,702c0,2,0.7,2.9,2.3,2.9c1.6,0,2.3-0.9,2.3-2.9s-0.7-2.9-2.3-2.9
					C270.4,699.2,269.6,700.1,269.6,702z"/>
				<path id="XMLID_9_" class="st7" d="M286.2,702c0-2.9,1.4-4.1,3.8-4.1c1.4,0,2.3,0.6,2.9,1.2c0.2,0.2,0.2,0.2,0.2,0.3
					c0,0.3-0.3,0.7-0.7,0.7c-0.2,0-0.3,0-0.6-0.2c-0.6-0.6-1.1-0.9-1.8-0.9c-1.6,0-2.3,0.9-2.3,2.9c0,2.1,0.7,2.9,2.3,2.9
					c0.9,0,1.4-0.2,2-0.7c0.2-0.2,0.3-0.2,0.6-0.2c0.3,0,0.7,0.3,0.7,0.7c0,0.2,0,0.2-0.2,0.3c-0.6,0.7-1.6,1.2-2.9,1.2
					C287.7,706.1,286.2,704.9,286.2,702z"/>
				<path id="XMLID_8_" class="st7" d="M299.1,703.8l-0.7,1.8c-0.2,0.2-0.3,0.6-0.7,0.6c-0.3,0-0.7-0.3-0.7-0.7v-0.2l2.9-6.8
					c0-0.2,0.2-0.3,0.7-0.3c0.6,0,0.6,0.2,0.7,0.3l2.9,6.8v0.2c0,0.3-0.3,0.7-0.7,0.7s-0.6-0.2-0.7-0.6l-0.7-1.8H299.1z
					 M300.5,700.1l-0.9,2.5h2L300.5,700.1z"/>
				<path id="XMLID_6_" class="st7" d="M309.8,702.9v2.5c0,0.3-0.3,0.7-0.7,0.7c-0.3,0-0.7-0.3-0.7-0.7v-6.6c0-0.3,0.3-0.7,0.7-0.7
					h2.3c1.6,0,2.5,1.1,2.5,2.5c0,1.1-0.7,2.1-1.8,2.3l1.8,2.1c0.2,0.2,0.2,0.3,0.2,0.3c0,0.3-0.3,0.7-0.7,0.7
					c-0.2,0-0.3-0.2-0.6-0.2l-2.1-2.9L309.8,702.9L309.8,702.9z M309.8,699.2v2.5h1.6c0.7,0,1.1-0.6,1.1-1.2c0-0.7-0.3-1.2-1.1-1.2
					L309.8,699.2L309.8,699.2z"/>
				<path id="XMLID_5_" class="st7" d="M321.7,699.2v6.2c0,0.3-0.3,0.7-0.7,0.7s-0.7-0.3-0.7-0.7v-6.2h-1.8c-0.3,0-0.6-0.3-0.6-0.6
					c0-0.2,0.3-0.6,0.6-0.6h5c0.3,0,0.6,0.3,0.6,0.6c0,0.2-0.3,0.6-0.6,0.6H321.7z"/>
			</g>
		</g>
		<g>
			<g id="XMLID_1_">
				<g>
					<polygon class="st0" points="528.4,676.5 540.2,695.2 531.9,726.9 493.6,729.8 457.5,724.6 431.6,729.2 409.8,712 412,683.2 
						450,674.1 500.6,681.5 500.7,681.5 					"/>
				</g>
				<g>
					<polygon class="st8" points="493.6,731.4 457.7,726.2 431.1,731 408,712.7 410.3,682.1 449.8,672.5 500.7,679.9 529.3,674.8 
						542,695 542,695.3 533.3,728.2 					"/>
					<polygon class="st8" points="457.5,724.6 493.6,729.8 531.9,726.9 540.2,695.2 528.4,676.5 500.7,681.5 500.6,681.5 450,674.1 
						412,683.2 409.8,712 431.6,729.2 					"/>
				</g>
			</g>
		</g>
		<g>
			<g class="st9">
				<path class="st1" d="M437.8,706l-2.8-6.9c0-0.1,0-0.2,0-0.3c0-0.4,0.3-0.7,0.7-0.7s0.6,0.2,0.6,0.4l2.1,5.6l2.1-5.6
					c0.1-0.2,0.3-0.4,0.6-0.4c0.4,0,0.7,0.3,0.7,0.7c0,0.1,0,0.2,0,0.3L439,706c-0.1,0.2-0.3,0.4-0.7,0.4S437.9,706.2,437.8,706z"/>
				<path class="st1" d="M446.2,705.7c0,0.4-0.3,0.7-0.7,0.7s-0.7-0.3-0.7-0.7v-6.9c0-0.4,0.3-0.7,0.7-0.7s0.7,0.3,0.7,0.7V705.7z"
					/>
				<path class="st1" d="M451.1,701.6h2.3c0.3,0,0.6,0.3,0.6,0.6s-0.3,0.6-0.6,0.6h-2.3v2.2h3.2c0.4,0,0.6,0.3,0.6,0.6
					s-0.3,0.6-0.6,0.6h-3.9c-0.4,0-0.7-0.3-0.7-0.7v-6.7c0-0.4,0.3-0.7,0.7-0.7h3.8c0.4,0,0.6,0.3,0.6,0.6s-0.3,0.6-0.6,0.6h-3.1
					V701.6z"/>
				<path class="st1" d="M462.4,700.9l-1.4,5c-0.1,0.3-0.4,0.5-0.7,0.5s-0.6-0.2-0.7-0.5l-2.1-6.9c0-0.1,0-0.1,0-0.2
					c0-0.4,0.3-0.7,0.7-0.7s0.6,0.3,0.7,0.5l1.4,5.1l1.4-5.1c0.1-0.3,0.4-0.5,0.7-0.5s0.6,0.2,0.7,0.5l1.4,5.1l1.4-5.1
					c0.1-0.2,0.3-0.5,0.7-0.5s0.7,0.3,0.7,0.7c0,0.1,0,0.1,0,0.2l-2.1,6.9c-0.1,0.3-0.4,0.5-0.7,0.5s-0.6-0.2-0.7-0.5L462.4,700.9z"
					/>
				<path class="st1" d="M474.6,702.3c0-2.9,1.4-4.3,3.8-4.3c1.5,0,2.4,0.6,2.9,1.3c0.1,0.1,0.1,0.3,0.1,0.4c0,0.4-0.3,0.6-0.7,0.6
					c-0.2,0-0.3-0.1-0.5-0.2c-0.5-0.5-1-0.8-1.9-0.8c-1.6,0-2.3,1-2.3,3c0,2.1,0.7,3,2.3,3c0.9,0,1.4-0.2,2-0.8
					c0.2-0.2,0.4-0.3,0.5-0.3c0.4,0,0.7,0.3,0.7,0.7c0,0.1,0,0.3-0.1,0.4c-0.6,0.8-1.7,1.3-3,1.3C476,706.5,474.6,705.2,474.6,702.3
					z"/>
				<path class="st1" d="M486.2,704.2l-0.7,1.8c-0.1,0.3-0.3,0.5-0.7,0.5s-0.7-0.3-0.7-0.7c0-0.1,0-0.2,0-0.3l2.9-7
					c0.1-0.2,0.3-0.4,0.6-0.4s0.6,0.3,0.6,0.4l2.9,7c0,0.1,0,0.2,0,0.3c0,0.4-0.3,0.7-0.7,0.7c-0.3,0-0.5-0.2-0.7-0.5l-0.7-1.8
					H486.2z M487.7,700.4l-1,2.5h2L487.7,700.4z"/>
				<path class="st1" d="M495.6,703.2v2.5c0,0.4-0.3,0.7-0.7,0.7s-0.7-0.3-0.7-0.7v-6.8c0-0.4,0.3-0.7,0.7-0.7h2.3
					c1.6,0,2.6,1.2,2.6,2.5c0,1.2-0.7,2.3-1.9,2.4l1.8,2.2c0.1,0.1,0.1,0.3,0.1,0.4c0,0.4-0.3,0.7-0.7,0.7c-0.2,0-0.4-0.1-0.5-0.3
					l-2.2-3L495.6,703.2L495.6,703.2z M495.6,699.4v2.5h1.6c0.8,0,1.1-0.6,1.1-1.3s-0.3-1.3-1.1-1.3L495.6,699.4L495.6,699.4z"/>
				<path class="st1" d="M506.2,699.4v6.3c0,0.4-0.3,0.7-0.7,0.7s-0.7-0.3-0.7-0.7v-6.3h-1.9c-0.3,0-0.6-0.3-0.6-0.6
					s0.3-0.6,0.6-0.6h5.1c0.3,0,0.6,0.3,0.6,0.6s-0.3,0.6-0.6,0.6H506.2z"/>
			</g>
		</g>
		<g>
			<g id="XMLID_2_">
				<g>
					<polygon class="st1" points="528.4,579.6 540.2,598.2 531.9,630 493.6,632.9 457.5,627.7 431.6,632.3 409.8,615.1 412,586.2 
						450,577.1 500.6,584.5 500.7,584.5 					"/>
				</g>
			</g>
		</g>
		<g>
			<g class="st9">
				<path d="M437.8,609l-2.8-6.9c0-0.1,0-0.2,0-0.3c0-0.4,0.3-0.7,0.7-0.7s0.6,0.2,0.6,0.4l2.1,5.6l2.1-5.6c0.1-0.2,0.3-0.4,0.6-0.4
					c0.4,0,0.7,0.3,0.7,0.7c0,0.1,0,0.2,0,0.3L439,609c-0.1,0.2-0.3,0.4-0.7,0.4S437.9,609.3,437.8,609z"/>
				<path d="M446.2,608.8c0,0.4-0.3,0.7-0.7,0.7s-0.7-0.3-0.7-0.7v-6.9c0-0.4,0.3-0.7,0.7-0.7s0.7,0.3,0.7,0.7V608.8z"/>
				<path d="M451.1,604.7h2.3c0.3,0,0.6,0.3,0.6,0.6s-0.3,0.6-0.6,0.6h-2.3v2.2h3.2c0.4,0,0.6,0.3,0.6,0.6s-0.3,0.6-0.6,0.6h-3.9
					c-0.4,0-0.7-0.3-0.7-0.7v-6.7c0-0.4,0.3-0.7,0.7-0.7h3.8c0.4,0,0.6,0.3,0.6,0.6s-0.3,0.6-0.6,0.6h-3.1V604.7z"/>
				<path d="M462.4,604l-1.4,5c-0.1,0.3-0.4,0.5-0.7,0.5s-0.6-0.2-0.7-0.5l-2.1-6.9c0-0.1,0-0.1,0-0.2c0-0.4,0.3-0.7,0.7-0.7
					s0.6,0.3,0.7,0.5l1.4,5.1l1.4-5.1c0.1-0.3,0.4-0.5,0.7-0.5s0.6,0.2,0.7,0.5l1.4,5.1l1.4-5.1c0.1-0.2,0.3-0.5,0.7-0.5
					s0.7,0.3,0.7,0.7c0,0.1,0,0.1,0,0.2l-2.1,6.9c-0.1,0.3-0.4,0.5-0.7,0.5s-0.6-0.2-0.7-0.5L462.4,604z"/>
				<path d="M474.6,605.3c0-2.9,1.4-4.3,3.8-4.3c1.5,0,2.4,0.6,2.9,1.3c0.1,0.1,0.1,0.3,0.1,0.4c0,0.4-0.3,0.6-0.7,0.6
					c-0.2,0-0.3-0.1-0.5-0.2c-0.5-0.5-1-0.8-1.9-0.8c-1.6,0-2.3,1-2.3,3c0,2.1,0.7,3,2.3,3c0.9,0,1.4-0.2,2-0.8
					c0.2-0.2,0.4-0.3,0.5-0.3c0.4,0,0.7,0.3,0.7,0.7c0,0.1,0,0.3-0.1,0.4c-0.6,0.8-1.7,1.3-3,1.3C476,609.5,474.6,608.3,474.6,605.3
					z"/>
				<path d="M486.2,607.3l-0.7,1.8c-0.1,0.3-0.3,0.5-0.7,0.5s-0.7-0.3-0.7-0.7c0-0.1,0-0.2,0-0.3l2.9-7c0.1-0.2,0.3-0.4,0.6-0.4
					s0.6,0.3,0.6,0.4l2.9,7c0,0.1,0,0.2,0,0.3c0,0.4-0.3,0.7-0.7,0.7c-0.3,0-0.5-0.2-0.7-0.5l-0.7-1.8H486.2z M487.7,603.4l-1,2.5h2
					L487.7,603.4z"/>
				<path d="M495.6,606.3v2.5c0,0.4-0.3,0.7-0.7,0.7s-0.7-0.3-0.7-0.7V602c0-0.4,0.3-0.7,0.7-0.7h2.3c1.6,0,2.6,1.2,2.6,2.5
					c0,1.2-0.7,2.3-1.9,2.4l1.8,2.2c0.1,0.1,0.1,0.3,0.1,0.4c0,0.4-0.3,0.7-0.7,0.7c-0.2,0-0.4-0.1-0.5-0.3l-2.2-3L495.6,606.3
					L495.6,606.3z M495.6,602.5v2.5h1.6c0.8,0,1.1-0.6,1.1-1.3s-0.3-1.3-1.1-1.3L495.6,602.5L495.6,602.5z"/>
				<path d="M506.2,602.5v6.3c0,0.4-0.3,0.7-0.7,0.7s-0.7-0.3-0.7-0.7v-6.3h-1.9c-0.3,0-0.6-0.3-0.6-0.6s0.3-0.6,0.6-0.6h5.1
					c0.3,0,0.6,0.3,0.6,0.6s-0.3,0.6-0.6,0.6H506.2z"/>
			</g>
		</g>
	</g>
	<g>
		<polygon class="st10" points="151.6,565.7 117.9,572.7 58,562.5 11.4,575.6 8.7,618 36,643.3 67.2,636.6 109.6,643.8 156.3,639.7 
			166.6,594 166.6,593.7 		"/>
		<polygon class="st11" points="36,643.4 35.7,642.7 11.2,575.7 11.6,575.6 35.9,641.9 58,562.5 58.4,562.6 		"/>
		<path class="st11" d="M109.6,643.9l-0.3-0.3L50.5,590l0.4-0.1l67.2-17.2v0.3L109.6,643.9z M51.4,590.2l57.8,52.7l8.4-69.7
			L51.4,590.2z"/>
		<polygon class="st11" points="156.3,639.7 156.3,639.7 117.7,572.8 118.1,572.7 155.8,637.8 151.2,565.8 151.6,565.7 		"/>
		<polygon class="st11" points="68.2,636.8 67.2,636.7 93.6,629.1 94.1,629.5 		"/>
		<path class="st1" d="M37.9,598.5c-1.6,0-2.1,0.7-2.1,1.5c0,2.4,6.8,1.3,6.8,6c0,2.3-1.6,3.7-4.7,3.7c-1.9,0.1-3.6-0.8-4.7-2.3
			c-0.3-0.5-0.1-1.1,0.3-1.4c0.2-0.1,0.3-0.1,0.5-0.1c0.3,0,0.6,0.2,0.8,0.4c0.8,0.9,1.9,1.4,3,1.4c1.7,0,2.5-0.6,2.5-1.7
			c0-2.7-6.8-1.5-6.8-6c0-1.9,1.3-3.4,4.3-3.4c1.6-0.1,3.2,0.5,4.2,1.7c0.1,0.2,0.2,0.4,0.2,0.6c0,0.6-0.5,1-1,1c0,0,0,0,0,0
			c-0.3,0-0.6-0.2-0.8-0.4C39.8,598.9,38.9,598.5,37.9,598.5z"/>
		<path class="st1" d="M47.6,603.2c0-4.4,2.2-6.5,5.9-6.5c3.8,0,5.9,2.1,5.9,6.5s-2.2,6.5-5.9,6.5C49.8,609.7,47.6,607.5,47.6,603.2
			z M49.9,603.2c0,3.1,1.2,4.6,3.7,4.6s3.7-1.5,3.7-4.6s-1.2-4.6-3.7-4.6S49.9,600.1,49.9,603.2z"/>
		<path class="st1" d="M71.6,607.4c0.6,0,1,0.4,1,1c0,0,0,0,0,0.1c0,0.5-0.4,1-1,1c0,0-0.1,0-0.1,0H66c-0.6,0-1-0.4-1.1-1
			c0,0,0,0,0-0.1v-10.6c0-0.6,0.5-1.1,1.1-1.1s1.1,0.5,1.1,1.1v9.6L71.6,607.4L71.6,607.4z"/>
		<path class="st1" d="M81.5,596.9c3.7,0,6.1,1.7,6.1,6.3s-2.4,6.3-6.1,6.3H79c-0.6,0-1.1-0.5-1.1-1.1l0,0v-10.4
			c0-0.6,0.5-1.1,1.1-1.1l0,0H81.5z M80.1,607.5h1.4c2.4,0,3.8-1.1,3.8-4.3s-1.4-4.4-3.8-4.4h-1.4C80.1,598.8,80.1,607.5,80.1,607.5
			z"/>
		<path class="st1" d="M100.5,603.2c0-4.4,2.2-6.5,5.9-6.5c3.8,0,5.9,2.1,5.9,6.5s-2.2,6.5-5.9,6.5
			C102.7,609.7,100.5,607.5,100.5,603.2z M102.8,603.2c0,3.1,1.2,4.6,3.7,4.6s3.7-1.5,3.7-4.6s-1.2-4.6-3.7-4.6
			S102.8,600.1,102.8,603.2L102.8,603.2z"/>
		<path class="st1" d="M117.9,605.3v-7.5c0-0.6,0.5-1.1,1.1-1.1s1.1,0.5,1.1,1.1v7.5c0,1.1,0.4,2.5,2.5,2.5s2.5-1.3,2.5-2.5v-7.5
			c0-0.6,0.5-1.1,1.1-1.1s1.1,0.5,1.1,1.1v7.5c0,2.1-0.9,4.4-4.7,4.4C118.9,609.7,117.9,607.5,117.9,605.3z"/>
		<path class="st1" d="M138.5,598.8v9.7c0,0.6-0.5,1.1-1.1,1.1c-0.6,0-1.1-0.5-1.1-1.1v-9.7h-2.9c-0.5,0-0.9-0.4-0.9-0.9
			c0-0.5,0.4-0.9,0.9-0.9h7.9c0.5,0,0.9,0.4,0.9,0.9c0,0.5-0.4,0.9-0.9,0.9H138.5z"/>
	</g>
	<g>
		<g>
			<g>
				<path class="st12" d="M108.7,841.5L67,834.4l-30.7,6.6L9.6,816.1l2.7-41.7L58,761.5l58.8,10.1l33.1-6.9l14.7,27.5v0.4
					l-10.1,44.8L108.7,841.5z M67,832.3l41.8,7.1l44.3-3.9l9.6-43.1L149.1,767l-32.1,6.7h-0.2l-58.5-10.1l-44,12.4l-2.5,39.2
					l25.2,23.4L67,832.3z"/>
			</g>
			<g>
				<path class="st13" d="M31.7,802.7v3.3c0,0.5-0.4,0.9-0.9,0.9c-0.5,0-0.9-0.4-0.9-0.9v-8.9c0-0.5,0.4-0.9,0.9-0.9h3
					c1.8,0,3.3,1,3.3,3.2c0,2.2-1.4,3.2-3.3,3.2H31.7z M31.7,797.8v3.2h2c1,0,1.6-0.6,1.6-1.6c0-1-0.6-1.6-1.6-1.6H31.7z"/>
				<path class="st13" d="M45.1,802.7v3.3c0,0.5-0.4,0.9-0.9,0.9c-0.5,0-0.9-0.4-0.9-0.9v-8.9c0-0.5,0.4-0.9,0.9-0.9h3
					c2.1,0,3.3,1.5,3.3,3.3c0,1.5-0.9,2.9-2.4,3.1l2.3,2.8c0.1,0.2,0.2,0.4,0.2,0.6c0,0.5-0.4,0.9-0.9,0.9c-0.3,0-0.6-0.1-0.7-0.3
					l-2.9-3.9H45.1z M45.1,797.8v3.3h2.1c1,0,1.4-0.8,1.4-1.6c0-0.8-0.4-1.7-1.4-1.7H45.1z"/>
				<path class="st13" d="M58.7,800.7h3c0.4,0,0.8,0.4,0.8,0.8c0,0.4-0.4,0.8-0.8,0.8h-3v2.9h4.2c0.5,0,0.8,0.4,0.8,0.8
					c0,0.5-0.4,0.8-0.8,0.8h-5.1c-0.5,0-0.9-0.4-0.9-0.9v-8.8c0-0.5,0.4-0.9,0.9-0.9h4.9c0.5,0,0.8,0.4,0.8,0.8
					c0,0.5-0.4,0.8-0.8,0.8h-4V800.7z"/>
				<path class="st13" d="M73.4,803.6h-3.1c-0.4,0-0.7-0.3-0.7-0.7c0-0.4,0.3-0.7,0.7-0.7h3.1c0.4,0,0.7,0.3,0.7,0.7
					C74.1,803.2,73.8,803.6,73.4,803.6z"/>
				<path class="st13" d="M80.1,801.5c0-3.7,1.8-5.5,5-5.5s5,1.8,5,5.5c0,3.7-1.8,5.5-5,5.5S80.1,805.2,80.1,801.5z M82,801.5
					c0,2.6,1,3.9,3.1,3.9s3.1-1.3,3.1-3.9c0-2.6-1-3.9-3.1-3.9S82,798.9,82,801.5z"/>
				<path class="st13" d="M98.1,802.7v3.3c0,0.5-0.4,0.9-0.9,0.9c-0.5,0-0.9-0.4-0.9-0.9v-8.9c0-0.5,0.4-0.9,0.9-0.9h3
					c2.1,0,3.3,1.5,3.3,3.3c0,1.5-0.9,2.9-2.4,3.1l2.3,2.8c0.1,0.2,0.2,0.4,0.2,0.6c0,0.5-0.4,0.9-0.9,0.9c-0.3,0-0.6-0.1-0.7-0.3
					l-2.9-3.9H98.1z M98.1,797.8v3.3h2.1c1,0,1.4-0.8,1.4-1.6c0-0.8-0.4-1.7-1.4-1.7H98.1z"/>
				<path class="st13" d="M112.8,796.2c3.1,0,5.1,1.4,5.1,5.3s-2,5.3-5.1,5.3h-2.1c-0.5,0-0.9-0.4-0.9-0.9v-8.8
					c0-0.5,0.4-0.9,0.9-0.9H112.8z M111.6,805.2h1.2c2,0,3.2-0.9,3.2-3.7s-1.2-3.7-3.2-3.7h-1.2V805.2z"/>
				<path class="st13" d="M126,800.7h3c0.4,0,0.8,0.4,0.8,0.8c0,0.4-0.4,0.8-0.8,0.8h-3v2.9h4.2c0.5,0,0.8,0.4,0.8,0.8
					c0,0.5-0.4,0.8-0.8,0.8H125c-0.5,0-0.9-0.4-0.9-0.9v-8.8c0-0.5,0.4-0.9,0.9-0.9h4.9c0.5,0,0.8,0.4,0.8,0.8
					c0,0.5-0.4,0.8-0.8,0.8h-4V800.7z"/>
				<path class="st13" d="M138.9,802.7v3.3c0,0.5-0.4,0.9-0.9,0.9s-0.9-0.4-0.9-0.9v-8.9c0-0.5,0.4-0.9,0.9-0.9h3
					c2.1,0,3.3,1.5,3.3,3.3c0,1.5-0.9,2.9-2.4,3.1l2.3,2.8c0.1,0.2,0.2,0.4,0.2,0.6c0,0.5-0.4,0.9-0.9,0.9c-0.3,0-0.6-0.1-0.7-0.3
					l-2.9-3.9H138.9z M138.9,797.8v3.3h2.1c1,0,1.4-0.8,1.4-1.6c0-0.8-0.4-1.7-1.4-1.7H138.9z"/>
			</g>
		</g>
	</g>
	<g>
		<polygon class="st12" points="145.8,666 113.4,672.8 55.9,662.9 11.2,675.6 8.6,716.3 34.8,740.5 64.7,734.1 105.4,741 
			150.3,737.1 160.2,693.2 160.2,692.9 		"/>
		<g>
			<g>
				<polygon class="st14" points="34.8,740.6 34.6,739.9 11,675.7 11.4,675.5 34.7,739.2 55.9,662.9 56.3,663 				"/>
			</g>
			<g>
				<path class="st14" d="M105.4,741.1l-0.3-0.3l-56.4-51.4l0.4-0.1l64.5-16.5l0,0.3L105.4,741.1z M49.6,689.6l55.5,50.6l8-66.9
					L49.6,689.6z"/>
			</g>
			<g>
				<g>
					<polygon class="st14" points="150.3,737.1 150.3,737.1 113.2,672.8 113.6,672.8 149.8,735.3 145.4,666.1 145.8,666.1 					"/>
				</g>
			</g>
			<g>
				<polygon class="st14" points="65.7,734.3 64.7,734.1 90.1,726.9 90.6,727.2 				"/>
			</g>
		</g>
		<g>
			<path class="st1" d="M30.2,702.5v3.3c0,0.5-0.4,0.9-0.9,0.9c-0.5,0-0.9-0.4-0.9-0.9v-8.7c0-0.5,0.4-0.9,0.9-0.9h2.9
				c1.8,0,3.2,1,3.2,3.2c0,2.1-1.4,3.2-3.2,3.2H30.2z M30.2,697.8v3.1h1.9c1,0,1.5-0.6,1.5-1.6c0-1-0.6-1.6-1.5-1.6H30.2z"/>
			<path class="st1" d="M43.3,702.6v3.2c0,0.5-0.4,0.9-0.9,0.9c-0.5,0-0.9-0.4-0.9-0.9v-8.7c0-0.5,0.4-0.9,0.9-0.9h2.9
				c2.1,0,3.2,1.5,3.2,3.2c0,1.5-0.9,2.9-2.4,3.1l2.3,2.8c0.1,0.2,0.2,0.4,0.2,0.5c0,0.5-0.4,0.9-0.9,0.9c-0.3,0-0.5-0.1-0.7-0.3
				l-2.8-3.8H43.3z M43.3,697.8v3.2h2.1c1,0,1.4-0.8,1.4-1.6c0-0.8-0.4-1.6-1.4-1.6H43.3z"/>
			<path class="st1" d="M56.6,700.6h2.9c0.4,0,0.8,0.4,0.8,0.8c0,0.4-0.4,0.8-0.8,0.8h-2.9v2.8h4.1c0.4,0,0.8,0.4,0.8,0.8
				c0,0.4-0.4,0.8-0.8,0.8h-5c-0.5,0-0.9-0.4-0.9-0.9v-8.6c0-0.5,0.4-0.9,0.9-0.9h4.8c0.4,0,0.8,0.4,0.8,0.8c0,0.4-0.4,0.8-0.8,0.8
				h-3.9V700.6z"/>
			<path class="st1" d="M71,703.4h-3.1c-0.4,0-0.7-0.3-0.7-0.7c0-0.4,0.3-0.7,0.7-0.7H71c0.4,0,0.7,0.3,0.7,0.7
				C71.7,703.1,71.3,703.4,71,703.4z"/>
			<path class="st1" d="M77.5,701.4c0-3.6,1.8-5.4,4.9-5.4s4.9,1.8,4.9,5.4c0,3.6-1.8,5.4-4.9,5.4S77.5,705,77.5,701.4z M79.3,701.4
				c0,2.5,1,3.8,3,3.8s3-1.2,3-3.8c0-2.6-1-3.8-3-3.8S79.3,698.9,79.3,701.4z"/>
			<path class="st1" d="M95.1,702.6v3.2c0,0.5-0.4,0.9-0.9,0.9s-0.9-0.4-0.9-0.9v-8.7c0-0.5,0.4-0.9,0.9-0.9h2.9
				c2.1,0,3.2,1.5,3.2,3.2c0,1.5-0.9,2.9-2.4,3.1l2.3,2.8c0.1,0.2,0.2,0.4,0.2,0.5c0,0.5-0.4,0.9-0.9,0.9c-0.3,0-0.5-0.1-0.7-0.3
				l-2.8-3.8H95.1z M95.1,697.8v3.2h2.1c1,0,1.4-0.8,1.4-1.6c0-0.8-0.4-1.6-1.4-1.6H95.1z"/>
			<path class="st1" d="M109.5,696.2c3.1,0,5,1.4,5,5.2c0,3.8-1.9,5.2-5,5.2h-2.1c-0.5,0-0.9-0.4-0.9-0.9v-8.6
				c0-0.5,0.4-0.9,0.9-0.9H109.5z M108.3,705h1.2c2,0,3.2-0.9,3.2-3.6s-1.2-3.6-3.2-3.6h-1.2V705z"/>
			<path class="st1" d="M122.3,700.6h2.9c0.4,0,0.8,0.4,0.8,0.8c0,0.4-0.4,0.8-0.8,0.8h-2.9v2.8h4.1c0.4,0,0.8,0.4,0.8,0.8
				c0,0.4-0.4,0.8-0.8,0.8h-5c-0.5,0-0.9-0.4-0.9-0.9v-8.6c0-0.5,0.4-0.9,0.9-0.9h4.8c0.4,0,0.8,0.4,0.8,0.8c0,0.4-0.4,0.8-0.8,0.8
				h-3.9V700.6z"/>
			<path class="st1" d="M135,702.6v3.2c0,0.5-0.4,0.9-0.9,0.9s-0.9-0.4-0.9-0.9v-8.7c0-0.5,0.4-0.9,0.9-0.9h2.9
				c2.1,0,3.2,1.5,3.2,3.2c0,1.5-0.9,2.9-2.4,3.1l2.3,2.8c0.1,0.2,0.2,0.4,0.2,0.5c0,0.5-0.4,0.9-0.9,0.9c-0.3,0-0.5-0.1-0.7-0.3
				l-2.8-3.8H135z M135,697.8v3.2h2.1c1,0,1.4-0.8,1.4-1.6c0-0.8-0.4-1.6-1.4-1.6H135z"/>
		</g>
	</g>
</g>
</svg>
