<?xml version="1.0" encoding="utf-8"?>
<!-- Generator: Adobe Illustrator 19.0.0, SVG Export Plug-In . SVG Version: 6.00 Build 0)  -->
<svg version="1.1" id="Layer_1" xmlns="http://www.w3.org/2000/svg" xmlns:xlink="http://www.w3.org/1999/xlink" x="0px" y="0px"
	 viewBox="-177 443.5 255.5 101" style="enable-background:new -177 443.5 255.5 101;" xml:space="preserve">
<style type="text/css">
	.st0{fill:#66B0AD;}
	.st1{fill:none;stroke:#797979;stroke-linecap:round;stroke-linejoin:round;stroke-miterlimit:10;}
	.st2{fill:#22201F;}
	.st3{fill:#C84457;}
</style>
<g>
	<g>
		<g>
			<path class="st0" d="M-155,489.2l-6.5,18.4l-6.3-1.9l-1.9,5.2c25.3,4.2,22.3,31,22.3,31h9.7c0,0-3-26.8,22.3-31l-2-5.2l-6.3,1.9
				l-6.5-18.4l14.8-1.7l2.2-11.8c0,0-7.7-2.8-6.8-11l1.8-19.2h-4.4l-2.3,15.4l-5.2,0.2l-5.3,7l-6.5,3.8l0.6,2.9h-2.6l0.6-2.9
				l-6.5-3.8l-5.3-7l-5.2-0.2l-2.3-15.4h-4.4l1.8,19.2c0.9,8.2-6.8,11-6.8,11l2.2,11.8L-155,489.2"/>
		</g>
		<g>
			<path class="st1" d="M-142.7,541.8"/>
			<polyline class="st1" points="-161.3,453.3 -160.2,460.9 -155,461.2 -149.8,468.2 -143.3,472 -144,474.9 -142.7,474.9 			"/>
			<path class="st1" d="M-158.7,499.5l3.7-10.4l-14.8-1.7l-2.2-11.8c0,0,7.7-2.8,6.8-11l-1.8-19.2h4.4l0.4,2.6"/>
			<path class="st1" d="M-142.7,541.8h-4.8c0,0,3-26.8-22.3-31l1.9-5.2l6.3,1.9l0.7-1.9"/>
			<path class="st1" d="M-142.7,541.8"/>
			<path class="st1" d="M-136.9,530.1c2-7.8,7.3-17,21.3-19.3l-1.9-5.2l-6.3,1.9l-6.5-18.4l14.8-1.7l2.2-11.8c0,0-7.7-2.8-6.8-11
				l1.8-19.2h-4.4l-2.3,15.4l-5.2,0.2l-5.3,7l-6.5,3.8l0.6,2.9h-1.3"/>
			<path class="st1" d="M-142.7,541.8h4.8c0,0-0.2-2.2,0-5.4"/>
			<path class="st1" d="M-153.7,479.9c-0.5-4.8-3-10.4-11.4-13.6"/>
			<path class="st1" d="M-155,489.2c0,0,0.4-1,0.8-2.7"/>
			<path class="st1" d="M-124.6,468.5c1.2-0.8,2.7-1.5,4.3-2.1"/>
			<path class="st1" d="M-130.3,489.2c0,0-4.1-9.8,1.8-17.2"/>
		</g>
	</g>
	<g>
		<g>
			<g>
				<path class="st2" d="M-60.3,489.2l-6.5,18.4l-6.3-1.9l-1.9,5.2c25.3,4.2,22.3,31,22.3,31h9.7c0,0-3-26.8,22.3-31l-2-5.2
					l-6.3,1.9l-6.5-18.4l14.8-1.7l2.2-11.8c0,0-7.7-2.8-6.8-11l1.8-19.2h-4.4l-2.3,15.4l-5.2,0.2l-5.3,7l-6.5,3.8l0.6,2.9h-2.6
					l0.6-2.9l-6.5-3.8l-5.3-7l-5.2-0.2l-2.3-15.4h-4.4l1.8,19.2c0.9,8.2-6.8,11-6.8,11l2.2,11.8L-60.3,489.2"/>
			</g>
		</g>
		<g>
			<path class="st1" d="M-47.9,541.8"/>
			<polyline class="st1" points="-66.6,453.3 -65.4,460.9 -60.3,461.2 -55,468.2 -48.5,472 -49.2,474.9 -47.9,474.9 			"/>
			<path class="st1" d="M-63.9,499.5l3.7-10.4l-14.8-1.7l-2.2-11.8c0,0,7.7-2.8,6.8-11l-1.8-19.2h4.4l0.4,2.6"/>
			<path class="st1" d="M-47.9,541.8h-4.8c0,0,3-26.8-22.3-31l1.9-5.2l6.3,1.9l0.7-1.9"/>
			<path class="st1" d="M-47.9,541.8"/>
			<path class="st1" d="M-42.1,530.1c2-7.8,7.3-17,21.3-19.3l-1.9-5.2l-6.3,1.9l-6.5-18.4l14.8-1.7l2.2-11.8c0,0-7.7-2.8-6.8-11
				l1.8-19.2h-4.4l-2.3,15.4l-5.2,0.2l-5.3,7l-6.5,3.8l0.6,2.9h-1.3"/>
			<path class="st1" d="M-47.9,541.8h4.8c0,0-0.2-2.2,0-5.4"/>
			<path class="st1" d="M-59,479.9c-0.5-4.8-3-10.4-11.4-13.6"/>
			<path class="st1" d="M-60.3,489.2c0,0,0.4-1,0.8-2.7"/>
			<path class="st1" d="M-29.8,468.5c1.2-0.8,2.7-1.5,4.3-2.1"/>
			<path class="st1" d="M-35.5,489.2c0,0-4.1-9.8,1.8-17.2"/>
		</g>
	</g>
	<g>
		<g>
			<path class="st3" d="M34.5,489.2L28,507.6l-6.3-1.9l-1.9,5.2c25.3,4.2,22.3,31,22.3,31h9.7c0,0-3-26.8,22.3-31l-2-5.2l-6.3,1.9
				l-6.5-18.4l14.8-1.7l2.2-11.8c0,0-7.7-2.8-6.8-11l1.8-19.2h-4.4l-2.3,15.4l-5.2,0.2l-5.3,7l-6.5,3.8l0.6,2.9h-2.6l0.6-2.9
				l-6.5-3.8l-5.3-7l-5.2-0.2l-2.3-15.4h-4.4l1.8,19.2c0.9,8.2-6.8,11-6.8,11l2.2,11.8L34.5,489.2"/>
		</g>
		<g>
			<path class="st1" d="M46.9,541.8"/>
			<polyline class="st1" points="28.2,453.3 29.4,460.9 34.5,461.2 39.8,468.2 46.2,472 45.6,474.9 46.9,474.9 			"/>
			<path class="st1" d="M30.8,499.5l3.7-10.4l-14.8-1.7l-2.2-11.8c0,0,7.7-2.8,6.8-11l-1.8-19.2h4.4l0.4,2.6"/>
			<path class="st1" d="M46.9,541.8h-4.8c0,0,3-26.8-22.3-31l1.9-5.2l6.3,1.9l0.7-1.9"/>
			<path class="st1" d="M46.9,541.8"/>
			<path class="st1" d="M52.7,530.1c2-7.8,7.3-17,21.3-19.3l-1.9-5.2l-6.3,1.9l-6.5-18.4l14.8-1.7l2.2-11.8c0,0-7.7-2.8-6.8-11
				l1.8-19.2h-4.4l-2.3,15.4l-5.2,0.2l-5.3,7l-6.5,3.8l0.6,2.9h-1.3"/>
			<path class="st1" d="M46.9,541.8h4.8c0,0-0.2-2.2,0-5.4"/>
			<path class="st1" d="M35.8,479.9c-0.5-4.8-3-10.4-11.4-13.6"/>
			<path class="st1" d="M34.5,489.2c0,0,0.4-1,0.8-2.7"/>
			<path class="st1" d="M65,468.5c1.2-0.8,2.7-1.5,4.3-2.1"/>
			<path class="st1" d="M59.3,489.2c0,0-4.1-9.8,1.8-17.2"/>
		</g>
	</g>
</g>
</svg>
