<?xml version="1.0" encoding="utf-8"?>
<!-- Generator: Adobe Illustrator 19.0.0, SVG Export Plug-In . SVG Version: 6.00 Build 0)  -->
<svg version="1.1" id="Layer_1" xmlns="http://www.w3.org/2000/svg" xmlns:xlink="http://www.w3.org/1999/xlink" x="0px" y="0px"
	 viewBox="0 0 255.5 84" style="enable-background:new 0 0 255.5 84;" xml:space="preserve">
<style type="text/css">
	.st0{fill:#222220;}
	.st1{fill:none;stroke:#797979;stroke-linecap:round;stroke-linejoin:round;stroke-miterlimit:10;}
	.st2{fill:none;stroke:#712C36;stroke-width:2;stroke-linecap:round;stroke-linejoin:round;stroke-miterlimit:10;}
	.st3{fill:none;stroke:#712C36;stroke-width:4;stroke-linecap:round;stroke-linejoin:round;stroke-miterlimit:10;}
	.st4{fill:none;stroke:#BEBFBE;stroke-width:2;stroke-linecap:round;stroke-linejoin:round;stroke-miterlimit:10;}
	.st5{fill:none;stroke:#000002;stroke-width:4;stroke-linecap:round;stroke-linejoin:round;stroke-miterlimit:10;}
	.st6{fill:none;stroke:#186770;stroke-width:2;stroke-linecap:round;stroke-linejoin:round;stroke-miterlimit:10;}
	.st7{fill:none;stroke:#186770;stroke-width:4;stroke-linecap:round;stroke-linejoin:round;stroke-miterlimit:10;}
</style>
<g>
	<g>
		<polyline class="st0" points="54.4,83 61.9,46.8 54.1,8.4 32.9,8.4 11.8,8.4 4,46.8 11.6,83 		"/>
		<g>
			<g>
				<line class="st1" x1="11.6" y1="83" x2="54.4" y2="83"/>
				<g>
					<line class="st1" x1="32.9" y1="15.2" x2="32.9" y2="8.5"/>
					<polyline class="st1" points="61.9,46.8 32.9,55.9 4,46.8 					"/>
					<polyline class="st1" points="11.6,83 32.9,55.9 44.6,70.6 					"/>
					<line class="st1" x1="47" y1="73.8" x2="54.4" y2="83"/>
					<line class="st1" x1="32.9" y1="55.9" x2="32.9" y2="19.4"/>
					<line class="st1" x1="31.9" y1="2" x2="28" y2="6"/>
					<line class="st1" x1="37.9" y1="6" x2="34" y2="2"/>
					<line class="st2" x1="49.1" y1="55.4" x2="45.8" y2="56.3"/>
				</g>
			</g>
			<polyline class="st3" points="54.6,81.9 61.9,46.8 54.1,8.4 32.9,8.4 11.8,8.4 4,46.8 11.3,81.8 			"/>
		</g>
	</g>
	<g>
		<polyline class="st0" points="149.4,83 157,46.8 149.1,8.4 128,8.4 106.9,8.4 99,46.8 106.6,83 		"/>
		<g>
			<g>
				<line class="st1" x1="106.6" y1="83" x2="149.4" y2="83"/>
				<g>
					<line class="st1" x1="128" y1="15.2" x2="128" y2="8.5"/>
					<polyline class="st1" points="157,46.8 128,55.9 99,46.8 					"/>
					<polyline class="st1" points="106.6,83 128,55.9 139.6,70.6 					"/>
					<line class="st1" x1="142" y1="73.8" x2="149.4" y2="83"/>
					<line class="st1" x1="128" y1="55.9" x2="128" y2="19.4"/>
					<line class="st1" x1="126.9" y1="2" x2="123" y2="6"/>
					<line class="st1" x1="133" y1="6" x2="129.1" y2="2"/>
					<line class="st4" x1="144.1" y1="55.4" x2="140.9" y2="56.3"/>
				</g>
			</g>
			<polyline class="st5" points="149.6,81.9 157,46.8 149.1,8.4 128,8.4 106.9,8.4 99,46.8 106.4,81.8 			"/>
		</g>
	</g>
	<g>
		<polyline class="st0" points="243.6,83 251.2,46.8 243.4,8.4 222.2,8.4 201.1,8.4 193.2,46.8 200.8,83 		"/>
		<g>
			<g>
				<line class="st1" x1="200.8" y1="83" x2="243.6" y2="83"/>
				<g>
					<line class="st1" x1="222.2" y1="15.2" x2="222.2" y2="8.5"/>
					<polyline class="st1" points="251.2,46.8 222.2,55.9 193.2,46.8 					"/>
					<polyline class="st1" points="200.8,83 222.2,55.9 233.8,70.6 					"/>
					<line class="st1" x1="236.2" y1="73.8" x2="243.6" y2="83"/>
					<line class="st1" x1="222.2" y1="55.9" x2="222.2" y2="19.4"/>
					<line class="st1" x1="221.1" y1="2" x2="217.2" y2="6"/>
					<line class="st1" x1="227.2" y1="6" x2="223.3" y2="2"/>
					<line class="st6" x1="238.3" y1="55.4" x2="235.1" y2="56.3"/>
				</g>
			</g>
			<polyline class="st7" points="243.8,81.9 251.2,46.8 243.4,8.4 222.2,8.4 201.1,8.4 193.2,46.8 200.6,81.8 			"/>
		</g>
	</g>
</g>
</svg>
