<?xml version="1.0" encoding="utf-8"?>
<!-- Generator: Adobe Illustrator 19.0.0, SVG Export Plug-In . SVG Version: 6.00 Build 0)  -->
<svg version="1.1" id="Layer_1" xmlns="http://www.w3.org/2000/svg" xmlns:xlink="http://www.w3.org/1999/xlink" x="0px" y="0px"
	 viewBox="0 0 406.2 135.9" style="enable-background:new 0 0 406.2 135.9;" xml:space="preserve">
<style type="text/css">
	.st0{fill:#EDEEF0;}
</style>
<g>
	<polygon class="st0" points="378.2,22.8 392.9,50.8 403.3,22.8 	"/>
	<g>
		<path class="st0" d="M359.2,81.4l-19.6-58.6h-23.6h-2.2h-18v-22h-24.4v22h-10.3h-20.2v-22h-24.3v22l0,0
			c-26.1,0-33.8,13.6-33.8,13.6V22.8h-24.4v16.5l-2.4-2.8l0,0c-0.2-0.2-0.4-0.4-0.6-0.6l-0.7-0.8l-0.1,0
			c-8.3-8.6-19.8-13.6-31.8-13.6c-18.2,0-33.9,11.1-40.6,26.9l10.1-26H67.3L47.9,80.1L28.7,22.5H2.9l33.8,86.7h22.1l23.4-59.9
			c-2.1,5.1-3.2,10.7-3.2,16.6c0,24.4,19.8,44.2,44.2,44.2c13.1,0,25.6-6,33.9-16l0.1,0c0,0,0.5-0.5,1.5-1.4v16.2h24.4V76.2
			c0.9-20.1,10.9-32.2,26.8-32.5h7.1v40.8c0,19.9,10.1,25.8,25,25.8c8.2,0,14.1-1.9,19.2-5V85.8c-3.5,1.9-7.5,3.1-12,3.1
			c-5.4,0-7.9-2.7-7.9-8.3V43.7h20.2h10.3v40.8c0,19.9,10.1,25.8,25,25.8c8.2,0,14.1-1.9,19.2-5V85.8c-3.5,1.9-7.5,3.1-12,3.1
			c-5.5,0-7.9-2.7-7.9-8.3V43.7H322l25.5,65.5c-2.1,4.3-4.3,5.6-8.5,5.6c-3.2,0-7.2-1.4-10.4-3.4l-8.2,17.7
			c6.2,3.7,12.8,5.9,21.6,5.9c14.6,0,21.6-6.6,28.2-24.1l14.1-38l-13.8-25.5L359.2,81.4z M100.2,65.8c0-12.6,10.3-22.9,22.9-22.9
			c4,0,7.8,1.2,11.2,3.1l-32.6,27.9C100.8,71.4,100.2,68.7,100.2,65.8 M158.6,66c-6.3,11.6-17.8,18.2-26.7,21
			c-2.7,1.1-5.7,1.7-8.8,1.7c-3.1,0-6-0.6-8.7-1.7l44.2-40.4V66z"/>
	</g>
</g>
</svg>
