<?xml version="1.0" encoding="utf-8"?>
<!-- Generator: Adobe Illustrator 21.0.0, SVG Export Plug-In . SVG Version: 6.00 Build 0)  -->
<svg version="1.1" id="Layer_1" xmlns="http://www.w3.org/2000/svg" xmlns:xlink="http://www.w3.org/1999/xlink" x="0px" y="0px"
	 viewBox="0 0 1277 204.4" style="enable-background:new 0 0 1277 204.4;" xml:space="preserve">
<style type="text/css">
	.st0{fill:#242424;}
	.st1{fill:#FFFFFF;}
	.st2{fill:#EDECEC;}
</style>
<rect y="-3.2" class="st0" width="1277" height="207.6"/>
<g>
	<g>
		<path class="st1" d="M1147.7,36.7l7.4-6.3c0.7-0.6,1.4-1.2,1.9-1.7c0.5-0.5,0.9-1,1.2-1.4s0.5-0.9,0.7-1.3
			c0.2-0.4,0.2-0.9,0.2-1.4c0-1.1-0.3-1.9-1-2.5c-0.7-0.6-1.5-0.9-2.5-0.9s-1.8,0.3-2.6,0.8c-0.8,0.5-1.5,1.3-2.4,2.4l-2.7-2.1
			c0.5-0.7,1-1.4,1.6-1.9c0.5-0.6,1.1-1,1.7-1.4c0.6-0.4,1.3-0.7,2.1-0.9c0.8-0.2,1.6-0.3,2.6-0.3c1,0,2,0.2,2.9,0.5
			c0.9,0.3,1.6,0.7,2.2,1.3c0.6,0.6,1.1,1.2,1.5,2c0.3,0.8,0.5,1.7,0.5,2.6v0.1c0,0.8-0.1,1.6-0.3,2.3c-0.2,0.7-0.6,1.4-1,2
			c-0.5,0.6-1,1.3-1.7,1.9c-0.7,0.6-1.5,1.4-2.5,2.1l-4.4,3.7h10.2v3.3h-15.5L1147.7,36.7L1147.7,36.7z"/>
		<path class="st1" d="M1176.2,39.7c-1.7,0-3.2-0.3-4.5-0.9c-1.4-0.6-2.6-1.4-3.5-2.4c-1-1-1.7-2.2-2.3-3.5
			c-0.5-1.3-0.8-2.8-0.8-4.3v-0.1c0-1.5,0.3-2.9,0.8-4.3c0.5-1.3,1.3-2.5,2.3-3.5c1-1,2.2-1.8,3.6-2.4c1.4-0.6,2.9-0.9,4.5-0.9
			c1.7,0,3.2,0.3,4.5,0.9c1.4,0.6,2.5,1.4,3.5,2.4c1,1,1.7,2.2,2.3,3.5c0.5,1.3,0.8,2.8,0.8,4.3v0.1c0,1.5-0.3,2.9-0.8,4.3
			c-0.6,1.3-1.3,2.5-2.3,3.5c-1,1-2.2,1.8-3.6,2.4C1179.4,39.4,1177.9,39.7,1176.2,39.7 M1176.3,36.2c1.1,0,2-0.2,2.9-0.6
			c0.9-0.4,1.6-0.9,2.3-1.6c0.6-0.7,1.1-1.5,1.5-2.4c0.4-0.9,0.5-1.9,0.5-3v-0.1c0-1-0.2-2-0.5-3c-0.4-0.9-0.9-1.7-1.5-2.4
			c-0.6-0.7-1.4-1.2-2.3-1.6c-0.9-0.4-1.9-0.6-2.9-0.6s-2,0.2-2.9,0.6s-1.6,0.9-2.3,1.6c-0.6,0.7-1.1,1.5-1.5,2.4
			c-0.4,0.9-0.5,1.9-0.5,3v0.1c0,1,0.2,2,0.5,3c0.4,0.9,0.9,1.7,1.5,2.4c0.6,0.7,1.4,1.2,2.3,1.6C1174.3,36,1175.2,36.2,1176.3,36.2
			"/>
		<path class="st1" d="M1189,36.7l7.4-6.3c0.7-0.6,1.4-1.2,1.9-1.7c0.5-0.5,0.9-1,1.2-1.4c0.3-0.5,0.5-0.9,0.7-1.3
			c0.1-0.4,0.2-0.9,0.2-1.4c0-1.1-0.3-1.9-1-2.5c-0.7-0.6-1.5-0.9-2.5-0.9s-1.8,0.3-2.6,0.8c-0.8,0.5-1.5,1.3-2.4,2.4l-2.7-2.1
			c0.5-0.7,1-1.4,1.6-1.9c0.5-0.6,1.1-1,1.7-1.4c0.6-0.4,1.3-0.7,2.1-0.9c0.8-0.2,1.6-0.3,2.6-0.3c1,0,2,0.2,2.9,0.5
			c0.9,0.3,1.6,0.7,2.2,1.3c0.6,0.6,1.1,1.2,1.5,2c0.4,0.8,0.5,1.7,0.5,2.6v0.1c0,0.8-0.1,1.6-0.3,2.3c-0.2,0.7-0.6,1.4-1,2
			c-0.5,0.6-1,1.3-1.7,1.9c-0.7,0.6-1.5,1.4-2.5,2.1l-4.4,3.7h10.2v3.3H1189L1189,36.7L1189,36.7z"/>
		<path class="st1" d="M1217.5,39.7c-1.7,0-3.2-0.3-4.5-0.9s-2.5-1.4-3.5-2.4c-1-1-1.7-2.2-2.3-3.5c-0.5-1.3-0.8-2.8-0.8-4.3v-0.1
			c0-1.5,0.3-2.9,0.8-4.3c0.5-1.3,1.3-2.5,2.3-3.5c1-1,2.2-1.8,3.6-2.4c1.4-0.6,2.9-0.9,4.6-0.9c1.7,0,3.2,0.3,4.5,0.9
			c1.4,0.6,2.5,1.4,3.5,2.4c1,1,1.7,2.2,2.3,3.5c0.5,1.3,0.8,2.8,0.8,4.3v0.1c0,1.5-0.3,2.9-0.8,4.3c-0.5,1.3-1.3,2.5-2.3,3.5
			c-1,1-2.2,1.8-3.6,2.4C1220.6,39.4,1219.1,39.7,1217.5,39.7 M1217.5,36.2c1.1,0,2-0.2,2.9-0.6c0.9-0.4,1.6-0.9,2.3-1.6
			c0.6-0.7,1.1-1.5,1.5-2.4c0.4-0.9,0.5-1.9,0.5-3v-0.1c0-1-0.2-2-0.5-3c-0.4-0.9-0.9-1.7-1.5-2.4c-0.6-0.7-1.4-1.2-2.3-1.6
			c-0.9-0.4-1.9-0.6-2.9-0.6c-1.1,0-2,0.2-2.9,0.6s-1.7,0.9-2.3,1.6s-1.1,1.5-1.5,2.4c-0.4,0.9-0.5,1.9-0.5,3v0.1c0,1,0.2,2,0.5,3
			c0.4,0.9,0.9,1.7,1.5,2.4c0.6,0.7,1.4,1.2,2.3,1.6C1215.5,36,1216.5,36.2,1217.5,36.2"/>
	</g>
	<g>
		<path class="st1" d="M1150.1,10.9c-0.1,0-0.2,0-0.4,0v1.3c0.3,0,0.5,0.1,0.8,0.1V13h-2.7v-0.7c0.2,0,0.5-0.1,0.8-0.1V7.8
			c-0.3,0-0.5-0.1-0.8-0.1V6.9h0.7c0.3,0,1.1,0,1.7,0c1.5,0,2.3,0.7,2.3,1.9C1152.4,10,1151.5,10.9,1150.1,10.9z M1150.1,7.9
			c-0.1,0-0.3,0-0.4,0v2c0.1,0,0.2,0,0.3,0c0.7,0,1.2-0.4,1.2-1.1C1151.2,8.2,1150.9,7.9,1150.1,7.9z M1155.7,13.1
			c-1.8,0-2.7-1.2-2.7-3c0-2,1.3-3.2,3-3.2c1.6,0,2.7,1,2.7,3C1158.6,11.9,1157.3,13.1,1155.7,13.1z M1155.8,7.9
			c-0.8,0-1.6,0.7-1.6,2c0,1.3,0.5,2.1,1.6,2.1c0.8,0,1.6-0.6,1.6-2C1157.4,8.6,1156.8,7.9,1155.8,7.9z M1162.6,13l-1.5-2.5h-0.2
			v1.7c0.2,0,0.4,0,0.5,0.1V13h-2.5v-0.7c0.2,0,0.5-0.1,0.8-0.1V7.8c-0.3,0-0.5-0.1-0.8-0.1V6.9h0.7c0.2,0,1.1,0,1.8,0
			c1.3,0,2.2,0.5,2.2,1.7c0,0.8-0.6,1.5-1.4,1.6c0.1,0.1,0.2,0.3,0.3,0.4l0.9,1.5c0.2,0,0.4,0.1,0.6,0.1V13L1162.6,13L1162.6,13
			L1162.6,13z M1161.4,7.9c-0.2,0-0.3,0-0.5,0v1.7c0.1,0,0.2,0,0.4,0c0.7,0,1.1-0.4,1.1-0.9C1162.5,8.1,1162.2,7.9,1161.4,7.9z
			 M1168.3,8.6c0-0.3-0.1-0.5-0.1-0.7h-0.9v4.3c0.3,0,0.5,0.1,0.8,0.1V13h-2.7v-0.7c0.2,0,0.5-0.1,0.8-0.1V7.9h-0.9
			c0,0.2-0.1,0.5-0.1,0.7h-0.9V6.9h4.9v1.7L1168.3,8.6L1168.3,8.6z M1175,7.8v2.9c0,1.6-0.9,2.4-2.5,2.4c-1.9,0-2.3-1-2.3-2.2V7.8
			c-0.2,0-0.4-0.1-0.6-0.1V6.9h2.4v0.7c-0.2,0.1-0.4,0.1-0.6,0.1v3c0,0.8,0.2,1.3,1.2,1.3c0.9,0,1.3-0.4,1.3-1.4V7.8
			c-0.2,0-0.5,0-0.6-0.1V6.9h2.3v0.7C1175.4,7.7,1175.2,7.8,1175,7.8z M1181,10.6v2c-0.6,0.2-1.4,0.4-2.1,0.4c-1.9,0-3-1.1-3-3
			c0-1.9,1.3-3.2,3.3-3.2c0.6,0,1.1,0.1,1.7,0.2v1.6h-0.9c-0.1-0.3-0.1-0.5-0.1-0.7c-0.2-0.1-0.5-0.1-0.7-0.1c-1.2,0-2,0.7-2,2.1
			c0,1.3,0.7,2,1.9,2c0.3,0,0.5,0,0.8-0.1v-1.2c-0.3,0-0.5-0.1-0.8-0.1V9.8h2.4v0.7C1181.3,10.6,1181.1,10.6,1181,10.6z M1185.2,13
			v-0.7c0.2,0,0.4-0.1,0.6-0.1l-0.3-0.7h-2.2l-0.2,0.7c0.2,0,0.5,0.1,0.6,0.1V13h-2.3v-0.7c0.2,0,0.3-0.1,0.5-0.1l1.8-5.2h1.4
			l1.9,5.2c0.2,0,0.3,0,0.5,0.1V13H1185.2z M1184.7,9.1c-0.1-0.3-0.2-0.6-0.3-0.9h0c-0.1,0.3-0.2,0.7-0.3,1l-0.5,1.4h1.6L1184.7,9.1
			z M1187.8,13v-0.7c0.2,0,0.5-0.1,0.8-0.1V7.8c-0.3,0-0.5-0.1-0.8-0.1V6.9h2.7v0.7c-0.2,0-0.5,0.1-0.8,0.1V12h1.2
			c0-0.2,0.1-0.5,0.1-0.7h0.9V13H1187.8z"/>
	</g>
	<g>
		<path class="st1" d="M1129.7,7.1c-5.3,2.1-8.6,7.7-8.6,16.2v13c0,0,1.1-8.3,8.6-10.7V7.1z"/>
		<path class="st1" d="M1132.2,26.8c-3.1,0.6-7.6,3.1-9,6.6c6.6-8,20.2-0.3,20.8-15.4c0.2-4.8,0.2-10.7,0.2-10.7
			c-7.1,0.4-12,2.3-12,2.3V26.8z"/>
		<path class="st1" d="M1131.4,31.2c0,0-7.2,0.6-7.8,4.7c-0.5,3.2,7.8,3.3,7.8,3.3V31.2z"/>
	</g>
</g>
<g>
	<g>
		<path class="st1" d="M898.3,7.7h0.9v2.5c0,0.4,0,0.6,0,0.8c0,0.2,0.1,0.3,0.3,0.5c0.2,0.1,0.4,0.2,0.6,0.2c0.3,0,0.5-0.1,0.6-0.2
			c0.1-0.1,0.2-0.2,0.2-0.4c0-0.2,0-0.4,0-0.8V7.7h0.9v2.4c0,0.5,0,0.9-0.1,1.2c-0.1,0.2-0.1,0.4-0.3,0.6c-0.1,0.2-0.3,0.3-0.5,0.4
			c-0.2,0.1-0.5,0.1-0.9,0.1c-0.4,0-0.8-0.1-1-0.2c-0.2-0.1-0.4-0.2-0.5-0.4c-0.1-0.2-0.2-0.3-0.3-0.5c-0.1-0.3-0.1-0.6-0.1-1.1
			L898.3,7.7L898.3,7.7z"/>
		<path class="st1" d="M902.9,12.3V7.7h0.9l1.9,3v-3h0.8v4.5h-0.9l-1.8-3v3H902.9z"/>
		<path class="st1" d="M907.5,12.3V7.7h0.9v4.5H907.5z"/>
		<path class="st1" d="M913.4,12.3h-1l-0.4-1h-1.8l-0.4,1h-1l1.8-4.5h1L913.4,12.3z M910.3,7.5h-0.4c0,0,0-0.1,0-0.1
			c0-0.2,0.1-0.4,0.2-0.5c0.1-0.1,0.2-0.2,0.4-0.2c0.1,0,0.1,0,0.2,0c0.1,0,0.2,0.1,0.3,0.1c0.2,0.1,0.3,0.1,0.4,0.1
			c0.1,0,0.1,0,0.2-0.1c0,0,0.1-0.1,0.1-0.2h0.4c0,0.3-0.1,0.5-0.2,0.6c-0.1,0.1-0.2,0.2-0.4,0.2c-0.1,0-0.1,0-0.2,0
			c-0.1,0-0.2-0.1-0.4-0.1c-0.2-0.1-0.3-0.1-0.4-0.1c-0.1,0-0.1,0-0.2,0.1C910.4,7.3,910.3,7.4,910.3,7.5z M911.7,10.5L911,8.8
			l-0.6,1.7H911.7z"/>
		<path class="st1" d="M913.7,10c0-0.5,0.1-0.8,0.2-1.2c0.1-0.2,0.2-0.4,0.4-0.6c0.2-0.2,0.4-0.3,0.6-0.4c0.3-0.1,0.6-0.2,1-0.2
			c0.7,0,1.2,0.2,1.6,0.6c0.4,0.4,0.6,1,0.6,1.7c0,0.7-0.2,1.3-0.6,1.7s-0.9,0.6-1.6,0.6c-0.7,0-1.2-0.2-1.6-0.6
			C913.9,11.3,913.7,10.8,913.7,10z M914.6,10c0,0.5,0.1,0.9,0.4,1.2c0.2,0.3,0.5,0.4,0.9,0.4s0.7-0.1,0.9-0.4
			c0.2-0.3,0.4-0.7,0.4-1.2c0-0.5-0.1-0.9-0.3-1.2c-0.2-0.3-0.5-0.4-0.9-0.4c-0.4,0-0.7,0.1-0.9,0.4C914.7,9.1,914.6,9.5,914.6,10z"
			/>
		<path class="st1" d="M920.5,12.3V7.7h3.4v0.8h-2.4v1h2.3v0.8h-2.3v1.2h2.5v0.8L920.5,12.3L920.5,12.3z"/>
		<path class="st1" d="M924.8,7.7h0.9v2.5c0,0.4,0,0.6,0,0.8c0,0.2,0.1,0.3,0.3,0.5c0.2,0.1,0.4,0.2,0.6,0.2c0.3,0,0.5-0.1,0.6-0.2
			c0.1-0.1,0.2-0.2,0.2-0.4c0-0.2,0-0.4,0-0.8V7.7h0.9v2.4c0,0.5,0,0.9-0.1,1.2c-0.1,0.2-0.1,0.4-0.3,0.6c-0.1,0.2-0.3,0.3-0.5,0.4
			s-0.5,0.1-0.9,0.1c-0.4,0-0.8-0.1-1-0.2c-0.2-0.1-0.4-0.2-0.5-0.4c-0.1-0.2-0.2-0.3-0.3-0.5c-0.1-0.3-0.1-0.6-0.1-1.1L924.8,7.7
			L924.8,7.7z"/>
		<path class="st1" d="M929.3,12.3V7.7h1.9c0.5,0,0.8,0,1.1,0.1c0.2,0.1,0.4,0.2,0.5,0.4C933,8.5,933,8.8,933,9
			c0,0.3-0.1,0.6-0.3,0.8c-0.2,0.2-0.5,0.4-0.9,0.4c0.2,0.1,0.4,0.2,0.5,0.4c0.1,0.1,0.3,0.4,0.5,0.7l0.6,0.9h-1.1l-0.7-1
			c-0.2-0.4-0.4-0.6-0.5-0.7c-0.1-0.1-0.2-0.2-0.3-0.2c-0.1,0-0.2-0.1-0.5-0.1h-0.2v1.9L929.3,12.3L929.3,12.3z M930.3,9.7h0.7
			c0.4,0,0.7,0,0.8-0.1c0.1,0,0.2-0.1,0.3-0.2c0.1-0.1,0.1-0.2,0.1-0.3c0-0.2,0-0.3-0.1-0.4c-0.1-0.1-0.2-0.2-0.3-0.2
			c-0.1,0-0.3,0-0.7,0h-0.7L930.3,9.7L930.3,9.7z"/>
		<path class="st1" d="M933.7,10c0-0.5,0.1-0.8,0.2-1.2c0.1-0.2,0.2-0.4,0.4-0.6c0.2-0.2,0.4-0.3,0.6-0.4c0.3-0.1,0.6-0.2,1-0.2
			c0.7,0,1.2,0.2,1.6,0.6c0.4,0.4,0.6,1,0.6,1.7c0,0.7-0.2,1.3-0.6,1.7s-0.9,0.6-1.6,0.6c-0.7,0-1.2-0.2-1.6-0.6
			C933.9,11.3,933.7,10.8,933.7,10z M934.7,10c0,0.5,0.1,0.9,0.4,1.2c0.2,0.3,0.5,0.4,0.9,0.4s0.7-0.1,0.9-0.4
			c0.2-0.3,0.4-0.7,0.4-1.2c0-0.5-0.1-0.9-0.3-1.2c-0.2-0.3-0.5-0.4-0.9-0.4c-0.4,0-0.7,0.1-0.9,0.4C934.8,9.1,934.7,9.5,934.7,10z"
			/>
		<path class="st1" d="M938.9,12.3V7.7h1.5c0.6,0,0.9,0,1.1,0.1c0.3,0.1,0.5,0.2,0.7,0.4c0.2,0.2,0.3,0.5,0.3,0.9
			c0,0.3-0.1,0.5-0.2,0.7c-0.1,0.2-0.2,0.3-0.4,0.5c-0.2,0.1-0.3,0.2-0.5,0.2c-0.2,0-0.5,0.1-1,0.1h-0.6v1.7L938.9,12.3L938.9,12.3z
			 M939.8,8.5v1.3h0.5c0.4,0,0.6,0,0.7-0.1c0.1,0,0.2-0.1,0.3-0.2c0.1-0.1,0.1-0.2,0.1-0.4c0-0.2-0.1-0.3-0.2-0.4
			c-0.1-0.1-0.2-0.2-0.4-0.2c-0.1,0-0.3,0-0.7,0L939.8,8.5L939.8,8.5z"/>
		<path class="st1" d="M943.1,12.3V7.7h3.4v0.8H944v1h2.3v0.8H944v1.2h2.5v0.8L943.1,12.3L943.1,12.3z"/>
		<path class="st1" d="M947.3,12.3V7.7h0.9v4.5H947.3z"/>
		<path class="st1" d="M953.2,12.3h-1l-0.4-1H950l-0.4,1h-1l1.8-4.5h1L953.2,12.3z M951.5,10.5l-0.6-1.7l-0.6,1.7H951.5z"/>
		<path class="st1" d="M898.4,27.3v-4.5h3.1v0.5H899v1.4h2.1v0.5H899v2.1L898.4,27.3L898.4,27.3z"/>
		<path class="st1" d="M904.3,27.3v-0.5c-0.3,0.4-0.6,0.6-1,0.6c-0.2,0-0.4,0-0.5-0.1c-0.2-0.1-0.3-0.2-0.4-0.3
			c-0.1-0.1-0.1-0.2-0.2-0.4c0-0.1,0-0.3,0-0.5v-2h0.6v1.8c0,0.3,0,0.5,0,0.6c0,0.2,0.1,0.3,0.2,0.3c0.1,0.1,0.3,0.1,0.4,0.1
			s0.3,0,0.5-0.1c0.2-0.1,0.2-0.2,0.3-0.4c0.1-0.2,0.1-0.4,0.1-0.6V24h0.6v3.3L904.3,27.3L904.3,27.3z"/>
		<path class="st1" d="M905.7,27.3V24h0.5v0.5c0.2-0.4,0.6-0.5,1.1-0.5c0.2,0,0.4,0,0.5,0.1c0.2,0.1,0.3,0.2,0.4,0.3
			c0.1,0.1,0.1,0.3,0.2,0.4c0,0.1,0,0.3,0,0.5v2h-0.6v-2c0-0.2,0-0.4-0.1-0.5c0-0.1-0.1-0.2-0.2-0.3c-0.1-0.1-0.2-0.1-0.4-0.1
			c-0.2,0-0.4,0.1-0.6,0.2c-0.2,0.2-0.3,0.4-0.3,0.9v1.8L905.7,27.3L905.7,27.3z"/>
		<path class="st1" d="M911.4,27.3v-0.4c-0.2,0.3-0.5,0.5-0.9,0.5c-0.3,0-0.5-0.1-0.7-0.2c-0.2-0.2-0.4-0.3-0.5-0.6
			c-0.1-0.3-0.2-0.6-0.2-0.9c0-0.3,0.1-0.6,0.2-0.9c0.1-0.3,0.3-0.5,0.5-0.6s0.5-0.2,0.7-0.2c0.2,0,0.4,0,0.5,0.1
			c0.2,0.1,0.3,0.2,0.4,0.3v-1.6h0.6v4.5L911.4,27.3L911.4,27.3z M909.6,25.7c0,0.4,0.1,0.7,0.3,0.9c0.2,0.2,0.4,0.3,0.6,0.3
			c0.2,0,0.5-0.1,0.6-0.3c0.2-0.2,0.3-0.5,0.3-0.9c0-0.5-0.1-0.8-0.3-1c-0.2-0.2-0.4-0.3-0.6-0.3c-0.2,0-0.5,0.1-0.6,0.3
			C909.7,24.9,909.6,25.2,909.6,25.7z"/>
		<path class="st1" d="M912.5,25.7c0-0.6,0.2-1.1,0.5-1.4c0.3-0.2,0.6-0.4,1-0.4c0.5,0,0.8,0.2,1.1,0.5c0.3,0.3,0.4,0.7,0.4,1.2
			c0,0.4-0.1,0.8-0.2,1s-0.3,0.4-0.6,0.6c-0.2,0.1-0.5,0.2-0.8,0.2c-0.5,0-0.8-0.2-1.1-0.4C912.7,26.6,912.5,26.2,912.5,25.7z
			 M913.1,25.7c0,0.4,0.1,0.7,0.3,0.9c0.2,0.2,0.4,0.3,0.7,0.3c0.3,0,0.5-0.1,0.7-0.3c0.2-0.2,0.3-0.5,0.3-1c0-0.4-0.1-0.7-0.3-0.9
			c-0.2-0.2-0.4-0.3-0.7-0.3s-0.5,0.1-0.7,0.3C913.2,24.9,913.1,25.2,913.1,25.7z"/>
		<path class="st1" d="M917.9,25.8l0.6-0.1c0,0.2,0.1,0.4,0.2,0.6c0.1,0.2,0.2,0.3,0.5,0.4c0.2,0.1,0.4,0.1,0.7,0.1
			c0.2,0,0.4,0,0.6-0.1c0.2-0.1,0.3-0.2,0.4-0.3c0.1-0.1,0.1-0.2,0.1-0.4c0-0.1,0-0.3-0.1-0.4c-0.1-0.1-0.2-0.2-0.4-0.3
			c-0.1,0-0.4-0.1-0.8-0.2c-0.4-0.1-0.7-0.2-0.9-0.3c-0.2-0.1-0.4-0.3-0.5-0.4c-0.1-0.2-0.2-0.4-0.2-0.6c0-0.2,0.1-0.4,0.2-0.6
			c0.1-0.2,0.3-0.4,0.6-0.5c0.2-0.1,0.5-0.2,0.8-0.2c0.3,0,0.6,0.1,0.9,0.2c0.3,0.1,0.5,0.3,0.6,0.5s0.2,0.5,0.2,0.7l-0.6,0
			c0-0.3-0.1-0.5-0.3-0.7c-0.2-0.2-0.4-0.2-0.8-0.2c-0.4,0-0.6,0.1-0.8,0.2s-0.2,0.3-0.2,0.5c0,0.2,0.1,0.3,0.2,0.4
			c0.1,0.1,0.4,0.2,0.9,0.3c0.5,0.1,0.8,0.2,1,0.3c0.3,0.1,0.5,0.3,0.6,0.5s0.2,0.4,0.2,0.6c0,0.2-0.1,0.5-0.2,0.7
			c-0.1,0.2-0.3,0.4-0.6,0.5c-0.3,0.1-0.5,0.2-0.9,0.2c-0.4,0-0.8-0.1-1-0.2c-0.3-0.1-0.5-0.3-0.7-0.5
			C918,26.4,917.9,26.1,917.9,25.8z"/>
		<path class="st1" d="M922.1,25.7c0-0.6,0.2-1.1,0.5-1.4c0.3-0.2,0.6-0.4,1-0.4c0.5,0,0.8,0.2,1.1,0.5c0.3,0.3,0.4,0.7,0.4,1.2
			c0,0.4-0.1,0.8-0.2,1s-0.3,0.4-0.6,0.6c-0.2,0.1-0.5,0.2-0.8,0.2c-0.5,0-0.8-0.2-1.1-0.4C922.2,26.6,922.1,26.2,922.1,25.7z
			 M922.6,25.7c0,0.4,0.1,0.7,0.3,0.9c0.2,0.2,0.4,0.3,0.7,0.3c0.3,0,0.5-0.1,0.7-0.3c0.2-0.2,0.3-0.5,0.3-1c0-0.4-0.1-0.7-0.3-0.9
			c-0.2-0.2-0.4-0.3-0.7-0.3s-0.5,0.1-0.7,0.3C922.7,24.9,922.6,25.2,922.6,25.7z"/>
		<path class="st1" d="M928,26.1l0.5,0.1c-0.1,0.4-0.2,0.7-0.5,0.9s-0.5,0.3-0.9,0.3c-0.5,0-0.8-0.2-1.1-0.4
			c-0.3-0.3-0.4-0.7-0.4-1.3c0-0.4,0.1-0.7,0.2-0.9c0.1-0.3,0.3-0.5,0.5-0.6c0.2-0.1,0.5-0.2,0.8-0.2c0.4,0,0.6,0.1,0.9,0.3
			c0.2,0.2,0.4,0.4,0.4,0.8l-0.5,0.1c-0.1-0.2-0.1-0.4-0.3-0.5c-0.1-0.1-0.3-0.2-0.5-0.2c-0.3,0-0.5,0.1-0.7,0.3
			c-0.2,0.2-0.3,0.5-0.3,1s0.1,0.8,0.3,1c0.2,0.2,0.4,0.3,0.7,0.3c0.2,0,0.4-0.1,0.5-0.2C927.8,26.6,927.9,26.4,928,26.1z"/>
		<path class="st1" d="M929,23.4v-0.6h0.6v0.6H929z M929,27.3V24h0.6v3.3H929z"/>
		<path class="st1" d="M932.5,26.9c-0.2,0.2-0.4,0.3-0.6,0.4c-0.2,0.1-0.4,0.1-0.6,0.1c-0.4,0-0.6-0.1-0.8-0.3
			c-0.2-0.2-0.3-0.4-0.3-0.7c0-0.2,0-0.3,0.1-0.4c0.1-0.1,0.2-0.2,0.3-0.3c0.1-0.1,0.2-0.1,0.4-0.2c0.1,0,0.3-0.1,0.5-0.1
			c0.5-0.1,0.8-0.1,1-0.2c0-0.1,0-0.1,0-0.2c0-0.2-0.1-0.4-0.2-0.5c-0.1-0.1-0.4-0.2-0.6-0.2c-0.3,0-0.5,0-0.6,0.1
			c-0.1,0.1-0.2,0.3-0.3,0.5l-0.5-0.1c0.1-0.2,0.1-0.4,0.2-0.6c0.1-0.2,0.3-0.3,0.5-0.3c0.2-0.1,0.5-0.1,0.8-0.1s0.5,0,0.7,0.1
			c0.2,0.1,0.3,0.2,0.4,0.2c0.1,0.1,0.1,0.2,0.2,0.4c0,0.1,0,0.3,0,0.5V26c0,0.5,0,0.8,0,1c0,0.1,0.1,0.3,0.1,0.4h-0.6
			C932.6,27.2,932.5,27,932.5,26.9z M932.5,25.7c-0.2,0.1-0.5,0.2-0.9,0.2c-0.2,0-0.4,0.1-0.5,0.1c-0.1,0-0.2,0.1-0.2,0.2
			c-0.1,0.1-0.1,0.2-0.1,0.3c0,0.2,0.1,0.3,0.2,0.4c0.1,0.1,0.3,0.2,0.5,0.2s0.4,0,0.6-0.1c0.2-0.1,0.3-0.2,0.4-0.4
			c0.1-0.1,0.1-0.3,0.1-0.6L932.5,25.7L932.5,25.7z"/>
		<path class="st1" d="M933.9,27.3v-4.5h0.6v4.5H933.9z"/>
		<path class="st1" d="M937.2,27.3v-4.5h3.3v0.5h-2.7v1.4h2.5v0.5h-2.5v1.5h2.8v0.5H937.2L937.2,27.3z"/>
		<path class="st1" d="M943.5,27.3v-0.5c-0.3,0.4-0.6,0.6-1,0.6c-0.2,0-0.4,0-0.5-0.1c-0.2-0.1-0.3-0.2-0.4-0.3
			c-0.1-0.1-0.1-0.2-0.2-0.4c0-0.1,0-0.3,0-0.5v-2h0.6v1.8c0,0.3,0,0.5,0,0.6c0,0.2,0.1,0.3,0.2,0.3s0.3,0.1,0.4,0.1s0.3,0,0.5-0.1
			c0.2-0.1,0.2-0.2,0.3-0.4c0.1-0.2,0.1-0.4,0.1-0.6V24h0.6v3.3L943.5,27.3L943.5,27.3z"/>
		<path class="st1" d="M944.8,27.3V24h0.5v0.5c0.1-0.2,0.2-0.4,0.4-0.5c0.1-0.1,0.2-0.1,0.4-0.1c0.2,0,0.4,0.1,0.6,0.2l-0.2,0.5
			c-0.1-0.1-0.3-0.1-0.4-0.1c-0.1,0-0.2,0-0.3,0.1c-0.1,0.1-0.2,0.2-0.2,0.3c-0.1,0.2-0.1,0.4-0.1,0.7v1.7L944.8,27.3L944.8,27.3
			L944.8,27.3z"/>
		<path class="st1" d="M946.7,25.7c0-0.6,0.2-1.1,0.5-1.4c0.3-0.2,0.6-0.4,1-0.4c0.5,0,0.8,0.2,1.1,0.5c0.3,0.3,0.4,0.7,0.4,1.2
			c0,0.4-0.1,0.8-0.2,1s-0.3,0.4-0.6,0.6c-0.2,0.1-0.5,0.2-0.8,0.2c-0.5,0-0.8-0.2-1.1-0.4C946.9,26.6,946.7,26.2,946.7,25.7z
			 M947.3,25.7c0,0.4,0.1,0.7,0.3,0.9c0.2,0.2,0.4,0.3,0.7,0.3c0.3,0,0.5-0.1,0.7-0.3c0.2-0.2,0.3-0.5,0.3-1c0-0.4-0.1-0.7-0.3-0.9
			c-0.2-0.2-0.4-0.3-0.7-0.3s-0.5,0.1-0.7,0.3C947.4,24.9,947.3,25.2,947.3,25.7z"/>
		<path class="st1" d="M950.5,28.6V24h0.5v0.4c0.1-0.2,0.3-0.3,0.4-0.4c0.2-0.1,0.3-0.1,0.5-0.1c0.3,0,0.5,0.1,0.7,0.2
			c0.2,0.2,0.4,0.3,0.5,0.6c0.1,0.3,0.2,0.5,0.2,0.9c0,0.3-0.1,0.6-0.2,0.9c-0.1,0.3-0.3,0.5-0.5,0.6s-0.5,0.2-0.7,0.2
			c-0.2,0-0.4,0-0.5-0.1c-0.2-0.1-0.3-0.2-0.4-0.3v1.6L950.5,28.6L950.5,28.6z M951,25.7c0,0.4,0.1,0.7,0.3,0.9s0.4,0.3,0.6,0.3
			c0.2,0,0.5-0.1,0.6-0.3c0.2-0.2,0.3-0.5,0.3-1c0-0.4-0.1-0.7-0.3-0.9c-0.2-0.2-0.4-0.3-0.6-0.3s-0.5,0.1-0.6,0.3
			C951.1,24.9,951,25.3,951,25.7z"/>
		<path class="st1" d="M956.2,26.2l0.6,0.1c-0.1,0.3-0.3,0.6-0.5,0.8c-0.2,0.2-0.6,0.3-0.9,0.3c-0.5,0-0.9-0.2-1.1-0.5
			c-0.3-0.3-0.4-0.7-0.4-1.2c0-0.5,0.1-1,0.4-1.3c0.3-0.3,0.7-0.5,1.1-0.5c0.4,0,0.8,0.2,1.1,0.5c0.3,0.3,0.4,0.7,0.4,1.3
			c0,0,0,0.1,0,0.2h-2.4c0,0.4,0.1,0.6,0.3,0.8c0.2,0.2,0.4,0.3,0.7,0.3c0.2,0,0.4-0.1,0.5-0.2C956,26.7,956.2,26.5,956.2,26.2z
			 M954.4,25.3h1.8c0-0.3-0.1-0.5-0.2-0.6c-0.2-0.2-0.4-0.3-0.7-0.3c-0.3,0-0.5,0.1-0.6,0.3C954.5,24.8,954.4,25.1,954.4,25.3z"/>
		<path class="st1" d="M959.7,27.3v-0.5c-0.3,0.4-0.6,0.6-1,0.6c-0.2,0-0.4,0-0.5-0.1c-0.2-0.1-0.3-0.2-0.4-0.3
			c-0.1-0.1-0.1-0.2-0.2-0.4c0-0.1,0-0.3,0-0.5v-2h0.6v1.8c0,0.3,0,0.5,0,0.6c0,0.2,0.1,0.3,0.2,0.3c0.1,0.1,0.3,0.1,0.4,0.1
			s0.3,0,0.5-0.1c0.2-0.1,0.2-0.2,0.3-0.4c0.1-0.2,0.1-0.4,0.1-0.6V24h0.6v3.3L959.7,27.3L959.7,27.3z"/>
		<path class="st1" d="M898.4,38.7v-4.1h0.5v4.1H898.4z"/>
		<path class="st1" d="M899.8,38.7v-3h0.5v0.4c0.2-0.3,0.5-0.5,0.9-0.5c0.2,0,0.3,0,0.5,0.1c0.2,0.1,0.3,0.2,0.3,0.2
			c0.1,0.1,0.1,0.2,0.2,0.4c0,0.1,0,0.3,0,0.5v1.8h-0.5v-1.8c0-0.2,0-0.4-0.1-0.5c0-0.1-0.1-0.2-0.2-0.2c-0.1-0.1-0.2-0.1-0.4-0.1
			c-0.2,0-0.4,0.1-0.5,0.2c-0.2,0.1-0.2,0.4-0.2,0.8v1.6H899.8z"/>
		<path class="st1" d="M903,35.2v-0.6h0.5v0.6H903z M903,38.7v-3h0.5v3H903z"/>
		<path class="st1" d="M906.2,37.6l0.5,0.1c-0.1,0.3-0.2,0.6-0.4,0.8c-0.2,0.2-0.5,0.3-0.8,0.3c-0.4,0-0.7-0.1-1-0.4
			c-0.2-0.3-0.4-0.6-0.4-1.1c0-0.3,0.1-0.6,0.2-0.8c0.1-0.2,0.3-0.4,0.5-0.5c0.2-0.1,0.5-0.2,0.7-0.2c0.3,0,0.6,0.1,0.8,0.2
			c0.2,0.2,0.3,0.4,0.4,0.7l-0.5,0.1c0-0.2-0.1-0.3-0.2-0.5c-0.1-0.1-0.3-0.2-0.4-0.2c-0.2,0-0.5,0.1-0.6,0.3
			c-0.2,0.2-0.2,0.5-0.2,0.9c0,0.4,0.1,0.7,0.2,0.9c0.2,0.2,0.4,0.3,0.6,0.3c0.2,0,0.4-0.1,0.5-0.2
			C906.1,38.1,906.2,37.9,906.2,37.6z"/>
		<path class="st1" d="M907.1,35.2v-0.6h0.5v0.6H907.1z M907.1,38.7v-3h0.5v3H907.1z"/>
		<path class="st1" d="M910.3,38.3c-0.2,0.2-0.4,0.3-0.5,0.3c-0.2,0.1-0.4,0.1-0.5,0.1c-0.3,0-0.6-0.1-0.8-0.2
			c-0.2-0.2-0.3-0.4-0.3-0.6c0-0.2,0-0.3,0.1-0.4c0.1-0.1,0.2-0.2,0.3-0.3s0.2-0.1,0.4-0.2c0.1,0,0.2-0.1,0.5-0.1
			c0.4-0.1,0.7-0.1,0.9-0.2c0-0.1,0-0.1,0-0.1c0-0.2,0-0.3-0.1-0.4c-0.1-0.1-0.3-0.2-0.6-0.2c-0.2,0-0.4,0-0.5,0.1
			c-0.1,0.1-0.2,0.2-0.2,0.4l-0.5-0.1c0-0.2,0.1-0.4,0.2-0.5c0.1-0.1,0.2-0.2,0.4-0.3c0.2-0.1,0.4-0.1,0.7-0.1c0.2,0,0.5,0,0.6,0.1
			c0.2,0.1,0.3,0.1,0.3,0.2c0.1,0.1,0.1,0.2,0.2,0.3c0,0.1,0,0.2,0,0.5v0.7c0,0.5,0,0.8,0,0.9c0,0.1,0.1,0.2,0.1,0.4h-0.5
			C910.4,38.6,910.3,38.5,910.3,38.3z M910.3,37.2c-0.2,0.1-0.5,0.1-0.8,0.2c-0.2,0-0.4,0.1-0.4,0.1c-0.1,0-0.2,0.1-0.2,0.2
			s-0.1,0.2-0.1,0.2c0,0.1,0.1,0.2,0.2,0.3c0.1,0.1,0.2,0.1,0.4,0.1s0.4,0,0.5-0.1c0.2-0.1,0.3-0.2,0.3-0.3c0.1-0.1,0.1-0.3,0.1-0.5
			V37.2z"/>
		<path class="st1" d="M912.6,38.3l0.1,0.4c-0.1,0-0.3,0-0.4,0c-0.2,0-0.3,0-0.4-0.1c-0.1-0.1-0.2-0.1-0.2-0.2s-0.1-0.3-0.1-0.6
			v-1.7h-0.4v-0.4h0.4V35l0.5-0.3v1h0.5v0.4h-0.5v1.7c0,0.1,0,0.2,0,0.3c0,0,0,0.1,0.1,0.1c0,0,0.1,0,0.2,0
			C912.5,38.3,912.5,38.3,912.6,38.3z"/>
		<path class="st1" d="M913.1,35.2v-0.6h0.5v0.6H913.1z M913.1,38.7v-3h0.5v3H913.1z"/>
		<path class="st1" d="M915.2,38.7l-1.1-3h0.5l0.6,1.8c0.1,0.2,0.1,0.4,0.2,0.6c0-0.2,0.1-0.3,0.2-0.6l0.7-1.8h0.5l-1.1,3
			L915.2,38.7L915.2,38.7z"/>
		<path class="st1" d="M919.2,38.3c-0.2,0.2-0.4,0.3-0.5,0.3c-0.2,0.1-0.4,0.1-0.5,0.1c-0.3,0-0.6-0.1-0.8-0.2
			c-0.2-0.2-0.3-0.4-0.3-0.6c0-0.2,0-0.3,0.1-0.4c0.1-0.1,0.2-0.2,0.3-0.3s0.2-0.1,0.4-0.2c0.1,0,0.2-0.1,0.5-0.1
			c0.4-0.1,0.7-0.1,0.9-0.2c0-0.1,0-0.1,0-0.1c0-0.2,0-0.3-0.1-0.4c-0.1-0.1-0.3-0.2-0.6-0.2c-0.2,0-0.4,0-0.5,0.1
			c-0.1,0.1-0.2,0.2-0.2,0.4l-0.5-0.1c0-0.2,0.1-0.4,0.2-0.5c0.1-0.1,0.2-0.2,0.4-0.3c0.2-0.1,0.4-0.1,0.7-0.1c0.2,0,0.5,0,0.6,0.1
			c0.2,0.1,0.3,0.1,0.3,0.2c0.1,0.1,0.1,0.2,0.2,0.3c0,0.1,0,0.2,0,0.5v0.7c0,0.5,0,0.8,0,0.9c0,0.1,0.1,0.2,0.1,0.4h-0.5
			C919.2,38.6,919.2,38.5,919.2,38.3z M919.1,37.2c-0.2,0.1-0.5,0.1-0.8,0.2c-0.2,0-0.4,0.1-0.4,0.1c-0.1,0-0.2,0.1-0.2,0.2
			c0,0.1-0.1,0.2-0.1,0.2c0,0.1,0.1,0.2,0.2,0.3c0.1,0.1,0.2,0.1,0.4,0.1c0.2,0,0.4,0,0.5-0.1c0.2-0.1,0.3-0.2,0.3-0.3
			c0.1-0.1,0.1-0.3,0.1-0.5V37.2z"/>
		<path class="st1" d="M922.1,38.7v-4.1h3v0.5h-2.4v1.2h2.3v0.5h-2.3v1.4h2.5v0.5L922.1,38.7L922.1,38.7z"/>
		<path class="st1" d="M925.8,38.7v-3h0.5v0.4c0.1-0.2,0.2-0.3,0.4-0.4c0.2-0.1,0.3-0.1,0.5-0.1c0.2,0,0.4,0,0.5,0.1
			s0.2,0.2,0.3,0.4c0.2-0.3,0.5-0.5,0.9-0.5c0.3,0,0.5,0.1,0.7,0.2c0.2,0.2,0.2,0.4,0.2,0.8v2h-0.5v-1.9c0-0.2,0-0.3,0-0.4
			c0-0.1-0.1-0.2-0.2-0.2s-0.2-0.1-0.3-0.1c-0.2,0-0.4,0.1-0.5,0.2c-0.1,0.1-0.2,0.4-0.2,0.7v1.7h-0.5v-1.9c0-0.2,0-0.4-0.1-0.5
			c-0.1-0.1-0.2-0.2-0.4-0.2c-0.1,0-0.3,0-0.4,0.1c-0.1,0.1-0.2,0.2-0.3,0.3c-0.1,0.1-0.1,0.4-0.1,0.6v1.5L925.8,38.7L925.8,38.7
			L925.8,38.7z"/>
		<path class="st1" d="M930.5,39.8v-4.1h0.5v0.4c0.1-0.2,0.2-0.3,0.4-0.3c0.1-0.1,0.3-0.1,0.5-0.1c0.2,0,0.5,0.1,0.7,0.2
			c0.2,0.1,0.3,0.3,0.4,0.5c0.1,0.2,0.2,0.5,0.2,0.8c0,0.3-0.1,0.6-0.2,0.8c-0.1,0.2-0.3,0.4-0.5,0.6c-0.2,0.1-0.4,0.2-0.7,0.2
			c-0.2,0-0.3,0-0.5-0.1c-0.1-0.1-0.2-0.2-0.3-0.3v1.4L930.5,39.8L930.5,39.8z M931,37.2c0,0.4,0.1,0.7,0.2,0.8
			c0.2,0.2,0.3,0.3,0.6,0.3s0.4-0.1,0.6-0.3c0.2-0.2,0.2-0.5,0.2-0.9c0-0.4-0.1-0.7-0.2-0.8c-0.2-0.2-0.3-0.3-0.6-0.3
			s-0.4,0.1-0.6,0.3C931.1,36.6,931,36.9,931,37.2z"/>
		<path class="st1" d="M933.7,38.7v-3h0.5v0.5c0.1-0.2,0.2-0.3,0.3-0.4c0.1-0.1,0.2-0.1,0.3-0.1c0.2,0,0.3,0.1,0.5,0.2l-0.2,0.5
			c-0.1-0.1-0.2-0.1-0.4-0.1c-0.1,0-0.2,0-0.3,0.1c-0.1,0.1-0.2,0.2-0.2,0.3c-0.1,0.2-0.1,0.4-0.1,0.6v1.5L933.7,38.7L933.7,38.7z"
			/>
		<path class="st1" d="M937.6,37.8l0.5,0.1c-0.1,0.3-0.2,0.5-0.5,0.7c-0.2,0.2-0.5,0.2-0.8,0.2c-0.4,0-0.8-0.1-1-0.4
			c-0.3-0.3-0.4-0.6-0.4-1.1c0-0.5,0.1-0.9,0.4-1.2s0.6-0.4,1-0.4c0.4,0,0.7,0.1,1,0.4c0.2,0.3,0.4,0.6,0.4,1.1c0,0,0,0.1,0,0.1
			h-2.2c0,0.3,0.1,0.6,0.3,0.7c0.2,0.2,0.4,0.3,0.6,0.3c0.2,0,0.3,0,0.5-0.2C937.4,38.1,937.5,38,937.6,37.8z M936,36.9h1.7
			c0-0.2-0.1-0.4-0.2-0.6c-0.2-0.2-0.4-0.3-0.6-0.3c-0.2,0-0.4,0.1-0.6,0.2C936.1,36.5,936,36.7,936,36.9z"/>
		<path class="st1" d="M938.7,39l0.5,0.1c0,0.2,0.1,0.3,0.2,0.3c0.1,0.1,0.3,0.1,0.5,0.1c0.2,0,0.4,0,0.5-0.1
			c0.1-0.1,0.2-0.2,0.3-0.4c0-0.1,0-0.3,0-0.6c-0.2,0.3-0.5,0.4-0.8,0.4c-0.4,0-0.7-0.2-0.9-0.4c-0.2-0.3-0.3-0.6-0.3-1.1
			c0-0.3,0.1-0.5,0.2-0.8c0.1-0.2,0.2-0.4,0.4-0.5c0.2-0.1,0.4-0.2,0.7-0.2c0.3,0,0.6,0.1,0.9,0.4v-0.4h0.5v2.6c0,0.5,0,0.8-0.1,1
			c-0.1,0.2-0.2,0.3-0.5,0.5c-0.2,0.1-0.5,0.2-0.8,0.2c-0.4,0-0.6-0.1-0.8-0.2C938.7,39.5,938.7,39.3,938.7,39z M939.1,37.2
			c0,0.4,0.1,0.7,0.2,0.8s0.3,0.3,0.6,0.3s0.4-0.1,0.6-0.3c0.2-0.2,0.2-0.5,0.2-0.8c0-0.4-0.1-0.6-0.2-0.8c-0.2-0.2-0.4-0.3-0.6-0.3
			c-0.2,0-0.4,0.1-0.6,0.3C939.1,36.5,939.1,36.8,939.1,37.2z"/>
		<path class="st1" d="M941.7,37.2c0-0.5,0.2-1,0.5-1.2c0.3-0.2,0.6-0.3,0.9-0.3c0.4,0,0.7,0.1,1,0.4s0.4,0.6,0.4,1.1
			c0,0.4-0.1,0.7-0.2,0.9c-0.1,0.2-0.3,0.4-0.5,0.5c-0.2,0.1-0.5,0.2-0.7,0.2c-0.4,0-0.8-0.1-1-0.4
			C941.8,38.1,941.7,37.7,941.7,37.2z M942.2,37.2c0,0.4,0.1,0.7,0.2,0.8c0.2,0.2,0.4,0.3,0.6,0.3c0.2,0,0.5-0.1,0.6-0.3
			c0.2-0.2,0.2-0.5,0.2-0.9c0-0.4-0.1-0.6-0.2-0.8c-0.2-0.2-0.4-0.3-0.6-0.3c-0.2,0-0.5,0.1-0.6,0.3
			C942.3,36.6,942.2,36.8,942.2,37.2z"/>
		<path class="st1" d="M946.5,37.5l0.5-0.1c0,0.3,0.1,0.5,0.2,0.6c0.1,0.1,0.2,0.2,0.4,0.2c0.1,0,0.2,0,0.4-0.1
			c0.1-0.1,0.2-0.2,0.2-0.2c0-0.1,0.1-0.3,0.1-0.5v-2.8h0.5v2.8c0,0.3,0,0.6-0.1,0.8c-0.1,0.2-0.2,0.3-0.4,0.4
			c-0.2,0.1-0.4,0.2-0.6,0.2c-0.4,0-0.6-0.1-0.8-0.3C946.5,38.3,946.4,38,946.5,37.5z"/>
		<path class="st1" d="M949.3,37.2c0-0.5,0.2-1,0.5-1.2c0.3-0.2,0.6-0.3,0.9-0.3c0.4,0,0.7,0.1,1,0.4s0.4,0.6,0.4,1.1
			c0,0.4-0.1,0.7-0.2,0.9c-0.1,0.2-0.3,0.4-0.5,0.5c-0.2,0.1-0.5,0.2-0.7,0.2c-0.4,0-0.8-0.1-1-0.4
			C949.4,38.1,949.3,37.7,949.3,37.2z M949.8,37.2c0,0.4,0.1,0.7,0.2,0.8c0.2,0.2,0.4,0.3,0.6,0.3c0.2,0,0.5-0.1,0.6-0.3
			c0.2-0.2,0.2-0.5,0.2-0.9c0-0.4-0.1-0.6-0.2-0.8c-0.2-0.2-0.4-0.3-0.6-0.3s-0.5,0.1-0.6,0.3C949.9,36.6,949.8,36.8,949.8,37.2z"/>
		<path class="st1" d="M953.5,38.7l-1.1-3h0.5l0.6,1.8c0.1,0.2,0.1,0.4,0.2,0.6c0-0.2,0.1-0.3,0.2-0.6l0.7-1.8h0.5l-1.1,3
			L953.5,38.7L953.5,38.7z"/>
		<path class="st1" d="M957.5,37.8l0.5,0.1c-0.1,0.3-0.2,0.5-0.5,0.7c-0.2,0.2-0.5,0.2-0.8,0.2c-0.4,0-0.8-0.1-1-0.4
			c-0.3-0.3-0.4-0.6-0.4-1.1c0-0.5,0.1-0.9,0.4-1.2s0.6-0.4,1-0.4c0.4,0,0.7,0.1,1,0.4c0.2,0.3,0.4,0.6,0.4,1.1c0,0,0,0.1,0,0.1
			h-2.2c0,0.3,0.1,0.6,0.3,0.7c0.2,0.2,0.4,0.3,0.6,0.3c0.2,0,0.3,0,0.5-0.2C957.4,38.1,957.5,38,957.5,37.8z M955.9,36.9h1.7
			c0-0.2-0.1-0.4-0.2-0.6c-0.2-0.2-0.4-0.3-0.6-0.3c-0.2,0-0.4,0.1-0.6,0.2C956,36.5,955.9,36.7,955.9,36.9z"/>
		<path class="st1" d="M958.7,38.7v-3h0.5v0.4c0.1-0.2,0.2-0.3,0.4-0.4c0.2-0.1,0.3-0.1,0.5-0.1c0.2,0,0.4,0,0.5,0.1
			c0.1,0.1,0.2,0.2,0.3,0.4c0.2-0.3,0.5-0.5,0.9-0.5c0.3,0,0.5,0.1,0.7,0.2c0.2,0.2,0.2,0.4,0.2,0.8v2h-0.5v-1.9
			c0-0.2,0-0.3-0.1-0.4c0-0.1-0.1-0.2-0.2-0.2c-0.1-0.1-0.2-0.1-0.3-0.1c-0.2,0-0.4,0.1-0.5,0.2c-0.1,0.1-0.2,0.4-0.2,0.7v1.7h-0.5
			v-1.9c0-0.2,0-0.4-0.1-0.5c-0.1-0.1-0.2-0.2-0.4-0.2c-0.1,0-0.3,0-0.4,0.1c-0.1,0.1-0.2,0.2-0.3,0.3c-0.1,0.1-0.1,0.4-0.1,0.6v1.5
			L958.7,38.7L958.7,38.7L958.7,38.7z"/>
	</g>
	<path class="st1" d="M834.6,3.8v38.9H893V3.8H834.6z M874.3,16.3l0.5-1.5l0.5,1.5h1.5l-1.3,0.9l0.5,1.4l-1.2-0.9l-1.2,0.9l0.5-1.4
		l-1.2-0.9H874.3z M849,22.7h1.5l0.5-1.5l0.5,1.5h1.5l-1.3,0.9l0.5,1.4l-1.2-0.9l-1.2,0.9l0.5-1.4L849,22.7z M854,31.4l-1.2-0.9
		l-1.2,0.9L852,30l-1.2-0.9h1.5l0.5-1.5l0.5,1.5h1.5l-1.3,0.9L854,31.4z M853.5,17.2l0.5,1.4l-1.2-0.9l-1.2,0.9l0.5-1.4l-1.2-0.9
		h1.5l0.5-1.5l0.5,1.5h1.5L853.5,17.2z M856.9,11.6l0.5-1.5l0.5,1.5h1.5l-1.2,0.9l0.5,1.4l-1.2-0.9l-1.2,0.9l0.5-1.4l-1.2-0.9H856.9
		z M858.6,36.1l-1.2-0.9l-1.2,0.9l0.5-1.4l-1.2-0.9h1.5l0.5-1.5l0.5,1.5h1.5l-1.2,0.9L858.6,36.1z M863.3,9.9l0.5-1.5l0.5,1.5h1.5
		l-1.3,0.9l0.5,1.4l-1.2-0.9l-1.2,0.9l0.5-1.4l-1.2-0.9H863.3z M865,37.8l-1.2-0.9l-1.2,0.9l0.5-1.4l-1.2-0.9h1.5l0.5-1.5l0.5,1.5
		h1.5l-1.3,0.9L865,37.8z M871.4,36.1l-1.2-0.9l-1.2,0.9l0.5-1.4l-1.2-0.9h1.5l0.5-1.5l0.5,1.5h1.5l-1.3,0.9L871.4,36.1z
		 M870.9,12.5l0.5,1.4l-1.2-0.9l-1.2,0.9l0.5-1.4l-1.2-0.9h1.5l0.5-1.5l0.5,1.5h1.5L870.9,12.5z M876,31.4l-1.2-0.9l-1.2,0.9L874,30
		l-1.2-0.9h1.5l0.5-1.5l0.5,1.5h1.5l-1.3,0.9L876,31.4z M877.7,25l-1.2-0.9l-1.2,0.9l0.5-1.4l-1.2-0.9h1.5l0.5-1.5l0.5,1.5h1.5
		l-1.3,0.9L877.7,25z"/>
</g>
<g>
	<path class="st1" d="M616.7,35c-1.8,0-3.6,0-5.5,0c-0.7,0-0.9-0.2-1-0.9c-0.3-2.3,0.5-4.2,2.2-5.8c1-1,2.2-1.7,3.3-2.5
		c0.8-0.5,1.6-1.1,2.3-1.8c1-1.1,1.1-2.4,0.4-3.5c-0.7-1-2.2-1.3-3.5-0.8c-0.8,0.3-1.4,0.9-1.8,1.5c-0.3,0.4-0.5,0.4-0.8,0.1
		c-0.2-0.2-0.4-0.3-0.6-0.5c-1.4-1-1.4-1-0.2-2.3c2.1-2.3,5.6-3,8.4-1.4c2.7,1.5,3.5,5.1,1.7,7.7c-0.9,1.3-2.2,2.2-3.5,3.1
		c-1,0.7-2.1,1.3-3,2.2c-0.2,0.2-0.4,0.5-0.6,0.7c-0.2,0.4-0.5,0.8-0.4,1.2c0.2,0.4,0.7,0.1,1.1,0.1c1.4,0,2.9,0,4.3,0
		c0.6,0,0.8-0.2,0.8-0.8c0-1.6,0-1.6,1.7-1.6c1.4,0,1.2-0.1,1.2,1.2c0,1,0,2.1,0,3.1c0,0.5-0.2,0.7-0.7,0.7
		C620.4,35,618.6,35,616.7,35z"/>
	<path class="st1" d="M552.7,35c-1.9,0-3.8-0.1-5.8,0c-0.9,0-1.2-0.3-1-1.1c0-0.1,0-0.2,0-0.3c-0.2-1,0.3-1.4,1.2-1.2
		c0.8,0.2,0.9-0.3,0.9-1c0-4.6,0-9.3,0-14c0-0.7-0.1-1.1-0.9-0.9c-1,0.2-1.4-0.2-1.3-1.3c0-0.3,0-0.5,0-0.8c0-0.5,0.1-0.7,0.7-0.7
		c2.1,0,4.3,0,6.4,0c0.5,0,0.7,0.2,0.7,0.7c0,0.2,0,0.4,0,0.6c0,1.4,0,1.5-1.4,1.5c-0.6,0-0.8,0.2-0.8,0.8c0,4.7,0,9.4,0,14.2
		c0,0.6,0.2,0.8,0.8,0.8c1.3,0,2.5,0,3.8,0c0.6,0,0.8-0.2,0.8-0.8c0-0.2,0-0.5,0-0.7c0-1.5-0.3-1.4,1.4-1.4c1.5,0,1.5,0,1.5,1.5
		c0,1.1,0,2.2,0,3.3c0,0.6-0.2,0.8-0.8,0.8C556.9,35,554.8,35,552.7,35z"/>
	<path class="st1" d="M572.1,21.9c1.1,0,2.1,0,3.2,0c0.6,0,0.9,0.2,0.8,0.8c-0.1,2,0.2,1.7-1.6,1.7c-0.8,0-1.6,0-2.3,0
		c-0.2,0-0.4-0.1-0.5,0.1c-0.1,0.2,0.1,0.4,0.2,0.6c0.3,0.4,0.8,0.8,1.3,1.1c0.9,0.6,1.8,1.2,2.6,1.9c1.4,1.2,1.9,2.7,1.3,4.5
		c-0.5,1.5-2,2.5-3.8,2.7c-1.9,0.2-3.5-0.5-4.7-2c-0.4-0.5-0.6-0.9,0.2-1.3c0.2-0.1,0.3-0.2,0.4-0.3c0.7-0.6,1.4-1,2,0.1
		c0.1,0.2,0.4,0.3,0.5,0.4c0.7,0.4,1.4,0.4,1.9-0.3c0.5-0.6,0.3-1.3-0.2-1.9c-0.6-0.6-1.4-1.1-2.1-1.6c-1.5-1.1-2.9-2.2-3.2-4.2
		c0-0.2-0.1-0.3-0.1-0.5c-0.2-1.6,0-1.8,1.7-1.8C570.4,21.9,571.3,21.9,572.1,21.9z"/>
	<path class="st1" d="M565.7,27.3c0,1.5,0,2.9,0,4.4c0,0.6,0.2,0.9,0.8,0.8c0.3,0,0.9-0.2,1,0.3c0.1,0.7,0.2,1.4,0,2.1
		c-0.1,0.2-0.4,0.1-0.6,0.1c-1.9,0-3.8,0-5.7,0c-0.5,0-0.7-0.2-0.7-0.7c0-0.3,0-0.6,0-0.9c-0.1-0.8,0.2-1.1,1-1
		c0.8,0.1,0.9-0.2,0.9-0.9c0-2.1,0-4.2,0-6.2c0-0.8-0.2-1-0.9-0.9c-0.4,0-1,0.3-1.1-0.3c-0.1-0.7-0.2-1.4,0.1-2
		c0.1-0.2,0.4-0.1,0.6-0.1c1.3,0,2.5,0,3.8,0c0.6,0,0.8,0.2,0.8,0.8C565.6,24.2,565.7,25.7,565.7,27.3z"/>
	<path class="st1" d="M644.8,19.8c0.6,0,1.1,0,1.7,0c0.6,0,1.1,0,0.9-0.8c-0.1-0.4,0.2-0.5,0.5-0.5c0.3,0,0.6,0,0.9,0
		c0.7-0.1,0.9,0.2,0.9,0.9c0,2.5,0,2.5-2.5,2.5c-1.5,0-3,0-4.5,0c-0.6,0-0.8-0.2-0.8-0.7c-0.1-1.6,0.5-2.9,1.7-3.9
		c0.7-0.6,1.5-1.1,2.3-1.7c0.8-0.6,0.9-1.3,0.5-1.8c-0.5-0.5-1.3-0.4-2,0.2c-0.2,0.2-0.3,0.8-0.8,0.5c-0.5-0.3-1-0.7-1.5-1.1
		c0,0,0-0.2,0.1-0.3c0.5-1.2,2.2-2.1,4-2c1.6,0.1,2.8,1,3.2,2.3c0.4,1.3,0,2.4-1,3.3c-0.7,0.7-1.6,1.2-2.5,1.7
		C645.4,18.9,644.9,19.1,644.8,19.8z"/>
	<path class="st1" d="M563.8,13.5c1.3,0,2.2,0.9,2.2,2.1c0,1.2-0.9,2.2-2.1,2.2c-1.2,0-2.2-0.9-2.2-2.1
		C561.7,14.4,562.6,13.5,563.8,13.5z"/>
	<path class="st1" d="M601.4,16.3c-0.7,0.1-1.4,0.1-2,0.2c-5.6,1.1-8.7,6.4-7.2,12.1c1.4,5.2,7.1,8.1,12.4,6.3
		c1.5-0.5,1.5-0.5,0.7-1.9c-0.2-0.3-0.4-0.6-0.6-0.9c-0.2-0.4-0.5-0.5-0.9-0.3c-0.9,0.5-1.9,0.7-2.9,0.5c-4.2-0.6-6.7-5.2-5-9.2
		c1.2-2.9,4.3-4.4,7.2-3.6c2.9,0.8,4.9,4.1,4.3,7c-0.1,0.6-0.3,1.2-1.1,1.1c-0.8-0.1-1-0.6-1-1.3c0-0.7,0-1.4,0-2
		c-0.1-1.4-0.8-2.3-2.1-2.7c-1.4-0.4-2.8-0.2-4.2,0.4c-0.4,0.2-1,0.3-0.6,1c0.3,0.5,0.3,1.5,1.4,1c0.6-0.3,1.4-0.4,2.1-0.2
		c0.4,0.1,0.7,0.3,0.6,0.8c0,0.5-0.5,0.3-0.7,0.3c-1,0-1.9,0.2-2.8,0.7c-1,0.6-1.4,1.4-1.3,2.6c0.1,1,0.8,1.7,1.9,2
		c1.1,0.3,2,0.1,2.8-0.7c0.3-0.3,0.5-0.5,0.8,0c1.2,1.4,2.8,1.5,4.5,1.1c1.6-0.4,2.6-1.6,2.9-3.2C611.5,22.3,608,16.2,601.4,16.3z
		 M602.5,27c0,0.4-0.8,1.3-1.4,1.3c-0.5,0-0.8-0.2-0.9-0.8c-0.1-0.6,0.8-1.1,1.7-1.1C602.2,26.4,602.5,26.4,602.5,27z"/>
	<path class="st1" d="M632.5,16.4c-5.3-0.1-9.5,4-9.5,9.3c0,5.4,4.1,9.6,9.4,9.6c5.3,0,9.5-4.2,9.5-9.6
		C641.8,20.5,637.8,16.5,632.5,16.4z M632.2,32.3c-2.2-0.1-3.7-1.2-4.8-3.1c-1.5-2.7-1.1-6.1,1.1-8.2c1.7-1.6,3.7-2,5.8-1.3
		c2.3,0.8,3.6,2.6,3.9,5c0.1,0.4,0.1,0.7,0.1,1C638.2,29.6,635.6,32.4,632.2,32.3z"/>
	<path class="st1" d="M591.4,27.1c-0.3-2.4-1.3-4.3-3.7-5.2c-2.1-0.8-4.1-0.4-5.9,1.3c0-0.3,0-0.5,0-0.6c0-2.6,0-5.3,0-7.9
		c0-0.7-0.2-1-0.9-0.9c-1.1,0.1-2.3,0.1-3.4,0c-0.8,0-1.1,0.2-1,1c0.1,0.7-0.3,1.6,1,1.4c0.9-0.2,1.1,0.3,1.1,1.1
		c0,5.2,0,10.3,0,15.5c0,2.1,0,2.1,2.2,2.1c0.8,0,1.1-0.2,1-1c0-0.1,0-0.3,0-0.5c3,3.2,8.2,1.6,9.4-2.4
		C591.4,29.8,591.5,28.5,591.4,27.1z M588.1,28.3c0,1.6-0.4,2.8-1.5,3.7c-1.4,1-3.3,0.6-4.2-0.9c-0.8-1.3-0.9-2.8-0.5-4.2
		c0.4-1.5,1.5-2.4,2.9-2.4c1.4,0,2.5,0.8,3,2.3C588,27.3,588.1,27.9,588.1,28.3z"/>
	<path class="st1" d="M655.5,11.1c-3.2,0-5.6,2.3-5.6,5.4c0,3.2,2.4,5.6,5.6,5.6c3.2,0,5.6-2.4,5.6-5.5
		C661.1,13.4,658.8,11.1,655.5,11.1z M655.5,19.8c-1.5,0-2.7-1.4-2.7-3.2c0-1.7,1.2-3.1,2.8-3.1c1.5,0,2.8,1.4,2.8,3.1
		C658.3,18.3,657,19.8,655.5,19.8z"/>
</g>
<g>
	<path class="st1" d="M59.7,0.9c0.1-0.1,0.2-0.1,0.3,0c0.1,0.1,0,0.2,0,0.4c0,14.7,0,29.4,0,44.1c0,0.1,0,0.2,0,0.4
		c-0.1,0.1-0.2,0.1-0.3,0c-0.1-0.1,0-0.2,0-0.4c0-14.7,0-29.4,0-44.1C59.7,1.1,59.7,1,59.7,0.9z"/>
	<path class="st1" d="M59.7,0.9c0,14.9,0,29.9,0,44.8c-0.1-0.1-0.1-0.2-0.1-0.3c0-14.7,0-29.4,0-44.1C59.7,1.1,59.6,1,59.7,0.9z"/>
	<path class="st1" d="M60.1,45.7c0-14.9,0-29.9,0-44.8c0.1,0.1,0.1,0.2,0.1,0.3c0,14.7,0,29.4,0,44.1C60.1,45.5,60.2,45.6,60.1,45.7
		z"/>
	<g>
		<path class="st1" d="M111.9,13.4c-0.4-1.7-1.7-2.5-3.4-2.4c-1.1,0.1-2,0.7-2.7,1.5c-0.1,0.1-0.1,0.2-0.3,0.2
			c0-0.4,0.1-0.8,0.1-1.2c0-0.3-0.1-0.3-0.3-0.3c-0.7,0-1.4,0-2.2,0c-0.3,0-0.4,0.1-0.4,0.3c-0.2,1.7-0.5,3.3-0.8,4.9
			c-0.6,3.4-1.3,6.8-2,10.2c0,0.2,0,0.3,0.2,0.3c0.9,0,1.8,0,2.6,0c0.2,0,0.3-0.1,0.3-0.3c0.2-1.3,0.5-2.6,0.7-3.8
			c0.1-0.5,0.1-0.5,0.6-0.4c1.7,0.5,3.3,0.2,4.7-0.9c1.3-1,2.1-2.4,2.5-4C112.1,16.1,112.2,14.8,111.9,13.4z M108.8,15.4
			c-0.1,1.5-0.5,2.9-1.5,4c-0.7,0.8-1.6,1-2.5,0.6c-0.3-0.1-0.4-0.3-0.3-0.6c0.2-0.9,0.3-1.8,0.5-2.8c0.2-0.8,0.4-1.5,0.9-2.2
			c0.3-0.4,0.7-0.8,1.2-0.9c0.7-0.1,1.2,0.2,1.4,0.8C108.7,14.8,108.8,15.1,108.8,15.4z"/>
		<path class="st1" d="M86,13.7c0.4,0.2,0.5,0.7,0.5,1.1c0,0.5-0.1,1-0.2,1.4c0,0.6-0.2,1.2-0.3,1.8c0,0.2,0,0.5-0.2,0.7l0,0l0,0
			c-0.2,1.2-0.5,2.4-0.7,3.5c-0.1,0.2,0.1,0.2,0.3,0.2c0.9,0,1.7,0,2.6,0c0.2,0,0.3-0.1,0.4-0.3c0.1-0.6,0.2-1.3,0.4-1.9
			c0.2-1.2,0.5-2.4,0.7-3.6c0-0.2,0-0.4,0.1-0.6c0,0.2-0.1,0.4-0.1,0.6c0.1-0.2,0.2-0.4,0.1-0.6l0,0c0.2-1,0.3-1.9,0.2-2.9
			c-0.2-1.3-1.1-2.1-2.4-2.1c-1.3,0-2.3,0.4-3.2,1.3c-0.1,0.1-0.2,0.2-0.3,0.2c0-0.1,0-0.1,0-0.2c0.4-1.9,0.7-3.8,1.1-5.6
			c0.1-0.3,0-0.4-0.3-0.4c-0.8,0-1.6,0-2.4,0c-0.4,0-0.5,0.1-0.5,0.5c-0.5,2.5-0.9,5-1.4,7.5c-0.5,2.6-1,5.3-1.5,7.9
			c0,0.2,0,0.3,0.2,0.3c0.9,0,1.8,0,2.7,0c0.2,0,0.2-0.1,0.3-0.2c0.2-1,0.4-2,0.6-3c0.2-1.1,0.3-2.3,0.7-3.3c0.3-0.8,0.7-1.5,1.4-2
			C85.1,13.5,85.5,13.4,86,13.7z"/>
		<path class="st1" d="M135.7,11.2c-0.9,0-1.8,0-2.8,0c-0.2,0-0.3,0.1-0.4,0.2c-0.5,1.4-1.1,2.8-1.6,4.3l0,0l0,0
			c0,0.1,0,0.3-0.1,0.3l0,0c-0.3,0.8-0.6,1.6-0.9,2.4c0,0.1,0,0.2-0.1,0.2c0,0-0.1,0.1-0.1,0.1c-0.1,0-0.1-0.1-0.1-0.1
			c0-0.3,0-0.5,0-0.8l0,0c-0.1-0.4-0.1-0.8-0.2-1.3c-0.2-1.7-0.4-3.4-0.5-5.1c0-0.2-0.1-0.3-0.3-0.3c-0.9,0-1.8,0-2.7,0
			c-0.2,0-0.3,0.1-0.2,0.3c0.3,1.7,0.6,3.5,1,5.2c0.3,1.6,0.6,3.1,0.9,4.7c0,0.2,0,0.5-0.1,0.7c-0.4,0.7-0.9,1.3-1.6,1.7
			c-0.5,0.4-1,0.6-1.6,0.8c-0.1,0.1-0.3,0.1-0.2,0.3c0.2,0.7,0.5,1.4,0.7,2.2c0.1,0.3,0.2,0.3,0.5,0.2c0.6-0.2,1.1-0.5,1.7-0.8
			c1.3-0.8,2.3-2.1,3.1-3.4c1.4-2.2,2.4-4.6,3.6-6.9c0.8-1.6,1.5-3.3,2.3-4.9C136,11.2,135.8,11.2,135.7,11.2z"/>
		<path class="st1" d="M94.4,22.6c1.6,0,2.8-0.4,3.8-1.2c2.3-2,3.1-4.5,2.5-7.4c-0.2-1.2-1.1-2.2-2.3-2.6c-1.9-0.7-3.7-0.4-5.4,0.9
			c-1.7,1.3-2.5,3.1-2.7,5.2c-0.1,1-0.1,2,0.4,3C91.5,22,92.9,22.6,94.4,22.6z M93.8,16.3c0.2-0.7,0.4-1.3,0.9-1.9
			c0.2-0.3,0.5-0.6,0.9-0.8c1-0.4,1.9,0.2,2,1.3c0.1,1-0.1,2-0.4,2.9c-0.2,0.6-0.4,1.2-0.8,1.7c-0.6,0.7-1.3,1-2,0.7
			c-0.4-0.2-0.6-0.5-0.8-0.8l0,0l0,0c-0.2-0.2-0.2-0.6-0.2-0.9C93.5,17.7,93.5,16.9,93.8,16.3z"/>
		<path class="st1" d="M124.3,13.6c0.2,0,0.3,0,0.3-0.2c0-0.3,0.1-0.6,0.2-0.9c-0.1-0.3,0.1-0.6,0.1-0.8c0.1-0.3,0-0.4-0.3-0.4
			c-0.5,0-1,0-1.5,0c-0.3,0-0.3-0.1-0.3-0.3c0-0.2,0.1-0.5,0.2-0.7l0,0c0.4-1.2,1.3-1.9,2.6-1.5c0.2,0.1,0.2-0.1,0.3-0.2
			c0.2-0.7,0.3-1.3,0.5-2c0.1-0.2-0.1-0.3-0.2-0.3c-0.6-0.2-1.1-0.2-1.7-0.2c-1.6,0.1-2.9,0.8-3.8,2.2c-0.5,0.8-0.8,1.7-0.9,2.6
			c0,0.3-0.1,0.4-0.4,0.4c-0.3,0-0.6,0-0.8,0c-0.2,0-0.3,0.1-0.3,0.2c-0.1,0.6-0.2,1.2-0.4,1.9c-0.1,0.2,0,0.3,0.3,0.3
			c0.3,0,0.6,0,0.8,0c0.3,0,0.3,0.1,0.3,0.3c-0.1,0.4-0.2,0.9-0.3,1.3c-0.4,2.3-0.9,4.6-1.3,6.9c0,0.2,0,0.3,0.2,0.3
			c0.9,0,1.8,0,2.6,0c0.2,0,0.3-0.1,0.3-0.2c0.1-0.5,0.2-1,0.3-1.5c0.4-2.2,0.8-4.5,1.3-6.7c0-0.2,0.2-0.3,0.4-0.3
			C123.3,13.6,123.8,13.6,124.3,13.6z"/>
		<path class="st1" d="M77.2,21.5c1.2-1,1.7-3.1,0.7-4.4c-0.5-0.6-1.2-1.1-1.9-1.5c-0.3-0.2-0.6-0.3-0.8-0.6
			c-0.5-0.5-0.3-1.2,0.3-1.5c0.2-0.1,0.5-0.2,0.7-0.2c0.7,0,1.3,0.1,1.9,0.3c0.2,0.1,0.3,0,0.4-0.2c0.2-0.5,0.3-1.1,0.5-1.6
			c0.2-0.4,0.2-0.5-0.3-0.6c-1-0.4-2.1-0.4-3.2-0.2c-1.1,0.2-2,0.6-2.8,1.4c-1,1.1-1.2,2.6-0.5,3.7c0.4,0.7,1.1,1.2,1.8,1.6
			c0.3,0.2,0.6,0.4,0.9,0.7c0.3,0.3,0.3,0.7,0.2,1.1c-0.1,0.4-0.4,0.6-0.8,0.7c-1,0.2-1.9-0.1-2.8-0.5c-0.2-0.1-0.3-0.1-0.4,0.1
			c-0.2,0.6-0.4,1.2-0.6,1.8c-0.1,0.2,0,0.3,0.2,0.4c1.3,0.6,2.6,0.7,4,0.5c0.2-0.1,0.4-0.2,0.6-0.1l0,0C76,22.3,76.7,22,77.2,21.5z
			"/>
		<path class="st1" d="M114.7,22.4c0.3,0,0.4-0.1,0.4-0.3c0.2-1.1,0.4-2.3,0.6-3.4c0.5-2.4,0.9-4.8,1.4-7.2c0-0.2,0-0.3-0.2-0.3
			c-0.9,0-1.8,0-2.7,0c-0.2,0-0.3,0.1-0.3,0.2c-0.2,1-0.4,2-0.6,3l0,0c0,0.2,0,0.5-0.1,0.7l0,0c-0.5,2.4-0.9,4.7-1.4,7
			c-0.1,0.2,0.1,0.3,0.3,0.3C113,22.4,113.9,22.4,114.7,22.4z"/>
		<path class="st1" d="M120.4,38.3c-0.5-0.8-1-1.7-1.7-2.3c-0.2-0.2-0.5-0.4-0.7-0.5c0.1-0.1,0.2-0.1,0.2-0.1c0.7-0.2,1.4-0.4,1.8-1
			c0.9-1.2,0.3-3.2-1.2-3.6c-0.5-0.1-1-0.2-1.6-0.2c-1.2,0-2.4,0-3.7,0c-0.3,0-0.3,0.1-0.3,0.4c0,2.6,0,5.3,0,7.9
			c0,0.8,0,0.8,0.8,0.8c0.3,0,0.4-0.1,0.4-0.4c0-1.1,0-2.2,0-3.3c0-0.2,0.1-0.3,0.3-0.3c0.4,0,0.8,0,1.2,0c0.8,0,1.3,0.3,1.7,0.9
			c0.5,0.7,1.1,1.5,1.5,2.3c0.4,0.7,0.8,1,1.6,0.9c0,0,0,0,0.1,0c0.1,0,0.2,0,0.2,0c0.1-0.1,0-0.2-0.1-0.2
			C120.8,38.9,120.6,38.6,120.4,38.3z M117.7,34.4c-1,0-2,0-3,0c-0.2,0-0.2-0.1-0.2-0.2c0-0.8,0-1.6,0-2.4c0-0.2,0.1-0.2,0.3-0.2
			c0.5,0,1.1,0,1.6,0v0c0.5,0,1.1,0,1.6,0c0.6,0,1.1,0.3,1.3,0.8c0.2,0.5,0.2,1-0.2,1.5C118.6,34.3,118.2,34.4,117.7,34.4z"/>
		<path class="st1" d="M91.3,38.5c-1.6,0-3.3,0-4.9,0c-0.2,0-0.3-0.1-0.3-0.3c0-0.8,0-1.7,0-2.5c0-0.3,0.1-0.3,0.3-0.3
			c1.3,0,2.7,0,4,0c0.7,0,0.7,0,0.7-0.7c0-0.3-0.1-0.3-0.3-0.3c-1.4,0-2.9,0-4.3,0c-0.3,0-0.4-0.1-0.4-0.3c0-0.7,0-1.4,0-2.1
			c0-0.3,0.1-0.4,0.4-0.4c1.4,0,2.8,0,4.3,0c0.8,0,0.8,0,0.8-0.8c0-0.2-0.1-0.3-0.3-0.3c-2,0-3.9,0-5.9,0c-0.2,0-0.3,0.1-0.3,0.3
			c0,1.4,0,2.8,0,4.2c0,1.4,0,2.7,0,4.1c0,0.3,0.1,0.4,0.4,0.4c1.9,0,3.7,0,5.6,0c0.7,0,0.7,0,0.7-0.7
			C91.6,38.5,91.5,38.5,91.3,38.5z"/>
		<path class="st1" d="M129.3,38.5c-1.6,0-3.2,0-4.9,0c-0.3,0-0.4-0.1-0.4-0.3c0-0.8,0-1.6,0-2.4c0-0.3,0.1-0.4,0.4-0.4
			c1.3,0,2.7,0,4,0c0.7,0,0.7,0,0.7-0.7c0-0.3-0.1-0.4-0.4-0.4c-1.4,0-2.9,0-4.3,0c-0.3,0-0.3-0.1-0.3-0.3c0-0.7,0-1.4,0-2.1
			c0-0.3,0.1-0.3,0.3-0.3c1.4,0,2.8,0,4.3,0c0.8,0,0.7,0,0.8-0.7c0-0.3-0.1-0.3-0.3-0.3c-1.9,0-3.9,0-5.8,0c-0.3,0-0.3,0.1-0.3,0.3
			c0,1.4,0,2.8,0,4.1c0,1.4,0,2.8,0,4.2c0,0.3,0.1,0.3,0.3,0.3c1.9,0,3.8,0,5.6,0c0.7,0,0.7,0,0.7-0.7
			C129.7,38.5,129.6,38.5,129.3,38.5z"/>
		<path class="st1" d="M81.6,35.1c-0.6-0.4-1.2-0.5-1.8-0.7c-0.7-0.2-1.3-0.3-2-0.5c-0.4-0.2-0.7-0.4-0.8-0.8
			c-0.2-0.7,0.3-1.3,1.1-1.5c0.5-0.1,1-0.1,1.6-0.1c0.9,0.1,1.4,0.5,1.6,1.4c0,0.2,0.1,0.2,0.3,0.2c0.1,0,0.2,0,0.3,0v0
			c0.1,0,0.2,0,0.3,0c0.2,0,0.3-0.1,0.2-0.3c-0.2-0.8-0.6-1.5-1.4-1.9c-0.9-0.5-1.9-0.5-2.9-0.3c-0.7,0.1-1.2,0.4-1.7,0.9
			c-0.8,0.9-0.7,2.3,0.2,3c0.6,0.5,1.4,0.7,2.1,0.9c0.7,0.2,1.4,0.3,2,0.6c0.4,0.2,0.6,0.4,0.7,0.8c0.2,0.7-0.2,1.4-1,1.7
			c-0.8,0.3-1.6,0.3-2.4,0c-0.6-0.2-1.1-0.6-1.4-1.3c-0.1-0.2,0-0.5-0.2-0.6s-0.5,0-0.7,0c-0.3,0-0.3,0.1-0.3,0.3
			c0.2,1.2,0.8,2.1,2,2.5c0.5,0.2,0.9,0.2,1.4,0.2c1.1,0.1,2.1-0.2,3-1C83,37.6,82.8,35.8,81.6,35.1z"/>
		<path class="st1" d="M110.6,33.7c0-0.8,0-1.6,0-2.4c0-0.8,0-0.8-0.8-0.8c-0.3,0-0.4,0.1-0.4,0.4c0,1.7,0,3.4,0,5.1
			c0,0.4-0.1,0.8-0.1,1.1c-0.1,0.6-0.4,1-1,1.2c-0.6,0.2-1.3,0.3-1.9,0.2c-1-0.2-1.4-0.7-1.6-1.6c-0.1-0.4-0.1-0.7-0.1-1.1
			c0-1.5,0-3,0-4.4c0-0.9,0-0.9-0.9-0.8c-0.2,0-0.2,0.1-0.2,0.3c0,2-0.1,4,0.1,5.9c0.1,1.4,0.8,2.4,2,2.7c0.9,0.2,1.8,0.3,2.7,0
			c0.6-0.2,1-0.4,1.4-0.9c0.6-0.7,0.8-1.5,0.8-2.4C110.6,35.4,110.6,34.5,110.6,33.7L110.6,33.7z"/>
		<path class="st1" d="M100.8,36.5c-0.3-0.1-0.5-0.1-0.6,0.3c-0.3,1.1-1.2,1.8-2.3,1.8c-1.4,0-2.4-0.5-2.8-1.7
			c-0.3-0.9-0.4-1.8-0.3-2.7c0.2-1.1,0.5-2.1,1.7-2.5c1.1-0.4,2.7-0.4,3.4,0.9c0.1,0.2,0.1,0.6,0.4,0.6c0.2,0,0.5-0.1,0.8-0.2
			c0,0,0,0,0,0c0.2,0,0.2-0.1,0.2-0.3c-0.2-0.7-0.6-1.2-1.2-1.7c-0.9-0.7-1.9-0.8-3-0.7c-1,0.2-1.9,0.6-2.6,1.4c-0.7,0.9-1,2-1,3.2
			c0,0.3,0,0.6,0.1,1c0.2,1.2,0.7,2.3,1.8,3c0.8,0.5,1.8,0.7,2.7,0.6c1.5-0.1,2.5-0.9,3-2.2C101.6,36.7,101.5,36.7,100.8,36.5z"/>
		<path class="st1" d="M116.1,9.9c1.1,0,1.8-0.8,1.8-1.8c0-0.9-0.6-1.6-1.6-1.6c-1,0-1.8,0.8-1.8,1.8C114.5,9.2,115.1,9.9,116.1,9.9
			z"/>
		<path class="st1" d="M123.2,11.2c0.5,0,1,0,1.5,0c0.3,0,0.4,0,0.3,0.4c0,0.3-0.1,0.6-0.2,0.9c0.1-0.3,0.2-0.7,0.2-1
			c0.1-0.3,0-0.3-0.3-0.3C124.2,11.2,123.7,11.2,123.2,11.2c-0.2,0-0.3-0.1-0.2-0.3c0-0.2,0.2-0.4,0.1-0.7c0,0.2-0.1,0.5-0.2,0.7
			C122.8,11.1,122.9,11.2,123.2,11.2z"/>
		<path class="st1" d="M85.8,18.7c0.2-0.8,0.3-1.7,0.5-2.5C86.1,17,85.9,17.8,85.8,18.7z"/>
		<path class="st1" d="M129.7,18.4c0,0.1,0,0.2,0.1,0.2c0.1,0,0.1-0.1,0.1-0.1C129.8,18.6,129.8,18.5,129.7,18.4
			c0-0.2,0.1-0.4,0-0.6l0,0C129.7,18,129.7,18.2,129.7,18.4z"/>
		<path class="st1" d="M113.4,14.4c-0.1,0.2-0.2,0.4-0.1,0.7l0,0C113.3,14.9,113.4,14.7,113.4,14.4L113.4,14.4z"/>
		<path class="st1" d="M75.3,22.4L75.3,22.4c-0.2,0.1-0.4,0.1-0.6,0.1C74.9,22.6,75.1,22.5,75.3,22.4z"/>
		<path class="st1" d="M130.8,16.1L130.8,16.1c0.1-0.1,0.1-0.2,0.1-0.3C130.8,15.8,130.8,15.9,130.8,16.1z"/>
		<path class="st1" d="M93.8,19.3c-0.2-0.5-0.2-1.1-0.1-1.7c0.1-0.5,0.1-0.9,0.2-1.3c-0.1,0.4-0.2,0.7-0.2,1.1
			C93.6,18,93.5,18.6,93.8,19.3z"/>
	</g>
	<path class="st1" d="M49.7,41c-0.1-0.6-0.2-1.1-0.2-1.7c-0.1-0.6-0.2-1.2-0.2-1.8c-0.1-0.4-0.1-0.9-0.2-1.3c0-0.7-0.1-1.3-0.2-2
		c-0.1-0.9-0.2-1.9-0.3-2.8c-0.1-1.1-0.2-2.2-0.3-3.3c-0.1-1-0.1-2.1-0.2-3.1c-0.1-1.6-0.2-3.1-0.3-4.7c-0.1-0.9,0-1.8-0.1-2.8
		c0-0.8,0-1.6,0-2.4c0-0.4,0-0.7,0-1.1c0-0.3-0.1-0.4-0.4-0.3c-0.3,0.1-0.6,0.2-0.8,0.3c-0.2,0.1-0.4,0.1-0.6,0.2
		c-0.3,0-0.5,0.1-0.7,0.2c-0.3,0-0.5,0.1-0.7,0.1c-0.1,0-0.2,0-0.2-0.1c0-0.3,0.1-0.5,0-0.8l0,0c0-0.2,0.1-0.4-0.1-0.5l0,0
		c0-0.2,0-0.5-0.1-0.7c0-0.1,0-0.2,0-0.2c-0.5-1.8-1.5-3.3-3-4.5c-2-1.6-4.3-2.2-6.8-1.7c-2.9,0.6-4.9,2.4-6.1,5
		c-0.2,0.5-0.5,1.1-0.5,1.7c-0.1,0.4-0.2,0.8-0.2,1.2c0,0.2,0,0.3,0,0.5c0,0.2,0,0.3-0.2,0.2c-0.3-0.1-0.6-0.1-0.9-0.2
		c-0.3-0.1-0.5-0.1-0.8-0.2c-0.2-0.1-0.4-0.2-0.7-0.2c-0.3-0.1-0.7-0.2-1-0.3c-0.3-0.1-0.4-0.1-0.4,0.3c0,0.4,0,0.8,0,1.1
		c0,0.7,0,1.3,0,2c0,1.2-0.1,2.3-0.1,3.5c0,0.6,0,1.3-0.1,1.9c-0.1,1.2-0.2,2.4-0.2,3.7c-0.1,1-0.1,1.9-0.2,2.9
		c-0.1,1-0.2,2.1-0.3,3.1c-0.1,1.1-0.2,2.2-0.3,3.3c-0.1,1.1-0.3,2.3-0.5,3.4c-0.1,0.5-0.1,0.9-0.2,1.4c0,0.2,0,0.4-0.1,0.6
		c-0.1,0.3,0,0.3,0.3,0.3c0.2,0,0.5,0,0.7,0c0.5,0,0.9,0,1.4,0c0.2,0,0.3,0,0.5,0c3.1,0,6.3,0,9.4,0.1c2.1,0.1,4.2,0,6.3-0.1
		c0.4,0,0.8,0,1.1,0c2.4,0,4.9,0,7.3,0c0.5,0,1,0,1.5,0C49.7,41.3,49.7,41.2,49.7,41z M39,36L39,36c-0.2,0-0.4,0-0.5,0
		c-0.3,0-0.7,0-1,0c-1.6,0-3.1,0-4.7,0c-0.3,0-0.7,0-1,0c-0.2,0-0.4,0-0.5,0c0,0,0-0.1,0-0.1c0-0.1,0-0.1,0-0.2
		c0.1-0.1,0.2-0.3,0.2-0.5l0,0c0.1-0.2,0.2-0.4,0.2-0.7c0.2-0.3,0.3-0.7,0.5-1.1c0.3-0.8,0.7-1.6,0.9-2.4c0.3-0.6,0.5-1.2,0.8-1.8
		c0-0.1,0-0.1-0.1-0.2c-0.4-0.1-0.6-0.3-1-0.5c-0.4-0.4-0.8-0.7-1-1.2c-0.4-0.8-0.6-1.7-0.4-2.6c0.3-1.7,1.4-2.7,3-3.2
		c0.3-0.1,0.5,0,0.8-0.1c2.3-0.1,4.4,2.1,3.8,4.9c-0.2,1-0.8,1.7-1.6,2.3c-0.3,0.2-0.6,0.3-0.9,0.4c-0.1,0-0.2,0.1-0.1,0.2
		c0.3,0.5,0.4,1.1,0.7,1.7l0,0c0,0.1,0,0.1,0,0.2c0.3,0.6,0.5,1.2,0.8,1.9c0.2,0.5,0.3,1,0.6,1.4c0.1,0.3,0.2,0.6,0.3,0.8l0,0
		c0,0.1,0,0.2,0.1,0.3C39,35.8,39,35.9,39,36C39,36,39,36,39,36z M29.7,10.2c1.5-2.2,3.6-3.3,6.3-3.2c3.1,0.2,5.2,1.9,6.4,4.7
		c0.1,0.3,0.2,0.6,0.3,0.9c0,0.2,0.1,0.5,0.1,0.7c0,0.2,0,0.4,0.1,0.5c0,0.3,0,0.6,0,0.9l0,0c0,0.3-0.3,0.2-0.4,0.2
		c-0.1,0-0.3,0-0.4,0.1c-0.6,0.1-1.2,0.1-1.7,0.2c-1.3,0.2-2.6,0.3-3.9,0.3c-1.6,0.1-3.2,0-4.9-0.1c-0.8-0.1-1.7-0.2-2.5-0.3
		c-0.3-0.1-0.5-0.1-0.8-0.1l0,0c-0.1-0.4,0-0.8,0-1.2l0,0c0-0.3,0.1-0.6,0.1-0.9C28.7,12,29.1,11.1,29.7,10.2z"/>
</g>
<g>
	<path class="st1" d="M312,18.9c0.3-2.3-0.8-3.8-3.1-4.2c-1.2-0.2-2.3-0.1-3.3-0.1c-0.7,0-1.2,0-1.8,0c-1.9,0-1.8-0.2-2.1,1.8
		c-0.6,3.8-1.2,7.6-1.8,11.5c-0.1,0.5,0.1,0.7,0.6,0.7c0.7,0,1.3,0,2,0c0.6,0,0.9-0.2,1-0.9c0.1-0.9,0.3-1.8,0.4-2.8
		c0.2-0.9,0.3-1,1.2-1c0.7,0,1.3,0,2,0c2.4-0.2,4-1.5,4.6-3.7C311.9,19.8,312,19.3,312,18.9z M306.6,21.1c-0.6,0.1-1.1,0.1-1.7,0.1
		c-0.3,0-0.4-0.1-0.3-0.4c0.2-0.9,0.3-1.8,0.4-2.7c0.1-0.8,0.7-0.5,1.2-0.6c0.1,0,0.2,0,0.3,0c1.2,0.1,1.7,0.4,1.8,1.3
		C308.3,20,307.7,20.9,306.6,21.1z"/>
	<path class="st1" d="M344.5,14.8c-2-0.3-4.1-0.1-6.1-0.1c-0.5,0-0.7,0.3-0.8,0.8c-0.6,3.9-1.3,7.9-1.9,11.8
		c-0.2,1.2-0.2,1.2,1.1,1.2c0.2,0,0.4,0,0.5,0c0.3,0,0.6,0,0.9,0c0.6,0.1,0.9-0.1,0.9-0.8c0.1-1,0.3-2.1,0.5-3.1
		c0.1-0.6,0.4-0.8,0.9-0.8c0.5,0,1,0,1.4,0c3.4,0,5.3-1.7,5.7-5.1C348,16.6,346.9,15.1,344.5,14.8z M342.4,21.1
		c-0.6,0.1-1.1,0.1-1.7,0.1c-0.3,0-0.5-0.1-0.4-0.4c0.2-0.8,0.3-1.7,0.4-2.5c0.1-0.9,0.7-0.8,1.3-0.8c0.1,0,0.2,0,0.3,0
		c1.2,0.1,1.7,0.4,1.7,1.2C344,20,343.5,20.9,342.4,21.1z"/>
	<path class="st1" d="M322.2,19.3c-0.5,0-1,0-1.4,0c-0.7-0.1-1,0.2-1,1c-0.6-0.8-1.3-1-2.1-1.1c-3.5-0.4-6.4,2.2-6.4,5.7
		c0,2.4,1.6,4,4,4c1.2,0,2.2-0.4,3.3-1.3c-0.2,0.9,0.1,1.1,0.8,1c0.5,0,1.1,0,1.6,0c0.5,0,0.8-0.2,0.9-0.8c0.1-0.7,0.2-1.4,0.3-2.2
		c0.3-1.8,0.6-3.6,0.9-5.5C323.1,19.4,323,19.3,322.2,19.3z M316.6,26.3c-1.2,0-2-0.8-2-1.9c0-1.5,1.3-2.7,2.7-2.7c1.2,0,2,0.8,2,2
		C319.3,25.1,318,26.3,316.6,26.3z"/>
	<path class="st1" d="M358.2,19.3c-0.5,0-1.1,0-1.6,0c-0.7-0.1-1.1,0.1-1.1,0.9c-1-1.1-2.2-1.2-3.4-1.1c-2.9,0.3-5.1,2.8-5,5.7
		c0,2.5,1.6,4,4.1,4c1.2,0,2.2-0.5,3.2-1.2c-0.3,1,0.2,1.1,0.8,1c0.5,0,1.1,0,1.6,0c0.5,0,0.7-0.2,0.8-0.7c0.4-2.7,0.8-5.3,1.3-8
		C358.8,19.5,358.6,19.3,358.2,19.3z M352.3,26.3c-1.2,0-2-0.8-2-1.9c0-1.5,1.2-2.7,2.7-2.7c1.2,0,2,0.8,2,2
		C355,25.1,353.8,26.3,352.3,26.3z"/>
	<path class="st1" d="M335.8,19.5c-0.2-0.3-0.5-0.3-0.7-0.3c-0.5,0-1.1,0-1.6,0c-0.6,0-1,0.2-1.3,0.7c-1,1.5-2,2.9-3,4.5
		c-0.5-1.5-0.9-2.9-1.3-4.3c-0.2-0.7-0.5-1-1.2-0.9c-0.5,0-1.1,0-1.6,0c-0.9,0-1,0.2-0.7,1c0.8,2.3,1.5,4.6,2.4,6.9
		c0.1,0.4,0.1,0.6-0.1,0.9c-0.7,1-1.4,1.9-2.1,2.9c-0.2,0.3-0.4,0.8,0.1,0.8c0.9,0.2,1.9,0.1,2.8,0c0.2,0,0.3-0.3,0.5-0.5
		c0.5-0.8,1.1-1.5,1.6-2.3c2-2.9,4-5.8,6.1-8.7C335.7,20.1,336,19.9,335.8,19.5z"/>
	<path class="st1" d="M362.8,14.7c-1.7,0-1.5-0.3-1.8,1.5c-0.3,2.2-0.7,4.3-1,6.5c-0.3,1.7-0.5,3.4-0.8,5.1c-0.1,0.7,0,0.9,0.7,0.9
		c0.5,0,1,0,1.5,0c0.6,0,0.9-0.3,1-0.9c0.6-3.8,1.2-7.7,1.8-11.5C364.4,14.6,364.6,14.6,362.8,14.7z"/>
</g>
<g>
	<path class="st1" d="M102.6,165.6c-0.9-3.6-1.6-7.2-2.3-10.9c-0.5-2.6-0.5-2.6-3.1-2.6c-0.2,0-0.4,0-0.6,0
		c-1.3-0.1-2.1,0.7-2.6,1.8c-1.1,2.3-2.1,4.6-3.1,7c-0.8,1.9-1.6,3.9-2.5,5.9c1.2,0,2.2-0.1,3.3,0c1,0.1,1.5-0.3,1.7-1.2
		c0.1-0.4,0.1-0.9,0.6-0.8c1.4,0.2,2.7,0,4.1,0.1c0.4,0,0.6,0.2,0.5,0.6c-0.1,1.2,0.5,1.5,1.6,1.4c0.5-0.1,1,0,1.5,0
		C102.7,166.8,102.9,166.6,102.6,165.6z M95.2,161.2c-0.4-0.5,0.4-1.5,0.7-2.2c0.2-0.6,0.3-1.2,0.9-1.9c0.4,1.5,0.7,2.8,1,4.3
		C96.8,161.5,95.7,161.9,95.2,161.2z"/>
	<path class="st1" d="M87.4,158.9c-0.9-0.6-2-1-2.9-1.6c-0.4-0.2-1-0.6-0.9-1.1c0.1-0.5,0.6-0.6,1.1-0.8c1.3-0.5,2.4,0,3.5,0.3
		c0.3,0.1,1,0.6,1-0.2c0-0.8,0.4-1.5,0.3-2.3c0-0.4,0-0.7-0.6-0.8c-2.7-0.9-5.4-0.7-7.8,0.8c-2.9,1.9-2.8,5.4,0.4,7.1
		c0.8,0.4,1.6,0.8,2.3,1.3c0.9,0.7,0.9,1.3-0.2,1.8c-1.2,0.5-2.5,0.4-3.7,0c-1.8-0.6-1.8-0.6-2.3,1.2c-0.4,1.5-0.1,1.9,1.4,2.1
		c0.9,0.2,1.9,0.3,2.9,0.2c1.6,0.1,3.1-0.2,4.6-1C89.2,164.5,90.1,160.8,87.4,158.9z"/>
	<path class="st1" d="M68.6,152.1c-0.5,0-0.7,0.1-0.9,0.7c-1,2.8-2.2,5.6-3.4,8.4c-0.2-0.3-0.3-0.6-0.5-0.8
		c-1.1-1.9-2.2-3.9-4.1-5.2c-0.4-0.3-0.8-0.6-1.3-0.6c0,0.3,0,0.5,0.1,0.8c0.8,2.7,1.6,5.4,2.4,8.1c0.9,3.3,0.8,3.2,4.1,3.3
		c1.2,0,1.5-0.6,1.8-1.4c0.9-2.1,1.8-4.1,2.6-6.1c1-2.3,2-4.7,3-7.1C71,152.1,69.8,152.2,68.6,152.1z"/>
	<path class="st1" d="M74.4,152.1c-0.6,0-0.8,0.2-0.9,0.8c-0.7,4.6-1.6,9.2-2.4,13.8c1.2,0,2.3,0,3.5,0c0.6,0,0.8-0.2,0.9-0.8
		c0.7-4.6,1.6-9.2,2.4-13.8C76.6,152.1,75.5,152.2,74.4,152.1z"/>
	<path class="st1" d="M59.7,154.9c2,1.4,3.4,3.1,4.1,5.5c-0.2-2.3-0.8-4.5-1.3-6.7c-0.2-1.2-0.9-1.5-1.9-1.6c-1.9-0.1-3.8,0-5.6,0
		c-0.3,0-0.7-0.2-0.8,0.3c0,0.3,0.4,0.4,0.7,0.6c1.2,0.5,2.5,0.6,3.5,1.6C58.9,154.3,59.3,154.7,59.7,154.9z"/>
</g>
<g>
	<path class="st2" d="M329.5,164.4c-4.4-5.8-3.6-14,1.5-18.9c0.3-0.3,0.6-0.7,0.9-1l0-0.1c-4.6-3.3-9.5-4-14.7-1.6
		c-5.1,2.4-8,6.5-8.3,12.2c-0.3,6.1,2.3,10.7,7.7,13.5c5.2,2.7,10.3,2.2,15.1-1.3l0,0C331.4,166,330.3,165.4,329.5,164.4z"/>
	<path class="st2" d="M353.7,149.4c-2.9-5.8-9.3-8.9-15.8-7.6c-2.2,0.4-4.1,1.6-6,2.6l0,0l0,0c0,0.1,0,0.1,0,0.2
		c3.1,2.1,4.8,5.1,5.4,8.7c0.9,5.2-0.7,9.6-4.6,13.2c-0.2,0.2-0.4,0.5-0.6,0.7l0,0c0.3,0.2,0.5,0.4,0.8,0.6
		c5.5,3.6,12.6,3.1,17.4-1.2C355.3,162.2,356.6,155.2,353.7,149.4z"/>
	<path class="st2" d="M333.2,165.6c5.5-5.6,5.5-14.2-0.1-19.8c-0.4-0.4-0.8-0.7-1.1-1.2c0,0,0,0.1,0,0.2c-0.2,0.6-0.7,1-1.1,1.4
		c-5.1,5.3-5.1,13.8,0,19.2c0.5,0.5,1.4,0.9,1,1.9l0,0c0.1,0,0.2,0,0.3,0l0,0C332.1,166.4,332.7,166.1,333.2,165.6z"/>
	<path class="st2" d="M332,144.7C332,144.6,332,144.6,332,144.7c0-0.1,0-0.1-0.1-0.1C331.9,144.6,332,144.6,332,144.7z"/>
	<path class="st2" d="M352.5,172c-0.9,0-0.1,1.1-0.5,1.6c-1.7-0.5-2.7,0-2.9,1.3c-0.2,1.3,0.5,2.3,1.7,2.4c2,0.2,2.3,0,2.3-1.9
		c0-0.6,0.1-1.2,0-1.8C352.8,173.1,353.4,172,352.5,172z M351,176.5c-0.7,0-1.1-0.5-1.1-1.2c0-0.7,0.4-1.2,1.2-1.2
		c0.7,0,1,0.6,1,1.2C352.1,176.1,351.7,176.5,351,176.5z"/>
	<path class="st2" d="M345.4,175.6c0-2.3,0-2.3-2.2-2.3c-1.1,0-1.9,0.9-1.9,2.1c0,1.4,0.8,1.8,3.2,1.8
		C346.2,177.3,344.9,176,345.4,175.6z M343.2,176.5c-0.6,0-1-0.5-0.9-1.2c0-0.7,0.4-1.1,1.1-1.1c0.8,0,1.1,0.6,1,1.2
		C344.5,176.1,344.1,176.5,343.2,176.5z"/>
	<path class="st2" d="M314.7,177.1L314.7,177.1C314.7,177,314.7,177,314.7,177.1L314.7,177.1L314.7,177.1z"/>
	<path class="st2" d="M317.1,175.7c0-0.5,0-1,0-1.5c-0.7-0.8-1.5-1.2-2.4-0.5c-0.3,0.2-0.6,0.2-0.8,0c-0.7-0.8-1.6,0-2.4-0.1
		c-0.4,0-0.1,1-0.2,1.6c0,0.2,0,0.4,0,0.5c0.2,0.5-0.4,1.6,0.4,1.5c0.8,0,0.4-1,0.4-1.6c0.1-1.4,0.3-1.6,1.6-1.1
		c0.5,0.4,0.3,1,0.3,1.5c0,0.4,0,0.9,0.6,1c0-0.8-0.2-1.7,0.2-2.5c1.1-0.7,1.6-0.3,1.6,0.9c0,0.5,0.1,1.1,0.1,1.6
		C317.4,176.8,317.1,176.2,317.1,175.7z"/>
	<path class="st2" d="M322.1,175.5c0-2.3,0-2.3-2.2-2.2c-1,0-1.9,1-1.9,2c0,1.4,0.8,1.9,3.3,1.9C323,177.2,321.6,175.9,322.1,175.5z
		 M320,176.5c-0.7,0-1-0.6-1-1.2c0-0.7,0.4-1.1,1.1-1.1c0.8,0,1.1,0.5,1.1,1.2C321.2,176.1,320.8,176.6,320,176.5z"/>
	<path class="st2" d="M331.9,173.4c-1,0.2-1.5,0.9-1.6,1.8c-0.1,0.9,0.3,1.6,1.1,2c0.8,0.4,1.5,0.2,2.2-0.2c0.2-0.1,0.2-0.3,0.1-0.5
		c-0.2-0.3-0.4-0.2-0.7-0.1c-0.6,0.2-1.3,0.3-1.7-0.7c0.6,0,1.2,0,1.7,0c1.1,0,1.3-0.4,0.8-1.4C333.4,173.4,332.7,173.3,331.9,173.4
		z M331.4,175c0.6-1.1,1-1.1,1.8,0C332.5,175,332,175,331.4,175z"/>
	<path class="st2" d="M325.4,175c-0.5-0.2-1.1-0.1-1.5-0.5c0.3-0.5,0.7-0.4,1-0.4c0.4,0,1,0.5,1.1-0.3c0-0.5-0.6-0.5-1.1-0.6
		c-0.3,0-0.6,0-0.8,0c-0.7,0.1-1.1,0.4-1.1,1.2c0,0.7,0.4,1,1,1.2c0.4,0.1,0.9,0,1.4,0.6c-0.4,0.3-0.8,0.2-1.1,0.3
		c-0.4,0-1-0.6-1.2,0.2c-0.1,0.6,0.7,0.6,1.1,0.7c0.4,0,0.8,0,1.2-0.1c0.6-0.1,0.8-0.6,0.9-1.1C326.3,175.6,326,175.2,325.4,175z"/>
	<path class="st2" d="M329,176.5c-0.7,0-0.6-0.5-0.5-0.9c0.1-0.4-0.5-1.2,0.5-1.3c0.3,0,0.7,0.1,0.7-0.4c0-0.6-0.4-0.4-0.8-0.5
		c-0.2,0-0.4,0-0.4-0.2c-0.1-0.5-0.1-1.2-0.8-0.8c-0.4,0.3-0.9,1.4-0.9,1.5c1,0.8,0.4,1.9,0.7,2.7c0.2,0.6,0.7,0.9,1.3,0.9
		c0.3-0.2,1,0,1-0.6C329.9,176.3,329.4,176.5,329,176.5z"/>
	<path class="st2" d="M340.1,174.3c0.4,0.1,0.6,0.1,0.7-0.3c0.2-0.5-0.2-0.5-0.5-0.6s-0.5-0.1-0.7-0.1c-1,0-1.7,0.3-2,1.1
		c-0.4,0.9-0.2,1.6,0.4,2.3c0.6,0.7,1.5,0.7,2.3,0.5c0.2,0,0.5-0.2,0.5-0.5c-0.1-0.4-0.3-0.5-0.7-0.3c-0.7,0.3-1.4,0.2-1.6-0.7
		C338.3,174.7,338.9,174.1,340.1,174.3z"/>
	<path class="st2" d="M348.6,173.4c-0.7-0.2-1.4,0.2-2.1,0.1c-0.4,0-0.2,0.7-0.2,1.1c0,0.2,0,0.5,0,0.7c0,0.2,0,0.4,0,0.5
		c0.2,0.5-0.4,1.4,0.5,1.4c0.8,0,0.3-0.9,0.4-1.3c0.1-0.8-0.2-1.8,1.2-1.7c0.3,0,0.4-0.2,0.4-0.4
		C348.8,173.6,348.7,173.4,348.6,173.4z"/>
	<path class="st2" d="M336.9,173.3c-1-0.3-2,0.3-2,1.4c0,0.2,0,0.4,0,0.6c0,0.2,0,0.5,0,0.7c0.1,0.4-0.3,1.2,0.4,1.2
		c1,0,0.4-0.8,0.4-1.3c0.1-0.8-0.2-1.7,1.1-1.8c0.2,0,0.4-0.2,0.3-0.5C337.1,173.5,337,173.4,336.9,173.3z"/>
	<path class="st2" d="M317.3,176.6c0,0.4-0.2,0.7-0.7,0.4c0.4,0.5,0.8,0.4,0.8-0.2c0-0.9,0.3-1.8-0.2-2.7
		C317.4,175,317.3,175.8,317.3,176.6z"/>
	<path class="st2" d="M314,176.3c-0.1-0.6,0.2-1.2-0.2-1.8c0,0.7,0,1.5,0.1,2.2c0,0.6,0.3,0.8,0.8,0.3l0,0
		C314,177.3,314,176.8,314,176.3z"/>
	<path class="st2" d="M314.7,177L314.7,177L314.7,177C314.7,177,314.7,177.1,314.7,177C314.7,177.1,314.7,177.1,314.7,177z"/>
	<path class="st2" d="M314.7,177L314.7,177c0.3-0.8,0-1.7,0.2-2.5C314.6,175.4,314.9,176.2,314.7,177z"/>
	<path class="st2" d="M314.7,177.1L314.7,177.1L314.7,177.1L314.7,177.1z"/>
	<path class="st2" d="M314.7,177.1L314.7,177.1L314.7,177.1L314.7,177.1L314.7,177.1z"/>
	<path class="st2" d="M314.7,177.1C314.7,177.1,314.7,177,314.7,177.1C314.7,177,314.7,177,314.7,177.1
		C314.7,177,314.7,177.1,314.7,177.1L314.7,177.1z"/>
</g>
</svg>
