<?xml version="1.0" encoding="utf-8"?>
<!-- Generator: Adobe Illustrator 19.0.0, SVG Export Plug-In . SVG Version: 6.00 Build 0)  -->
<svg version="1.1" id="Layer_1" xmlns="http://www.w3.org/2000/svg" xmlns:xlink="http://www.w3.org/1999/xlink" x="0px" y="0px"
	 width="31.5px" height="490.1px" viewBox="-673.5 177.5 31.5 490.1" style="enable-background:new -673.5 177.5 31.5 490.1;"
	 xml:space="preserve">
<style type="text/css">
	.st0{fill:none;stroke:#FFFFFF;stroke-width:1.5;stroke-linecap:round;stroke-linejoin:round;stroke-miterlimit:10;}
	.st1{fill:#FFFFFF;}
	.st2{fill:none;stroke:#706F6F;stroke-width:0.5;stroke-miterlimit:10;}
	.st3{fill:#6F6F6F;}
</style>
<g>
	<g>
		<g>
			<g id="XMLID_2_">
				<g id="XMLID_8_">
					<g id="XMLID_16_">
						<polyline id="XMLID_18_" class="st0" points="-670.6,179.1 -667.7,180.1 -663.9,198.1 						"/>
						<line id="XMLID_17_" class="st0" x1="-672.8" y1="178.3" x2="-671.9" y2="178.6"/>
					</g>
					<line id="XMLID_15_" class="st0" x1="-644.5" y1="194.9" x2="-662.6" y2="194.9"/>
					<line id="XMLID_14_" class="st0" x1="-665" y1="183.5" x2="-642.8" y2="185.7"/>
					<line id="XMLID_13_" class="st0" x1="-644.2" y1="193.4" x2="-644.5" y2="194.9"/>
					<circle id="XMLID_12_" class="st0" cx="-662.3" cy="201.5" r="2.3"/>
					<circle id="XMLID_11_" class="st0" cx="-649.4" cy="201.5" r="2.3"/>
					<line id="XMLID_10_" class="st0" x1="-658.6" y1="201.5" x2="-653.1" y2="201.5"/>
					<line id="XMLID_9_" class="st0" x1="-642.8" y1="185.7" x2="-643.8" y2="191.7"/>
				</g>
			</g>
			<g id="XMLID_1_">
				<path id="XMLID_7_" class="st0" d="M-661.7,288.7c4.8,0,8.6,3.8,8.6,8.6s-3.8,8.6-8.6,8.6s-8.5-3.8-8.5-8.6"/>
				<path id="XMLID_6_" class="st0" d="M-669.4,293.4c2.1-4.3,7.3-5.9,11.5-3.8c4.3,2.1,5.9,7.3,3.8,11.5c-2.1,4.2-7.3,5.9-11.5,3.8
					"/>
				<line id="XMLID_5_" class="st0" x1="-653.1" y1="305.8" x2="-645.2" y2="313.7"/>
				<path id="XMLID_4_" class="st0" d="M-661.3,291.2c1.5-0.5,3.2,0.3,3.7,1.8"/>
			</g>
			<g id="XMLID_97_">
				<g id="XMLID_122_">
					<path id="XMLID_123_" class="st1" d="M-657.6,423.2c-4.5,0-8.2-3.7-8.2-8.2s3.7-8.2,8.2-8.2s8.2,3.7,8.2,8.2
						C-649.4,419.6-653,423.2-657.6,423.2z M-657.6,408.6c-3.6,0-6.5,2.9-6.5,6.5s2.9,6.5,6.5,6.5s6.5-2.9,6.5-6.5
						S-654,408.6-657.6,408.6z"/>
				</g>
				<g id="XMLID_120_">
					<path id="XMLID_121_" class="st1" d="M-671.4,433c-0.5,0-0.9-0.4-0.9-0.9c0-5.8,6.6-10.6,14.6-10.6c3.7,0,7.2,1,10,2.8
						c0.4,0.2,0.5,0.8,0.2,1.2c-0.2,0.4-0.8,0.5-1.2,0.2c-2.4-1.6-5.6-2.5-9-2.5c-7.1,0-12.8,4-12.8,8.8
						C-670.5,432.7-670.9,433-671.4,433z"/>
				</g>
				<g id="XMLID_118_">
					<path id="XMLID_119_" class="st1" d="M-646.5,427.5c-0.2,0-0.5-0.1-0.6-0.2c-0.2-0.2-0.2-0.4-0.2-0.6c0-0.2,0.1-0.5,0.2-0.6
						c0.3-0.3,0.9-0.3,1.2,0c0.2,0.2,0.2,0.4,0.2,0.6c0,0.2-0.1,0.5-0.2,0.6C-646,427.3-646.2,427.5-646.5,427.5z"/>
				</g>
				<g id="XMLID_116_">
					<path id="XMLID_117_" class="st1" d="M-645.2,428.9c-0.2,0-0.5-0.1-0.6-0.2c-0.2-0.2-0.2-0.4-0.2-0.6s0.1-0.5,0.2-0.6
						c0.3-0.3,0.9-0.3,1.2,0c0.2,0.2,0.2,0.4,0.2,0.6s-0.1,0.5-0.2,0.6C-644.8,428.8-645,428.9-645.2,428.9z"/>
				</g>
				<g id="XMLID_113_">
					<path id="XMLID_114_" class="st1" d="M-644.1,433c-0.2,0-0.5-0.1-0.6-0.2c-0.2-0.2-0.2-0.4-0.2-0.6c0-0.2,0.1-0.5,0.2-0.6
						c0.3-0.3,0.9-0.3,1.2,0c0.2,0.2,0.2,0.4,0.2,0.6c0,0.2-0.1,0.5-0.2,0.6C-643.6,432.9-643.9,433-644.1,433z"/>
				</g>
				<g id="XMLID_111_">
					<path id="XMLID_112_" class="st1" d="M-644.5,430.9c-0.2,0-0.5-0.1-0.6-0.2c-0.2-0.2-0.2-0.4-0.2-0.6s0.1-0.5,0.2-0.6
						c0.3-0.3,0.9-0.3,1.2,0c0.2,0.2,0.2,0.4,0.2,0.6s-0.1,0.5-0.2,0.6C-644,430.9-644.3,430.9-644.5,430.9z"/>
				</g>
			</g>
		</g>
		<g>
			<path class="st2" d="M-660.7,547.6c5,0,9.2,4.2,9.2,9.2s-4.2,9.2-9.2,9.2s-9.2-4.2-9.2-9.2"/>
			<path class="st2" d="M-668.8,552.4c2.2-4.6,7.7-6.4,12.3-4.2s6.4,7.7,4.2,12.3s-7.7,6.4-12.3,4.2"/>
			<line class="st2" x1="-651.5" y1="565.8" x2="-645.3" y2="571.9"/>
			<path class="st2" d="M-662.2,553c1.5-0.7,3.5,0.4,3.9,2"/>
		</g>
	</g>
	<g>
		<path class="st3" d="M-653.8,658.8v3.2h-10.6l2.9-2.9l-1.1-1.1l-4.8,4.8l4.8,4.8l1.1-1.1l-2.9-2.9h12.2v-4.8H-653.8z
			 M-653.8,658.8"/>
	</g>
</g>
</svg>
