<?xml version="1.0" encoding="utf-8"?>
<!-- Generator: Adobe Illustrator 19.0.0, SVG Export Plug-In . SVG Version: 6.00 Build 0)  -->
<svg version="1.1" id="Camada_1" xmlns="http://www.w3.org/2000/svg" xmlns:xlink="http://www.w3.org/1999/xlink" x="0px" y="0px"
	 viewBox="-372 8 32.5 161" style="enable-background:new -372 8 32.5 161;" xml:space="preserve">
<style type="text/css">
	.st0{fill:#FFFFFF;}
</style>
<polygon class="st0" points="-352.2,40.6 -364.9,16.6 -344.9,19.3 "/>
<g>
	<path class="st0" d="M-362.7,160.2c0,1.4,1,2.4,2.3,2.4c1.4,0,2.4-1,2.3-2.4c0-1.3-1-2.3-2.3-2.3
		C-361.7,157.9-362.7,158.9-362.7,160.2z"/>
	<path class="st0" d="M-339.6,144.9c0.4-1.2-0.6-2.1-1.4-2.1c-3.4,0-6.8,0-10.2,0c-3.5,0-6.9,0-10.3,0c-0.4,0-0.7-0.2-0.8-0.6
		c-0.1-0.6-0.4-1.2-0.6-1.8c-0.3-0.8-0.8-1.1-1.6-1.1c-1.4,0-2.9,0-4.3,0c-0.9,0-1.6,0.6-1.6,1.5c0,1,0.7,1.6,1.6,1.6
		c1,0,1.9,0,2.8,0c0.3-0.1,0.5,0.1,0.6,0.4c1.5,4,2.9,8,4.4,12c0.4,1,0.8,1.3,1.8,1.3c4.6,0,9.3,0,14,0c0.2,0,0.3,0,0.5,0
		c0.7,0,1.2-0.3,1.4-1c1-2.9,2.1-5.8,3.1-8.6C-340,146-339.8,145.4-339.6,144.9z"/>
	<path class="st0" d="M-346.4,160.3c0,1.3,1,2.3,2.3,2.3c1.4,0,2.4-1,2.3-2.4c0-1.3-1-2.3-2.3-2.3
		C-345.4,157.9-346.4,159-346.4,160.3z"/>
</g>
</svg>
