<?xml version="1.0" encoding="utf-8"?>
<!-- Generator: Adobe Illustrator 19.0.0, SVG Export Plug-In . SVG Version: 6.00 Build 0)  -->
<svg version="1.1" id="Layer_1" xmlns="http://www.w3.org/2000/svg" xmlns:xlink="http://www.w3.org/1999/xlink" x="0px" y="0px"
	 width="280px" height="429px" viewBox="-165 275.6 280 429" style="enable-background:new -165 275.6 280 429;"
	 xml:space="preserve">
<style type="text/css">
	.st0{fill:none;stroke:#232425;stroke-linecap:round;stroke-linejoin:round;stroke-miterlimit:10;}
	.st1{enable-background:new    ;}
	.st2{fill:#FFFFFF;}
</style>
<rect x="449.5" y="-196.3" width="407" height="412"/>
<g>
	<g>
		<g>
			<g>
				<g>
					<g>
						<polygon class="st0" points="-100.7,422.7 -127.8,422.7 -154.8,422.7 -164.8,471.8 -155.1,518 -127.8,518 -100.4,518 
							-90.7,471.8 						"/>
						<polyline class="st0" points="-155.1,518 -127.8,483.3 -112.9,502.1 						"/>
						<line class="st0" x1="-109.8" y1="506.2" x2="-100.4" y2="518"/>
						<polyline class="st0" points="-90.7,471.8 -127.8,483.3 -164.8,471.8 						"/>
						<line class="st0" x1="-107.2" y1="482.7" x2="-111.3" y2="484"/>
						<line class="st0" x1="-127.8" y1="431.3" x2="-127.8" y2="422.8"/>
						<line class="st0" x1="-127.8" y1="483.3" x2="-127.8" y2="436.7"/>
						<polyline class="st0" points="-121.4,419.5 -126.4,414.5 -129.1,414.5 -134.1,419.5 						"/>
					</g>
					<g>
						<polygon class="st0" points="-133.9,275.6 -157.1,291.8 -150.6,306.8 -159.8,341.2 -147.7,378.1 -112.2,379.1 -95.2,357.2 
							-101.3,341 -94.3,309.3 -98.4,278.7 						"/>
						<polygon class="st0" points="-98.4,278.7 -133.9,275.6 -157.1,291.8 						"/>
						<polyline class="st0" points="-157.1,291.8 -98.4,278.7 -94.3,309.3 						"/>
						<line class="st0" x1="-113.9" y1="303.8" x2="-157.1" y2="291.8"/>
						<line class="st0" x1="-94.3" y1="309.3" x2="-108.3" y2="305.3"/>
						<polygon class="st0" points="-95.2,357.2 -134.3,347.4 -108.3,322.6 						"/>
						<polygon class="st0" points="-94.3,309.3 -108.3,322.6 -101.3,341 						"/>
						<polygon class="st0" points="-159.8,341.2 -134.3,347.4 -150.7,307.2 						"/>
						<polyline class="st0" points="-147.7,378.1 -112.2,379.1 -95.2,357.2 						"/>
						<line class="st0" x1="-132.7" y1="372.2" x2="-147.7" y2="378.1"/>
						<line class="st0" x1="-95.2" y1="357.2" x2="-126.2" y2="369.5"/>
						<line class="st0" x1="-148.7" y1="338.8" x2="-153.2" y2="337.9"/>
					</g>
				</g>
				<g>
					<line class="st0" x1="14.8" y1="313.5" x2="18.1" y2="312.1"/>
					<line class="st0" x1="14.8" y1="310" x2="18.1" y2="308.6"/>
					<polygon class="st0" points="55.1,349.5 50.9,349.6 53,345.4 					"/>
					<line class="st0" x1="16.4" y1="280.6" x2="16.3" y2="280.6"/>
					<path class="st0" d="M56.5,294"/>
					<polyline class="st0" points="-30.4,356.3 14.1,356.3 16.4,328.1 18.6,356.3 63.3,356.3 					"/>
					<path class="st0" d="M-23.7,294"/>
					<line class="st0" x1="21.8" y1="285.5" x2="11" y2="289"/>
					<line class="st0" x1="11" y1="285.5" x2="21.8" y2="289"/>
					<path class="st0" d="M56.4,293.9"/>
					<path class="st0" d="M56.4,280.6"/>
					<line class="st0" x1="6.8" y1="294" x2="-26.7" y2="294"/>
					<line class="st0" x1="16.4" y1="305.3" x2="16.4" y2="299.8"/>
					<line class="st0" x1="16.4" y1="323.5" x2="16.4" y2="317"/>
					<line class="st0" x1="26.1" y1="294" x2="59.3" y2="293.9"/>
					<line class="st0" x1="16.3" y1="283" x2="16.3" y2="284.5"/>
					<line class="st0" x1="16.3" y1="290.3" x2="16.3" y2="291.7"/>
					<line class="st0" x1="32.6" y1="280.6" x2="56.4" y2="280.6"/>
					<line class="st0" x1="-23.7" y1="280.6" x2="25.6" y2="280.6"/>
					<path class="st0" d="M-23.7,293.9"/>
					<line class="st0" x1="11" y1="289" x2="11" y2="302.5"/>
					<line class="st0" x1="21.8" y1="289" x2="21.8" y2="298.2"/>
					<path class="st0" d="M-30.4,356.3c0,0-1.1-47.8,6.7-75.6"/>
					<path class="st0" d="M63.3,356.6c0,0,1.1-47.8-6.7-75.6"/>
					<line class="st0" x1="13.6" y1="294" x2="18.6" y2="294"/>
				</g>
			</g>
			<g>
				<line class="st0" x1="-5.5" y1="476.8" x2="-6.8" y2="481.1"/>
				<polygon class="st0" points="14.1,479.7 19.6,479.7 16.8,483.2 				"/>
				<line class="st0" x1="-13.5" y1="464.4" x2="47.8" y2="464.4"/>
				<path class="st0" d="M-13.5,464.4c0,0,3.7-16.1,10.8-26.4l25.2,26.4"/>
				<path class="st0" d="M47.8,464.4c0,0-3.7-16.1-10.8-26.4l-25.2,26.4"/>
				<line class="st0" x1="-2.7" y1="438" x2="-2.7" y2="464.4"/>
				<line class="st0" x1="37.1" y1="436.6" x2="37.1" y2="464.4"/>
				<line class="st0" x1="21.8" y1="458.3" x2="25" y2="461.9"/>
				<line class="st0" x1="12.5" y1="458.3" x2="9.3" y2="461.9"/>
				<line class="st0" x1="-2.7" y1="438" x2="-2.7" y2="425.3"/>
				<line class="st0" x1="37.1" y1="438" x2="37.1" y2="414.2"/>
				<line class="st0" x1="-2.7" y1="419.5" x2="-2.7" y2="414.2"/>
				<path class="st0" d="M47.9,474.6h-62.1v6.1c0,0,18.8,2.5,26.5,35.1h4.6"/>
				<path class="st0" d="M-13.9,474.6h62.1v6.1c0,0-18.8,2.5-26.5,35.1h-4.6"/>
				<line class="st0" x1="39.1" y1="476.8" x2="40.4" y2="481.2"/>
			</g>
		</g>
		<g class="st1">
			<path d="M114.4,287.8h-4v4c0,0.2-0.1,0.3-0.3,0.3c-0.2,0-0.3-0.1-0.3-0.3v-4h-4c-0.1,0-0.3-0.1-0.3-0.3c0-0.1,0.1-0.3,0.3-0.3h4
				v-4c0-0.2,0.1-0.3,0.3-0.3c0.2,0,0.3,0.1,0.3,0.3v4h4c0.1,0,0.3,0.1,0.3,0.3S114.5,287.8,114.4,287.8z"/>
		</g>
		<g class="st1">
			<path class="st2" d="M114.4,352.1h-4v4c0,0.2-0.1,0.3-0.3,0.3c-0.2,0-0.3-0.1-0.3-0.3v-4h-4c-0.1,0-0.3-0.1-0.3-0.3
				c0-0.1,0.1-0.3,0.3-0.3h4v-4c0-0.2,0.1-0.3,0.3-0.3c0.2,0,0.3,0.1,0.3,0.3v4h4c0.1,0,0.3,0.1,0.3,0.3
				C114.8,351.9,114.5,352.1,114.4,352.1z"/>
		</g>
	</g>
	<path d="M114.1,423.7l-0.2-0.2c-0.4-0.3-1-0.3-1.3,0.1l-3.9,4.3l-1.2-1c-0.4-0.3-1-0.3-1.3,0.1l-0.2,0.2c-0.2,0.2-0.3,0.4-0.2,0.7
		c0,0.3,0.1,0.5,0.3,0.7l2.2,2c0.2,0.2,0.4,0.3,0.7,0.3c0.3,0,0.5-0.1,0.7-0.3l4.7-5.4c0.2-0.2,0.2-0.4,0.2-0.7
		C114.5,424.1,114.3,423.9,114.1,423.7L114.1,423.7z"/>
</g>
<g>
	<path class="st0" d="M-127.1,700.3"/>
	<polyline class="st0" points="-150.6,589.1 -149.2,598.7 -142.7,599 -136.1,607.9 -127.9,612.6 -128.8,616.2 -127.1,616.2 	"/>
	<path class="st0" d="M-147.3,647.2l4.6-13l-18.5-2.1l-2.8-14.8c0,0,9.7-3.5,8.6-13.8l-2.2-24.1h5.6l0.5,3.3"/>
	<path class="st0" d="M-127.1,700.3h-6c0,0,3.7-33.7-28-38.9l2.4-6.5l7.9,2.4l0.9-2.4"/>
	<path class="st0" d="M-127.1,700.3"/>
	<path class="st0" d="M-119.8,685.6c2.5-9.8,9.2-21.3,26.7-24.2l-2.4-6.5l-7.9,2.4l-8.2-23.2l18.5-2.1l2.8-14.8
		c0,0-9.7-3.5-8.6-13.8l2.2-24.1h-5.6l-2.9,19.4l-6.5,0.3l-6.6,8.8l-8.1,4.8l0.8,3.6h-1.6"/>
	<path class="st0" d="M-127.1,700.3h6c0,0-0.3-2.7,0-6.8"/>
	<path class="st0" d="M-141,622.6c-0.6-6.1-3.8-13.1-14.3-17"/>
	<path class="st0" d="M-142.7,634.2c0,0,0.5-1.3,1-3.3"/>
	<path class="st0" d="M-104.4,608.2c1.6-1,3.4-1.9,5.5-2.7"/>
	<path class="st0" d="M-111.6,634.2c0,0-5.2-12.3,2.3-21.6"/>
</g>
</svg>
