<?xml version="1.0" encoding="utf-8"?>
<!-- Generator: Adobe Illustrator 21.0.0, SVG Export Plug-In . SVG Version: 6.00 Build 0)  -->
<svg version="1.1" id="Layer_1" xmlns="http://www.w3.org/2000/svg" xmlns:xlink="http://www.w3.org/1999/xlink" x="0px" y="0px"
	 viewBox="0 0 498.2 81" style="enable-background:new 0 0 498.2 81;" xml:space="preserve">
<style type="text/css">
	.st0{fill:#A9B862;}
	.st1{fill:#088440;}
	.st2{fill:#32943B;}
	.st3{fill:#14763E;}
	.st4{fill:#FFFFFF;}
	.st5{fill:none;stroke:#088440;stroke-width:0.25;stroke-miterlimit:10;}
	.st6{fill:#939392;}
	.st7{fill:#4F4D4E;}
	.st8{fill:#6C6C6C;}
	.st9{fill:#040506;}
	.st10{fill:none;stroke:#7D797E;stroke-width:0.25;stroke-miterlimit:10;}
	.st11{fill:#A5C0C0;}
	.st12{fill:#05807D;}
	.st13{fill:#159B99;}
	.st14{fill:#087A69;}
	.st15{fill:none;stroke:#05807D;stroke-width:0.25;stroke-miterlimit:10;}
	.st16{fill:#D6C2AB;}
	.st17{fill:#8E756D;}
	.st18{fill:#B7A398;}
	.st19{fill:#664E4A;}
	.st20{fill:none;stroke:#D6C2AB;stroke-width:0.25;stroke-miterlimit:10;}
	.st21{fill:#00757E;}
	.st22{fill:#004050;}
	.st23{fill:#044D64;}
	.st24{fill:#002732;}
	.st25{fill:none;stroke:#004050;stroke-width:0.25;stroke-miterlimit:10;}
	.st26{fill:#BE4155;}
	.st27{fill:#822333;}
	.st28{fill:#972C40;}
	.st29{fill:#421E1F;}
	.st30{fill:none;stroke:#992D40;stroke-width:0.25;stroke-miterlimit:10;}
	.st31{fill:#E8B380;}
	.st32{fill:#D04C31;}
	.st33{fill:#D35D30;}
	.st34{fill:#CC352D;}
	.st35{fill:none;stroke:#D04C31;stroke-width:0.25;stroke-miterlimit:10;}
</style>
<g>
	<g id="XMLID_6_">
		<g id="XMLID_7_">
			<polygon class="st0" points="496,25.5 446,14.3 490.9,2.7 			"/>
			<polygon class="st1" points="490.9,2.7 446,14.3 463.4,0.8 			"/>
			<polygon class="st2" points="464.8,56.8 496,25.5 446,14.3 			"/>
			<polygon class="st2" points="482,81.1 495,64.1 453.8,81.1 			"/>
			<polygon class="st0" points="495,64.1 453.8,81.1 444.6,51.7 			"/>
			<polygon class="st1" points="495,64.1 464.8,56.8 484.1,37.4 			"/>
			<polygon class="st3" points="444.6,51.7 464.8,56.8 451,25.5 			"/>
			<polygon class="st3" points="490.1,52 496,25.5 484.1,37.4 			"/>
			<g id="XMLID_8_">
				<polygon class="st4" points="457.3,51.9 457.5,52.3 457.6,52 				"/>
				<g id="XMLID_9_">
					<path class="st4" d="M456.8,52.8l-0.2-1l-0.3-0.2l0,0H456v-0.3l-0.3-0.2v0.3h-0.2h-0.3v-0.3l-0.5-0.3v0.3l0,0
						c-0.5-0.2-0.6,0.2-0.6,0.2v-0.2l-0.3-0.2v0.3l0,0l0,0l0,0l0,0l0,0c-0.2-0.2-0.3-0.3-0.5-0.3c-0.3,0-0.6,0-0.8,0.3l0.3-0.3
						l-0.5-0.2l-0.5,0.8l-0.2-1l-0.5-0.2l0.2,1.4h0.3l0.6-0.8c0,0-0.2,0.2-0.2,0.3c-0.2,0.3,0.2,0.8,0.5,0.8c0.2,0,0.5,0,0.6-0.2
						l0,0l0,0v0.3l0.3,0.2l0.2-0.5c0.2-0.3,0.3-0.5,0.5-0.5h0.2l-0.2,0.6c0,0.3,0,0.5,0.3,0.5c0.2,0,0.2,0,0.3,0v-0.3h-0.2
						c-0.2,0-0.2,0-0.2-0.2l0.2-0.6h0.3h0.2l-0.2,0.6c0,0.3,0,0.5,0.3,0.5c0.2,0,0.2,0,0.3,0v-0.3h-0.2c-0.2,0-0.2,0-0.2-0.2
						l0.2-0.6l0.5,0.2l0.2,1.1h-0.2c0,0-0.2,0-0.2-0.2l-0.2,0.3c0.2,0.2,0.2,0.2,0.3,0.2c0.2,0,0.3,0,0.5-0.3l0.3-0.5l-0.2-0.5
						L456.8,52.8z M452.7,51.5c0-0.2,0.3-0.3,0.5-0.3c0,0,0.2,0,0.2,0.2L452.7,51.5C452.7,51.7,452.7,51.5,452.7,51.5 M453.7,51.9
						c-0.2,0.2-0.3,0.2-0.5,0.2H453h-0.2l0.8-0.5L453.7,51.9z"/>
				</g>
			</g>
			<polygon id="XMLID_10_" class="st5" points="463.4,0.8 490.9,2.7 496,25.5 490.1,52 495,64.1 482,81.1 453.8,81.1 444.6,51.7 
				451,25.5 446,14.3 			"/>
		</g>
	</g>
	<g id="XMLID_11_">
		<polygon class="st6" points="348.1,25 297.9,13.7 343,1.9 		"/>
		<polygon class="st7" points="343,2.1 297.9,13.7 315.4,0 		"/>
		<polygon class="st8" points="316.8,56.6 348.1,25 297.9,13.7 		"/>
		<polygon class="st8" points="334,81.1 347.2,64 305.7,81.1 		"/>
		<polygon class="st6" points="347.2,64 305.7,81.1 296.4,51.5 		"/>
		<polygon class="st7" points="347.2,64 316.8,56.6 336.2,37.1 		"/>
		<polygon class="st9" points="296.4,51.5 316.8,56.6 302.8,25 		"/>
		<polygon class="st9" points="342.2,51.9 348.1,25 336.2,37.1 		"/>
		<g id="XMLID_12_">
			<polygon class="st4" points="309.2,51.7 309.3,52.2 309.6,51.7 			"/>
			<g id="XMLID_13_">
				<path class="st4" d="M308.7,52.5l-0.2-1l-0.3-0.2l0,0h-0.3v-0.3l-0.3-0.2v0.3h-0.2h-0.3v-0.3l-0.3-0.2v0.3l0,0
					c-0.5-0.2-0.6,0.2-0.6,0.2v-0.2l-0.3-0.2v0.3l0,0l0,0l0,0l0,0l0,0c-0.2-0.2-0.3-0.3-0.5-0.3c-0.3,0-0.6,0-0.8,0.3l0.3-0.3
					l-0.5-0.2l-0.5,0.8l-0.2-1l-0.5-0.2l0.2,1.4h0.3l0.6-0.8c0,0-0.2,0.2-0.2,0.3c-0.2,0.3,0.2,0.8,0.5,0.8c0.2,0,0.5,0,0.6-0.2l0,0
					l0,0v0.3l0.3,0.2l0.2-0.5c0.2-0.3,0.3-0.5,0.5-0.5h0.2l-0.2,0.6c0,0.3,0,0.5,0.3,0.5c0.2,0,0.2,0,0.3,0v-0.3h-0.2
					c-0.2,0-0.2,0-0.2-0.2l0.2-0.6h0.3h0.2l-0.2,0.6c0,0.3,0,0.5,0.3,0.5c0.2,0,0.2,0,0.3,0v-0.3h-0.2c-0.2,0-0.2,0-0.2-0.2l0.2-0.6
					l0.5,0.2l0.2,1.1H308c0,0-0.2,0-0.2-0.2l-0.2,0.3c0.2,0.2,0.2,0.2,0.3,0.2s0.3,0,0.5-0.3l0.3-0.5l-0.2-0.5V52.5z M304.7,51.4
					c0-0.2,0.3-0.3,0.5-0.3c0,0,0.2,0,0.2,0.2L304.7,51.4L304.7,51.4 M305.5,51.5c-0.2,0.2-0.3,0.2-0.5,0.2h-0.2h-0.2l0.8-0.5V51.5z
					"/>
			</g>
		</g>
		<polygon id="XMLID_14_" class="st10" points="315.4,0 343,2.1 348.1,25 342.2,51.9 347.2,64 334,81.1 305.7,81.1 296.4,51.5 
			302.8,25 297.9,13.7 		"/>
	</g>
	<g id="XMLID_15_">
		<g id="XMLID_16_">
			<polygon class="st11" points="199,25.8 149.5,14.8 193.9,3.2 			"/>
			<polygon class="st12" points="193.9,3.2 149.5,14.8 166.7,1.3 			"/>
			<polygon class="st13" points="168.1,57 199,25.8 149.5,14.8 			"/>
			<polygon class="st13" points="185.1,81.1 198,64.1 157.1,81.1 			"/>
			<polygon class="st11" points="198,64.1 157.1,81.1 148.1,51.9 			"/>
			<polygon class="st12" points="198,64.1 168.1,57 187.2,37.7 			"/>
			<polygon class="st14" points="148.1,51.9 168.1,57 154.3,25.8 			"/>
			<polygon class="st14" points="193.3,52.3 199,25.8 187.2,37.7 			"/>
			<g id="XMLID_17_">
				<polygon class="st4" points="160.6,52 160.8,52.5 161.1,52.2 				"/>
				<g id="XMLID_18_">
					<path class="st4" d="M160.2,53l-0.2-1l-0.3-0.2l0,0h-0.3v-0.3l-0.3-0.2v0.3h-0.2h-0.3v-0.3l-0.3-0.2v0.3l0,0
						c-0.5-0.2-0.6,0.2-0.6,0.2v-0.2l-0.3-0.2v0.3l0,0l0,0l0,0l0,0l0,0c-0.2-0.2-0.3-0.3-0.5-0.3c-0.3,0-0.6,0-0.8,0.3l0.3-0.3
						l-0.6-0.5l-0.5,0.8l-0.2-1l-0.5-0.2l0.2,1.4h0.3l0.6-0.8c0,0-0.2,0.2-0.2,0.3c-0.2,0.3,0.2,0.8,0.5,0.8c0.2,0,0.5,0,0.6-0.2
						l0,0l0,0v0.3l0.3,0.2l0.2-0.5c0.2-0.3,0.3-0.5,0.5-0.5h0.2l-0.2,0.6c0,0.3,0,0.5,0.3,0.5c0.2,0,0.2,0,0.3,0v-0.3h-0.2
						c-0.2,0-0.2,0-0.2-0.2l0.2-0.6h0.3h0.2l-0.2,0.6c0,0.3,0,0.5,0.3,0.5c0.2,0,0.2,0,0.3,0v-0.3h-0.2c-0.2,0-0.2,0-0.2-0.2
						l0.2-0.6l0.5,0.2l0.2,1.1h-0.2c0,0-0.2,0-0.2-0.2l-0.2,0.3c0.2,0.2,0.2,0.2,0.3,0.2c0.2,0,0.3,0,0.5-0.3l0.3-0.5h0.3L160.2,53z
						 M156.2,51.7c0-0.2,0.3-0.3,0.5-0.3c0,0,0.2,0,0.2,0.2L156.2,51.7C156.2,51.9,156.2,51.9,156.2,51.7 M157.1,52
						c-0.2,0.2-0.3,0.2-0.5,0.2h-0.2h-0.2l0.8-0.5V52z"/>
				</g>
			</g>
			<polygon id="XMLID_19_" class="st15" points="166.7,1.3 193.9,3.2 199,25.8 193.3,52.3 198,64.1 185.1,81.1 157.1,81.1 
				148.1,51.9 154.3,25.8 149.5,14.8 			"/>
		</g>
	</g>
	<g id="XMLID_20_">
		<polygon class="st16" points="274.1,25 223.8,13.7 269,1.9 		"/>
		<polygon class="st17" points="269,2.1 223.8,13.7 241.3,0 		"/>
		<polygon class="st18" points="242.6,56.6 274.1,25 223.8,13.7 		"/>
		<polygon class="st18" points="259.9,81.1 273.1,64 231.6,81.1 		"/>
		<polygon class="st16" points="273.1,64 231.6,81.1 222.2,51.5 		"/>
		<polygon class="st17" points="273.1,64 242.6,56.6 262.1,37.1 		"/>
		<polygon class="st19" points="222.2,51.5 242.6,56.6 228.7,25 		"/>
		<polygon class="st19" points="268.2,51.9 274.1,25 262.1,37.1 		"/>
		<g id="XMLID_21_">
			<polygon class="st4" points="235.1,51.7 235.2,52.2 235.6,51.7 			"/>
			<g id="XMLID_22_">
				<path class="st4" d="M234.6,52.5l-0.2-1l-0.3-0.2l0,0h-0.3v-0.3l-0.3-0.2v0.3h-0.2H233v-0.3l-0.3-0.2v0.3l0,0
					c-0.5-0.2-0.6,0.2-0.6,0.2v-0.2l-0.3-0.2v0.3l0,0l0,0l0,0l0,0l0,0c-0.2-0.2-0.3-0.3-0.5-0.3c-0.3,0-0.6,0-0.8,0.3l0.3-0.3
					l-0.5-0.2l-0.5,0.8l-0.2-1l-0.5-0.2l0.2,1.4h0.3l0.6-0.8c0,0-0.2,0.2-0.2,0.3c-0.2,0.3,0.2,0.8,0.5,0.8c0.2,0,0.5,0,0.6-0.2l0,0
					l0,0v0.3l0.3,0.2l0.2-0.5c0.2-0.3,0.3-0.5,0.5-0.5h0.2l-0.2,0.6c0,0.3,0,0.5,0.3,0.5c0.2,0,0.2,0,0.3,0v-0.3h-0.2
					c-0.2,0-0.2,0-0.2-0.2l0.2-0.6h0.3h0.2l-0.2,0.6c0,0.3,0,0.5,0.3,0.5c0.2,0,0.2,0,0.3,0v-0.3h-0.2c-0.2,0-0.2,0-0.2-0.2l0.2-0.6
					l0.5,0.2l0.2,1.1H234c0,0-0.2,0-0.2-0.2l-0.2,0.3c0.2,0.2,0.2,0.2,0.3,0.2c0.2,0,0.3,0,0.5-0.3l0.3-0.5l-0.2-0.5V52.5z
					 M230.5,51.4c0-0.2,0.3-0.3,0.5-0.3c0,0,0.2,0,0.2,0.2L230.5,51.4L230.5,51.4 M231.4,51.5c-0.2,0.2-0.3,0.2-0.5,0.2h-0.2h-0.2
					l0.8-0.5V51.5z"/>
			</g>
		</g>
		<polygon id="XMLID_23_" class="st20" points="241.3,0 269,2.1 274.1,25 268.2,51.9 273.1,64 259.9,81.1 231.6,81.1 222.2,51.5 
			228.7,25 223.8,13.7 		"/>
	</g>
	<g id="XMLID_24_">
		<polygon class="st21" points="125.8,25 75.5,13.7 120.7,1.9 		"/>
		<polygon class="st22" points="120.7,2.1 75.5,13.7 93,0 		"/>
		<polygon class="st23" points="94.4,56.6 125.8,25 75.5,13.7 		"/>
		<polygon class="st23" points="111.6,81.1 124.8,64 83.3,81.1 		"/>
		<polygon class="st21" points="124.8,64 83.3,81.1 74.1,51.5 		"/>
		<polygon class="st22" points="124.8,64 94.4,56.6 113.8,37.1 		"/>
		<polygon class="st24" points="74.1,51.5 94.4,56.6 80.4,25 		"/>
		<polygon class="st24" points="119.9,51.9 125.8,25 113.8,37.1 		"/>
		<g id="XMLID_25_">
			<polygon class="st4" points="86.9,51.7 86.9,52.2 87.3,51.7 			"/>
			<g id="XMLID_26_">
				<path class="st4" d="M86.3,52.5l-0.2-1l-0.3-0.2l0,0h-0.3v-0.3l-0.3-0.2v0.3H85h-0.3v-0.3l-0.3-0.2v0.3l0,0
					c-0.5-0.2-0.6,0.2-0.6,0.2v-0.2l-0.3-0.2v0.3l0,0l0,0l0,0l0,0l0,0c-0.2-0.2-0.3-0.3-0.5-0.3c-0.3,0-0.6,0-0.8,0.3l0.3-0.3
					L82,50.8l-0.5,0.8l-0.2-1l-0.5-0.2l0.2,1.4h0.3l0.6-0.8c0,0-0.2,0.2-0.2,0.3c-0.2,0.3,0.2,0.8,0.5,0.8c0.2,0,0.5,0,0.6-0.2l0,0
					l0,0v0.3l0.3,0.2l0.2-0.5c0.2-0.3,0.3-0.5,0.5-0.5h0.2l-0.2,0.6c0,0.3,0,0.5,0.3,0.5c0.2,0,0.2,0,0.3,0v-0.3h-0.2
					c-0.2,0-0.2,0-0.2-0.2l0.2-0.6h0.3h0.2l-0.2,0.6c0,0.3,0,0.5,0.3,0.5c0.2,0,0.2,0,0.3,0v-0.3h-0.2c-0.2,0-0.2,0-0.2-0.2l0.2-0.6
					l0.5,0.2l0.2,1.1h-0.2c0,0-0.2,0-0.2-0.2L85.4,53c0.2,0.2,0.2,0.2,0.3,0.2c0.2,0,0.3,0,0.5-0.3l0.3-0.5l-0.2-0.5V52.5z
					 M82.3,51.4c0-0.2,0.3-0.3,0.5-0.3c0,0,0.2,0,0.2,0.2L82.3,51.4L82.3,51.4 M83.3,51.5c-0.2,0.2-0.3,0.2-0.5,0.2h-0.2h-0.2
					l0.8-0.5V51.5z"/>
			</g>
		</g>
		<polygon id="XMLID_27_" class="st25" points="93,0 120.7,2.1 125.8,25 119.9,51.9 124.8,64 111.6,81.1 83.3,81.1 74.1,51.5 
			80.4,25 75.5,13.7 		"/>
	</g>
	<g id="XMLID_28_">
		<polygon class="st26" points="51.7,25 1.4,13.7 46.6,1.9 		"/>
		<polygon class="st27" points="46.6,2.1 1.4,13.7 18.9,0 		"/>
		<polygon class="st28" points="20.4,56.6 51.7,25 1.4,13.7 		"/>
		<polygon class="st28" points="37.7,81.1 50.9,64 9.2,81.1 		"/>
		<polygon class="st26" points="50.9,64 9.2,81.1 0,51.5 		"/>
		<polygon class="st27" points="50.9,64 20.4,56.6 39.8,37.1 		"/>
		<polygon class="st29" points="0,51.5 20.4,56.6 6.4,25 		"/>
		<polygon class="st29" points="45.8,51.9 51.7,25 39.8,37.1 		"/>
		<g id="XMLID_29_">
			<polygon class="st4" points="12.9,51.7 13,52.2 13.2,51.7 			"/>
			<g id="XMLID_30_">
				<path class="st4" d="M12.3,52.5l-0.2-1l-0.3-0.2l0,0h-0.3v-0.3l-0.3-0.2v0.3H11h-0.3v-0.3l-0.3-0.2v0.3l0,0
					c-0.5-0.2-0.6,0.2-0.6,0.2v-0.2l-0.3-0.2v0.3l0,0l0,0l0,0l0,0l0,0c-0.2-0.2-0.3-0.3-0.5-0.3c-0.3,0-0.6,0-0.8,0.3l0.3-0.3
					L8,50.8l-0.5,0.8l-0.2-1l-0.5-0.2L7,51.9h0.3L8,51.1c0,0-0.2,0.2-0.2,0.3c-0.2,0.3,0.2,0.8,0.5,0.8c0.2,0,0.5,0,0.6-0.2l0,0l0,0
					v0.3l0.3,0.2L9.4,52c0.2-0.3,0.3-0.5,0.5-0.5H10l-0.2,0.6c0,0.3,0,0.5,0.3,0.5c0.2,0,0.2,0,0.3,0v-0.3h-0.2
					c-0.2,0-0.2,0-0.2-0.2l0.2-0.6h0.3h0.2l-0.2,0.6c0,0.3,0,0.5,0.3,0.5c0.2,0,0.2,0,0.3,0v-0.3h-0.2c-0.2,0-0.2,0-0.2-0.2l0.2-0.6
					l0.5,0.2l0.2,1.1h-0.2c0,0-0.2,0-0.2-0.2L11.3,53c0.2,0.2,0.2,0.2,0.3,0.2c0.2,0,0.3,0,0.5-0.3l0.3-0.5l-0.2-0.5L12.3,52.5z
					 M8.3,51.4c0-0.2,0.3-0.3,0.5-0.3c0,0,0.2,0,0.2,0.2L8.3,51.4L8.3,51.4 M9.2,51.5c-0.2,0.2-0.3,0.2-0.5,0.2H8.6H8.4l0.8-0.5
					L9.2,51.5z"/>
			</g>
		</g>
		<polygon id="XMLID_31_" class="st30" points="18.9,0 46.6,2.1 51.7,25 45.8,51.9 50.9,64 37.7,81.1 9.2,81.1 0,51.5 6.4,25 
			1.4,13.7 		"/>
	</g>
	<g id="XMLID_1_">
		<g id="XMLID_2_">
			<polygon class="st31" points="421.2,25.5 371.2,14.3 416.1,2.7 			"/>
			<polygon class="st32" points="416.1,2.7 371.2,14.3 388.6,0.8 			"/>
			<polygon class="st33" points="390,56.8 421.2,25.5 371.2,14.3 			"/>
			<polygon class="st33" points="407.2,81.1 420.3,64.1 379,81.1 			"/>
			<polygon class="st31" points="420.3,64.1 379,81.1 369.8,51.7 			"/>
			<polygon class="st32" points="420.3,64.1 390,56.8 409.3,37.4 			"/>
			<polygon class="st34" points="369.8,51.7 390,56.8 376.2,25.5 			"/>
			<polygon class="st34" points="415.3,52 421.2,25.5 409.3,37.4 			"/>
			<g id="XMLID_3_">
				<polygon class="st4" points="382.5,51.9 382.7,52.3 383,52 				"/>
				<g id="XMLID_4_">
					<path class="st4" d="M382.1,52.8l-0.2-1l-0.3-0.2l0,0h-0.3v-0.3l-0.3-0.2v0.3h-0.2h-0.3v-0.3l-0.3-0.2v0.3l0,0
						c-0.5-0.2-0.6,0.2-0.6,0.2v-0.2l-0.3-0.2v0.3l0,0l0,0l0,0l0,0l0,0c-0.2-0.2-0.3-0.3-0.5-0.3c-0.3,0-0.6,0-0.8,0.3l0.3-0.3
						l-0.5-0.2l-0.5,0.8l-0.2-1l-0.5-0.2l0.2,1.4h0.3l0.6-0.8c0,0-0.2,0.2-0.2,0.3c-0.2,0.3,0.2,0.8,0.5,0.8c0.2,0,0.5,0,0.6-0.2
						l0,0l0,0v0.3l0.3,0.2l0.2-0.5c0.2-0.3,0.3-0.5,0.5-0.5h0.2l-0.2,0.6c0,0.3,0,0.5,0.3,0.5c0.2,0,0.2,0,0.3,0v-0.3h-0.2
						c-0.2,0-0.2,0-0.2-0.2l0.2-0.6h0.3h0.2l0,0.6c0,0.3,0,0.5,0.3,0.5c0.2,0,0.2,0,0.3,0v-0.3h-0.2c-0.2,0-0.2,0-0.2-0.2l0.2-0.6
						l0.5,0.2l0.2,1.1h-0.2c0,0-0.2,0-0.2-0.2l-0.2,0.3c0.2,0.2,0.2,0.2,0.3,0.2c0.2,0,0.3,0,0.5-0.3l0.3-0.5l-0.2-0.5L382.1,52.8z
						 M378.1,51.5c0-0.2,0.3-0.3,0.5-0.3c0,0,0.2,0,0.2,0.2L378.1,51.5C377.9,51.7,377.9,51.5,378.1,51.5 M378.9,51.9
						c-0.2,0.2-0.3,0.2-0.5,0.2h-0.2h-0.2l0.8-0.5L378.9,51.9z"/>
				</g>
			</g>
			<polygon id="XMLID_5_" class="st35" points="388.6,0.8 416.1,2.7 421.2,25.5 415.3,52 420.3,64.1 407.2,81.1 379,81.1 
				369.8,51.7 376.2,25.5 371.2,14.3 			"/>
		</g>
	</g>
</g>
</svg>
