<?xml version="1.0" encoding="utf-8"?>
<!-- Generator: Adobe Illustrator 19.0.0, SVG Export Plug-In . SVG Version: 6.00 Build 0)  -->
<svg version="1.1" id="Layer_1" xmlns="http://www.w3.org/2000/svg" xmlns:xlink="http://www.w3.org/1999/xlink" x="0px" y="0px"
	 width="1170px" height="159px" viewBox="0 0 1170 159" style="enable-background:new 0 0 1170 159;" xml:space="preserve">
<style type="text/css">
	.st0{fill:#00B4AF;}
	.st1{fill:#777777;}
	.st2{fill:#181815;}
	.st3{fill:#EC4052;}
	.st4{fill:#BD565C;}
	.st5{fill:#070705;}
	.st6{fill:#7A7979;}
	.st7{fill:#B24552;}
	.st8{fill:none;stroke:#7A7979;stroke-linecap:round;stroke-linejoin:round;stroke-miterlimit:10;}
	.st9{fill:#21201F;}
</style>
<g id="XMLID_10_">
	<g id="XMLID_307_">
		<g id="XMLID_323_">
			<g id="XMLID_324_">
				<g id="XMLID_325_">
					<g id="XMLID_326_">
						<path id="XMLID_327_" class="st0" d="M19.9,112c0,0,11.4,5.1,20.5,42.6h10.8c9.1-37.5,20.5-42.6,20.5-42.6S19.9,112,19.9,112z
							 M46,121.7l-2.8-4h6.3L46,121.7z"/>
					</g>
				</g>
			</g>
		</g>
		<g id="XMLID_308_">
			<g id="XMLID_317_">
				<g id="XMLID_318_">
					<g id="XMLID_319_">
						<path id="XMLID_320_" class="st1" d="M45.5,122.2L45.5,122.2L45.5,122.2l-3.4-4v-0.6c0,0,0,0,0.6,0H49h0.6v0.6L45.5,122.2
							C46,122.2,45.5,122.2,45.5,122.2z M43.2,118.3l2.3,2.8l2.3-2.8H43.2z"/>
					</g>
				</g>
			</g>
			<g id="XMLID_313_">
				<g id="XMLID_314_">
					<g id="XMLID_315_">
						<path id="XMLID_74_" class="st1" d="M45.5,155.2h-5.1c0,0-0.6,0-0.6-0.6c-8.5-35.2-19.3-42-20.5-42.6H9.7c0,0-0.6,0-0.6-0.6
							s0-0.6,0.6-0.6h71.6c0,0,0.6,0,0.6,0.6s0,0.6-0.6,0.6H21.6c3.4,2.8,11.9,11.9,19.3,41.5H46C46,154.1,46,154.6,45.5,155.2
							C46,154.6,46,155.2,45.5,155.2z"/>
					</g>
				</g>
			</g>
			<g id="XMLID_309_">
				<g id="XMLID_310_">
					<g id="XMLID_311_">
						<path id="XMLID_73_" class="st1" d="M51.1,155.2H46c0,0-0.6,0-0.6-0.6s0-0.6,0.6-0.6h5.1c6.8-29.5,15.9-39.2,18.8-41.5H10.2
							c0,0-0.6,0-0.6-0.6s0-0.6,0.6-0.6h71.6c0,0,0.6,0,0.6,0.6s0,0.6-0.6,0.6H71.6c-0.6,0-2.8,1.7-6.8,7.4
							C61.4,125.1,56.3,135.3,51.1,155.2C51.7,155.2,51.1,155.2,51.1,155.2z"/>
					</g>
				</g>
			</g>
		</g>
	</g>
	<g id="XMLID_284_">
		<g id="XMLID_300_">
			<g id="XMLID_301_">
				<g id="XMLID_302_">
					<g id="XMLID_303_">
						<path id="XMLID_304_" class="st2" d="M150.9,112c0,0,11.4,5.1,20.5,42.6h10.8c9.1-37.5,20.5-42.6,20.5-42.6
							S150.9,112,150.9,112z M176.5,121.7l-2.8-4h6.3L176.5,121.7z"/>
					</g>
				</g>
			</g>
		</g>
		<g id="XMLID_285_">
			<g id="XMLID_294_">
				<g id="XMLID_295_">
					<g id="XMLID_296_">
						<path id="XMLID_297_" class="st1" d="M175.9,122.2L175.9,122.2L175.9,122.2l-3.4-4v-0.6c0,0,0,0,0.6,0h6.3h0.6v0.6
							L175.9,122.2C176.5,122.2,176.5,122.2,175.9,122.2z M174.2,118.3l2.3,2.8l2.3-2.8H174.2z"/>
					</g>
				</g>
			</g>
			<g id="XMLID_290_">
				<g id="XMLID_291_">
					<g id="XMLID_292_">
						<path id="XMLID_68_" class="st1" d="M176.5,155.2h-5.1c0,0-0.6,0-0.6-0.6c-8.5-35.2-19.3-42-20.5-42.6h-9.7c0,0-0.6,0-0.6-0.6
							s0-0.6,0.6-0.6h71.6c0,0,0.6,0,0.6,0.6s0,0.6-0.6,0.6H152c3.4,2.8,11.9,11.9,19.3,41.5h5.1
							C176.5,154.1,176.5,154.6,176.5,155.2C176.5,154.6,176.5,155.2,176.5,155.2z"/>
					</g>
				</g>
			</g>
			<g id="XMLID_286_">
				<g id="XMLID_287_">
					<g id="XMLID_288_">
						<path id="XMLID_67_" class="st1" d="M181.6,155.2h-5.1c0,0-0.6,0-0.6-0.6s0-0.6,0.6-0.6h5.1c6.8-29.5,15.9-39.2,18.8-41.5
							h-59.7c0,0-0.6,0-0.6-0.6s0-0.6,0.6-0.6h71.6c0,0,0.6,0,0.6,0.6s0,0.6-0.6,0.6H202c-0.6,0-2.8,1.7-6.8,7.4
							C191.8,125.1,186.7,135.3,181.6,155.2C182.1,155.2,182.1,155.2,181.6,155.2z"/>
					</g>
				</g>
			</g>
		</g>
	</g>
	<g id="XMLID_255_">
		<g id="XMLID_271_">
			<g id="XMLID_278_">
				<g id="XMLID_279_">
					<g id="XMLID_280_">
						<path id="XMLID_281_" class="st3" d="M279.7,112c0,0,11.4,5.1,20.5,42.6H311c9.1-37.5,20.5-42.6,20.5-42.6
							S279.7,112,279.7,112z M305.2,121.7l-2.8-4h6.3L305.2,121.7z"/>
					</g>
				</g>
			</g>
			<g id="XMLID_272_">
				<g id="XMLID_273_">
					<g id="XMLID_274_">
						<path id="XMLID_275_" class="st1" d="M305.2,122.2L305.2,122.2L305.2,122.2l-3.4-4v-0.6c0,0,0,0,0.6,0h6.3h0.6v0.6
							L305.2,122.2C305.8,122.2,305.8,122.2,305.2,122.2z M303.5,118.3l2.3,2.8l2.3-2.8H303.5z"/>
					</g>
				</g>
			</g>
		</g>
		<g id="XMLID_256_">
			<g id="XMLID_265_">
				<g id="XMLID_266_">
					<g id="XMLID_267_">
						<path id="XMLID_268_" class="st1" d="M305.2,122.2L305.2,122.2C304.7,122.2,304.7,122.2,305.2,122.2l-3.4-4v-0.6
							c0,0,0,0,0.6,0h6.3h0.6v0.6L305.2,122.2L305.2,122.2z M303,118.3l2.3,2.8l2.3-2.8H303z"/>
					</g>
				</g>
			</g>
			<g id="XMLID_261_">
				<g id="XMLID_262_">
					<g id="XMLID_263_">
						<path id="XMLID_60_" class="st1" d="M305.2,155.2h-5.1c0,0-0.6,0-0.6-0.6c-8.5-35.2-19.3-42-20.5-42.6h-9.7c0,0-0.6,0-0.6-0.6
							s0-0.6,0.6-0.6H341c0,0,0.6,0,0.6,0.6s0,0.6-0.6,0.6h-60.2c3.4,2.8,11.9,11.9,19.3,41.5h5.1
							C305.2,154.1,305.8,154.6,305.2,155.2C305.8,154.6,305.2,155.2,305.2,155.2z"/>
					</g>
				</g>
			</g>
			<g id="XMLID_257_">
				<g id="XMLID_258_">
					<g id="XMLID_259_">
						<path id="XMLID_59_" class="st1" d="M310.9,155.2h-5.1c0,0-0.6,0-0.6-0.6s0-0.6,0.6-0.6h5.1c6.8-29.5,15.9-39.2,18.8-41.5
							h-60.2c0,0-0.6,0-0.6-0.6s0-0.6,0.6-0.6H341c0,0,0.6,0,0.6,0.6s0,0.6-0.6,0.6h-10.2c-0.6,0-2.8,1.7-6.8,7.4
							C321.1,125.1,315.5,135.3,310.9,155.2L310.9,155.2z"/>
					</g>
				</g>
			</g>
		</g>
	</g>
	<g id="XMLID_187_">
		<g id="XMLID_242_">
			<g id="XMLID_251_">
				<g id="XMLID_252_">
					<g id="XMLID_253_">
						<path id="XMLID_58_" class="st3" d="M275.4,36.4L304.9,67l-8,8h-37.5C259.5,75,265.2,51.1,275.4,36.4"/>
					</g>
				</g>
			</g>
			<g id="XMLID_247_">
				<g id="XMLID_248_">
					<g id="XMLID_249_">
						<path id="XMLID_57_" class="st4" d="M275.4,75"/>
					</g>
				</g>
			</g>
			<g id="XMLID_243_">
				<g id="XMLID_244_">
					<g id="XMLID_245_">
						<path id="XMLID_56_" class="st4" d="M275.4,36.4"/>
					</g>
				</g>
			</g>
		</g>
		<g id="XMLID_229_">
			<g id="XMLID_238_">
				<g id="XMLID_239_">
					<g id="XMLID_240_">
						<path id="XMLID_55_" class="st3" d="M334.5,35.8L305,66.5l8,8h37.5C350.4,75,344.7,51.1,334.5,35.8"/>
					</g>
				</g>
			</g>
			<g id="XMLID_234_">
				<g id="XMLID_235_">
					<g id="XMLID_236_">
						<path id="XMLID_54_" class="st4" d="M334.5,75"/>
					</g>
				</g>
			</g>
			<g id="XMLID_230_">
				<g id="XMLID_231_">
					<g id="XMLID_232_">
						<path id="XMLID_53_" class="st4" d="M334.5,35.8"/>
					</g>
				</g>
			</g>
		</g>
		<g id="XMLID_188_">
			<g id="XMLID_225_">
				<g id="XMLID_226_">
					<g id="XMLID_227_">
						<path id="XMLID_52_" class="st1" d="M350.4,75.6h-90.9c0,0-0.6,0-0.6-0.6s0-0.6,0.6-0.6h90.9C351,74.4,351,74.4,350.4,75.6
							C351,75,351,75.6,350.4,75.6z"/>
					</g>
				</g>
			</g>
			<g id="XMLID_221_">
				<g id="XMLID_222_">
					<g id="XMLID_223_">
						<path id="XMLID_51_" class="st1" d="M259.5,75.6L259.5,75.6c-0.6,0-0.6-0.6-0.6-0.6s5.7-23.9,15.9-39.2c0,0,0,0,0.6,0h0.6
							L313.5,75v0.6h-0.6L276,36.9C265.7,51.7,260.1,75,259.5,75.6C260.1,75,259.5,75.6,259.5,75.6z"/>
					</g>
				</g>
			</g>
			<g id="XMLID_217_">
				<g id="XMLID_218_">
					<g id="XMLID_219_">
						<path id="XMLID_50_" class="st1" d="M350.4,75.6C350.4,75.6,349.8,75,350.4,75.6c-0.6-0.6-5.7-23.9-15.9-38.6l-36.9,38.6H297
							V75l37.5-39.2c0,0,0,0,0.6,0c0,0,0,0,0.6,0C345.9,51.1,351.5,75,351.5,75C351,75,351,75.6,350.4,75.6L350.4,75.6z"/>
					</g>
				</g>
			</g>
			<g id="XMLID_213_">
				<g id="XMLID_214_">
					<g id="XMLID_215_">
						<path id="XMLID_49_" class="st1" d="M275.4,75.6C275.4,75.6,274.8,75,275.4,75.6l-0.6-39.2c0,0,0-0.6,0.6-0.6
							c0,0,0.6,0,0.6,0.6L275.4,75.6C276,75,276,75.6,275.4,75.6z"/>
					</g>
				</g>
			</g>
			<g id="XMLID_209_">
				<g id="XMLID_210_">
					<g id="XMLID_211_">
						<path id="XMLID_48_" class="st1" d="M334.5,75.6C333.9,75.6,333.9,75,334.5,75.6l-0.6-41.5c0,0,0-0.6,0.6-0.6s0.6,0,0.6,0.6
							L334.5,75.6C335.1,75,334.5,75.6,334.5,75.6z"/>
					</g>
				</g>
			</g>
			<g id="XMLID_205_">
				<g id="XMLID_206_">
					<g id="XMLID_207_">
						<path id="XMLID_47_" class="st1" d="M316.3,71.6L316.3,71.6l-5.1-5.7v-0.6h0.6l4.5,5.7C316.9,71,316.9,71.6,316.3,71.6
							C316.9,71.6,316.9,71.6,316.3,71.6z"/>
					</g>
				</g>
			</g>
			<g id="XMLID_201_">
				<g id="XMLID_202_">
					<g id="XMLID_203_">
						<path id="XMLID_46_" class="st1" d="M293,71.6L293,71.6c-0.6-0.6-0.6-0.6-0.6-0.6l5.1-5.7h0.6v0.6L293,71.6
							C293.6,71.6,293,71.6,293,71.6z"/>
					</g>
				</g>
			</g>
			<g id="XMLID_197_">
				<g id="XMLID_198_">
					<g id="XMLID_199_">
						<path id="XMLID_45_" class="st1" d="M275.4,36.4C275.4,36.4,274.8,36.4,275.4,36.4l-0.6-35.8c0,0,0-0.6,0.6-0.6
							c0,0,0.6,0,0.6,0.6L275.4,36.4C276,36.4,276,36.4,275.4,36.4z"/>
					</g>
				</g>
			</g>
			<g id="XMLID_193_">
				<g id="XMLID_194_">
					<g id="XMLID_195_">
						<path id="XMLID_44_" class="st1" d="M334.5,36.4C333.9,36.4,333.9,36.4,334.5,36.4l-0.6-14.8c0,0,0-0.6,0.6-0.6s0.6,0,0.6,0.6
							L334.5,36.4C335.1,36.4,334.5,36.4,334.5,36.4z"/>
					</g>
				</g>
			</g>
			<g id="XMLID_189_">
				<g id="XMLID_190_">
					<g id="XMLID_191_">
						<path id="XMLID_43_" class="st1" d="M334.5,14.8C333.9,14.8,333.9,14.8,334.5,14.8l-0.6-14.2c0,0,0-0.6,0.6-0.6s0.6,0,0.6,0.6
							L334.5,14.8C335.1,14.8,334.5,14.8,334.5,14.8z"/>
					</g>
				</g>
			</g>
		</g>
	</g>
	<g id="XMLID_134_">
		<g id="XMLID_135_">
			<g id="XMLID_9_">
				<g id="XMLID_168_">
					<g id="XMLID_184_">
						<g id="XMLID_185_">
							<path id="XMLID_42_" class="st0" d="M75.6,35.8C86.4,51.1,91.5,75,91.5,75H75.6V35.8L75.6,35.8z"/>
						</g>
					</g>
					<g id="XMLID_181_">
						<g id="XMLID_182_">
							<polygon id="XMLID_41_" class="st0" points="75.6,35.8 75.6,75 54,75 46,66.5 46,66.5 							"/>
						</g>
					</g>
					<g id="XMLID_178_">
						<g id="XMLID_179_">
							<polygon id="XMLID_40_" class="st4" points="46,67 46,67 38.1,75 38.1,75 							"/>
						</g>
					</g>
					<g id="XMLID_175_">
						<g id="XMLID_176_">
							<polygon id="XMLID_39_" class="st0" points="16.5,36.4 46,67 38.1,75 16.5,75 							"/>
						</g>
					</g>
					<g id="XMLID_172_">
						<g id="XMLID_173_">
							<path id="XMLID_38_" class="st4" d="M38.1,75L38.1,75L38.1,75H0.6l0,0h15.9H38.1z"/>
						</g>
					</g>
					<g id="XMLID_169_">
						<g id="XMLID_170_">
							<path id="XMLID_37_" class="st0" d="M16.5,35.8L16.5,35.8v38.6H0.6C1.1,72.7,6.8,50.6,16.5,35.8z"/>
						</g>
					</g>
				</g>
				<g id="XMLID_137_">
					<g id="XMLID_165_">
						<g id="XMLID_166_">
							<path id="XMLID_36_" class="st1" d="M91.5,75.6H0.6c0,0-0.6,0-0.6-0.6c0,0,0-0.6,0.6-0.6h90.9C91.5,74.4,92,74.4,91.5,75.6
								C92,75,91.5,75.6,91.5,75.6z"/>
						</g>
					</g>
					<g id="XMLID_162_">
						<g id="XMLID_163_">
							<path id="XMLID_35_" class="st1" d="M0.6,75.6L0.6,75.6C0,75.6,0,75,0,75s5.7-23.9,15.9-39.2c0,0,0,0,0.6,0H17L54.5,75v0.6
								H54L17,36.9C6.3,51.7,1.1,75,0.6,75.6C1.1,75,0.6,75.6,0.6,75.6z"/>
						</g>
					</g>
					<g id="XMLID_159_">
						<g id="XMLID_160_">
							<path id="XMLID_34_" class="st1" d="M91.5,75.6C91.5,75.6,90.9,75,91.5,75.6C90.9,75,85.8,51.7,75.6,37l-37,38.6H38V75
								l37.5-39.2c0,0,0,0,0.6,0c0,0,0,0,0.6,0C86.9,51.1,92.6,75,92.6,75C92,75,92,75.6,91.5,75.6L91.5,75.6z"/>
						</g>
					</g>
					<g id="XMLID_156_">
						<g id="XMLID_157_">
							<path id="XMLID_33_" class="st1" d="M16.5,75.6C16.5,75.6,15.9,75,16.5,75.6l-0.6-39.2c0,0,0-0.6,0.6-0.6s0.6,0,0.6,0.6
								L16.5,75.6C17,75,17,75.6,16.5,75.6z"/>
						</g>
					</g>
					<g id="XMLID_153_">
						<g id="XMLID_154_">
							<path id="XMLID_32_" class="st1" d="M75.6,75.6C75,75.6,75,75,75.6,75.6L75,36.4c0,0,0-0.6,0.6-0.6s0.6,0,0.6,0.6L75.6,75.6
								C76.1,75,75.6,75.6,75.6,75.6z"/>
						</g>
					</g>
					<g id="XMLID_150_">
						<g id="XMLID_151_">
							<path id="XMLID_31_" class="st1" d="M57.4,71.6L57.4,71.6l-5.1-5.7v-0.6h0.6l4.5,5.7C58,71,58,71.6,57.4,71.6
								C58,71.6,57.4,71.6,57.4,71.6z"/>
						</g>
					</g>
					<g id="XMLID_147_">
						<g id="XMLID_148_">
							<path id="XMLID_30_" class="st1" d="M34.1,71.6L34.1,71.6C33.5,71,33.5,71,33.5,71l5.1-5.7h0.6v0.6L34.1,71.6
								C34.7,71.6,34.1,71.6,34.1,71.6z"/>
						</g>
					</g>
					<g id="XMLID_144_">
						<g id="XMLID_145_">
							<path id="XMLID_29_" class="st1" d="M16.5,36.4C16.5,36.4,15.9,36.4,16.5,36.4L15.9,0.6c0,0,0-0.6,0.6-0.6C17,0,17,0,17,0.6
								L16.5,36.4C17,36.4,17,36.4,16.5,36.4z"/>
						</g>
					</g>
					<g id="XMLID_141_">
						<g id="XMLID_142_">
							<path id="XMLID_28_" class="st1" d="M75.6,36.4C75,36.4,75,36.4,75.6,36.4L75,21.6c0,0,0-0.6,0.6-0.6s0.6,0.6,0.6,0.6
								L75.6,36.4C76.1,36.4,75.6,36.4,75.6,36.4z"/>
						</g>
					</g>
					<g id="XMLID_138_">
						<g id="XMLID_139_">
							<path id="XMLID_27_" class="st1" d="M75.6,14.8C75,14.8,75,14.8,75.6,14.8L75,0.6c0,0,0-0.6,0.6-0.6s0.6,0,0.6,0.6L75.6,14.8
								C76.1,14.8,75.6,14.8,75.6,14.8z"/>
						</g>
					</g>
				</g>
			</g>
		</g>
	</g>
	<g id="XMLID_81_">
		<g id="XMLID_82_">
			<g id="XMLID_8_">
				<g id="XMLID_115_">
					<g id="XMLID_131_">
						<g id="XMLID_132_">
							<path id="XMLID_26_" class="st2" d="M221.3,75h-15.9V35.8l0,0C215.7,51.1,221.3,75,221.3,75z"/>
						</g>
					</g>
					<g id="XMLID_128_">
						<g id="XMLID_129_">
							<polygon id="XMLID_25_" class="st2" points="205.4,35.8 205.4,75 183.8,75 175.9,66.5 175.9,66.5 							"/>
						</g>
					</g>
					<g id="XMLID_125_">
						<g id="XMLID_126_">
							<polygon id="XMLID_24_" class="st4" points="175.9,67 175.9,67 167.9,75 167.9,75 							"/>
						</g>
					</g>
					<g id="XMLID_122_">
						<g id="XMLID_123_">
							<polygon id="XMLID_23_" class="st2" points="146.3,36.4 175.9,67 167.9,75 146.3,75 							"/>
						</g>
					</g>
					<g id="XMLID_119_">
						<g id="XMLID_120_">
							<path id="XMLID_22_" class="st4" d="M167.9,75h-37.5l0,0h15.9H167.9L167.9,75L167.9,75z"/>
						</g>
					</g>
					<g id="XMLID_116_">
						<g id="XMLID_117_">
							<path id="XMLID_21_" class="st2" d="M146.3,35.8L146.3,35.8v38.6h-15.9C131,72.7,136.7,50.6,146.3,35.8z"/>
						</g>
					</g>
				</g>
				<g id="XMLID_84_">
					<g id="XMLID_112_">
						<g id="XMLID_113_">
							<path id="XMLID_20_" class="st1" d="M221.3,75.6h-90.9c0,0-0.6,0-0.6-0.6c0,0,0-0.6,0.6-0.6h90.9
								C221.3,74.4,221.9,74.4,221.3,75.6C221.9,75,221.3,75.6,221.3,75.6z"/>
						</g>
					</g>
					<g id="XMLID_109_">
						<g id="XMLID_110_">
							<path id="XMLID_19_" class="st1" d="M130.4,75.6L130.4,75.6c-0.6,0-0.6-0.6-0.6-0.6s5.7-23.9,15.9-39.2c0,0,0,0,0.6,0h0.6
								L184.4,75v0.6h-0.6L146.9,37C136.1,51.7,131,75,130.4,75.6C131,75,130.4,75.6,130.4,75.6z"/>
						</g>
					</g>
					<g id="XMLID_106_">
						<g id="XMLID_107_">
							<path id="XMLID_18_" class="st1" d="M221.3,75.6C220.8,75.6,220.8,75,221.3,75.6c-0.6-0.6-5.7-23.9-15.9-38.6l-36.9,38.6
								h-0.6V75l37.5-39.2c0,0,0,0,0.6,0c0,0,0,0,0.6,0C216.8,51.1,222.5,75,222.5,75C221.9,75,221.9,75.6,221.3,75.6L221.3,75.6z"
								/>
						</g>
					</g>
					<g id="XMLID_103_">
						<g id="XMLID_104_">
							<path id="XMLID_17_" class="st1" d="M146.3,75.6C146.3,75.6,145.8,75,146.3,75.6l-0.6-39.2c0,0,0-0.6,0.6-0.6
								c0,0,0.6,0,0.6,0.6L146.3,75.6C146.9,75,146.3,75.6,146.3,75.6z"/>
						</g>
					</g>
					<g id="XMLID_100_">
						<g id="XMLID_101_">
							<path id="XMLID_16_" class="st1" d="M205.4,75.6C204.9,75.6,204.9,75,205.4,75.6l-0.6-39.2c0,0,0-0.6,0.6-0.6s0.6,0,0.6,0.6
								L205.4,75.6C206,75,205.4,75.6,205.4,75.6z"/>
						</g>
					</g>
					<g id="XMLID_97_">
						<g id="XMLID_98_">
							<path id="XMLID_15_" class="st1" d="M187.3,71.6L187.3,71.6l-5.1-5.7v-0.6h0.6l4.5,5.7C187.8,71,187.8,71.6,187.3,71.6
								C187.8,71.6,187.3,71.6,187.3,71.6z"/>
						</g>
					</g>
					<g id="XMLID_94_">
						<g id="XMLID_95_">
							<path id="XMLID_14_" class="st1" d="M164,71.6L164,71.6c-0.6-0.6-0.6-0.6-0.6-0.6l5.1-5.7h0.6v0.6L164,71.6L164,71.6z"/>
						</g>
					</g>
					<g id="XMLID_91_">
						<g id="XMLID_92_">
							<path id="XMLID_13_" class="st1" d="M146.3,36.4C146.3,36.4,145.8,36.4,146.3,36.4l-0.6-35.8c0,0,0-0.6,0.6-0.6
								c0,0,0.6,0,0.6,0.6L146.3,36.4C146.9,36.4,146.3,36.4,146.3,36.4z"/>
						</g>
					</g>
					<g id="XMLID_88_">
						<g id="XMLID_89_">
							<path id="XMLID_12_" class="st1" d="M205.4,36.4C204.9,36.4,204.9,36.4,205.4,36.4l-0.6-14.8c0,0,0-0.6,0.6-0.6
								s0.6,0,0.6,0.6L205.4,36.4C206,36.4,205.4,36.4,205.4,36.4z"/>
						</g>
					</g>
					<g id="XMLID_85_">
						<g id="XMLID_86_">
							<path id="XMLID_11_" class="st1" d="M205.4,14.8C204.9,14.8,204.9,14.8,205.4,14.8l-0.6-14.2c0,0,0-0.6,0.6-0.6
								s0.6,0,0.6,0.6L205.4,14.8C206,14.8,205.4,14.8,205.4,14.8z"/>
						</g>
					</g>
				</g>
			</g>
		</g>
	</g>
	<g id="XMLID_87_">
		<g id="XMLID_627_">
			<g id="XMLID_637_">
				<g id="XMLID_638_">
					<path id="XMLID_347_" class="st3" d="M497.1,37.7L497.1,37.7L497.1,37.7c10.7,14.7,15.8,36.6,15.8,36.6h-15.8L497.1,37.7
						L497.1,37.7z"/>
				</g>
			</g>
			<g id="XMLID_634_">
				<g id="XMLID_635_">
					<polygon id="XMLID_346_" class="st3" points="471.2,74.4 472.8,60.9 481.9,53.5 486.4,42.3 497.1,37.7 497.1,74.4 475.7,74.4 
											"/>
				</g>
			</g>
			<g id="XMLID_631_">
				<g id="XMLID_632_">
					<polygon id="XMLID_345_" class="st3" points="462.7,60.9 464.4,74.4 438.5,74.4 438.5,37.7 449.2,42.3 453.7,53.5 					"/>
				</g>
			</g>
			<g id="XMLID_628_">
				<g id="XMLID_629_">
					<path id="XMLID_344_" class="st3" d="M438.5,37.7v36.6h-15.8C423.2,72.1,428.9,51.8,438.5,37.7L438.5,37.7z"/>
				</g>
			</g>
		</g>
		<g id="XMLID_590_">
			<g id="XMLID_624_">
				<g id="XMLID_625_">
					<path id="XMLID_343_" class="st1" d="M512.9,74.4h-90.2c0,0-0.6,0-0.6-0.6s0-0.6,0.6-0.6h90.2
						C513.4,73.8,513.4,73.8,512.9,74.4C513.4,74.4,513.4,74.4,512.9,74.4z"/>
				</g>
			</g>
			<g id="XMLID_621_">
				<g id="XMLID_622_">
					<path id="XMLID_342_" class="st1" d="M422.7,74.4L422.7,74.4c-0.6,0-0.6-0.6-0.6-0.6s5.6-22,15.8-37.2h0.6v0.6
						C428.9,52.4,423.2,73.8,422.7,74.4C423.2,74.4,422.7,74.4,422.7,74.4z"/>
				</g>
			</g>
			<g id="XMLID_618_">
				<g id="XMLID_619_">
					<path id="XMLID_341_" class="st1" d="M512.9,74.4C512.9,74.4,512.3,74.4,512.9,74.4c-0.6-0.6-6.2-22-16.3-37.2v-0.6h0.6
						C507.3,51.8,513,73.2,513,73.8C513.4,74.4,513.4,74.4,512.9,74.4L512.9,74.4z"/>
				</g>
			</g>
			<g id="XMLID_615_">
				<g id="XMLID_616_">
					<path id="XMLID_340_" class="st1" d="M438.5,74.4C438.5,74.4,437.9,74.4,438.5,74.4l-0.6-37.2c0,0,0-0.6,0.6-0.6s0.6,0,0.6,0.6
						L438.5,74.4C439,74.4,439,74.4,438.5,74.4z"/>
				</g>
			</g>
			<g id="XMLID_612_">
				<g id="XMLID_613_">
					<path id="XMLID_339_" class="st1" d="M497.1,74.4C496.5,74.4,496.5,74.4,497.1,74.4l-0.6-37.2c0,0,0-0.6,0.6-0.6s0.6,0,0.6,0.6
						L497.1,74.4C497.6,74.4,497.1,74.4,497.1,74.4z"/>
				</g>
			</g>
			<g id="XMLID_609_">
				<g id="XMLID_610_">
					<path id="XMLID_338_" class="st1" d="M461.6,71C461.6,71,461,71,461.6,71l-1.1-7.9c0,0,0-0.6,0.6-0.6c0,0,0.6,0,0.6,0.6V71
						C462.1,71,462.1,71,461.6,71L461.6,71z"/>
				</g>
			</g>
			<g id="XMLID_606_">
				<g id="XMLID_607_">
					<path id="XMLID_337_" class="st1" d="M474,71L474,71C473.4,71,473.4,71,474,71l0.6-7.9c0,0,0-0.6,0.6-0.6c0,0,0.6,0,0.6,0.6
						L474,71C474.5,71,474,71,474,71z"/>
				</g>
			</g>
			<g id="XMLID_603_">
				<g id="XMLID_604_">
					<path id="XMLID_336_" class="st1" d="M438.5,37.7C438.5,37.7,437.9,37.7,438.5,37.7l-0.6-20.9c0,0,0-0.6,0.6-0.6s0.6,0,0.6,0.6
						L438.5,37.7C439,37.7,439,37.7,438.5,37.7z"/>
				</g>
			</g>
			<g id="XMLID_600_">
				<g id="XMLID_601_">
					<path id="XMLID_335_" class="st1" d="M497.1,37.7C496.5,37.7,496.5,37.7,497.1,37.7l-0.6-37.2c0,0,0-0.6,0.6-0.6s0.6,0,0.6,0.6
						L497.1,37.7C497.6,37.7,497.1,37.7,497.1,37.7z"/>
				</g>
			</g>
			<g id="XMLID_597_">
				<g id="XMLID_598_">
					<path id="XMLID_334_" class="st1" d="M438.5,8.4C438.5,8.4,437.9,8.4,438.5,8.4L437.9,0c0,0,0-0.6,0.6-0.6s0.6,0,0.6,0.6
						L438.5,8.4C439,8.4,439,8.4,438.5,8.4z"/>
				</g>
			</g>
			<g id="XMLID_594_">
				<g id="XMLID_595_">
					<path id="XMLID_333_" class="st1" d="M464.4,74.4C463.8,74.4,463.8,74.4,464.4,74.4l-2.3-13.5l-9-7.3l0,0l-4.5-11.3l-10.1-4.5
						c0,0-0.6-0.6,0-0.6c0,0,0.6-0.6,0.6,0l10.7,4.5l0,0l4.5,11.3l9,7.3c0,0,0,0,0,0.6L464.4,74.4C465,74.4,464.4,74.4,464.4,74.4
						L464.4,74.4z"/>
				</g>
			</g>
			<g id="XMLID_591_">
				<g id="XMLID_592_">
					<path id="XMLID_332_" class="st1" d="M471.2,74.4L471.2,74.4C471.2,74.4,470.6,74.4,471.2,74.4l1.1-13.5c0,0,0,0,0-0.6l9-7.3
						l4.5-11.3l0,0l10.7-4.5h0.6v0.6L487,42.3l-4.5,11.3l0,0l-9,7.3L471.2,74.4C471.7,74.4,471.7,74.4,471.2,74.4z"/>
				</g>
			</g>
		</g>
	</g>
	<g id="XMLID_83_">
		<g id="XMLID_576_">
			<g id="XMLID_586_">
				<g id="XMLID_587_">
					<path id="XMLID_331_" class="st0" d="M629.2,37.2C639.9,52.4,645,73.8,645,73.8h-15.8V37.2L629.2,37.2L629.2,37.2z"/>
				</g>
			</g>
			<g id="XMLID_583_">
				<g id="XMLID_584_">
					<polygon id="XMLID_330_" class="st0" points="603.3,74.4 605,60.9 614,53.5 618.5,42.3 629.2,37.7 629.2,74.4 607.8,74.4 					
						"/>
				</g>
			</g>
			<g id="XMLID_580_">
				<g id="XMLID_581_">
					<polygon id="XMLID_329_" class="st0" points="594.8,60.9 596.5,74.4 570.6,74.4 570.6,37.7 581.3,42.3 585.8,53.5 					"/>
				</g>
			</g>
			<g id="XMLID_577_">
				<g id="XMLID_578_">
					<path id="XMLID_328_" class="st0" d="M570.6,37.7v36.6h-15.8C555.4,72.1,561,51.8,570.6,37.7L570.6,37.7z"/>
				</g>
			</g>
		</g>
		<g id="XMLID_539_">
			<g id="XMLID_573_">
				<g id="XMLID_574_">
					<path id="XMLID_322_" class="st1" d="M645,74.4h-90.2c0,0-0.6,0-0.6-0.6s0-0.6,0.6-0.6H645C645,73.8,645.6,73.8,645,74.4
						C645.6,74.4,645,74.4,645,74.4z"/>
				</g>
			</g>
			<g id="XMLID_570_">
				<g id="XMLID_571_">
					<path id="XMLID_321_" class="st1" d="M554.8,74.4L554.8,74.4c-0.6,0-0.6-0.6-0.6-0.6s5.6-22,15.8-37.2h0.6v0.6
						C561,52.4,555.4,73.8,554.8,74.4C555.4,74.4,554.8,74.4,554.8,74.4z"/>
				</g>
			</g>
			<g id="XMLID_567_">
				<g id="XMLID_568_">
					<path id="XMLID_316_" class="st1" d="M645,74.4C645,74.4,644.4,74.4,645,74.4c-0.6-0.6-6.2-22-16.3-37.2v-0.6h0.6
						C639.4,51.8,645,73.3,645,73.8C645.6,74.4,645.6,74.4,645,74.4L645,74.4z"/>
				</g>
			</g>
			<g id="XMLID_564_">
				<g id="XMLID_565_">
					<path id="XMLID_312_" class="st1" d="M570.6,74.4C570.6,74.4,570,74.4,570.6,74.4L570,37.2c0,0,0-0.6,0.6-0.6s0.6,0,0.6,0.6
						L570.6,74.4C571.2,74.4,571.2,74.4,570.6,74.4z"/>
				</g>
			</g>
			<g id="XMLID_561_">
				<g id="XMLID_562_">
					<path id="XMLID_306_" class="st1" d="M629.2,74.4C628.7,74.4,628.7,74.4,629.2,74.4l-0.6-37.2c0,0,0-0.6,0.6-0.6s0.6,0,0.6,0.6
						L629.2,74.4C629.8,74.4,629.2,74.4,629.2,74.4z"/>
				</g>
			</g>
			<g id="XMLID_558_">
				<g id="XMLID_559_">
					<path id="XMLID_305_" class="st1" d="M593.7,71C593.7,71,593.2,71,593.7,71l-1.1-7.9c0,0,0-0.6,0.6-0.6c0,0,0.6,0,0.6,0.6
						L593.7,71C594.3,71,594.3,71,593.7,71L593.7,71z"/>
				</g>
			</g>
			<g id="XMLID_555_">
				<g id="XMLID_556_">
					<path id="XMLID_299_" class="st1" d="M606.1,71L606.1,71C605.6,71,605.6,71,606.1,71l0.6-7.9l0.6-0.6c0,0,0.6,0,0.6,0.6
						L606.1,71C606.7,71,606.1,71,606.1,71z"/>
				</g>
			</g>
			<g id="XMLID_552_">
				<g id="XMLID_553_">
					<path id="XMLID_298_" class="st1" d="M570.6,37.7C570.6,37.7,570,37.7,570.6,37.7L570,16.9c0,0,0-0.6,0.6-0.6s0.6,0,0.6,0.6
						L570.6,37.7C571.2,37.7,571.2,37.7,570.6,37.7z"/>
				</g>
			</g>
			<g id="XMLID_549_">
				<g id="XMLID_550_">
					<path id="XMLID_293_" class="st1" d="M629.2,37.7C628.7,37.7,628.7,37.7,629.2,37.7L628.7,0c0,0,0-0.6,0.6-0.6s0.6,0,0.6,0.6
						L629.2,37.7C629.8,37.7,629.2,37.7,629.2,37.7z"/>
				</g>
			</g>
			<g id="XMLID_546_">
				<g id="XMLID_547_">
					<path id="XMLID_289_" class="st1" d="M570.6,8.4C570.6,8.4,570,8.4,570.6,8.4L570,0c0,0,0-0.6,0.6-0.6s0.6,0,0.6,0.6L570.6,8.4
						C571.2,8.4,571.2,8.4,570.6,8.4z"/>
				</g>
			</g>
			<g id="XMLID_543_">
				<g id="XMLID_544_">
					<path id="XMLID_283_" class="st1" d="M596.5,74.4C596,74.4,596,74.4,596.5,74.4l-2.3-13.5l-9-7.3l0,0l-4.5-11.3l-10.1-4.5
						c0,0-0.6-0.6,0-0.6c0,0,0.6-0.6,0.6,0l10.7,4.5l0,0l4.5,11.3l9,7.3c0,0,0,0,0,0.6L596.5,74.4C597.1,74.4,596.5,74.4,596.5,74.4
						L596.5,74.4z"/>
				</g>
			</g>
			<g id="XMLID_540_">
				<g id="XMLID_541_">
					<path id="XMLID_282_" class="st1" d="M603.3,74.4L603.3,74.4C603.3,74.4,602.7,74.4,603.3,74.4l1.1-13.5c0,0,0,0,0-0.6l9-7.3
						l4.5-11.3l0,0l10.7-4.5h0.6v0.6l-10.1,4.5l-4.5,11.3l0,0l-9,7.3L603.3,74.4C603.9,74.4,603.9,74.4,603.3,74.4z"/>
				</g>
			</g>
		</g>
	</g>
	<g id="XMLID_80_">
		<g id="XMLID_525_">
			<g id="XMLID_535_">
				<g id="XMLID_536_">
					<path id="XMLID_277_" class="st5" d="M774.6,74.4h-15.8V37.7l0,0l0,0C768.9,52.4,774.6,74.4,774.6,74.4z"/>
				</g>
			</g>
			<g id="XMLID_532_">
				<g id="XMLID_533_">
					<polygon id="XMLID_276_" class="st5" points="732.9,74.4 734.6,60.9 743.6,53.5 748.1,42.3 758.8,37.7 758.8,74.4 737.4,74.4 
											"/>
				</g>
			</g>
			<g id="XMLID_529_">
				<g id="XMLID_530_">
					<polygon id="XMLID_270_" class="st5" points="724.4,60.9 726.1,74.4 700.2,74.4 700.2,37.7 710.9,42.3 715.4,53.5 					"/>
				</g>
			</g>
			<g id="XMLID_526_">
				<g id="XMLID_527_">
					<path id="XMLID_269_" class="st5" d="M700.2,37.7v36.6h-15.8C685,72.1,690.6,51.8,700.2,37.7L700.2,37.7z"/>
				</g>
			</g>
		</g>
		<g id="XMLID_488_">
			<g id="XMLID_522_">
				<g id="XMLID_523_">
					<path id="XMLID_264_" class="st1" d="M774.6,74.4h-90.2c0,0-0.6,0-0.6-0.6s0-0.6,0.6-0.6h90.2
						C774.6,73.8,775.1,73.8,774.6,74.4C775.1,74.4,774.6,74.4,774.6,74.4z"/>
				</g>
			</g>
			<g id="XMLID_519_">
				<g id="XMLID_520_">
					<path id="XMLID_260_" class="st1" d="M684.4,74.4L684.4,74.4c-0.6,0-0.6-0.6-0.6-0.6s5.6-22,15.8-37.2h0.6v0.6
						C690.6,52.4,685,73.8,684.4,74.4C685,74.4,684.4,74.4,684.4,74.4z"/>
				</g>
			</g>
			<g id="XMLID_516_">
				<g id="XMLID_517_">
					<path id="XMLID_254_" class="st1" d="M774.6,74.4C774.6,74.4,774,74.4,774.6,74.4c-0.6-0.6-6.2-22-16.3-37.2v-0.6h0.6
						c10.1,15.2,15.8,36.6,15.8,37.2C775.1,74.4,775.1,74.4,774.6,74.4L774.6,74.4z"/>
				</g>
			</g>
			<g id="XMLID_513_">
				<g id="XMLID_514_">
					<path id="XMLID_250_" class="st1" d="M700.2,74.4C700.2,74.4,699.6,74.4,700.2,74.4l-0.6-37.2c0,0,0-0.6,0.6-0.6
						c0,0,0.6,0,0.6,0.6L700.2,74.4C700.7,74.4,700.2,74.4,700.2,74.4z"/>
				</g>
			</g>
			<g id="XMLID_510_">
				<g id="XMLID_511_">
					<path id="XMLID_246_" class="st1" d="M758.8,74.4C758.2,74.4,758.2,74.4,758.8,74.4l-0.6-37.2c0,0,0-0.6,0.6-0.6s0.6,0,0.6,0.6
						L758.8,74.4C759.4,74.4,758.8,74.4,758.8,74.4z"/>
				</g>
			</g>
			<g id="XMLID_507_">
				<g id="XMLID_508_">
					<path id="XMLID_241_" class="st1" d="M723.3,71C723.3,71,722.7,71,723.3,71l-1.1-7.9c0,0,0-0.6,0.6-0.6c0,0,0.6,0,0.6,0.6
						L723.3,71C723.9,71,723.9,71,723.3,71L723.3,71z"/>
				</g>
			</g>
			<g id="XMLID_504_">
				<g id="XMLID_505_">
					<path id="XMLID_237_" class="st1" d="M735.7,71L735.7,71C735.1,71,735.1,71,735.7,71l0.6-7.9l0.6-0.6c0,0,0.6,0,0.6,0.6
						L735.7,71C736.3,71,735.7,71,735.7,71z"/>
				</g>
			</g>
			<g id="XMLID_501_">
				<g id="XMLID_502_">
					<path id="XMLID_233_" class="st1" d="M700.2,37.7C700.2,37.7,699.6,37.7,700.2,37.7l-0.6-20.9c0,0,0-0.6,0.6-0.6
						c0,0,0.6,0,0.6,0.6L700.2,37.7C700.7,37.7,700.2,37.7,700.2,37.7z"/>
				</g>
			</g>
			<g id="XMLID_498_">
				<g id="XMLID_499_">
					<path id="XMLID_228_" class="st1" d="M758.8,37.7C758.2,37.7,758.2,37.7,758.8,37.7L758.2,0c0,0,0-0.6,0.6-0.6s0.6,0,0.6,0.6
						L758.8,37.7C759.4,37.7,758.8,37.7,758.8,37.7z"/>
				</g>
			</g>
			<g id="XMLID_495_">
				<g id="XMLID_496_">
					<path id="XMLID_224_" class="st1" d="M700.2,8.4C700.2,8.4,699.6,8.4,700.2,8.4L699.6,0c0,0,0-0.6,0.6-0.6c0,0,0.6,0,0.6,0.6
						L700.2,8.4C700.7,8.4,700.2,8.4,700.2,8.4z"/>
				</g>
			</g>
			<g id="XMLID_492_">
				<g id="XMLID_493_">
					<path id="XMLID_220_" class="st1" d="M726.1,74.4C725.5,74.4,725.5,74.4,726.1,74.4l-2.3-13l-9-7.3l0,0l-4.5-11.3l-10.1-4.5
						c0,0-0.6-0.6,0-0.6c0,0,0.6-0.6,0.6,0l10.7,4.5l0,0l4.5,11.3l9,7.3c0,0,0,0,0,0.6L726.1,74.4C726.7,74.4,726.1,74.4,726.1,74.4
						L726.1,74.4z"/>
				</g>
			</g>
			<g id="XMLID_489_">
				<g id="XMLID_490_">
					<path id="XMLID_216_" class="st1" d="M732.9,74.4L732.9,74.4C732.9,74.4,732.3,74.4,732.9,74.4l1.1-13.5c0,0,0,0,0-0.6l9-7.3
						l4.5-11.3l0,0l10.7-4.5h0.6v0.6l-10.1,4.5l-4.5,11.3l0,0l-9,7.9L732.9,74.4C733.4,74.4,733.4,74.4,732.9,74.4z"/>
				</g>
			</g>
		</g>
	</g>
	<g id="XMLID_457_">
		<g id="XMLID_474_">
			<g id="XMLID_481_">
				<g id="XMLID_482_">
					<g id="XMLID_483_">
						<path id="XMLID_484_" class="st3" d="M436.2,113.1v6.3c0,0,20,2.9,28,37.1h9.7c8-34.2,28-37.1,28-37.1v-6.3H436.2z
							 M468.7,122.2l-2.9-3.4h5.7L468.7,122.2z"/>
					</g>
				</g>
			</g>
			<g id="XMLID_475_">
				<g id="XMLID_476_">
					<g id="XMLID_477_">
						<path id="XMLID_478_" class="st6" d="M468.7,122.8L468.7,122.8C468.7,122.8,468.7,122.2,468.7,122.8l-3.4-4v-0.6
							c0,0,0,0,0.6,0h5.7h0.6v0.6L468.7,122.8C469.2,122.2,468.7,122.8,468.7,122.8z M467,118.8l1.7,2.3l1.7-2.3H467z"/>
					</g>
				</g>
			</g>
		</g>
		<g id="XMLID_470_">
			<g id="XMLID_471_">
				<g id="XMLID_472_">
					<path id="XMLID_196_" class="st6" d="M443.6,120.5L443.6,120.5c-0.6,0-0.6-0.6-0.6-0.6l1.1-4.6l0.6-0.6l0.6,0.6L443.6,120.5
						C444.1,119.9,444.1,120.5,443.6,120.5z"/>
				</g>
			</g>
		</g>
		<g id="XMLID_466_">
			<g id="XMLID_467_">
				<g id="XMLID_468_">
					<path id="XMLID_192_" class="st7" d="M501.8,113.1"/>
				</g>
			</g>
		</g>
		<g id="XMLID_462_">
			<g id="XMLID_463_">
				<g id="XMLID_464_">
					<path id="XMLID_186_" class="st7" d="M436.2,113.1"/>
				</g>
			</g>
		</g>
		<g id="XMLID_458_">
			<g id="XMLID_459_">
				<g id="XMLID_460_">
					<path id="XMLID_183_" class="st6" d="M493.8,120.5C493.2,120.5,493.2,119.9,493.8,120.5l-1.7-5.1c0,0,0-0.6,0.6-0.6
						c0,0,0.6,0,0.6,0.6l1.1,4.6C494.3,119.9,494.3,120.5,493.8,120.5L493.8,120.5z"/>
				</g>
			</g>
		</g>
	</g>
	<g id="XMLID_431_">
		<g id="XMLID_444_">
			<g id="XMLID_451_">
				<g id="XMLID_452_">
					<g id="XMLID_453_">
						<path id="XMLID_454_" class="st0" d="M567,113.1v6.3c0,0,20,2.9,28,37.1h9.7c8-34.2,28-37.1,28-37.1v-6.3H567z M599.5,122.2
							l-2.9-3.4h5.7L599.5,122.2z"/>
					</g>
				</g>
			</g>
			<g id="XMLID_445_">
				<g id="XMLID_446_">
					<g id="XMLID_447_">
						<path id="XMLID_448_" class="st6" d="M599.5,122.8L599.5,122.8C599.5,122.8,599.5,122.2,599.5,122.8l-3.4-4v-0.6
							c0,0,0,0,0.6,0h5.7h0.6v0.6L599.5,122.8C600,122.2,600,122.8,599.5,122.8z M597.8,118.8l1.7,2.3l1.7-2.3H597.8z"/>
					</g>
				</g>
			</g>
		</g>
		<g id="XMLID_440_">
			<g id="XMLID_441_">
				<g id="XMLID_442_">
					<path id="XMLID_167_" class="st6" d="M574.9,120.5C574.9,120.5,574.4,120.5,574.9,120.5c-0.6,0-0.6-0.6-0.6-0.6l1.1-4.6
						l0.6-0.6l0.6,0.6L574.9,120.5C574.9,119.9,574.9,120.5,574.9,120.5z"/>
				</g>
			</g>
		</g>
		<g id="XMLID_436_">
			<g id="XMLID_437_">
				<g id="XMLID_438_">
					<path id="XMLID_164_" class="st8" d="M632.6,113.1"/>
				</g>
			</g>
		</g>
		<g id="XMLID_432_">
			<g id="XMLID_433_">
				<g id="XMLID_434_">
					<path id="XMLID_161_" class="st6" d="M624.6,120.5C624.6,120.5,624.6,119.9,624.6,120.5l-1.7-5.1c0,0,0-0.6,0.6-0.6
						c0,0,0.6,0,0.6,0.6l1.1,4.6C625.1,119.9,625.1,120.5,624.6,120.5L624.6,120.5z"/>
				</g>
			</g>
		</g>
	</g>
	<g id="XMLID_408_">
		<g id="XMLID_427_">
			<g id="XMLID_428_">
				<g id="XMLID_429_">
					<path id="XMLID_158_" class="st6" d="M444.1,120.5C443.6,120.5,443.6,120.5,444.1,120.5c-0.6,0-0.6-0.6-0.6-0.6l1.1-4.6
						l0.6-0.6l0.6,0.6L444.1,120.5C444.1,119.9,444.1,120.5,444.1,120.5z"/>
				</g>
			</g>
		</g>
		<g id="XMLID_421_">
			<g id="XMLID_422_">
				<g id="XMLID_423_">
					<path id="XMLID_424_" class="st6" d="M468.7,122.8L468.7,122.8C468.7,122.8,468.7,122.2,468.7,122.8l-3.4-4v-0.6c0,0,0,0,0.6,0
						h5.7h0.6v0.6L468.7,122.8C469.2,122.2,469.2,122.8,468.7,122.8z M467,118.8l1.7,2.3l1.7-2.3H467z"/>
				</g>
			</g>
		</g>
		<g id="XMLID_417_">
			<g id="XMLID_418_">
				<g id="XMLID_419_">
					<path id="XMLID_149_" class="st6" d="M469.2,157h-5.1c0,0-0.6,0-0.6-0.6c-8-33.7-27.4-36.5-27.4-36.5s-0.6,0-0.6-0.6V113
						c0,0,0-0.6,0.6-0.6h65.6c0,0,0.6,0,0.6,0.6s0,0.6-0.6,0.6h-65v5.7c1.1,0,5.7,1.7,10.8,5.7c5.7,4.6,13.1,13.7,17.1,31.4h4.6
						C469.2,155.9,469.2,156.4,469.2,157L469.2,157z"/>
				</g>
			</g>
		</g>
		<g id="XMLID_413_">
			<g id="XMLID_414_">
				<g id="XMLID_415_">
					<path id="XMLID_146_" class="st6" d="M473.8,157h-5.1c0,0-0.6,0-0.6-0.6c0,0,0-0.6,0.6-0.6h4.6c4-17.7,11.4-26.8,17.1-31.4
						c5.1-4,9.7-5.1,10.8-5.7V113h-65c0,0-0.6,0-0.6-0.6s0-0.6,0.6-0.6h65.6c0,0,0.6,0,0.6,0.6v6.3c0,0,0,0.6-0.6,0.6
						C501.8,119.9,482.4,122.8,473.8,157C474.4,157,474.4,157,473.8,157z"/>
				</g>
			</g>
		</g>
		<g id="XMLID_409_">
			<g id="XMLID_410_">
				<g id="XMLID_411_">
					<path id="XMLID_143_" class="st6" d="M493.8,120.5C493.8,120.5,493.2,119.9,493.8,120.5l-1.7-5.1c0,0,0-0.6,0.6-0.6
						c0,0,0.6,0,0.6,0.6l1.1,4.6C494.3,119.9,494.3,120.5,493.8,120.5L493.8,120.5z"/>
				</g>
			</g>
		</g>
	</g>
	<g id="XMLID_376_">
		<g id="XMLID_79_">
			<g id="XMLID_396_">
				<g id="XMLID_405_">
					<g id="XMLID_406_">
						<path id="XMLID_140_" class="st2" d="M763.1,113.1v6.3c0,0-2.9,0.6-6.8,2.9l-1.7-2.3l-1.1-4.6v-2.3H763.1L763.1,113.1z"/>
					</g>
				</g>
				<g id="XMLID_400_">
					<g id="XMLID_401_">
						<path id="XMLID_402_" class="st5" d="M754.5,119.9l1.7,2.3c-6.3,4-16,13.1-21.1,34.2H730l0,0h-5.1
							c-5.7-23.4-16-31.9-22.8-35.4l2.3-1.1l1.1-4.6V113h47.3v2.3L754.5,119.9z M730,122.2l2.9-3.4h-5.7L730,122.2z"/>
					</g>
				</g>
				<g id="XMLID_397_">
					<g id="XMLID_398_">
						<path id="XMLID_130_" class="st2" d="M706,113.1v2.3l-1.1,4.6l-2.3,1.1c-3.4-1.7-5.1-1.7-5.1-1.7v-6.3h0.6
							C698,113.1,706,113.1,706,113.1z"/>
					</g>
				</g>
			</g>
			<g id="XMLID_378_">
				<g id="XMLID_393_">
					<g id="XMLID_394_">
						<path id="XMLID_127_" class="st6" d="M704.9,120.5L704.9,120.5c-0.6,0-0.6-0.6-0.6-0.6l1.1-4.6l0.6-0.6l0.6,0.6L704.9,120.5
							C705.5,119.9,704.9,120.5,704.9,120.5z"/>
					</g>
				</g>
				<g id="XMLID_388_">
					<g id="XMLID_389_">
						<path id="XMLID_390_" class="st6" d="M730,122.8L730,122.8C729.4,122.8,729.4,122.2,730,122.8l-3.4-4v-0.6c0,0,0,0,0.6,0h5.7
							h0.6v0.6L730,122.8C730,122.2,730,122.8,730,122.8z M727.7,118.8l1.7,2.3l1.7-2.3H727.7z"/>
					</g>
				</g>
				<g id="XMLID_385_">
					<g id="XMLID_386_">
						<path id="XMLID_118_" class="st6" d="M730,157h-5.1c0,0-0.6,0-0.6-0.6c-5.7-23.4-16.5-31.9-22.2-34.8
							c-2.9-1.7-5.1-1.7-5.1-1.7s-0.6,0-0.6-0.6V113c0,0,0-0.6,0.6-0.6h0.6c0,0,0.6,0,0.6,0.6c0,0,0,0.6-0.6,0.6v5.7
							c0.6,0,2.9,0.6,5.1,1.7c6.3,2.9,17.1,12,22.8,35.4h4.6C730,155.9,730.6,156.4,730,157C730.6,157,730,157,730,157z"/>
					</g>
				</g>
				<g id="XMLID_382_">
					<g id="XMLID_383_">
						<path id="XMLID_114_" class="st6" d="M735.1,157H730c0,0-0.6,0-0.6-0.6s0-0.6,0.6-0.6h4.6c5.1-21.1,14.3-30.2,21.7-34.2
							c2.9-1.7,5.7-2.3,6.3-2.9V113h-65c0,0-0.6,0-0.6-0.6s0-0.6,0.6-0.6h65.6c0,0,0.6,0,0.6,0.6v6.3c0,0,0,0.6-0.6,0.6
							c0,0-2.9,0.6-6.3,2.9C750,126.2,740.3,135.3,735.1,157C735.7,157,735.1,157,735.1,157z"/>
					</g>
				</g>
				<g id="XMLID_379_">
					<g id="XMLID_380_">
						<path id="XMLID_111_" class="st6" d="M754.5,120.5C754.5,120.5,754.5,119.9,754.5,120.5l-1.7-5.1c0,0,0-0.6,0.6-0.6
							c0,0,0.6,0,0.6,0.6l1.1,4.6C755.1,119.9,755.1,120.5,754.5,120.5C755.1,120.5,755.1,120.5,754.5,120.5z"/>
					</g>
				</g>
			</g>
		</g>
	</g>
	<g id="XMLID_353_">
		<g id="XMLID_372_">
			<g id="XMLID_373_">
				<g id="XMLID_374_">
					<path id="XMLID_108_" class="st6" d="M574.9,120.5L574.9,120.5c-0.6,0-0.6-0.6-0.6-0.6l1.1-4.6l0.6-0.6l0.6,0.6L574.9,120.5
						C575.5,119.9,574.9,120.5,574.9,120.5z"/>
				</g>
			</g>
		</g>
		<g id="XMLID_366_">
			<g id="XMLID_367_">
				<g id="XMLID_368_">
					<path id="XMLID_369_" class="st6" d="M600,122.8L600,122.8C599.5,122.8,599.5,122.2,600,122.8l-3.4-4v-0.6c0,0,0,0,0.6,0h5.7
						h0.6v0.6L600,122.8C600,122.2,600,122.8,600,122.8z M597.8,118.8l1.7,2.3l1.7-2.3H597.8z"/>
				</g>
			</g>
		</g>
		<g id="XMLID_362_">
			<g id="XMLID_363_">
				<g id="XMLID_364_">
					<path id="XMLID_99_" class="st6" d="M600,157h-5.1c0,0-0.6,0-0.6-0.6c-8-33.7-27.4-36.5-27.4-36.5s-0.6,0-0.6-0.6V113
						c0,0,0-0.6,0.6-0.6h65.6c0,0,0.6,0,0.6,0.6s0,0.6-0.6,0.6h-65v5.7c1.1,0,5.7,1.7,10.8,5.7c5.7,4.6,13.1,13.7,17.1,31.4h4.6
						C600,155.9,600.6,156.4,600,157C600.6,157,600,157,600,157z"/>
				</g>
			</g>
		</g>
		<g id="XMLID_358_">
			<g id="XMLID_359_">
				<g id="XMLID_360_">
					<path id="XMLID_96_" class="st6" d="M605.2,157H600c0,0-0.6,0-0.6-0.6c0,0,0-0.6,0.6-0.6h4.6c4-17.7,11.4-26.8,17.1-31.4
						c5.1-4,9.7-5.1,10.8-5.7V113h-65c0,0-0.6,0-0.6-0.6s0-0.6,0.6-0.6h65.6c0,0,0.6,0,0.6,0.6v6.3c0,0,0,0.6-0.6,0.6
						C633.1,119.9,613.7,122.8,605.2,157C605.8,157,605.2,157,605.2,157z"/>
				</g>
			</g>
		</g>
		<g id="XMLID_354_">
			<g id="XMLID_355_">
				<g id="XMLID_356_">
					<path id="XMLID_93_" class="st6" d="M624.6,120.5C624.6,120.5,624.6,119.9,624.6,120.5l-1.7-5.1c0,0,0-0.6,0.6-0.6
						c0,0,0.6,0,0.6,0.6l1.1,4.6C625.1,119.9,625.1,120.5,624.6,120.5C625.1,120.5,625.1,120.5,624.6,120.5z"/>
				</g>
			</g>
		</g>
	</g>
	<g id="XMLID_349_">
		<g id="XMLID_350_">
			<g id="XMLID_351_">
				<path id="XMLID_90_" class="st8" d="M553,113.1"/>
			</g>
		</g>
	</g>
</g>
<g id="XMLID_348_">
	<g id="XMLID_808_">
		<g id="XMLID_838_">
			<g id="XMLID_839_">
				<g id="XMLID_840_">
					<path id="XMLID_538_" class="st3" d="M886.1,41.8l1.2-3.6l-7.9-4.2l-6.6-9.7h-6.6l-8.5-22.4l-4.8,2.4l4.8,20.5
						c2.4,12.1-7.3,18.1-7.3,18.1l4.2,14.5V66h63.5v-8.5l4.2-14.5c0,0-9.7-6-7.3-18.1l5-20.6l-4.8-2.4l-8.5,22.4H900l-6.6,9.7
						l-7.9,4.2l1.2,3.6H886.1z"/>
				</g>
			</g>
		</g>
		<g id="XMLID_809_">
			<g id="XMLID_834_">
				<g id="XMLID_835_">
					<g id="XMLID_836_">
						<path id="XMLID_537_" class="st6" d="M918.8,66.6h-45.9c0,0-0.6,0-0.6-0.6s0-0.6,0.6-0.6h45.3v-7.3h-62.3v7.3h7.3
							c0,0,0.6,0,0.6,0.6s0,0.6-0.6,0.6h-7.9c0,0-0.6,0-0.6-0.6v-8.5c0,0,0-0.6,0.6-0.6h63.5c0,0,0.6,0,0.6,0.6L918.8,66.6
							C919.4,66.6,919.4,66.6,918.8,66.6z"/>
					</g>
				</g>
			</g>
			<g id="XMLID_830_">
				<g id="XMLID_831_">
					<g id="XMLID_832_">
						<path id="XMLID_534_" class="st6" d="M887.3,42.4h-1.8h-0.6v-0.6l1.2-3.6l-7.3-4.2l0,0l-6.6-9.7h-6c0,0-0.6,0-0.6-0.6
							l-4.2-11.5v-0.6h0.6l4.2,11.5h6h0.6l6.6,9.7l7.9,4.2c0,0,0.6,0.6,0,0.6l-1.2,3h1.2C887.9,41.8,887.9,41.8,887.3,42.4
							C887.9,42.4,887.9,42.4,887.3,42.4z"/>
					</g>
				</g>
			</g>
			<g id="XMLID_826_">
				<g id="XMLID_827_">
					<g id="XMLID_828_">
						<path id="XMLID_531_" class="st6" d="M855.3,58.1L855.3,58.1L851.1,43v-0.6c0.6,0,9.1-6,6.6-17.5l-4.8-20.5V3.7l4.8-2.4
							c0,0,0,0,0.6,0l0,0l1.8,5.4v0.6h-0.6l-1.8-4.8l-3.6,1.8l4.8,19.9c2.4,10.9-5.4,17.5-7.3,18.7l3.6,13.9
							C855.9,57.5,855.9,58.1,855.3,58.1L855.3,58.1z"/>
					</g>
				</g>
			</g>
			<g id="XMLID_822_">
				<g id="XMLID_823_">
					<g id="XMLID_824_">
						<path id="XMLID_528_" class="st6" d="M874.6,58.1C874.6,58.1,874,58.1,874.6,58.1c-0.6-24.8-15.1-26.6-15.7-26.6
							c0,0-0.6,0-0.6-0.6c0,0,0-0.6,0.6-0.6C858.9,30.3,875.3,32.1,874.6,58.1C875.3,58.1,875.3,58.1,874.6,58.1z"/>
					</g>
				</g>
			</g>
			<g id="XMLID_818_">
				<g id="XMLID_819_">
					<g id="XMLID_820_">
						<path id="XMLID_524_" class="st6" d="M918.8,58.1L918.8,58.1c-0.6,0-0.6-0.6-0.6-0.6l3.6-13.9c-1.8-1.2-9.1-7.3-7.3-18.7
							L919.3,5l-3-2.4l-7.9,21.8c0,0,0,0.6-0.6,0.6h-6l-6.6,9.7l0,0l-7.3,4.2l1.2,3.6V43c0,0,0,0-0.6,0h-1.8c0,0-0.6,0-0.6-0.6
							c0,0,0-0.6,0.6-0.6h1.2l-1.2-3v-0.6l7.9-4.2l6.6-9.7c0,0,0,0,0.6,0h6l8.5-21.8l0,0c0,0,0,0,0.6,0l4.8,2.4c0,0,0.6,0.6,0,0.6
							L917,26.1c-2.4,11.5,6.6,17.5,6.6,17.5v0.6L918.8,58.1C919.4,58.1,919.4,58.1,918.8,58.1z"/>
					</g>
				</g>
			</g>
			<g id="XMLID_814_">
				<g id="XMLID_815_">
					<g id="XMLID_816_">
						<path id="XMLID_521_" class="st6" d="M900,58.1C899.4,58.1,899.4,58.1,900,58.1c-0.6-7.9,0.6-13.9,3.6-18.7c0,0,0.6-0.6,0.6,0
							c0,0,0.6,0.6,0,0.6C901.8,44.2,900,50.3,900,58.1L900,58.1z"/>
					</g>
				</g>
			</g>
			<g id="XMLID_810_">
				<g id="XMLID_811_">
					<g id="XMLID_812_">
						<path id="XMLID_518_" class="st6" d="M909.7,33.9C909.7,33.9,909.1,33.9,909.7,33.9c-0.6-0.6-0.6-0.6,0-1.2c3-2.4,6-2.4,6-2.4
							s0.6,0,0.6,0.6c0,0,0,0.6-0.6,0.6C915.7,31.5,913.3,31.5,909.7,33.9L909.7,33.9z"/>
					</g>
				</g>
			</g>
		</g>
	</g>
	<g id="XMLID_774_">
		<g id="XMLID_804_">
			<g id="XMLID_805_">
				<g id="XMLID_806_">
					<path id="XMLID_515_" class="st0" d="M1005.6,41.8l1.2-3.6l-7.9-4.2l-6.6-9.7h-6.6l-7.9-22.4L973,4.3l4.8,20.5
						c2.4,12.1-7.3,18.1-7.3,18.1l4.2,14.5V66h63.5v-8.5l4.2-14.5c0,0-9.7-6-7.3-18.1l4.8-20.5l-4.8-2.4l-8.5,22.4h-6.6l-6.6,9.7
						l-7.9,4.2l1.2,3.6C1006.8,41.8,1005.6,41.8,1005.6,41.8z"/>
				</g>
			</g>
		</g>
		<g id="XMLID_775_">
			<g id="XMLID_800_">
				<g id="XMLID_801_">
					<g id="XMLID_802_">
						<path id="XMLID_512_" class="st6" d="M1037.6,66.6h-45.9c0,0-0.6,0-0.6-0.6s0-0.6,0.6-0.6h45.3v-7.3h-62.3v7.3h7.3
							c0,0,0.6,0,0.6,0.6s0,0.6-0.6,0.6h-7.9c0,0-0.6,0-0.6-0.6v-8.5c0,0,0-0.6,0.6-0.6h63.5c0,0,0.6,0,0.6,0.6L1037.6,66.6
							C1038.2,66,1038.2,66.6,1037.6,66.6z"/>
					</g>
				</g>
			</g>
			<g id="XMLID_796_">
				<g id="XMLID_797_">
					<g id="XMLID_798_">
						<path id="XMLID_509_" class="st6" d="M1006.8,42.4h-1.8h-0.6v-0.6l1.2-3.6l-7.3-4.2l0,0l-6.6-9.7h-6c0,0-0.6,0-0.6-0.6
							l-4.2-11.5v-0.6h0.6l4.2,11.5h6h0.6l6.6,9.7l7.9,4.2c0,0,0.6,0.6,0,0.6l-1.2,3h1.2C1006.8,41.2,1007.4,41.8,1006.8,42.4
							C1007.4,42.4,1006.8,42.4,1006.8,42.4z"/>
					</g>
				</g>
			</g>
			<g id="XMLID_792_">
				<g id="XMLID_793_">
					<g id="XMLID_794_">
						<path id="XMLID_506_" class="st6" d="M974.8,58.1C974.2,58.1,974.2,58.1,974.8,58.1L970.5,43v-0.6c0.6,0,9.1-6,6.6-17.5
							l-4.8-20.5V3.7l4.8-2.4c0,0,0,0,0.6,0l0,0l1.8,4.8v0.6H979l-1.8-4.2l-3.6,1.8l4.8,19.9c2.4,10.9-5.4,17.5-6.6,18.7l3.6,13.9
							C974.8,57.5,974.8,58.1,974.8,58.1L974.8,58.1z"/>
					</g>
				</g>
			</g>
			<g id="XMLID_788_">
				<g id="XMLID_789_">
					<g id="XMLID_790_">
						<path id="XMLID_503_" class="st6" d="M993.5,58.1C993.5,58.1,993.5,57.5,993.5,58.1c-0.6-24.8-15.1-26.6-15.7-26.6
							c0,0-0.6,0-0.6-0.6c0,0,0-0.6,0.6-0.6C978.4,30.3,994.1,32.1,993.5,58.1C994.1,57.5,994.1,58.1,993.5,58.1z"/>
					</g>
				</g>
			</g>
			<g id="XMLID_784_">
				<g id="XMLID_785_">
					<g id="XMLID_786_">
						<path id="XMLID_500_" class="st6" d="M1038.2,58.1C1037.6,58.1,1037.6,58.1,1038.2,58.1c-0.6,0-0.6-0.6-0.6-0.6l3.6-13.9
							c-1.8-1.2-9.1-7.3-7.3-18.7l4.8-19.9l-3-2.4l-7.9,21.8c0,0,0,0.6-0.6,0.6h-6l-6.6,9.7l0,0l-7.3,4.2l1.2,3.6V43c0,0,0,0-0.6,0
							h-1.8c0,0-0.6,0-0.6-0.6s0-0.6,0.6-0.6h1.2l-1.2-3v-0.6l7.9-4.2l6.6-9.7c0,0,0,0,0.6,0h6l8.5-21.8l0,0c0,0,0,0,0.6,0l4.8,2.4
							c0,0,0.6,0.6,0,0.6l-4.8,20.5c-2.4,11.5,6.6,17.5,6.6,17.5v0.6L1038.2,58.1L1038.2,58.1z"/>
					</g>
				</g>
			</g>
			<g id="XMLID_780_">
				<g id="XMLID_781_">
					<g id="XMLID_782_">
						<path id="XMLID_497_" class="st6" d="M1018.9,58.1C1018.3,58.1,1018.3,57.5,1018.9,58.1c-0.6-7.9,0.6-13.9,3.6-18.7
							c0,0,0.6-0.6,0.6,0c0,0,0.6,0.6,0,0.6C1020.7,44.2,1018.9,50.3,1018.9,58.1C1018.9,57.5,1018.9,58.1,1018.9,58.1z"/>
					</g>
				</g>
			</g>
			<g id="XMLID_776_">
				<g id="XMLID_777_">
					<g id="XMLID_778_">
						<path id="XMLID_494_" class="st6" d="M1028.6,33.9C1028.6,33.9,1028.6,33.3,1028.6,33.9c-0.6-0.6-0.6-0.6,0-1.2
							c3-2.4,6-2.4,6-2.4s0.6,0,0.6,0.6c0,0,0,0.6-0.6,0.6C1034.6,31.5,1032.2,31.5,1028.6,33.9
							C1028.6,33.3,1028.6,33.9,1028.6,33.9z"/>
					</g>
				</g>
			</g>
		</g>
	</g>
	<g id="XMLID_736_">
		<g id="XMLID_770_">
			<g id="XMLID_771_">
				<g id="XMLID_772_">
					<path id="XMLID_491_" class="st5" d="M1132.5,41.8l1.2-3.6l-7.9-4.8l-6.6-9.7h-6.6l-8.5-22.4l-4.8,2.4l4.8,21.2
						c2.4,12.1-7.3,18.1-7.3,18.1l4.2,14.5V66h64.7v-8.5L1170,43c0,0-9.7-6-7.3-18.1l4.8-21.2l-4.8-2.4l-8.5,22.4h-6.6l-6,9.7
						l-7.9,4.2l1.2,3.6h-2.4L1132.5,41.8L1132.5,41.8z"/>
				</g>
			</g>
		</g>
		<g id="XMLID_741_">
			<g id="XMLID_766_">
				<g id="XMLID_767_">
					<g id="XMLID_768_">
						<path id="XMLID_487_" class="st6" d="M1165.8,66.6h-46.5c0,0-0.6,0-0.6-0.6s0-0.6,0.6-0.6h45.9v-7.3h-62.9v7.3h7.3
							c0,0,0.6,0,0.6,0.6s0,0.6-0.6,0.6h-7.9c0,0-0.6,0-0.6-0.6v-8.5c0,0,0-0.6,0.6-0.6h64.7c0,0,0.6,0,0.6,0.6L1165.8,66.6
							C1166.4,66.6,1166.4,66.6,1165.8,66.6z"/>
					</g>
				</g>
			</g>
			<g id="XMLID_762_">
				<g id="XMLID_763_">
					<g id="XMLID_764_">
						<path id="XMLID_486_" class="st6" d="M1134.3,42.4h-1.8h-0.6v-0.6l1.2-3.6l-7.3-4.2l0,0l-6.6-9.7h-6c0,0-0.6,0-0.6-0.6
							l-4.2-11.5v-0.6h0.6l4.2,11.5h6h0.6l6.6,9.7l7.9,4.2c0,0,0.6,0.6,0,0.6l-1.2,3h1.2C1134.3,41.2,1134.9,41.8,1134.3,42.4
							C1134.9,41.8,1134.3,42.4,1134.3,42.4z"/>
					</g>
				</g>
			</g>
			<g id="XMLID_758_">
				<g id="XMLID_759_">
					<g id="XMLID_760_">
						<path id="XMLID_485_" class="st6" d="M1101.7,58.1C1101.7,58.1,1101.1,58.1,1101.7,58.1l-4.2-15.1v-0.6c0.6,0,9.7-6,6.6-18.1
							l-4.8-21.2V2.5l4.8-2.4c0,0,0,0,0.6,0l0,0l1.8,5.4v0.6h-0.6l-1.8-4.8l-3.6,1.8l4.8,20.5c2.4,11.5-5.4,17.5-7.3,18.7l3.6,14.5
							C1102.3,57.5,1102.3,58.1,1101.7,58.1L1101.7,58.1z"/>
					</g>
				</g>
			</g>
			<g id="XMLID_754_">
				<g id="XMLID_755_">
					<g id="XMLID_756_">
						<path id="XMLID_480_" class="st6" d="M1121,58.1C1121,58.1,1120.4,58.1,1121,58.1c-0.6-25.4-15.7-27.2-16.3-27.2
							c0,0-0.6,0-0.6-0.6c0,0,0-0.6,0.6-0.6S1121.6,32.1,1121,58.1C1121.6,58.1,1121.6,58.1,1121,58.1z"/>
					</g>
				</g>
			</g>
			<g id="XMLID_750_">
				<g id="XMLID_751_">
					<g id="XMLID_752_">
						<path id="XMLID_479_" class="st6" d="M1165.8,58.1L1165.8,58.1c-0.6,0-0.6-0.6-0.6-0.6l3.6-14.5c-1.8-1.2-9.7-7.9-7.3-18.7
							l4.8-20.5l-3.6-1.8l-8.5,21.8c0,0,0,0.6-0.6,0.6h-6l-6.6,9.7l0,0l-7.3,4.2l1.2,3.6v0.6c0,0,0,0-0.6,0h-1.8c0,0-0.6,0-0.6-0.6
							s0-0.6,0.6-0.6h1.2l-1.2-3v-0.6l7.9-4.2l6.6-9.7c0,0,0,0,0.6,0h6l8.5-22.4l0,0c0,0,0,0,0.6,0l4.8,2.4c0,0,0.6,0.6,0,0.6
							l-4.8,21.2c-2.4,11.5,6.6,17.5,6.6,18.1v0.6L1165.8,58.1C1166.4,58.1,1166.4,58.1,1165.8,58.1z"/>
					</g>
				</g>
			</g>
			<g id="XMLID_746_">
				<g id="XMLID_747_">
					<g id="XMLID_748_">
						<path id="XMLID_473_" class="st6" d="M1146.4,58.1C1146.4,58.1,1145.8,58.1,1146.4,58.1c-0.6-7.9,0.6-14.5,3.6-18.7
							c0,0,0.6-0.6,0.6,0c0,0,0.6,0.6,0,0.6C1148.2,44.2,1147,50.3,1146.4,58.1C1147,58.1,1147,58.1,1146.4,58.1z"/>
					</g>
				</g>
			</g>
			<g id="XMLID_742_">
				<g id="XMLID_743_">
					<g id="XMLID_744_">
						<path id="XMLID_469_" class="st6" d="M1156.7,33.3C1156.7,33.3,1156.1,33.3,1156.7,33.3c-0.6-0.6-0.6-0.6,0-1.2
							c3-2.4,6-2.4,6-2.4s0.6,0,0.6,0.6c0,0,0,0.6-0.6,0.6C1162.7,30.9,1159.7,31.5,1156.7,33.3L1156.7,33.3z"/>
					</g>
				</g>
			</g>
		</g>
		<g id="XMLID_737_">
			<g id="XMLID_738_">
				<g id="XMLID_739_">
					<path id="XMLID_465_" class="st8" d="M1133.7,33.9"/>
				</g>
			</g>
		</g>
	</g>
	<g id="XMLID_692_">
		<g id="XMLID_729_">
			<g id="XMLID_730_">
				<g id="XMLID_731_">
					<g id="XMLID_732_">
						<path id="XMLID_733_" class="st0" d="M1032.4,97.9h-50.9l-8.9,25.5c0,0,18.9,13.6,26.1,31.4h16c7.1-17.8,26.1-31.4,26.1-31.4
							L1032.4,97.9z M1007,118.6l-3-3.6h5.9L1007,118.6z"/>
					</g>
				</g>
			</g>
		</g>
		<g id="XMLID_725_">
			<g id="XMLID_726_">
				<g id="XMLID_727_">
					<polygon id="XMLID_455_" class="st9" points="981.5,97.9 1032.4,97.9 1007,109.1 					"/>
				</g>
			</g>
		</g>
		<g id="XMLID_693_">
			<g id="XMLID_700_">
				<g id="XMLID_721_">
					<g id="XMLID_722_">
						<g id="XMLID_723_">
							<path id="XMLID_450_" class="st6" d="M1006.4,155.3h-7.7c0,0-0.6,0-0.6-0.6c-7.1-17.2-26.1-30.8-26.1-30.8v-0.6l8.3-25.5
								c0,0,0-0.6,0.6-0.6h25.5c0,0,0.6,0,0.6,0.6s0,0.6-0.6,0.6h-25.5l-8.3,24.9c2.4,1.8,18.9,14.8,26.1,30.8h7.7
								C1007,154.1,1007,154.1,1006.4,155.3C1007,154.7,1007,155.3,1006.4,155.3z"/>
						</g>
					</g>
				</g>
				<g id="XMLID_717_">
					<g id="XMLID_718_">
						<g id="XMLID_719_">
							<path id="XMLID_449_" class="st6" d="M1006.4,109.7L1006.4,109.7l-7.7-3.6c0,0-0.6-0.6,0-0.6c0,0,0.6-0.6,0.6,0l7.7,3.6
								C1007,109.1,1007,109.1,1006.4,109.7C1007,109.7,1007,109.7,1006.4,109.7z"/>
						</g>
					</g>
				</g>
				<g id="XMLID_713_">
					<g id="XMLID_714_">
						<g id="XMLID_715_">
							<path id="XMLID_443_" class="st6" d="M991.6,103.2L991.6,103.2l-10.7-4.7c0,0-0.6-0.6,0-0.6c0,0,0.6-0.6,0.6,0l10.7,4.7
								C992.2,102.6,992.2,102.6,991.6,103.2C992.2,103.2,992.2,103.2,991.6,103.2z"/>
						</g>
					</g>
				</g>
				<g id="XMLID_709_">
					<g id="XMLID_710_">
						<g id="XMLID_711_">
							<path id="XMLID_439_" class="st6" d="M1014.7,155.3h-7.7c0,0-0.6,0-0.6-0.6s0-0.6,0.6-0.6h7.1c7.1-16,23.7-29,26.1-30.8
								l-8.3-24.9h-25.5c0,0-0.6,0-0.6-0.6s0-0.6,0.6-0.6h25.5c0,0,0.6,0,0.6,0.6l8.3,25.5v0.6
								C1040.7,123.9,1022.4,137.6,1014.7,155.3C1014.7,154.7,1014.7,155.3,1014.7,155.3z"/>
						</g>
					</g>
				</g>
				<g id="XMLID_705_">
					<g id="XMLID_706_">
						<g id="XMLID_707_">
							<path id="XMLID_435_" class="st6" d="M1006.4,109.7L1006.4,109.7c-0.6-0.6-0.6-0.6,0-1.2l8.3-3.6h0.6v0.6L1006.4,109.7
								C1007,109.7,1006.4,109.7,1006.4,109.7z"/>
						</g>
					</g>
				</g>
				<g id="XMLID_701_">
					<g id="XMLID_702_">
						<g id="XMLID_703_">
							<path id="XMLID_430_" class="st6" d="M1022.4,102.6C1021.8,102.6,1021.8,102.6,1022.4,102.6c-0.6-0.6-0.6-0.6,0-1.2l10.1-4.1
								h0.6v0.6L1022.4,102.6L1022.4,102.6z"/>
						</g>
					</g>
				</g>
			</g>
			<g id="XMLID_694_">
				<g id="XMLID_695_">
					<g id="XMLID_696_">
						<path id="XMLID_697_" class="st6" d="M1007,119.2C1007,119.2,1006.4,119.2,1007,119.2l-3.6-4.1v-0.6c0,0,0,0,0.6,0h5.9h0.6
							v0.6L1007,119.2L1007,119.2z M1005.2,115.1l1.8,2.4l1.8-2.4H1005.2z"/>
					</g>
				</g>
			</g>
		</g>
	</g>
	<g id="XMLID_653_">
		<g id="XMLID_686_">
			<g id="XMLID_687_">
				<g id="XMLID_688_">
					<path id="XMLID_689_" class="st5" d="M1159.8,97.3h-52.1l-8.9,26.1c0,0,19.5,13.6,26.6,32h16c7.7-17.8,26.6-32,26.6-32
						L1159.8,97.3z M1133.7,118l-3-3.6h5.9L1133.7,118z"/>
				</g>
			</g>
		</g>
		<g id="XMLID_654_">
			<g id="XMLID_661_">
				<g id="XMLID_682_">
					<g id="XMLID_683_">
						<g id="XMLID_684_">
							<path id="XMLID_412_" class="st6" d="M1133.1,155.9h-8.3c0,0-0.6,0-0.6-0.6c-7.1-17.8-26.6-31.4-26.6-31.4v-0.6l8.9-26.1
								c0,0,0-0.6,0.6-0.6h26.1c0,0,0.6,0,0.6,0.6s0,0.6-0.6,0.6h-26.1l-8.3,25.5c2.4,1.8,19.5,14.8,26.6,31.4h7.7
								C1133.7,154.7,1133.7,154.7,1133.1,155.9C1133.7,155.3,1133.7,155.9,1133.1,155.9z"/>
						</g>
					</g>
				</g>
				<g id="XMLID_678_">
					<g id="XMLID_679_">
						<g id="XMLID_680_">
							<path id="XMLID_407_" class="st6" d="M1133.1,109.1L1133.1,109.1l-7.7-3.6c0,0-0.6-0.6,0-0.6c0,0,0.6-0.6,0.6,0l7.7,3.6
								C1133.7,108.5,1133.7,108.5,1133.1,109.1C1133.7,109.1,1133.7,109.1,1133.1,109.1z"/>
						</g>
					</g>
				</g>
				<g id="XMLID_674_">
					<g id="XMLID_675_">
						<g id="XMLID_676_">
							<path id="XMLID_404_" class="st6" d="M1118.3,102.6L1118.3,102.6l-11.3-4.7c0,0-0.6-0.6,0-0.6c0,0,0.6-0.6,0.6,0l11.3,4.7
								C1118.9,101.4,1118.9,102,1118.3,102.6L1118.3,102.6z"/>
						</g>
					</g>
				</g>
				<g id="XMLID_670_">
					<g id="XMLID_671_">
						<g id="XMLID_672_">
							<path id="XMLID_403_" class="st6" d="M1141.4,155.9h-8.3c0,0-0.6,0-0.6-0.6s0-0.6,0.6-0.6h7.7c7.1-16.6,24.3-29.6,26.6-31.4
								l-8.3-25.5H1133c0,0-0.6,0-0.6-0.6s0-0.6,0.6-0.6h26.1c0,0,0.6,0,0.6,0.6l8.9,26.1v0.6
								C1168.1,123.9,1149.1,137.6,1141.4,155.9C1142,155.3,1141.4,155.9,1141.4,155.9z"/>
						</g>
					</g>
				</g>
				<g id="XMLID_666_">
					<g id="XMLID_667_">
						<g id="XMLID_668_">
							<path id="XMLID_399_" class="st6" d="M1133.1,109.1L1133.1,109.1c-0.6-0.6-0.6-0.6,0-1.2l8.3-3.6h0.6v0.6L1133.1,109.1
								C1133.7,109.1,1133.1,109.1,1133.1,109.1z"/>
						</g>
					</g>
				</g>
				<g id="XMLID_662_">
					<g id="XMLID_663_">
						<g id="XMLID_664_">
							<path id="XMLID_395_" class="st6" d="M1149.1,102C1149.1,102,1148.5,102,1149.1,102c-0.6-0.6-0.6-0.6,0-1.2l10.1-4.7h0.6v0.6
								L1149.1,102L1149.1,102z"/>
						</g>
					</g>
				</g>
			</g>
			<g id="XMLID_655_">
				<g id="XMLID_656_">
					<g id="XMLID_657_">
						<path id="XMLID_658_" class="st6" d="M1133.7,118.6C1133.7,118.6,1133.1,118.6,1133.7,118.6l-3.6-4.1v-0.6c0,0,0,0,0.6,0h5.9
							h0.6v0.6L1133.7,118.6L1133.7,118.6z M1132,115.1l1.8,2.4l1.8-2.4H1132z"/>
					</g>
				</g>
			</g>
		</g>
	</g>
	<g id="XMLID_548_">
		<g id="XMLID_646_">
			<g id="XMLID_647_">
				<g id="XMLID_648_">
					<g id="XMLID_649_">
						<path id="XMLID_650_" class="st3" d="M911.6,97.3h-50.3l-8.3,24.9c0,0,18.4,13,26.1,30.8h15.4c7.1-17.2,26.1-30.8,26.1-30.8
							L911.6,97.3z M886.7,117.4l-3-3.6h5.9L886.7,117.4z"/>
					</g>
				</g>
			</g>
		</g>
		<g id="XMLID_642_">
			<g id="XMLID_643_">
				<g id="XMLID_644_">
					<polygon id="XMLID_381_" class="st9" points="861.3,97.3 911.6,97.3 886.7,108.5 					"/>
				</g>
			</g>
		</g>
		<g id="XMLID_551_">
			<g id="XMLID_572_">
				<g id="XMLID_636_">
					<g id="XMLID_639_">
						<g id="XMLID_640_">
							<path id="XMLID_377_" class="st6" d="M886.7,153.5H879c0,0-0.6,0-0.6-0.6c-7.1-17.2-25.5-30.2-25.5-30.2v-0.6l8.3-24.9
								c0,0,0-0.6,0.6-0.6h24.9c0,0,0.6,0,0.6,0.6s0,0.6-0.6,0.6h-24.9l-8.3,24.3c2.4,1.8,18.9,14.2,25.5,30.2h7.7
								C886.7,152.4,887.3,152.9,886.7,153.5C887.3,152.9,886.7,153.5,886.7,153.5z"/>
						</g>
					</g>
				</g>
				<g id="XMLID_623_">
					<g id="XMLID_626_">
						<g id="XMLID_630_">
							<path id="XMLID_375_" class="st6" d="M886.7,109.1L886.7,109.1l-7.7-3.6c0,0-0.6-0.6,0-0.6c0,0,0.6-0.6,0.6,0l7.1,3
								C887.3,107.9,887.3,108.5,886.7,109.1C886.7,108.5,886.7,109.1,886.7,109.1z"/>
						</g>
					</g>
				</g>
				<g id="XMLID_611_">
					<g id="XMLID_614_">
						<g id="XMLID_617_">
							<path id="XMLID_371_" class="st6" d="M871.9,102.6L871.9,102.6l-10.7-4.7c0,0-0.6-0.6,0-0.6c0,0,0.6-0.6,0.6,0l10.7,4.7
								C872.5,101.4,872.5,102,871.9,102.6C872.5,102.6,872.5,102.6,871.9,102.6z"/>
						</g>
					</g>
				</g>
				<g id="XMLID_599_">
					<g id="XMLID_602_">
						<g id="XMLID_605_">
							<path id="XMLID_370_" class="st6" d="M894.4,153.5h-7.7c0,0-0.6,0-0.6-0.6s0-0.6,0.6-0.6h7.1c6.5-16,23.1-28.4,25.5-30.2
								L911,97.9h-24.3c0,0-0.6,0-0.6-0.6s0-0.6,0.6-0.6h24.9c0,0,0.6,0,0.6,0.6l8.3,24.9v0.6C920.5,122.7,902.1,136.4,894.4,153.5
								L894.4,153.5z"/>
						</g>
					</g>
				</g>
				<g id="XMLID_588_">
					<g id="XMLID_589_">
						<g id="XMLID_593_">
							<path id="XMLID_365_" class="st6" d="M886.7,109.1C886.1,109.1,886.1,108.5,886.7,109.1c-0.6-0.6-0.6-0.6,0-1.2l8.3-3.6h0.6
								v0.6L886.7,109.1L886.7,109.1z"/>
						</g>
					</g>
				</g>
				<g id="XMLID_575_">
					<g id="XMLID_579_">
						<g id="XMLID_582_">
							<path id="XMLID_361_" class="st6" d="M902.1,102C901.5,102,901.5,102,902.1,102c-0.6-0.6-0.6-0.6,0-1.2l10.1-4.1h0.6v0.6
								L902.1,102L902.1,102z"/>
						</g>
					</g>
				</g>
			</g>
			<g id="XMLID_554_">
				<g id="XMLID_557_">
					<g id="XMLID_560_">
						<path id="XMLID_563_" class="st6" d="M886.7,118L886.7,118l-3-3.6v-0.6c0,0,0,0,0.6,0h5.9h0.6v0.6L886.7,118
							C887.3,118,887.3,118,886.7,118z M885,114.5l1.8,2.4l1.8-2.4H885z"/>
					</g>
				</g>
			</g>
		</g>
	</g>
</g>
</svg>
