<?xml version="1.0" encoding="utf-8"?>
<!-- Generator: Adobe Illustrator 19.0.0, SVG Export Plug-In . SVG Version: 6.00 Build 0)  -->
<svg version="1.1" id="Layer_1" xmlns="http://www.w3.org/2000/svg" xmlns:xlink="http://www.w3.org/1999/xlink" x="0px" y="0px"
	 width="1170.1px" height="159px" viewBox="0 0 1170.1 159" style="enable-background:new 0 0 1170.1 159;" xml:space="preserve">
<style type="text/css">
	.st0{fill:#70B1AD;}
	.st1{fill:#767676;}
	.st2{fill:#181815;}
	.st3{fill:#BB555C;}
	.st4{fill:#6BA7A3;}
	.st5{fill:#B14452;}
	.st6{fill:#7A7879;}
	.st7{fill:none;stroke:#7A7879;stroke-linecap:round;stroke-linejoin:round;stroke-miterlimit:10;}
	.st8{fill:#171714;}
	.st9{fill:#5F9E9A;}
	.st10{fill:#21201F;}
</style>
<g id="XMLID_6_">
	<g id="XMLID_305_">
		<g id="XMLID_321_">
			<g id="XMLID_322_">
				<g id="XMLID_323_">
					<g id="XMLID_324_">
						<path id="XMLID_325_" class="st0" d="M19.9,112.7c0,0,11.4,5.1,20.5,42.7h10.8c9.1-37.6,20.5-42.7,20.5-42.7H19.9z
							 M46.2,122.4l-2.8-4h6.3L46.2,122.4z"/>
					</g>
				</g>
			</g>
		</g>
		<g id="XMLID_306_">
			<g id="XMLID_315_">
				<g id="XMLID_316_">
					<g id="XMLID_317_">
						<path id="XMLID_318_" class="st1" d="M45.6,122.9L45.6,122.9L45.6,122.9l-3.4-4v-0.6c0,0,0,0,0.6,0H49h0.6v0.6L45.6,122.9
							C46.2,122.9,45.6,122.9,45.6,122.9z M43.3,119l2.3,2.8l2.3-2.8H43.3z"/>
					</g>
				</g>
			</g>
			<g id="XMLID_311_">
				<g id="XMLID_312_">
					<g id="XMLID_313_">
						<path id="XMLID_72_" class="st1" d="M45.6,156h-5.1c0,0-0.6,0-0.6-0.6c-8.5-35.3-19.4-42.2-20.5-42.7H9.7c0,0-0.6,0-0.6-0.6
							c0-0.6,0-0.6,0.6-0.6h71.8c0,0,0.6,0,0.6,0.6c0,0.6,0,0.6-0.6,0.6H21.7c3.4,2.8,12,12,19.4,41.6h5.1
							C46.2,154.9,46.2,155.4,45.6,156C46.2,155.4,46.2,156,45.6,156z"/>
					</g>
				</g>
			</g>
			<g id="XMLID_307_">
				<g id="XMLID_308_">
					<g id="XMLID_309_">
						<path id="XMLID_71_" class="st1" d="M51.3,156h-5.1c0,0-0.6,0-0.6-0.6c0-0.6,0-0.6,0.6-0.6h5.1c6.8-29.6,16-39.3,18.8-41.6
							H10.3c0,0-0.6,0-0.6-0.6s0-0.6,0.6-0.6h71.8c0,0,0.6,0,0.6,0.6s0,0.6-0.6,0.6H71.8c-0.6,0-2.8,1.7-6.8,7.4
							C61.5,125.8,56.4,136.1,51.3,156C51.9,156,51.3,156,51.3,156z"/>
					</g>
				</g>
			</g>
		</g>
	</g>
	<g id="XMLID_282_">
		<g id="XMLID_298_">
			<g id="XMLID_299_">
				<g id="XMLID_300_">
					<g id="XMLID_301_">
						<path id="XMLID_302_" class="st2" d="M151.4,112.7c0,0,11.4,5.1,20.5,42.7h10.8c9.1-37.6,20.5-42.7,20.5-42.7H151.4z
							 M177,122.4l-2.8-4h6.3L177,122.4z"/>
					</g>
				</g>
			</g>
		</g>
		<g id="XMLID_283_">
			<g id="XMLID_292_">
				<g id="XMLID_293_">
					<g id="XMLID_294_">
						<path id="XMLID_295_" class="st1" d="M176.4,122.9L176.4,122.9L176.4,122.9l-3.4-4v-0.6c0,0,0,0,0.6,0h6.3h0.6v0.6
							L176.4,122.9C177,122.9,177,122.9,176.4,122.9z M174.7,119l2.3,2.8l2.3-2.8H174.7z"/>
					</g>
				</g>
			</g>
			<g id="XMLID_288_">
				<g id="XMLID_289_">
					<g id="XMLID_290_">
						<path id="XMLID_66_" class="st1" d="M177,156h-5.1c0,0-0.6,0-0.6-0.6c-8.5-35.3-19.4-42.2-20.5-42.7h-9.7c0,0-0.6,0-0.6-0.6
							c0-0.6,0-0.6,0.6-0.6h71.8c0,0,0.6,0,0.6,0.6c0,0.6,0,0.6-0.6,0.6h-60.4c3.4,2.8,12,12,19.4,41.6h5.1
							C177,154.9,177,155.4,177,156C177,155.4,177,156,177,156z"/>
					</g>
				</g>
			</g>
			<g id="XMLID_284_">
				<g id="XMLID_285_">
					<g id="XMLID_286_">
						<path id="XMLID_65_" class="st1" d="M182.1,156H177c0,0-0.6,0-0.6-0.6c0-0.6,0-0.6,0.6-0.6h5.1c6.8-29.6,16-39.3,18.8-41.6
							h-59.8c0,0-0.6,0-0.6-0.6s0-0.6,0.6-0.6h71.8c0,0,0.6,0,0.6,0.6s0,0.6-0.6,0.6h-10.3c-0.6,0-2.8,1.7-6.8,7.4
							C192.4,125.8,187.3,136.1,182.1,156C182.7,156,182.7,156,182.1,156z"/>
					</g>
				</g>
			</g>
		</g>
	</g>
	<g id="XMLID_253_">
		<g id="XMLID_269_">
			<g id="XMLID_276_">
				<g id="XMLID_277_">
					<g id="XMLID_278_">
						<path id="XMLID_279_" class="st3" d="M279.6,112.7c0,0,11.4,5.1,20.5,42.7H311c9.1-37.6,20.5-42.7,20.5-42.7H279.6z
							 M305.3,122.4l-2.8-4h6.3L305.3,122.4z"/>
					</g>
				</g>
			</g>
			<g id="XMLID_270_">
				<g id="XMLID_271_">
					<g id="XMLID_272_">
						<path id="XMLID_273_" class="st1" d="M305.3,122.9L305.3,122.9L305.3,122.9l-3.4-4v-0.6c0,0,0,0,0.6,0h6.3h0.6v0.6
							L305.3,122.9C305.8,122.9,305.8,122.9,305.3,122.9z M303.6,119l2.3,2.8l2.3-2.8H303.6z"/>
					</g>
				</g>
			</g>
		</g>
		<g id="XMLID_254_">
			<g id="XMLID_263_">
				<g id="XMLID_264_">
					<g id="XMLID_265_">
						<path id="XMLID_266_" class="st1" d="M305.3,122.9L305.3,122.9C304.7,122.9,304.7,122.9,305.3,122.9l-3.4-4v-0.6
							c0,0,0,0,0.6,0h6.3h0.6v0.6L305.3,122.9L305.3,122.9z M303,119l2.3,2.8l2.3-2.8H303z"/>
					</g>
				</g>
			</g>
			<g id="XMLID_259_">
				<g id="XMLID_260_">
					<g id="XMLID_261_">
						<path id="XMLID_58_" class="st1" d="M305.3,156h-5.1c0,0-0.6,0-0.6-0.6c-8.5-35.3-19.4-42.2-20.5-42.7h-9.7c0,0-0.6,0-0.6-0.6
							c0-0.6,0-0.6,0.6-0.6h71.8c0,0,0.6,0,0.6,0.6c0,0.6,0,0.6-0.6,0.6h-60.4c3.4,2.8,12,12,19.4,41.6h5.1
							C305.3,154.9,305.8,155.4,305.3,156C305.8,155.4,305.3,156,305.3,156z"/>
					</g>
				</g>
			</g>
			<g id="XMLID_255_">
				<g id="XMLID_256_">
					<g id="XMLID_257_">
						<path id="XMLID_57_" class="st1" d="M311,156h-5.1c0,0-0.6,0-0.6-0.6c0-0.6,0-0.6,0.6-0.6h5.1c6.8-29.6,16-39.3,18.8-41.6
							h-60.4c0,0-0.6,0-0.6-0.6s0-0.6,0.6-0.6h71.8c0,0,0.6,0,0.6,0.6s0,0.6-0.6,0.6h-10.3c-0.6,0-2.8,1.7-6.8,7.4
							C321.2,125.8,315.5,136.1,311,156L311,156z"/>
					</g>
				</g>
			</g>
		</g>
	</g>
	<g id="XMLID_185_">
		<g id="XMLID_240_">
			<g id="XMLID_249_">
				<g id="XMLID_250_">
					<g id="XMLID_251_">
						<path id="XMLID_56_" class="st3" d="M275.6,36.5l29.6,30.8l-8,8h-37.6C259.7,75.2,265.4,51.3,275.6,36.5"/>
					</g>
				</g>
			</g>
			<g id="XMLID_245_">
				<g id="XMLID_246_">
					<g id="XMLID_247_">
						<path id="XMLID_55_" class="st3" d="M275.6,75.2"/>
					</g>
				</g>
			</g>
			<g id="XMLID_241_">
				<g id="XMLID_242_">
					<g id="XMLID_243_">
						<path id="XMLID_54_" class="st3" d="M275.6,36.5"/>
					</g>
				</g>
			</g>
		</g>
		<g id="XMLID_227_">
			<g id="XMLID_236_">
				<g id="XMLID_237_">
					<g id="XMLID_238_">
						<path id="XMLID_53_" class="st3" d="M334.9,35.9l-29.6,30.8l8,8h37.6C350.9,75.2,345.2,51.3,334.9,35.9"/>
					</g>
				</g>
			</g>
			<g id="XMLID_232_">
				<g id="XMLID_233_">
					<g id="XMLID_234_">
						<path id="XMLID_52_" class="st3" d="M334.9,75.2"/>
					</g>
				</g>
			</g>
			<g id="XMLID_228_">
				<g id="XMLID_229_">
					<g id="XMLID_230_">
						<path id="XMLID_51_" class="st3" d="M334.9,35.9"/>
					</g>
				</g>
			</g>
		</g>
		<g id="XMLID_186_">
			<g id="XMLID_223_">
				<g id="XMLID_224_">
					<g id="XMLID_225_">
						<path id="XMLID_50_" class="st1" d="M350.9,75.8h-91.2c0,0-0.6,0-0.6-0.6c0-0.6,0-0.6,0.6-0.6h91.2
							C351.4,74.7,351.4,74.7,350.9,75.8C351.4,75.2,351.4,75.8,350.9,75.8z"/>
					</g>
				</g>
			</g>
			<g id="XMLID_219_">
				<g id="XMLID_220_">
					<g id="XMLID_221_">
						<path id="XMLID_49_" class="st1" d="M259.7,75.8L259.7,75.8c-0.6,0-0.6-0.6-0.6-0.6s5.7-23.9,16-39.3c0,0,0,0,0.6,0h0.6
							l37.6,39.3v0.6h-0.6l-37-38.8C265.9,51.9,260.2,75.2,259.7,75.8C260.2,75.2,259.7,75.8,259.7,75.8z"/>
					</g>
				</g>
			</g>
			<g id="XMLID_215_">
				<g id="XMLID_216_">
					<g id="XMLID_217_">
						<path id="XMLID_48_" class="st1" d="M350.9,75.8C350.9,75.8,350.3,75.2,350.9,75.8c-0.6-0.6-5.7-23.9-16-38.8l-37,38.8h-0.6
							v-0.6l37.6-39.3c0,0,0,0,0.6,0c0,0,0,0,0.6,0c10.3,15.4,16,39.3,16,39.3C351.4,75.2,351.4,75.8,350.9,75.8L350.9,75.8z"/>
					</g>
				</g>
			</g>
			<g id="XMLID_211_">
				<g id="XMLID_212_">
					<g id="XMLID_213_">
						<path id="XMLID_47_" class="st1" d="M275.6,75.8C275.6,75.8,275.1,75.2,275.6,75.8l-0.6-39.3c0,0,0-0.6,0.6-0.6
							c0,0,0.6,0,0.6,0.6L275.6,75.8C276.2,75.2,276.2,75.8,275.6,75.8z"/>
					</g>
				</g>
			</g>
			<g id="XMLID_207_">
				<g id="XMLID_208_">
					<g id="XMLID_209_">
						<path id="XMLID_46_" class="st1" d="M334.9,75.8C334.3,75.8,334.3,75.2,334.9,75.8l-0.6-41.6c0,0,0-0.6,0.6-0.6
							c0.6,0,0.6,0,0.6,0.6L334.9,75.8C335.5,75.2,334.9,75.8,334.9,75.8z"/>
					</g>
				</g>
			</g>
			<g id="XMLID_203_">
				<g id="XMLID_204_">
					<g id="XMLID_205_">
						<path id="XMLID_45_" class="st1" d="M316.7,71.8L316.7,71.8l-5.1-5.7v-0.6h0.6l4.6,5.7C317.2,71.2,317.2,71.8,316.7,71.8
							C317.2,71.8,317.2,71.8,316.7,71.8z"/>
					</g>
				</g>
			</g>
			<g id="XMLID_199_">
				<g id="XMLID_200_">
					<g id="XMLID_201_">
						<path id="XMLID_44_" class="st1" d="M293.3,71.8L293.3,71.8c-0.6-0.6-0.6-0.6-0.6-0.6l5.1-5.7h0.6v0.6L293.3,71.8
							C293.9,71.8,293.3,71.8,293.3,71.8z"/>
					</g>
				</g>
			</g>
			<g id="XMLID_195_">
				<g id="XMLID_196_">
					<g id="XMLID_197_">
						<path id="XMLID_43_" class="st1" d="M275.6,36.5C275.6,36.5,275.1,36.5,275.6,36.5l-0.6-35.9c0,0,0-0.6,0.6-0.6
							c0,0,0.6,0,0.6,0.6L275.6,36.5C276.2,36.5,276.2,36.5,275.6,36.5z"/>
					</g>
				</g>
			</g>
			<g id="XMLID_191_">
				<g id="XMLID_192_">
					<g id="XMLID_193_">
						<path id="XMLID_42_" class="st1" d="M334.9,36.5C334.3,36.5,334.3,36.5,334.9,36.5l-0.6-14.8c0,0,0-0.6,0.6-0.6
							c0.6,0,0.6,0,0.6,0.6L334.9,36.5C335.5,36.5,334.9,36.5,334.9,36.5z"/>
					</g>
				</g>
			</g>
			<g id="XMLID_187_">
				<g id="XMLID_188_">
					<g id="XMLID_189_">
						<path id="XMLID_41_" class="st1" d="M334.9,14.8C334.3,14.8,334.3,14.8,334.9,14.8l-0.6-14.2c0,0,0-0.6,0.6-0.6
							c0.6,0,0.6,0,0.6,0.6L334.9,14.8C335.5,14.8,334.9,14.8,334.9,14.8z"/>
					</g>
				</g>
			</g>
		</g>
	</g>
	<g id="XMLID_132_">
		<g id="XMLID_133_">
			<g id="XMLID_1_">
				<g id="XMLID_166_">
					<g id="XMLID_182_">
						<g id="XMLID_183_">
							<path id="XMLID_40_" class="st0" d="M75.8,35.9c10.8,15.4,16,39.3,16,39.3h-16V35.9L75.8,35.9z"/>
						</g>
					</g>
					<g id="XMLID_179_">
						<g id="XMLID_180_">
							<polygon id="XMLID_39_" class="st0" points="75.8,35.9 75.8,75.2 54.1,75.2 46.2,66.7 46.2,66.7 							"/>
						</g>
					</g>
					<g id="XMLID_176_">
						<g id="XMLID_177_">
							<polygon id="XMLID_38_" class="st3" points="46.2,67.2 46.2,67.2 38.2,75.2 38.2,75.2 							"/>
						</g>
					</g>
					<g id="XMLID_173_">
						<g id="XMLID_174_">
							<polygon id="XMLID_37_" class="st0" points="16.5,36.5 46.2,67.2 38.2,75.2 16.5,75.2 							"/>
						</g>
					</g>
					<g id="XMLID_170_">
						<g id="XMLID_171_">
							<path id="XMLID_36_" class="st3" d="M38.2,75.2L38.2,75.2L38.2,75.2H0.6l0,0h16H38.2z"/>
						</g>
					</g>
					<g id="XMLID_167_">
						<g id="XMLID_168_">
							<path id="XMLID_35_" class="st0" d="M16.5,35.9L16.5,35.9v38.8h-16C1.1,72.9,6.8,50.7,16.5,35.9z"/>
						</g>
					</g>
				</g>
				<g id="XMLID_135_">
					<g id="XMLID_163_">
						<g id="XMLID_164_">
							<path id="XMLID_34_" class="st1" d="M91.8,75.8H0.6c0,0-0.6,0-0.6-0.6c0,0,0-0.6,0.6-0.6h91.2C91.8,74.7,92.3,74.7,91.8,75.8
								C92.3,75.2,91.8,75.8,91.8,75.8z"/>
						</g>
					</g>
					<g id="XMLID_160_">
						<g id="XMLID_161_">
							<path id="XMLID_33_" class="st1" d="M0.6,75.8L0.6,75.8C0,75.8,0,75.2,0,75.2s5.7-23.9,16-39.3c0,0,0,0,0.6,0h0.6l37.6,39.3
								v0.6h-0.6L17.1,37C6.3,51.9,1.1,75.2,0.6,75.8C1.1,75.2,0.6,75.8,0.6,75.8z"/>
						</g>
					</g>
					<g id="XMLID_157_">
						<g id="XMLID_158_">
							<path id="XMLID_32_" class="st1" d="M91.8,75.8C91.8,75.8,91.2,75.2,91.8,75.8c-0.6-0.6-5.7-23.9-16-38.8l-37,38.8h-0.6v-0.6
								l37.6-39.3c0,0,0,0,0.6,0c0,0,0,0,0.6,0c10.3,15.4,16,39.3,16,39.3C92.3,75.2,92.3,75.8,91.8,75.8L91.8,75.8z"/>
						</g>
					</g>
					<g id="XMLID_154_">
						<g id="XMLID_155_">
							<path id="XMLID_31_" class="st1" d="M16.5,75.8C16.5,75.8,16,75.2,16.5,75.8L16,36.5c0,0,0-0.6,0.6-0.6c0.6,0,0.6,0,0.6,0.6
								L16.5,75.8C17.1,75.2,17.1,75.8,16.5,75.8z"/>
						</g>
					</g>
					<g id="XMLID_151_">
						<g id="XMLID_152_">
							<path id="XMLID_30_" class="st1" d="M75.8,75.8C75.2,75.8,75.2,75.2,75.8,75.8l-0.6-39.3c0,0,0-0.6,0.6-0.6s0.6,0,0.6,0.6
								L75.8,75.8C76.4,75.2,75.8,75.8,75.8,75.8z"/>
						</g>
					</g>
					<g id="XMLID_148_">
						<g id="XMLID_149_">
							<path id="XMLID_29_" class="st1" d="M57.6,71.8L57.6,71.8l-5.1-5.7v-0.6H53l4.6,5.7C58.1,71.2,58.1,71.8,57.6,71.8
								C58.1,71.8,57.6,71.8,57.6,71.8z"/>
						</g>
					</g>
					<g id="XMLID_145_">
						<g id="XMLID_146_">
							<path id="XMLID_28_" class="st1" d="M34.2,71.8L34.2,71.8c-0.6-0.6-0.6-0.6-0.6-0.6l5.1-5.7h0.6v0.6L34.2,71.8
								C34.8,71.8,34.2,71.8,34.2,71.8z"/>
						</g>
					</g>
					<g id="XMLID_142_">
						<g id="XMLID_143_">
							<path id="XMLID_27_" class="st1" d="M16.5,36.5C16.5,36.5,16,36.5,16.5,36.5L16,0.6c0,0,0-0.6,0.6-0.6c0.6,0,0.6,0,0.6,0.6
								L16.5,36.5C17.1,36.5,17.1,36.5,16.5,36.5z"/>
						</g>
					</g>
					<g id="XMLID_139_">
						<g id="XMLID_140_">
							<path id="XMLID_26_" class="st1" d="M75.8,36.5C75.2,36.5,75.2,36.5,75.8,36.5l-0.6-14.8c0,0,0-0.6,0.6-0.6s0.6,0.6,0.6,0.6
								L75.8,36.5C76.4,36.5,75.8,36.5,75.8,36.5z"/>
						</g>
					</g>
					<g id="XMLID_136_">
						<g id="XMLID_137_">
							<path id="XMLID_25_" class="st1" d="M75.8,14.8C75.2,14.8,75.2,14.8,75.8,14.8L75.2,0.6c0,0,0-0.6,0.6-0.6s0.6,0,0.6,0.6
								L75.8,14.8C76.4,14.8,75.8,14.8,75.8,14.8z"/>
						</g>
					</g>
				</g>
			</g>
		</g>
	</g>
	<g id="XMLID_79_">
		<g id="XMLID_80_">
			<g id="XMLID_5_">
				<g id="XMLID_113_">
					<g id="XMLID_129_">
						<g id="XMLID_130_">
							<path id="XMLID_24_" class="st2" d="M221.5,75.2h-16V35.9l0,0C215.8,51.3,221.5,75.2,221.5,75.2z"/>
						</g>
					</g>
					<g id="XMLID_126_">
						<g id="XMLID_127_">
							<polygon id="XMLID_23_" class="st2" points="205.5,35.9 205.5,75.2 183.9,75.2 175.9,66.7 175.9,66.7 							"/>
						</g>
					</g>
					<g id="XMLID_123_">
						<g id="XMLID_124_">
							<polygon id="XMLID_22_" class="st3" points="175.9,67.2 175.9,67.2 167.9,75.2 167.9,75.2 							"/>
						</g>
					</g>
					<g id="XMLID_120_">
						<g id="XMLID_121_">
							<polygon id="XMLID_21_" class="st2" points="146.2,36.5 175.9,67.2 167.9,75.2 146.2,75.2 							"/>
						</g>
					</g>
					<g id="XMLID_117_">
						<g id="XMLID_118_">
							<path id="XMLID_18_" class="st3" d="M167.9,75.2h-37.6l0,0h16H167.9L167.9,75.2L167.9,75.2z"/>
						</g>
					</g>
					<g id="XMLID_114_">
						<g id="XMLID_115_">
							<path id="XMLID_17_" class="st2" d="M146.2,35.9L146.2,35.9v38.8h-16C130.9,72.9,136.5,50.7,146.2,35.9z"/>
						</g>
					</g>
				</g>
				<g id="XMLID_82_">
					<g id="XMLID_110_">
						<g id="XMLID_111_">
							<path id="XMLID_16_" class="st1" d="M221.5,75.8h-91.2c0,0-0.6,0-0.6-0.6c0,0,0-0.6,0.6-0.6h91.2
								C221.5,74.7,222,74.7,221.5,75.8C222,75.2,221.5,75.8,221.5,75.8z"/>
						</g>
					</g>
					<g id="XMLID_107_">
						<g id="XMLID_108_">
							<path id="XMLID_15_" class="st1" d="M130.3,75.8L130.3,75.8c-0.6,0-0.6-0.6-0.6-0.6s5.7-23.9,16-39.3c0,0,0,0,0.6,0h0.6
								l37.6,39.3v0.6h-0.6l-37-38.8C136,51.9,130.9,75.2,130.3,75.8C130.9,75.2,130.3,75.8,130.3,75.8z"/>
						</g>
					</g>
					<g id="XMLID_104_">
						<g id="XMLID_105_">
							<path id="XMLID_14_" class="st1" d="M221.5,75.8C220.9,75.8,220.9,75.2,221.5,75.8c-0.6-0.6-5.7-23.9-16-38.8l-37,38.8h-0.6
								v-0.6l37.6-39.3c0,0,0,0,0.6,0c0,0,0,0,0.6,0c10.3,15.4,16,39.3,16,39.3C222,75.2,222,75.8,221.5,75.8L221.5,75.8z"/>
						</g>
					</g>
					<g id="XMLID_101_">
						<g id="XMLID_102_">
							<path id="XMLID_13_" class="st1" d="M146.2,75.8C146.2,75.8,145.7,75.2,146.2,75.8l-0.6-39.3c0,0,0-0.6,0.6-0.6
								c0,0,0.6,0,0.6,0.6L146.2,75.8C146.8,75.2,146.2,75.8,146.2,75.8z"/>
						</g>
					</g>
					<g id="XMLID_98_">
						<g id="XMLID_99_">
							<path id="XMLID_12_" class="st1" d="M205.5,75.8C204.9,75.8,204.9,75.2,205.5,75.8l-0.6-39.3c0,0,0-0.6,0.6-0.6
								s0.6,0,0.6,0.6L205.5,75.8C206.1,75.2,205.5,75.8,205.5,75.8z"/>
						</g>
					</g>
					<g id="XMLID_95_">
						<g id="XMLID_96_">
							<path id="XMLID_11_" class="st1" d="M187.3,71.8L187.3,71.8l-5.1-5.7v-0.6h0.6l4.6,5.7C187.8,71.2,187.8,71.8,187.3,71.8
								C187.8,71.8,187.3,71.8,187.3,71.8z"/>
						</g>
					</g>
					<g id="XMLID_92_">
						<g id="XMLID_93_">
							<path id="XMLID_10_" class="st1" d="M163.9,71.8L163.9,71.8c-0.6-0.6-0.6-0.6-0.6-0.6l5.1-5.7h0.6v0.6L163.9,71.8L163.9,71.8
								z"/>
						</g>
					</g>
					<g id="XMLID_89_">
						<g id="XMLID_90_">
							<path id="XMLID_9_" class="st1" d="M146.2,36.5C146.2,36.5,145.7,36.5,146.2,36.5l-0.6-35.9c0,0,0-0.6,0.6-0.6
								c0,0,0.6,0,0.6,0.6L146.2,36.5C146.8,36.5,146.2,36.5,146.2,36.5z"/>
						</g>
					</g>
					<g id="XMLID_86_">
						<g id="XMLID_87_">
							<path id="XMLID_8_" class="st1" d="M205.5,36.5C204.9,36.5,204.9,36.5,205.5,36.5l-0.6-14.8c0,0,0-0.6,0.6-0.6s0.6,0,0.6,0.6
								L205.5,36.5C206.1,36.5,205.5,36.5,205.5,36.5z"/>
						</g>
					</g>
					<g id="XMLID_83_">
						<g id="XMLID_84_">
							<path id="XMLID_7_" class="st1" d="M205.5,14.8C204.9,14.8,204.9,14.8,205.5,14.8l-0.6-14.2c0,0,0-0.6,0.6-0.6s0.6,0,0.6,0.6
								L205.5,14.8C206.1,14.8,205.5,14.8,205.5,14.8z"/>
						</g>
					</g>
				</g>
			</g>
		</g>
	</g>
</g>
<g id="XMLID_112_">
	<g id="XMLID_109_">
		<g id="XMLID_635_">
			<g id="XMLID_645_">
				<g id="XMLID_646_">
					<path id="XMLID_354_" class="st3" d="M497.9,38.3L497.9,38.3L497.9,38.3C508.8,53.2,514,75.6,514,75.6h-16.1V38.3z"/>
				</g>
			</g>
			<g id="XMLID_642_">
				<g id="XMLID_643_">
					<polygon id="XMLID_353_" class="st3" points="471.5,75.6 473.2,61.8 482.4,54.3 487,42.9 497.9,38.3 497.9,75.6 476.1,75.6 
											"/>
				</g>
			</g>
			<g id="XMLID_639_">
				<g id="XMLID_640_">
					<polygon id="XMLID_352_" class="st3" points="462.9,61.8 464.6,75.6 438.3,75.6 438.3,38.3 449.2,42.9 453.7,54.3 					"/>
				</g>
			</g>
			<g id="XMLID_636_">
				<g id="XMLID_637_">
					<path id="XMLID_351_" class="st3" d="M438.3,38.3v37.3h-16.1C422.8,73.3,428.5,52.6,438.3,38.3L438.3,38.3z"/>
				</g>
			</g>
		</g>
		<g id="XMLID_598_">
			<g id="XMLID_632_">
				<g id="XMLID_633_">
					<path id="XMLID_350_" class="st1" d="M514,75.6h-91.8c0,0-0.6,0-0.6-0.6s0-0.6,0.6-0.6H514C514.5,75,514.5,75,514,75.6
						C514.5,75.6,514.5,75.6,514,75.6z"/>
				</g>
			</g>
			<g id="XMLID_629_">
				<g id="XMLID_630_">
					<path id="XMLID_349_" class="st1" d="M422.2,75.6L422.2,75.6c-0.6,0-0.6-0.6-0.6-0.6s5.7-22.4,16.1-37.9h0.6v0.6
						C428.5,53.2,422.8,75,422.2,75.6C422.8,75.6,422.2,75.6,422.2,75.6z"/>
				</g>
			</g>
			<g id="XMLID_626_">
				<g id="XMLID_627_">
					<path id="XMLID_348_" class="st1" d="M514,75.6C514,75.6,513.4,75.6,514,75.6c-0.6-0.6-6.3-22.4-16.6-37.9v-0.6h0.6
						C508.2,52.6,514,74.4,514,75C514.5,75.6,514.5,75.6,514,75.6L514,75.6z"/>
				</g>
			</g>
			<g id="XMLID_623_">
				<g id="XMLID_624_">
					<path id="XMLID_347_" class="st1" d="M438.3,75.6C438.3,75.6,437.7,75.6,438.3,75.6l-0.6-37.9c0,0,0-0.6,0.6-0.6
						c0.6,0,0.6,0,0.6,0.6L438.3,75.6C438.8,75.6,438.8,75.6,438.3,75.6z"/>
				</g>
			</g>
			<g id="XMLID_620_">
				<g id="XMLID_621_">
					<path id="XMLID_346_" class="st1" d="M497.9,75.6C497.3,75.6,497.3,75.6,497.9,75.6l-0.6-37.9c0,0,0-0.6,0.6-0.6s0.6,0,0.6,0.6
						L497.9,75.6C498.5,75.6,497.9,75.6,497.9,75.6z"/>
				</g>
			</g>
			<g id="XMLID_617_">
				<g id="XMLID_618_">
					<path id="XMLID_345_" class="st1" d="M461.8,72.1C461.8,72.1,461.2,72.1,461.8,72.1l-1.1-8c0,0,0-0.6,0.6-0.6
						c0,0,0.6,0,0.6,0.6V72.1C462.4,72.1,462.4,72.1,461.8,72.1L461.8,72.1z"/>
				</g>
			</g>
			<g id="XMLID_614_">
				<g id="XMLID_615_">
					<path id="XMLID_344_" class="st1" d="M474.4,72.1L474.4,72.1C473.8,72.1,473.8,72.1,474.4,72.1l0.6-8c0,0,0-0.6,0.6-0.6
						c0,0,0.6,0,0.6,0.6L474.4,72.1C475,72.1,474.4,72.1,474.4,72.1z"/>
				</g>
			</g>
			<g id="XMLID_611_">
				<g id="XMLID_612_">
					<path id="XMLID_343_" class="st1" d="M438.3,38.3C438.3,38.3,437.7,38.3,438.3,38.3l-0.6-21.2c0,0,0-0.6,0.6-0.6
						c0.6,0,0.6,0,0.6,0.6L438.3,38.3C438.8,38.3,438.8,38.3,438.3,38.3z"/>
				</g>
			</g>
			<g id="XMLID_608_">
				<g id="XMLID_609_">
					<path id="XMLID_342_" class="st1" d="M497.9,38.3C497.3,38.3,497.3,38.3,497.9,38.3l-0.6-37.9c0,0,0-0.6,0.6-0.6s0.6,0,0.6,0.6
						L497.9,38.3C498.5,38.3,497.9,38.3,497.9,38.3z"/>
				</g>
			</g>
			<g id="XMLID_605_">
				<g id="XMLID_606_">
					<path id="XMLID_341_" class="st1" d="M438.3,8.4C438.3,8.4,437.7,8.4,438.3,8.4l-0.6-8.6c0,0,0-0.6,0.6-0.6
						c0.6,0,0.6,0,0.6,0.6L438.3,8.4C438.8,8.4,438.8,8.4,438.3,8.4z"/>
				</g>
			</g>
			<g id="XMLID_602_">
				<g id="XMLID_603_">
					<path id="XMLID_340_" class="st1" d="M464.6,75.6C464.1,75.6,464.1,75.6,464.6,75.6l-2.3-13.8l-9.2-7.5l0,0l-4.6-11.5
						l-10.3-4.6c0,0-0.6-0.6,0-0.6c0,0,0.6-0.6,0.6,0l10.9,4.6l0,0l4.6,11.5l9.2,7.5c0,0,0,0,0,0.6L464.6,75.6
						C465.2,75.6,464.6,75.6,464.6,75.6L464.6,75.6z"/>
				</g>
			</g>
			<g id="XMLID_599_">
				<g id="XMLID_600_">
					<path id="XMLID_339_" class="st1" d="M471.5,75.6L471.5,75.6C471.5,75.6,471,75.6,471.5,75.6l1.1-13.8c0,0,0,0,0-0.6l9.2-7.5
						l4.6-11.5l0,0l10.9-4.6h0.6v0.6l-10.3,4.6L483,54.3l0,0l-9.2,7.5L471.5,75.6C472.1,75.6,472.1,75.6,471.5,75.6z"/>
				</g>
			</g>
		</g>
	</g>
	<g id="XMLID_106_">
		<g id="XMLID_584_">
			<g id="XMLID_594_">
				<g id="XMLID_595_">
					<path id="XMLID_338_" class="st4" d="M629.5,37.7C640.4,53.2,645.5,75,645.5,75h-16.1V37.7L629.5,37.7L629.5,37.7z"/>
				</g>
			</g>
			<g id="XMLID_591_">
				<g id="XMLID_592_">
					<polygon id="XMLID_337_" class="st0" points="603.1,75.6 604.8,61.8 614,54.3 618.6,42.9 629.5,38.3 629.5,75.6 607.7,75.6 
											"/>
				</g>
			</g>
			<g id="XMLID_588_">
				<g id="XMLID_589_">
					<polygon id="XMLID_336_" class="st0" points="594.5,61.8 596.2,75.6 569.8,75.6 569.8,38.3 580.7,42.9 585.3,54.3 					"/>
				</g>
			</g>
			<g id="XMLID_585_">
				<g id="XMLID_586_">
					<path id="XMLID_335_" class="st0" d="M569.8,38.3v37.3h-16.1C554.3,73.3,560.1,52.6,569.8,38.3L569.8,38.3z"/>
				</g>
			</g>
		</g>
		<g id="XMLID_547_">
			<g id="XMLID_581_">
				<g id="XMLID_582_">
					<path id="XMLID_334_" class="st1" d="M645.5,75.6h-91.8c0,0-0.6,0-0.6-0.6s0-0.6,0.6-0.6h91.8C645.5,75,646.1,75,645.5,75.6
						C646.1,75.6,645.5,75.6,645.5,75.6z"/>
				</g>
			</g>
			<g id="XMLID_578_">
				<g id="XMLID_579_">
					<path id="XMLID_333_" class="st1" d="M553.8,75.6L553.8,75.6c-0.6,0-0.6-0.6-0.6-0.6s5.7-22.4,16.1-37.9h0.6v0.6
						C560.1,53.2,554.3,75,553.8,75.6C554.3,75.6,553.8,75.6,553.8,75.6z"/>
				</g>
			</g>
			<g id="XMLID_575_">
				<g id="XMLID_576_">
					<path id="XMLID_332_" class="st0" d="M645.5,75.6C645.5,75.6,645,75.6,645.5,75.6c-0.6-0.6-6.3-22.4-16.6-37.9v-0.6h0.6
						c10.3,15.5,16.1,37.3,16.1,37.9C646.1,75.6,646.1,75.6,645.5,75.6L645.5,75.6z"/>
				</g>
			</g>
			<g id="XMLID_572_">
				<g id="XMLID_573_">
					<path id="XMLID_331_" class="st1" d="M569.8,75.6C569.8,75.6,569.2,75.6,569.8,75.6l-0.6-37.9c0,0,0-0.6,0.6-0.6s0.6,0,0.6,0.6
						L569.8,75.6C570.4,75.6,570.4,75.6,569.8,75.6z"/>
				</g>
			</g>
			<g id="XMLID_569_">
				<g id="XMLID_570_">
					<path id="XMLID_330_" class="st1" d="M629.5,75.6C628.9,75.6,628.9,75.6,629.5,75.6l-0.6-37.9c0,0,0-0.6,0.6-0.6s0.6,0,0.6,0.6
						L629.5,75.6C630,75.6,629.5,75.6,629.5,75.6z"/>
				</g>
			</g>
			<g id="XMLID_566_">
				<g id="XMLID_567_">
					<path id="XMLID_329_" class="st1" d="M593.3,72.1C593.3,72.1,592.8,72.1,593.3,72.1l-1.1-8c0,0,0-0.6,0.6-0.6
						c0,0,0.6,0,0.6,0.6L593.3,72.1C593.9,72.1,593.9,72.1,593.3,72.1L593.3,72.1z"/>
				</g>
			</g>
			<g id="XMLID_563_">
				<g id="XMLID_564_">
					<path id="XMLID_328_" class="st1" d="M606,72.1L606,72.1C605.4,72.1,605.4,72.1,606,72.1l0.6-8l0.6-0.6c0,0,0.6,0,0.6,0.6
						L606,72.1C606.5,72.1,606,72.1,606,72.1z"/>
				</g>
			</g>
			<g id="XMLID_560_">
				<g id="XMLID_561_">
					<path id="XMLID_327_" class="st1" d="M569.8,38.3C569.8,38.3,569.2,38.3,569.8,38.3l-0.6-21.2c0,0,0-0.6,0.6-0.6s0.6,0,0.6,0.6
						L569.8,38.3C570.4,38.3,570.4,38.3,569.8,38.3z"/>
				</g>
			</g>
			<g id="XMLID_557_">
				<g id="XMLID_558_">
					<path id="XMLID_326_" class="st1" d="M629.5,38.3C628.9,38.3,628.9,38.3,629.5,38.3l-0.6-38.4c0,0,0-0.6,0.6-0.6s0.6,0,0.6,0.6
						L629.5,38.3C630,38.3,629.5,38.3,629.5,38.3z"/>
				</g>
			</g>
			<g id="XMLID_554_">
				<g id="XMLID_555_">
					<path id="XMLID_320_" class="st1" d="M569.8,8.4C569.8,8.4,569.2,8.4,569.8,8.4l-0.6-8.6c0,0,0-0.6,0.6-0.6s0.6,0,0.6,0.6
						L569.8,8.4C570.4,8.4,570.4,8.4,569.8,8.4z"/>
				</g>
			</g>
			<g id="XMLID_551_">
				<g id="XMLID_552_">
					<path id="XMLID_319_" class="st1" d="M596.2,75.6C595.6,75.6,595.6,75.6,596.2,75.6l-2.3-13.8l-9.2-7.5l0,0l-4.6-11.5
						l-10.3-4.6c0,0-0.6-0.6,0-0.6c0,0,0.6-0.6,0.6,0l10.9,4.6l0,0l4.6,11.5l9.2,7.5c0,0,0,0,0,0.6L596.2,75.6
						C596.8,75.6,596.2,75.6,596.2,75.6L596.2,75.6z"/>
				</g>
			</g>
			<g id="XMLID_548_">
				<g id="XMLID_549_">
					<path id="XMLID_314_" class="st1" d="M603.1,75.6L603.1,75.6C603.1,75.6,602.5,75.6,603.1,75.6l1.1-13.8c0,0,0,0,0-0.6l9.2-7.5
						l4.6-11.5l0,0l10.9-4.6h0.6v0.6l-10.3,4.6l-4.6,11.5l0,0l-9.2,7.5L603.1,75.6C603.7,75.6,603.7,75.6,603.1,75.6z"/>
				</g>
			</g>
		</g>
	</g>
	<g id="XMLID_103_">
		<g id="XMLID_533_">
			<g id="XMLID_543_">
				<g id="XMLID_544_">
					<path id="XMLID_310_" class="st2" d="M775,75.6h-16.1V38.3l0,0l0,0C769.2,53.2,775,75.6,775,75.6z"/>
				</g>
			</g>
			<g id="XMLID_540_">
				<g id="XMLID_541_">
					<polygon id="XMLID_304_" class="st2" points="732.5,75.6 734.2,61.8 743.4,54.3 748,42.9 758.9,38.3 758.9,75.6 737.1,75.6 
											"/>
				</g>
			</g>
			<g id="XMLID_537_">
				<g id="XMLID_538_">
					<polygon id="XMLID_303_" class="st2" points="723.9,61.8 725.6,75.6 699.3,75.6 699.3,38.3 710.1,42.9 714.7,54.3 					"/>
				</g>
			</g>
			<g id="XMLID_534_">
				<g id="XMLID_535_">
					<path id="XMLID_297_" class="st2" d="M699.3,38.3v37.3h-16.1C683.8,73.3,689.5,52.6,699.3,38.3L699.3,38.3z"/>
				</g>
			</g>
		</g>
		<g id="XMLID_496_">
			<g id="XMLID_530_">
				<g id="XMLID_531_">
					<path id="XMLID_296_" class="st1" d="M775,75.6h-91.8c0,0-0.6,0-0.6-0.6s0-0.6,0.6-0.6H775C775,75,775.5,75,775,75.6
						C775.5,75.6,775,75.6,775,75.6z"/>
				</g>
			</g>
			<g id="XMLID_527_">
				<g id="XMLID_528_">
					<path id="XMLID_291_" class="st1" d="M683.2,75.6L683.2,75.6c-0.6,0-0.6-0.6-0.6-0.6s5.7-22.4,16.1-37.9h0.6v0.6
						C689.5,53.2,683.8,75,683.2,75.6C683.8,75.6,683.2,75.6,683.2,75.6z"/>
				</g>
			</g>
			<g id="XMLID_524_">
				<g id="XMLID_525_">
					<path id="XMLID_287_" class="st1" d="M775,75.6C775,75.6,774.4,75.6,775,75.6c-0.6-0.6-6.3-22.4-16.6-37.9v-0.6h0.6
						C769.2,52.6,775,74.4,775,75C775.5,75.6,775.5,75.6,775,75.6L775,75.6z"/>
				</g>
			</g>
			<g id="XMLID_521_">
				<g id="XMLID_522_">
					<path id="XMLID_281_" class="st1" d="M699.3,75.6C699.3,75.6,698.7,75.6,699.3,75.6l-0.6-37.9c0,0,0-0.6,0.6-0.6
						c0,0,0.6,0,0.6,0.6L699.3,75.6C699.8,75.6,699.3,75.6,699.3,75.6z"/>
				</g>
			</g>
			<g id="XMLID_518_">
				<g id="XMLID_519_">
					<path id="XMLID_280_" class="st1" d="M758.9,75.6C758.3,75.6,758.3,75.6,758.9,75.6l-0.6-37.9c0,0,0-0.6,0.6-0.6
						c0.6,0,0.6,0,0.6,0.6L758.9,75.6C759.5,75.6,758.9,75.6,758.9,75.6z"/>
				</g>
			</g>
			<g id="XMLID_515_">
				<g id="XMLID_516_">
					<path id="XMLID_275_" class="st1" d="M722.8,72.1C722.8,72.1,722.2,72.1,722.8,72.1l-1.1-8c0,0,0-0.6,0.6-0.6
						c0,0,0.6,0,0.6,0.6V72.1C723.3,72.1,723.3,72.1,722.8,72.1L722.8,72.1z"/>
				</g>
			</g>
			<g id="XMLID_512_">
				<g id="XMLID_513_">
					<path id="XMLID_274_" class="st1" d="M735.4,72.1L735.4,72.1C734.8,72.1,734.8,72.1,735.4,72.1l0.6-8l0.6-0.6
						c0,0,0.6,0,0.6,0.6L735.4,72.1C736,72.1,735.4,72.1,735.4,72.1z"/>
				</g>
			</g>
			<g id="XMLID_509_">
				<g id="XMLID_510_">
					<path id="XMLID_268_" class="st1" d="M699.3,38.3C699.3,38.3,698.7,38.3,699.3,38.3l-0.6-21.2c0,0,0-0.6,0.6-0.6
						c0,0,0.6,0,0.6,0.6L699.3,38.3C699.8,38.3,699.3,38.3,699.3,38.3z"/>
				</g>
			</g>
			<g id="XMLID_506_">
				<g id="XMLID_507_">
					<path id="XMLID_267_" class="st1" d="M758.9,38.3C758.3,38.3,758.3,38.3,758.9,38.3l-0.6-38.4c0,0,0-0.6,0.6-0.6
						c0.6,0,0.6,0,0.6,0.6L758.9,38.3C759.5,38.3,758.9,38.3,758.9,38.3z"/>
				</g>
			</g>
			<g id="XMLID_503_">
				<g id="XMLID_504_">
					<path id="XMLID_262_" class="st1" d="M699.3,8.4C699.3,8.4,698.7,8.4,699.3,8.4l-0.6-8.6c0,0,0-0.6,0.6-0.6c0,0,0.6,0,0.6,0.6
						L699.3,8.4C699.8,8.4,699.3,8.4,699.3,8.4z"/>
				</g>
			</g>
			<g id="XMLID_500_">
				<g id="XMLID_501_">
					<path id="XMLID_258_" class="st1" d="M725.6,75.6C725.1,75.6,725.1,75.6,725.6,75.6l-2.3-13.2l-9.2-7.5l0,0l-4.6-11.5
						l-10.3-4.6c0,0-0.6-0.6,0-0.6c0,0,0.6-0.6,0.6,0l10.9,4.6l0,0l4.6,11.5l9.2,7.5c0,0,0,0,0,0.6L725.6,75.6
						C726.2,75.6,725.6,75.6,725.6,75.6L725.6,75.6z"/>
				</g>
			</g>
			<g id="XMLID_497_">
				<g id="XMLID_498_">
					<path id="XMLID_252_" class="st1" d="M732.5,75.6L732.5,75.6C732.5,75.6,731.9,75.6,732.5,75.6l1.1-13.8c0,0,0,0,0-0.6l9.2-7.5
						l4.6-11.5l0,0l10.9-4.6h0.6v0.6l-10.3,4.6L744,54.3l0,0l-9.2,8L732.5,75.6C733.1,75.6,733.1,75.6,732.5,75.6z"/>
				</g>
			</g>
		</g>
	</g>
	<g id="XMLID_465_">
		<g id="XMLID_482_">
			<g id="XMLID_489_">
				<g id="XMLID_490_">
					<g id="XMLID_491_">
						<path id="XMLID_492_" class="st5" d="M436,114v6.3c0,0,20.1,2.9,28.1,37.3h9.8c8-34.4,28.1-37.3,28.1-37.3V114H436z
							 M468.7,123.2l-2.9-3.4h5.7L468.7,123.2z"/>
					</g>
				</g>
			</g>
			<g id="XMLID_483_">
				<g id="XMLID_484_">
					<g id="XMLID_485_">
						<path id="XMLID_486_" class="st6" d="M468.7,123.7L468.7,123.7C468.7,123.7,468.7,123.2,468.7,123.7l-3.4-4v-0.6
							c0,0,0,0,0.6,0h5.7h0.6v0.6L468.7,123.7C469.2,123.2,468.7,123.7,468.7,123.7z M466.9,119.7l1.7,2.3l1.7-2.3H466.9z"/>
					</g>
				</g>
			</g>
		</g>
		<g id="XMLID_478_">
			<g id="XMLID_479_">
				<g id="XMLID_480_">
					<path id="XMLID_231_" class="st6" d="M443.4,121.4L443.4,121.4c-0.6,0-0.6-0.6-0.6-0.6l1.1-4.6l0.6-0.6l0.6,0.6L443.4,121.4
						C444,120.9,444,121.4,443.4,121.4z"/>
				</g>
			</g>
		</g>
		<g id="XMLID_474_">
			<g id="XMLID_475_">
				<g id="XMLID_476_">
					<path id="XMLID_226_" class="st5" d="M501.9,114"/>
				</g>
			</g>
		</g>
		<g id="XMLID_470_">
			<g id="XMLID_471_">
				<g id="XMLID_472_">
					<path id="XMLID_222_" class="st5" d="M436,114"/>
				</g>
			</g>
		</g>
		<g id="XMLID_466_">
			<g id="XMLID_467_">
				<g id="XMLID_468_">
					<path id="XMLID_218_" class="st6" d="M493.9,121.4C493.3,121.4,493.3,120.9,493.9,121.4l-1.7-5.2c0,0,0-0.6,0.6-0.6
						c0,0,0.6,0,0.6,0.6l1.1,4.6C494.5,120.9,494.5,121.4,493.9,121.4L493.9,121.4z"/>
				</g>
			</g>
		</g>
	</g>
	<g id="XMLID_439_">
		<g id="XMLID_452_">
			<g id="XMLID_459_">
				<g id="XMLID_460_">
					<g id="XMLID_461_">
						<path id="XMLID_462_" class="st0" d="M566.4,114v6.3c0,0,20.1,2.9,28.1,37.3h9.8c8-34.4,28.1-37.3,28.1-37.3V114H566.4z
							 M599.1,123.2l-2.9-3.4h5.7L599.1,123.2z"/>
					</g>
				</g>
			</g>
			<g id="XMLID_453_">
				<g id="XMLID_454_">
					<g id="XMLID_455_">
						<path id="XMLID_456_" class="st6" d="M599.1,123.7L599.1,123.7C599.1,123.7,599.1,123.2,599.1,123.7l-3.4-4v-0.6
							c0,0,0,0,0.6,0h5.7h0.6v0.6L599.1,123.7C599.6,123.2,599.6,123.7,599.1,123.7z M597.4,119.7l1.7,2.3l1.7-2.3H597.4z"/>
					</g>
				</g>
			</g>
		</g>
		<g id="XMLID_448_">
			<g id="XMLID_449_">
				<g id="XMLID_450_">
					<path id="XMLID_198_" class="st6" d="M574.4,121.4C574.4,121.4,573.8,121.4,574.4,121.4c-0.6,0-0.6-0.6-0.6-0.6l1.1-4.6
						l0.6-0.6l0.6,0.6L574.4,121.4C574.4,120.9,574.4,121.4,574.4,121.4z"/>
				</g>
			</g>
		</g>
		<g id="XMLID_444_">
			<g id="XMLID_445_">
				<g id="XMLID_446_">
					<path id="XMLID_194_" class="st7" d="M632.3,114"/>
				</g>
			</g>
		</g>
		<g id="XMLID_440_">
			<g id="XMLID_441_">
				<g id="XMLID_442_">
					<path id="XMLID_190_" class="st6" d="M624.3,121.4C624.3,121.4,624.3,120.9,624.3,121.4l-1.7-5.2c0,0,0-0.6,0.6-0.6
						c0,0,0.6,0,0.6,0.6l1.1,4.6C624.9,120.9,624.9,121.4,624.3,121.4L624.3,121.4z"/>
				</g>
			</g>
		</g>
	</g>
	<g id="XMLID_416_">
		<g id="XMLID_435_">
			<g id="XMLID_436_">
				<g id="XMLID_437_">
					<path id="XMLID_184_" class="st6" d="M444,121.4C443.4,121.4,443.4,121.4,444,121.4c-0.6,0-0.6-0.6-0.6-0.6l1.1-4.6l0.6-0.6
						l0.6,0.6L444,121.4C444,120.9,444,121.4,444,121.4z"/>
				</g>
			</g>
		</g>
		<g id="XMLID_429_">
			<g id="XMLID_430_">
				<g id="XMLID_431_">
					<path id="XMLID_432_" class="st6" d="M468.7,123.7L468.7,123.7C468.7,123.7,468.7,123.2,468.7,123.7l-3.4-4v-0.6c0,0,0,0,0.6,0
						h5.7h0.6v0.6L468.7,123.7C469.2,123.2,469.2,123.7,468.7,123.7z M466.9,119.7l1.7,2.3l1.7-2.3H466.9z"/>
				</g>
			</g>
		</g>
		<g id="XMLID_425_">
			<g id="XMLID_426_">
				<g id="XMLID_427_">
					<path id="XMLID_175_" class="st6" d="M469.2,158.1h-5.2c0,0-0.6,0-0.6-0.6c-8-33.8-27.5-36.7-27.5-36.7s-0.6,0-0.6-0.6V114
						c0,0,0-0.6,0.6-0.6h66c0,0,0.6,0,0.6,0.6s0,0.6-0.6,0.6h-65.4v5.7c1.1,0,5.7,1.7,10.9,5.7c5.7,4.6,13.2,13.8,17.2,31.5h4.6
						C469.2,157,469.2,157.6,469.2,158.1L469.2,158.1z"/>
				</g>
			</g>
		</g>
		<g id="XMLID_421_">
			<g id="XMLID_422_">
				<g id="XMLID_423_">
					<path id="XMLID_172_" class="st6" d="M473.8,158.1h-5.2c0,0-0.6,0-0.6-0.6c0,0,0-0.6,0.6-0.6h4.6c4-17.8,11.5-27,17.2-31.5
						c5.2-4,9.8-5.2,10.9-5.7V114H436c0,0-0.6,0-0.6-0.6c0-0.6,0-0.6,0.6-0.6h66c0,0,0.6,0,0.6,0.6v6.3c0,0,0,0.6-0.6,0.6
						C501.9,120.9,482.4,123.7,473.8,158.1C474.4,158.1,474.4,158.1,473.8,158.1z"/>
				</g>
			</g>
		</g>
		<g id="XMLID_417_">
			<g id="XMLID_418_">
				<g id="XMLID_419_">
					<path id="XMLID_169_" class="st6" d="M493.9,121.4C493.9,121.4,493.3,120.9,493.9,121.4l-1.7-5.2c0,0,0-0.6,0.6-0.6
						c0,0,0.6,0,0.6,0.6l1.1,4.6C494.5,120.9,494.5,121.4,493.9,121.4L493.9,121.4z"/>
				</g>
			</g>
		</g>
	</g>
	<g id="XMLID_384_">
		<g id="XMLID_100_">
			<g id="XMLID_404_">
				<g id="XMLID_413_">
					<g id="XMLID_414_">
						<path id="XMLID_165_" class="st8" d="M763.5,114v6.3c0,0-2.9,0.6-6.9,2.9l-1.7-2.3l-1.1-4.6V114L763.5,114L763.5,114z"/>
					</g>
				</g>
				<g id="XMLID_408_">
					<g id="XMLID_409_">
						<path id="XMLID_410_" class="st2" d="M754.9,120.9l1.7,2.3c-6.3,4-16.1,13.2-21.2,34.4h-5.2l0,0h-5.2
							c-5.7-23.5-16.1-32.1-22.9-35.6l2.3-1.1l1.1-4.6V114h47.6v2.3L754.9,120.9z M730.2,123.2l2.9-3.4h-5.7L730.2,123.2z"/>
					</g>
				</g>
				<g id="XMLID_405_">
					<g id="XMLID_406_">
						<path id="XMLID_156_" class="st8" d="M706.1,114v2.3l-1.1,4.6l-2.3,1.1c-3.4-1.7-5.2-1.7-5.2-1.7V114h0.6
							C698.1,114,706.1,114,706.1,114z"/>
					</g>
				</g>
			</g>
			<g id="XMLID_386_">
				<g id="XMLID_401_">
					<g id="XMLID_402_">
						<path id="XMLID_153_" class="st6" d="M705,121.4L705,121.4c-0.6,0-0.6-0.6-0.6-0.6l1.1-4.6l0.6-0.6l0.6,0.6L705,121.4
							C705.6,120.9,705,121.4,705,121.4z"/>
					</g>
				</g>
				<g id="XMLID_396_">
					<g id="XMLID_397_">
						<path id="XMLID_398_" class="st6" d="M730.2,123.7L730.2,123.7C729.6,123.7,729.6,123.2,730.2,123.7l-3.4-4v-0.6
							c0,0,0,0,0.6,0h5.7h0.6v0.6L730.2,123.7C730.2,123.2,730.2,123.7,730.2,123.7z M727.9,119.7l1.7,2.3l1.7-2.3H727.9z"/>
					</g>
				</g>
				<g id="XMLID_393_">
					<g id="XMLID_394_">
						<path id="XMLID_144_" class="st6" d="M730.2,158.1h-5.2c0,0-0.6,0-0.6-0.6c-5.7-23.5-16.6-32.1-22.4-35
							c-2.9-1.7-5.2-1.7-5.2-1.7s-0.6,0-0.6-0.6V114c0,0,0-0.6,0.6-0.6h0.6c0,0,0.6,0,0.6,0.6c0,0,0,0.6-0.6,0.6v5.7
							c0.6,0,2.9,0.6,5.2,1.7c6.3,2.9,17.2,12,22.9,35.6h4.6C730.2,157,730.8,157.6,730.2,158.1
							C730.8,158.1,730.2,158.1,730.2,158.1z"/>
					</g>
				</g>
				<g id="XMLID_390_">
					<g id="XMLID_391_">
						<path id="XMLID_141_" class="st6" d="M735.4,158.1h-5.2c0,0-0.6,0-0.6-0.6c0-0.6,0-0.6,0.6-0.6h4.6
							c5.2-21.2,14.3-30.4,21.8-34.4c2.9-1.7,5.7-2.3,6.3-2.9V114h-65.4c0,0-0.6,0-0.6-0.6c0-0.6,0-0.6,0.6-0.6h66
							c0,0,0.6,0,0.6,0.6v6.3c0,0,0,0.6-0.6,0.6c0,0-2.9,0.6-6.3,2.9C750.3,127.2,740.5,136.3,735.4,158.1
							C736,158.1,735.4,158.1,735.4,158.1z"/>
					</g>
				</g>
				<g id="XMLID_387_">
					<g id="XMLID_388_">
						<path id="XMLID_138_" class="st6" d="M754.9,121.4C754.9,121.4,754.9,120.9,754.9,121.4l-1.7-5.2c0,0,0-0.6,0.6-0.6
							c0,0,0.6,0,0.6,0.6l1.1,4.6C755.5,120.9,755.5,121.4,754.9,121.4C755.5,121.4,755.5,121.4,754.9,121.4z"/>
					</g>
				</g>
			</g>
		</g>
	</g>
	<g id="XMLID_361_">
		<g id="XMLID_380_">
			<g id="XMLID_381_">
				<g id="XMLID_382_">
					<path id="XMLID_134_" class="st6" d="M574.4,121.4L574.4,121.4c-0.6,0-0.6-0.6-0.6-0.6l1.1-4.6l0.6-0.6l0.6,0.6L574.4,121.4
						C575,120.9,574.4,121.4,574.4,121.4z"/>
				</g>
			</g>
		</g>
		<g id="XMLID_374_">
			<g id="XMLID_375_">
				<g id="XMLID_376_">
					<path id="XMLID_377_" class="st6" d="M599.6,123.7L599.6,123.7C599.1,123.7,599.1,123.2,599.6,123.7l-3.4-4v-0.6c0,0,0,0,0.6,0
						h5.7h0.6v0.6L599.6,123.7C599.6,123.2,599.6,123.7,599.6,123.7z M597.4,119.7l1.7,2.3l1.7-2.3H597.4z"/>
				</g>
			</g>
		</g>
		<g id="XMLID_370_">
			<g id="XMLID_371_">
				<g id="XMLID_372_">
					<path id="XMLID_125_" class="st6" d="M599.6,158.1h-5.2c0,0-0.6,0-0.6-0.6c-8-33.8-27.5-36.7-27.5-36.7s-0.6,0-0.6-0.6V114
						c0,0,0-0.6,0.6-0.6h66c0,0,0.6,0,0.6,0.6s0,0.6-0.6,0.6H567v5.7c1.1,0,5.7,1.7,10.9,5.7c5.7,4.6,13.2,13.8,17.2,31.5h4.6
						C599.6,157,600.2,157.6,599.6,158.1C600.2,158.1,599.6,158.1,599.6,158.1z"/>
				</g>
			</g>
		</g>
		<g id="XMLID_366_">
			<g id="XMLID_367_">
				<g id="XMLID_368_">
					<path id="XMLID_122_" class="st6" d="M604.8,158.1h-5.2c0,0-0.6,0-0.6-0.6c0,0,0-0.6,0.6-0.6h4.6c4-17.8,11.5-27,17.2-31.5
						c5.2-4,9.8-5.2,10.9-5.7V114H567c0,0-0.6,0-0.6-0.6c0-0.6,0-0.6,0.6-0.6h66c0,0,0.6,0,0.6,0.6v6.3c0,0,0,0.6-0.6,0.6
						C632.9,120.9,613.4,123.7,604.8,158.1C605.4,158.1,604.8,158.1,604.8,158.1z"/>
				</g>
			</g>
		</g>
		<g id="XMLID_362_">
			<g id="XMLID_363_">
				<g id="XMLID_364_">
					<path id="XMLID_119_" class="st6" d="M624.3,121.4C624.3,121.4,624.3,120.9,624.3,121.4l-1.7-5.2c0,0,0-0.6,0.6-0.6
						c0,0,0.6,0,0.6,0.6l1.1,4.6C624.9,120.9,624.9,121.4,624.3,121.4C624.9,121.4,624.9,121.4,624.3,121.4z"/>
				</g>
			</g>
		</g>
	</g>
	<g id="XMLID_357_">
		<g id="XMLID_358_">
			<g id="XMLID_359_">
				<path id="XMLID_116_" class="st7" d="M548.4,114"/>
			</g>
		</g>
	</g>
</g>
<g id="XMLID_356_">
	<g id="XMLID_816_">
		<g id="XMLID_846_">
			<g id="XMLID_847_">
				<g id="XMLID_848_">
					<path id="XMLID_546_" class="st5" d="M886,42.3l1.2-3.6l-7.9-4.2l-6.7-9.7H866l-8.5-22.4l-4.8,2.4l4.8,20.6
						c2.4,12.1-7.3,18.1-7.3,18.1l4.2,14.5v8.5H918V58l4.2-14.5c0,0-9.7-6-7.3-18.1l4.8-20.6L915,2.4l-8.5,22.4h-6.7l-6.7,9.7
						l-7.9,4.2l1.2,3.6H886z"/>
				</g>
			</g>
		</g>
		<g id="XMLID_817_">
			<g id="XMLID_842_">
				<g id="XMLID_843_">
					<g id="XMLID_844_">
						<path id="XMLID_545_" class="st6" d="M918.6,67.1h-46c0,0-0.6,0-0.6-0.6c0-0.6,0-0.6,0.6-0.6H918v-7.3h-62.3v7.3h7.3
							c0,0,0.6,0,0.6,0.6c0,0.6,0,0.6-0.6,0.6h-7.9c0,0-0.6,0-0.6-0.6V58c0,0,0-0.6,0.6-0.6h63.5c0,0,0.6,0,0.6,0.6L918.6,67.1
							C919.2,67.1,919.2,67.1,918.6,67.1z"/>
					</g>
				</g>
			</g>
			<g id="XMLID_838_">
				<g id="XMLID_839_">
					<g id="XMLID_840_">
						<path id="XMLID_542_" class="st6" d="M887.2,42.9h-1.8h-0.6v-0.6l1.2-3.6l-7.3-4.2l0,0l-6.7-9.7h-6c0,0-0.6,0-0.6-0.6
							l-4.2-11.5v-0.6h0.6l4.2,11.5h6h0.6l6.7,9.7l7.9,4.2c0,0,0.6,0.6,0,0.6l-1.2,3h1.2C887.8,42.3,887.8,42.3,887.2,42.9
							C887.8,42.9,887.8,42.9,887.2,42.9z"/>
					</g>
				</g>
			</g>
			<g id="XMLID_834_">
				<g id="XMLID_835_">
					<g id="XMLID_836_">
						<path id="XMLID_539_" class="st6" d="M855.1,58.6L855.1,58.6l-4.2-15.1v-0.6c0.6,0,9.1-6,6.7-17.5l-4.8-20.6V4.2l4.8-2.4
							c0,0,0,0,0.6,0l0,0l1.8,5.4v0.6h-0.6L857.5,3l-3.6,1.8l4.8,20c2.4,10.9-5.4,17.5-7.3,18.7l3.6,13.9
							C855.7,58,855.7,58.6,855.1,58.6L855.1,58.6z"/>
					</g>
				</g>
			</g>
			<g id="XMLID_830_">
				<g id="XMLID_831_">
					<g id="XMLID_832_">
						<path id="XMLID_536_" class="st6" d="M874.5,58.6C874.5,58.6,873.9,58.6,874.5,58.6C873.9,33.9,859.3,32,858.7,32
							c0,0-0.6,0-0.6-0.6c0,0,0-0.6,0.6-0.6C858.7,30.8,875.1,32.7,874.5,58.6C875.1,58.6,875.1,58.6,874.5,58.6z"/>
					</g>
				</g>
			</g>
			<g id="XMLID_826_">
				<g id="XMLID_827_">
					<g id="XMLID_828_">
						<path id="XMLID_532_" class="st6" d="M918.6,58.6L918.6,58.6c-0.6,0-0.6-0.6-0.6-0.6l3.6-13.9c-1.8-1.2-9.1-7.3-7.3-18.7
							l4.8-20l-3-2.4l-7.9,21.8c0,0,0,0.6-0.6,0.6h-6l-6.7,9.7l0,0l-7.3,4.2l1.2,3.6v0.6c0,0,0,0-0.6,0h-1.8c0,0-0.6,0-0.6-0.6
							c0,0,0-0.6,0.6-0.6h1.2l-1.2-3v-0.6l7.9-4.2l6.7-9.7c0,0,0,0,0.6,0h6L916.2,3l0,0c0,0,0,0,0.6,0l4.8,2.4c0,0,0.6,0.6,0,0.6
							l-4.8,20.6c-2.4,11.5,6.7,17.5,6.7,17.5v0.6L918.6,58.6C919.2,58.6,919.2,58.6,918.6,58.6z"/>
					</g>
				</g>
			</g>
			<g id="XMLID_822_">
				<g id="XMLID_823_">
					<g id="XMLID_824_">
						<path id="XMLID_529_" class="st6" d="M899.9,58.6C899.3,58.6,899.3,58.6,899.9,58.6c-0.6-7.9,0.6-13.9,3.6-18.7
							c0,0,0.6-0.6,0.6,0c0,0,0.6,0.6,0,0.6C901.7,44.7,899.9,50.8,899.9,58.6L899.9,58.6z"/>
					</g>
				</g>
			</g>
			<g id="XMLID_818_">
				<g id="XMLID_819_">
					<g id="XMLID_820_">
						<path id="XMLID_526_" class="st6" d="M909.5,34.5C909.5,34.5,908.9,34.5,909.5,34.5c-0.6-0.6-0.6-0.6,0-1.2c3-2.4,6-2.4,6-2.4
							s0.6,0,0.6,0.6c0,0,0,0.6-0.6,0.6C915.6,32,913.2,32,909.5,34.5L909.5,34.5z"/>
					</g>
				</g>
			</g>
		</g>
	</g>
	<g id="XMLID_782_">
		<g id="XMLID_812_">
			<g id="XMLID_813_">
				<g id="XMLID_814_">
					<path id="XMLID_523_" class="st9" d="M1005.7,42.3l1.2-3.6l-7.9-4.2l-6.7-9.7h-6.7l-7.9-22.4L973,4.8l4.8,20.6
						c2.4,12.1-7.3,18.1-7.3,18.1l4.2,14.5v8.5h63.5V58l4.2-14.5c0,0-9.7-6-7.3-18.1l4.8-20.6l-4.8-2.4l-8.5,22.4h-6.7l-6.7,9.7
						l-7.9,4.2l1.2,3.6C1006.9,42.3,1005.7,42.3,1005.7,42.3z"/>
				</g>
			</g>
		</g>
		<g id="XMLID_783_">
			<g id="XMLID_808_">
				<g id="XMLID_809_">
					<g id="XMLID_810_">
						<path id="XMLID_520_" class="st6" d="M1037.7,67.1h-46c0,0-0.6,0-0.6-0.6c0-0.6,0-0.6,0.6-0.6h45.3v-7.3h-62.3v7.3h7.3
							c0,0,0.6,0,0.6,0.6c0,0.6,0,0.6-0.6,0.6h-7.9c0,0-0.6,0-0.6-0.6V58c0,0,0-0.6,0.6-0.6h63.5c0,0,0.6,0,0.6,0.6L1037.7,67.1
							C1038.3,66.5,1038.3,67.1,1037.7,67.1z"/>
					</g>
				</g>
			</g>
			<g id="XMLID_804_">
				<g id="XMLID_805_">
					<g id="XMLID_806_">
						<path id="XMLID_517_" class="st6" d="M1006.9,42.9h-1.8h-0.6v-0.6l1.2-3.6l-7.3-4.2l0,0l-6.7-9.7h-6c0,0-0.6,0-0.6-0.6
							l-4.2-11.5v-0.6h0.6l4.2,11.5h6h0.6l6.7,9.7l7.9,4.2c0,0,0.6,0.6,0,0.6l-1.2,3h1.2C1006.9,41.7,1007.5,42.3,1006.9,42.9
							C1007.5,42.9,1006.9,42.9,1006.9,42.9z"/>
					</g>
				</g>
			</g>
			<g id="XMLID_800_">
				<g id="XMLID_801_">
					<g id="XMLID_802_">
						<path id="XMLID_514_" class="st6" d="M974.8,58.6C974.2,58.6,974.2,58.6,974.8,58.6l-4.2-15.1v-0.6c0.6,0,9.1-6,6.7-17.5
							l-4.8-20.6V4.2l4.8-2.4c0,0,0,0,0.6,0l0,0l1.8,4.8v0.6h-0.6L977.3,3l-3.6,1.8l4.8,20c2.4,10.9-5.4,17.5-6.7,18.7l3.6,13.9
							C974.8,58,974.8,58.6,974.8,58.6L974.8,58.6z"/>
					</g>
				</g>
			</g>
			<g id="XMLID_796_">
				<g id="XMLID_797_">
					<g id="XMLID_798_">
						<path id="XMLID_511_" class="st6" d="M993.6,58.6C993.6,58.6,993.6,58,993.6,58.6C993,33.9,978.5,32,977.9,32
							c0,0-0.6,0-0.6-0.6c0,0,0-0.6,0.6-0.6C978.5,30.8,994.2,32.7,993.6,58.6C994.2,58,994.2,58.6,993.6,58.6z"/>
					</g>
				</g>
			</g>
			<g id="XMLID_792_">
				<g id="XMLID_793_">
					<g id="XMLID_794_">
						<path id="XMLID_508_" class="st6" d="M1038.3,58.6C1037.7,58.6,1037.7,58.6,1038.3,58.6c-0.6,0-0.6-0.6-0.6-0.6l3.6-13.9
							c-1.8-1.2-9.1-7.3-7.3-18.7l4.8-20l-3-2.4l-7.9,21.8c0,0,0,0.6-0.6,0.6h-6l-6.7,9.7l0,0l-7.3,4.2l1.2,3.6v0.6c0,0,0,0-0.6,0
							h-1.8c0,0-0.6,0-0.6-0.6s0-0.6,0.6-0.6h1.2l-1.2-3v-0.6l7.9-4.2l6.7-9.7c0,0,0,0,0.6,0h6l8.5-21.8l0,0c0,0,0,0,0.6,0l4.8,2.4
							c0,0,0.6,0.6,0,0.6l-4.8,20.6c-2.4,11.5,6.7,17.5,6.7,17.5v0.6L1038.3,58.6L1038.3,58.6z"/>
					</g>
				</g>
			</g>
			<g id="XMLID_788_">
				<g id="XMLID_789_">
					<g id="XMLID_790_">
						<path id="XMLID_505_" class="st6" d="M1019,58.6C1018.4,58.6,1018.4,58,1019,58.6c-0.6-7.9,0.6-13.9,3.6-18.7
							c0,0,0.6-0.6,0.6,0c0,0,0.6,0.6,0,0.6C1020.8,44.7,1019,50.8,1019,58.6C1019,58,1019,58.6,1019,58.6z"/>
					</g>
				</g>
			</g>
			<g id="XMLID_784_">
				<g id="XMLID_785_">
					<g id="XMLID_786_">
						<path id="XMLID_502_" class="st6" d="M1028.6,34.5C1028.6,34.5,1028.6,33.9,1028.6,34.5c-0.6-0.6-0.6-0.6,0-1.2
							c3-2.4,6-2.4,6-2.4s0.6,0,0.6,0.6c0,0,0,0.6-0.6,0.6C1034.7,32,1032.3,32,1028.6,34.5C1028.6,33.9,1028.6,34.5,1028.6,34.5z"
							/>
					</g>
				</g>
			</g>
		</g>
	</g>
	<g id="XMLID_744_">
		<g id="XMLID_778_">
			<g id="XMLID_779_">
				<g id="XMLID_780_">
					<path id="XMLID_499_" class="st8" d="M1132.6,41.7l1.2-3.6l-7.9-4.8l-6.7-9.7h-6.7l-8.5-22.4l-4.8,2.4l4.8,21.2
						c2.4,12.1-7.3,18.1-7.3,18.1l4.2,14.5v8.5h64.7v-8.5l4.2-14.5c0,0-9.7-6-7.3-18.1l4.8-21.2l-4.8-2.4l-8.5,22.4h-6.7l-6,9.7
						l-7.9,4.2l1.2,3.6h-2.4V41.7z"/>
				</g>
			</g>
		</g>
		<g id="XMLID_749_">
			<g id="XMLID_774_">
				<g id="XMLID_775_">
					<g id="XMLID_776_">
						<path id="XMLID_495_" class="st6" d="M1165.9,66.5h-46.6c0,0-0.6,0-0.6-0.6c0-0.6,0-0.6,0.6-0.6h46V58h-62.9v7.3h7.3
							c0,0,0.6,0,0.6,0.6c0,0.6,0,0.6-0.6,0.6h-7.9c0,0-0.6,0-0.6-0.6v-8.5c0,0,0-0.6,0.6-0.6h64.7c0,0,0.6,0,0.6,0.6L1165.9,66.5
							C1166.5,66.5,1166.5,66.5,1165.9,66.5z"/>
					</g>
				</g>
			</g>
			<g id="XMLID_770_">
				<g id="XMLID_771_">
					<g id="XMLID_772_">
						<path id="XMLID_494_" class="st6" d="M1134.5,42.3h-1.8h-0.6v-0.6l1.2-3.6l-7.3-4.2l0,0l-6.7-9.7h-6c0,0-0.6,0-0.6-0.6
							l-4.2-11.5v-0.6h0.6l4.2,11.5h6h0.6l6.7,9.7l7.9,4.2c0,0,0.6,0.6,0,0.6l-1.2,3h1.2C1134.5,41.1,1135.1,41.7,1134.5,42.3
							C1135.1,41.7,1134.5,42.3,1134.5,42.3z"/>
					</g>
				</g>
			</g>
			<g id="XMLID_766_">
				<g id="XMLID_767_">
					<g id="XMLID_768_">
						<path id="XMLID_493_" class="st6" d="M1101.8,58C1101.8,58,1101.2,58,1101.8,58l-4.2-15.1v-0.6c0.6,0,9.7-6,6.7-18.1L1099.4,3
							V2.4l4.8-2.4c0,0,0,0,0.6,0l0,0l1.8,5.4V6h-0.6l-1.8-4.8l-3.6,1.8l4.8,20.6c2.4,11.5-5.4,17.5-7.3,18.7l3.6,14.5
							C1102.4,57.4,1102.4,58,1101.8,58L1101.8,58z"/>
					</g>
				</g>
			</g>
			<g id="XMLID_762_">
				<g id="XMLID_763_">
					<g id="XMLID_764_">
						<path id="XMLID_488_" class="st6" d="M1121.2,58C1121.2,58,1120.5,58,1121.2,58c-0.6-25.4-15.7-27.2-16.3-27.2
							c0,0-0.6,0-0.6-0.6c0,0,0-0.6,0.6-0.6S1121.8,32,1121.2,58C1121.8,58,1121.8,58,1121.2,58z"/>
					</g>
				</g>
			</g>
			<g id="XMLID_758_">
				<g id="XMLID_759_">
					<g id="XMLID_760_">
						<path id="XMLID_487_" class="st6" d="M1165.9,58L1165.9,58c-0.6,0-0.6-0.6-0.6-0.6l3.6-14.5c-1.8-1.2-9.7-7.9-7.3-18.7
							l4.8-20.6l-3.6-1.8l-8.5,21.8c0,0,0,0.6-0.6,0.6h-6l-6.7,9.7l0,0l-7.3,4.2l1.2,3.6v0.6c0,0,0,0-0.6,0h-1.8c0,0-0.6,0-0.6-0.6
							c0-0.6,0-0.6,0.6-0.6h1.2l-1.2-3v-0.6l7.9-4.2l6.7-9.7c0,0,0,0,0.6,0h6l8.5-22.4l0,0c0,0,0,0,0.6,0l4.8,2.4c0,0,0.6,0.6,0,0.6
							l-4.8,21.2c-2.4,11.5,6.7,17.5,6.7,18.1v0.6L1165.9,58C1166.5,58,1166.5,58,1165.9,58z"/>
					</g>
				</g>
			</g>
			<g id="XMLID_754_">
				<g id="XMLID_755_">
					<g id="XMLID_756_">
						<path id="XMLID_481_" class="st6" d="M1146.5,58C1146.5,58,1145.9,58,1146.5,58c-0.6-7.9,0.6-14.5,3.6-18.7c0,0,0.6-0.6,0.6,0
							c0,0,0.6,0.6,0,0.6C1148.4,44.1,1147.2,50.2,1146.5,58C1147.2,58,1147.2,58,1146.5,58z"/>
					</g>
				</g>
			</g>
			<g id="XMLID_750_">
				<g id="XMLID_751_">
					<g id="XMLID_752_">
						<path id="XMLID_477_" class="st6" d="M1156.8,33.3C1156.8,33.3,1156.2,33.3,1156.8,33.3c-0.6-0.6-0.6-0.6,0-1.2
							c3-2.4,6-2.4,6-2.4s0.6,0,0.6,0.6c0,0,0,0.6-0.6,0.6C1162.9,30.8,1159.8,31.4,1156.8,33.3L1156.8,33.3z"/>
					</g>
				</g>
			</g>
		</g>
		<g id="XMLID_745_">
			<g id="XMLID_746_">
				<g id="XMLID_747_">
					<path id="XMLID_473_" class="st7" d="M1133.9,33.9"/>
				</g>
			</g>
		</g>
	</g>
	<g id="XMLID_700_">
		<g id="XMLID_737_">
			<g id="XMLID_738_">
				<g id="XMLID_739_">
					<g id="XMLID_740_">
						<path id="XMLID_741_" class="st9" d="M1032.9,98.6h-52l-9.1,26c0,0,19.3,13.9,26.6,32h16.3c7.3-18.1,26.6-32,26.6-32
							L1032.9,98.6z M1006.9,119.7l-3-3.6h6L1006.9,119.7z"/>
					</g>
				</g>
			</g>
		</g>
		<g id="XMLID_733_">
			<g id="XMLID_734_">
				<g id="XMLID_735_">
					<polygon id="XMLID_463_" class="st10" points="980.9,98.6 1032.9,98.6 1006.9,110 					"/>
				</g>
			</g>
		</g>
		<g id="XMLID_701_">
			<g id="XMLID_708_">
				<g id="XMLID_729_">
					<g id="XMLID_730_">
						<g id="XMLID_731_">
							<path id="XMLID_458_" class="st6" d="M1006.3,157.2h-7.9c0,0-0.6,0-0.6-0.6c-7.3-17.5-26.6-31.4-26.6-31.4v-0.6l8.5-26
								c0,0,0-0.6,0.6-0.6h26c0,0,0.6,0,0.6,0.6c0,0.6,0,0.6-0.6,0.6h-26l-8.5,25.4c2.4,1.8,19.3,15.1,26.6,31.4h7.9
								C1006.9,156,1006.9,156,1006.3,157.2C1006.9,156.6,1006.9,157.2,1006.3,157.2z"/>
						</g>
					</g>
				</g>
				<g id="XMLID_725_">
					<g id="XMLID_726_">
						<g id="XMLID_727_">
							<path id="XMLID_457_" class="st6" d="M1006.3,110.6L1006.3,110.6l-7.9-3.6c0,0-0.6-0.6,0-0.6c0,0,0.6-0.6,0.6,0l7.9,3.6
								C1006.9,110,1006.9,110,1006.3,110.6C1006.9,110.6,1006.9,110.6,1006.3,110.6z"/>
						</g>
					</g>
				</g>
				<g id="XMLID_721_">
					<g id="XMLID_722_">
						<g id="XMLID_723_">
							<path id="XMLID_451_" class="st6" d="M991.2,104L991.2,104l-10.9-4.8c0,0-0.6-0.6,0-0.6c0,0,0.6-0.6,0.6,0l10.9,4.8
								C991.8,103.4,991.8,103.4,991.2,104C991.8,104,991.8,104,991.2,104z"/>
						</g>
					</g>
				</g>
				<g id="XMLID_717_">
					<g id="XMLID_718_">
						<g id="XMLID_719_">
							<path id="XMLID_447_" class="st6" d="M1014.7,157.2h-7.9c0,0-0.6,0-0.6-0.6c0-0.6,0-0.6,0.6-0.6h7.3
								c7.3-16.3,24.2-29.6,26.6-31.4l-8.5-25.4h-26c0,0-0.6,0-0.6-0.6c0-0.6,0-0.6,0.6-0.6h26c0,0,0.6,0,0.6,0.6l8.5,26v0.6
								C1041.3,125.2,1022.6,139.1,1014.7,157.2C1014.7,156.6,1014.7,157.2,1014.7,157.2z"/>
						</g>
					</g>
				</g>
				<g id="XMLID_713_">
					<g id="XMLID_714_">
						<g id="XMLID_715_">
							<path id="XMLID_443_" class="st6" d="M1006.3,110.6L1006.3,110.6c-0.6-0.6-0.6-0.6,0-1.2l8.5-3.6h0.6v0.6L1006.3,110.6
								C1006.9,110.6,1006.3,110.6,1006.3,110.6z"/>
						</g>
					</g>
				</g>
				<g id="XMLID_709_">
					<g id="XMLID_710_">
						<g id="XMLID_711_">
							<path id="XMLID_438_" class="st6" d="M1022.6,103.4C1022,103.4,1022,103.4,1022.6,103.4c-0.6-0.6-0.6-0.6,0-1.2l10.3-4.2h0.6
								v0.6L1022.6,103.4L1022.6,103.4z"/>
						</g>
					</g>
				</g>
			</g>
			<g id="XMLID_702_">
				<g id="XMLID_703_">
					<g id="XMLID_704_">
						<path id="XMLID_705_" class="st6" d="M1006.9,120.3C1006.9,120.3,1006.3,120.3,1006.9,120.3l-3.6-4.2v-0.6c0,0,0,0,0.6,0h6
							h0.6v0.6L1006.9,120.3L1006.9,120.3z M1005.1,116.1l1.8,2.4l1.8-2.4H1005.1z"/>
					</g>
				</g>
			</g>
		</g>
	</g>
	<g id="XMLID_661_">
		<g id="XMLID_694_">
			<g id="XMLID_695_">
				<g id="XMLID_696_">
					<path id="XMLID_697_" class="st8" d="M1159.8,98h-53.2l-9.1,26.6c0,0,20,13.9,27.2,32.7h16.3c7.9-18.1,27.2-32.7,27.2-32.7
						L1159.8,98z M1133.2,119.1l-3-3.6h6L1133.2,119.1z"/>
				</g>
			</g>
		</g>
		<g id="XMLID_662_">
			<g id="XMLID_669_">
				<g id="XMLID_690_">
					<g id="XMLID_691_">
						<g id="XMLID_692_">
							<path id="XMLID_420_" class="st6" d="M1132.6,157.8h-8.5c0,0-0.6,0-0.6-0.6c-7.3-18.1-27.2-32-27.2-32v-0.6l9.1-26.6
								c0,0,0-0.6,0.6-0.6h26.6c0,0,0.6,0,0.6,0.6c0,0.6,0,0.6-0.6,0.6H1106l-8.5,26c2.4,1.8,20,15.1,27.2,32h7.9
								C1133.2,156.6,1133.2,156.6,1132.6,157.8C1133.2,157.2,1133.2,157.8,1132.6,157.8z"/>
						</g>
					</g>
				</g>
				<g id="XMLID_686_">
					<g id="XMLID_687_">
						<g id="XMLID_688_">
							<path id="XMLID_415_" class="st6" d="M1132.6,110L1132.6,110l-7.9-3.6c0,0-0.6-0.6,0-0.6c0,0,0.6-0.6,0.6,0l7.9,3.6
								C1133.2,109.4,1133.2,109.4,1132.6,110C1133.2,110,1133.2,110,1132.6,110z"/>
						</g>
					</g>
				</g>
				<g id="XMLID_682_">
					<g id="XMLID_683_">
						<g id="XMLID_684_">
							<path id="XMLID_412_" class="st6" d="M1117.5,103.4L1117.5,103.4l-11.5-4.8c0,0-0.6-0.6,0-0.6c0,0,0.6-0.6,0.6,0l11.5,4.8
								C1118.1,102.2,1118.1,102.8,1117.5,103.4L1117.5,103.4z"/>
						</g>
					</g>
				</g>
				<g id="XMLID_678_">
					<g id="XMLID_679_">
						<g id="XMLID_680_">
							<path id="XMLID_411_" class="st6" d="M1141.1,157.8h-8.5c0,0-0.6,0-0.6-0.6s0-0.6,0.6-0.6h7.9c7.3-16.9,24.8-30.2,27.2-32
								l-8.5-26h-26.6c0,0-0.6,0-0.6-0.6c0-0.6,0-0.6,0.6-0.6h26.6c0,0,0.6,0,0.6,0.6l9.1,26.6v0.6
								C1168.3,125.2,1149,139.1,1141.1,157.8C1141.7,157.2,1141.1,157.8,1141.1,157.8z"/>
						</g>
					</g>
				</g>
				<g id="XMLID_674_">
					<g id="XMLID_675_">
						<g id="XMLID_676_">
							<path id="XMLID_407_" class="st6" d="M1132.6,110L1132.6,110c-0.6-0.6-0.6-0.6,0-1.2l8.5-3.6h0.6v0.6L1132.6,110
								C1133.2,110,1132.6,110,1132.6,110z"/>
						</g>
					</g>
				</g>
				<g id="XMLID_670_">
					<g id="XMLID_671_">
						<g id="XMLID_672_">
							<path id="XMLID_403_" class="st6" d="M1149,102.8C1149,102.8,1148.4,102.8,1149,102.8c-0.6-0.6-0.6-0.6,0-1.2l10.3-4.8h0.6
								v0.6L1149,102.8L1149,102.8z"/>
						</g>
					</g>
				</g>
			</g>
			<g id="XMLID_663_">
				<g id="XMLID_664_">
					<g id="XMLID_665_">
						<path id="XMLID_666_" class="st6" d="M1133.2,119.7C1133.2,119.7,1132.6,119.7,1133.2,119.7l-3.6-4.2v-0.6c0,0,0,0,0.6,0h6
							h0.6v0.6L1133.2,119.7L1133.2,119.7z M1131.4,116.1l1.8,2.4l1.8-2.4H1131.4z"/>
					</g>
				</g>
			</g>
		</g>
	</g>
	<g id="XMLID_556_">
		<g id="XMLID_654_">
			<g id="XMLID_655_">
				<g id="XMLID_656_">
					<g id="XMLID_657_">
						<path id="XMLID_658_" class="st5" d="M912.6,98h-51.4l-8.5,25.4c0,0,18.7,13.3,26.6,31.4H895c7.3-17.5,26.6-31.4,26.6-31.4
							L912.6,98z M887.2,118.5l-3-3.6h6L887.2,118.5z"/>
					</g>
				</g>
			</g>
		</g>
		<g id="XMLID_650_">
			<g id="XMLID_651_">
				<g id="XMLID_652_">
					<polygon id="XMLID_389_" class="st2" points="861.2,98 912.6,98 887.2,109.4 					"/>
				</g>
			</g>
		</g>
		<g id="XMLID_559_">
			<g id="XMLID_580_">
				<g id="XMLID_644_">
					<g id="XMLID_647_">
						<g id="XMLID_648_">
							<path id="XMLID_385_" class="st6" d="M887.2,155.4h-7.9c0,0-0.6,0-0.6-0.6c-7.3-17.5-26-30.8-26-30.8v-0.6l8.5-25.4
								c0,0,0-0.6,0.6-0.6h25.4c0,0,0.6,0,0.6,0.6c0,0.6,0,0.6-0.6,0.6h-25.4l-8.5,24.8c2.4,1.8,19.3,14.5,26,30.8h7.9
								C887.2,154.2,887.8,154.8,887.2,155.4C887.8,154.8,887.2,155.4,887.2,155.4z"/>
						</g>
					</g>
				</g>
				<g id="XMLID_631_">
					<g id="XMLID_634_">
						<g id="XMLID_638_">
							<path id="XMLID_383_" class="st6" d="M887.2,110L887.2,110l-7.9-3.6c0,0-0.6-0.6,0-0.6c0,0,0.6-0.6,0.6,0l7.3,3
								C887.8,108.8,887.8,109.4,887.2,110C887.2,109.4,887.2,110,887.2,110z"/>
						</g>
					</g>
				</g>
				<g id="XMLID_619_">
					<g id="XMLID_622_">
						<g id="XMLID_625_">
							<path id="XMLID_379_" class="st6" d="M872,103.4L872,103.4l-10.9-4.8c0,0-0.6-0.6,0-0.6c0,0,0.6-0.6,0.6,0l10.9,4.8
								C872.6,102.2,872.6,102.8,872,103.4C872.6,103.4,872.6,103.4,872,103.4z"/>
						</g>
					</g>
				</g>
				<g id="XMLID_607_">
					<g id="XMLID_610_">
						<g id="XMLID_613_">
							<path id="XMLID_378_" class="st6" d="M895,155.4h-7.9c0,0-0.6,0-0.6-0.6c0-0.6,0-0.6,0.6-0.6h7.3c6.7-16.3,23.6-29,26-30.8
								l-8.5-24.8h-24.8c0,0-0.6,0-0.6-0.6c0-0.6,0-0.6,0.6-0.6h25.4c0,0,0.6,0,0.6,0.6l8.5,25.4v0.6
								C921.6,124,902.9,137.9,895,155.4L895,155.4z"/>
						</g>
					</g>
				</g>
				<g id="XMLID_596_">
					<g id="XMLID_597_">
						<g id="XMLID_601_">
							<path id="XMLID_373_" class="st6" d="M887.2,110C886.6,110,886.6,109.4,887.2,110c-0.6-0.6-0.6-0.6,0-1.2l8.5-3.6h0.6v0.6
								L887.2,110L887.2,110z"/>
						</g>
					</g>
				</g>
				<g id="XMLID_583_">
					<g id="XMLID_587_">
						<g id="XMLID_590_">
							<path id="XMLID_369_" class="st6" d="M902.9,102.8C902.3,102.8,902.3,102.8,902.9,102.8c-0.6-0.6-0.6-0.6,0-1.2l10.3-4.2h0.6
								V98L902.9,102.8L902.9,102.8z"/>
						</g>
					</g>
				</g>
			</g>
			<g id="XMLID_562_">
				<g id="XMLID_565_">
					<g id="XMLID_568_">
						<path id="XMLID_571_" class="st6" d="M887.2,119.1L887.2,119.1l-3-3.6v-0.6c0,0,0,0,0.6,0h6h0.6v0.6L887.2,119.1
							C887.8,119.1,887.8,119.1,887.2,119.1z M885.3,115.5l1.8,2.4l1.8-2.4H885.3z"/>
					</g>
				</g>
			</g>
		</g>
	</g>
</g>
</svg>
